<svg xmlns="http://www.w3.org/2000/svg" viewBox="642 348 16 16">
<clipPath id="ca650_356"><circle cx="650" cy="356" r="8"/></clipPath>
<g clip-path="url(#ca650_356)">
<rect x="642" y="348" width="16" height="16" fill="#6e6346"/>
<circle cx="651.1" cy="363.4" r="0.6" fill="#dcc89c" opacity="0.44"/>
<circle cx="653.3" cy="357.9" r="1.3" fill="#dcc89c" opacity="0.34"/>
<circle cx="646.8" cy="352.0" r="0.9" fill="#dcc89c" opacity="0.4"/>
<circle cx="652.5" cy="362.5" r="0.6" fill="#dcc89c" opacity="0.35"/>
<circle cx="653.9" cy="356.5" r="0.8" fill="#dcc89c" opacity="0.48"/>
<circle cx="648.1" cy="357.8" r="0.7" fill="#dcc89c" opacity="0.5"/>
<circle cx="655.5" cy="358.3" r="0.8" fill="#dcc89c" opacity="0.43"/>
<circle cx="646.7" cy="361.4" r="0.9" fill="#dcc89c" opacity="0.43"/>
<circle cx="654.7" cy="352.6" r="0.6" fill="#dcc89c" opacity="0.31"/>
<circle cx="655.0" cy="354.2" r="0.7" fill="#dcc89c" opacity="0.49"/>
<circle cx="644.3" cy="352.9" r="1.2" fill="#dcc89c" opacity="0.36"/>
<circle cx="645.6" cy="361.6" r="0.6" fill="#dcc89c" opacity="0.45"/>
<circle cx="655.2" cy="359.6" r="1.1" fill="#dcc89c" opacity="0.49"/>
<circle cx="653.0" cy="351.5" r="0.7" fill="#dcc89c" opacity="0.33"/>
<circle cx="644.7" cy="355.0" r="0.6" fill="#dcc89c" opacity="0.48"/>
<circle cx="643.6" cy="355.7" r="0.7" fill="#dcc89c" opacity="0.35"/>
<circle cx="654.4" cy="356.3" r="0.7" fill="#dcc89c" opacity="0.38"/>
<circle cx="645.0" cy="360.8" r="1.2" fill="#dcc89c" opacity="0.34"/>
<circle cx="647.5" cy="357.9" r="1.0" fill="#dcc89c" opacity="0.49"/>
<circle cx="652.0" cy="362.4" r="0.7" fill="#dcc89c" opacity="0.3"/>
<circle cx="650.4" cy="351.6" r="0.6" fill="#dcc89c" opacity="0.39"/>
<circle cx="650.6" cy="360.8" r="0.9" fill="#dcc89c" opacity="0.38"/>
<circle cx="646.5" cy="353.8" r="0.6" fill="#dcc89c" opacity="0.32"/>
<circle cx="654.3" cy="359.4" r="0.8" fill="#dcc89c" opacity="0.46"/>
<circle cx="643.6" cy="355.8" r="1.3" fill="#dcc89c" opacity="0.31"/>
<circle cx="652.8" cy="356.3" r="0.8" fill="#dcc89c" opacity="0.41"/>
<circle cx="649.8" cy="351.5" r="1.3" fill="#dcc89c" opacity="0.3"/>
<circle cx="651.8" cy="353.0" r="1.2" fill="#dcc89c" opacity="0.31"/>
<circle cx="656.5" cy="354.6" r="1.3" fill="#dcc89c" opacity="0.42"/>
<circle cx="653.3" cy="362.7" r="0.9" fill="#dcc89c" opacity="0.32"/>
<circle cx="645.8" cy="352.7" r="0.9" fill="#dcc89c" opacity="0.33"/>
<circle cx="654.2" cy="360.0" r="0.9" fill="#dcc89c" opacity="0.33"/>
<circle cx="644.0" cy="358.4" r="1.1" fill="#dcc89c" opacity="0.39"/>
<circle cx="646.4" cy="358.8" r="0.7" fill="#dcc89c" opacity="0.34"/>
<circle cx="648.8" cy="354.6" r="0.8" fill="#ecdcb0" opacity="0.7"/>
<path d="M650.0 348.0 A8 8 0 0 1 650.0 364.0 A7.0 8 0 0 0 650.0 348.0 Z" fill="#171206" opacity="0.24"/>
</g>
<circle cx="650" cy="356" r="8" fill="none" stroke="#4f4631" stroke-width="0.6" opacity="0.72"/>
</svg>
