<svg xmlns="http://www.w3.org/2000/svg" viewBox="588 106 124 124">
<clipPath id="ca650_168"><circle cx="650" cy="168" r="62"/></clipPath>
<g clip-path="url(#ca650_168)">
<rect x="588" y="106" width="124" height="124" fill="#6e6346"/>
<ellipse cx="637.6" cy="155.6" rx="59.5" ry="54.6" fill="#837651" opacity="0.16" transform="rotate(0 637.6 155.6)"/><ellipse cx="637.6" cy="155.6" rx="37.2" ry="34.1" fill="#837651" opacity="0.3" transform="rotate(0 637.6 155.6)"/>
<ellipse cx="665.5" cy="183.5" rx="49.6" ry="49.6" fill="#5b5239" opacity="0.16" transform="rotate(0 665.5 183.5)"/><ellipse cx="665.5" cy="183.5" rx="31.0" ry="31.0" fill="#5b5239" opacity="0.3" transform="rotate(0 665.5 183.5)"/>
<circle cx="658.8" cy="227.6" r="0.7" fill="#d8c197" opacity="0.28"/>
<circle cx="651.0" cy="229.3" r="1.2" fill="#d8c197" opacity="0.27"/>
<circle cx="608.7" cy="180.5" r="0.7" fill="#d8c197" opacity="0.31"/>
<circle cx="650.9" cy="176.6" r="1.7" fill="#d8c197" opacity="0.22"/>
<circle cx="635.0" cy="182.3" r="0.7" fill="#d8c197" opacity="0.34"/>
<circle cx="622.5" cy="142.2" r="0.9" fill="#4a4230" opacity="0.14"/>
<circle cx="600.5" cy="168.8" r="0.5" fill="#4a4230" opacity="0.17"/>
<circle cx="704.9" cy="191.5" r="1.7" fill="#d8c197" opacity="0.18"/>
<circle cx="603.9" cy="143.1" r="0.6" fill="#4a4230" opacity="0.13"/>
<circle cx="666.3" cy="152.4" r="0.9" fill="#4a4230" opacity="0.11"/>
<circle cx="632.3" cy="110.9" r="0.5" fill="#4a4230" opacity="0.16"/>
<circle cx="676.2" cy="204.1" r="1.7" fill="#d8c197" opacity="0.15"/>
<circle cx="598.7" cy="165.6" r="0.6" fill="#d8c197" opacity="0.19"/>
<circle cx="632.5" cy="194.4" r="1.6" fill="#d8c197" opacity="0.22"/>
<circle cx="669.9" cy="151.8" r="1.4" fill="#d8c197" opacity="0.17"/>
<circle cx="677.2" cy="163.7" r="0.4" fill="#4a4230" opacity="0.14"/>
<circle cx="653.2" cy="132.3" r="0.9" fill="#d8c197" opacity="0.23"/>
<circle cx="615.4" cy="189.9" r="0.9" fill="#d8c197" opacity="0.26"/>
<circle cx="664.8" cy="178.1" r="1.0" fill="#d8c197" opacity="0.24"/>
<circle cx="665.5" cy="127.2" r="0.4" fill="#4a4230" opacity="0.22"/>
<circle cx="672.9" cy="170.4" r="1.5" fill="#d8c197" opacity="0.25"/>
<circle cx="614.1" cy="216.5" r="0.9" fill="#d8c197" opacity="0.31"/>
<circle cx="657.9" cy="160.1" r="1.1" fill="#4a4230" opacity="0.19"/>
<circle cx="627.3" cy="155.5" r="0.5" fill="#4a4230" opacity="0.15"/>
<circle cx="615.9" cy="141.4" r="0.7" fill="#d8c197" opacity="0.17"/>
<circle cx="613.9" cy="147.9" r="1.5" fill="#d8c197" opacity="0.23"/>
<circle cx="640.9" cy="126.8" r="0.9" fill="#d8c197" opacity="0.21"/>
<circle cx="663.3" cy="206.8" r="1.4" fill="#d8c197" opacity="0.29"/>
<circle cx="642.9" cy="162.0" r="0.7" fill="#d8c197" opacity="0.23"/>
<circle cx="702.3" cy="157.3" r="0.8" fill="#d8c197" opacity="0.28"/>
<circle cx="655.7" cy="212.1" r="0.4" fill="#4a4230" opacity="0.18"/>
<circle cx="605.7" cy="129.8" r="1.1" fill="#4a4230" opacity="0.21"/>
<circle cx="655.5" cy="201.0" r="1.0" fill="#d8c197" opacity="0.34"/>
<circle cx="702.8" cy="147.6" r="1.7" fill="#d8c197" opacity="0.27"/>
<circle cx="656.9" cy="135.3" r="0.7" fill="#4a4230" opacity="0.12"/>
<circle cx="704.6" cy="153.5" r="1.3" fill="#d8c197" opacity="0.2"/>
<circle cx="677.9" cy="125.6" r="1.0" fill="#4a4230" opacity="0.19"/>
<circle cx="620.8" cy="145.4" r="1.2" fill="#d8c197" opacity="0.24"/>
<circle cx="666.7" cy="140.9" r="0.9" fill="#d8c197" opacity="0.29"/>
<circle cx="631.6" cy="178.1" r="0.6" fill="#4a4230" opacity="0.13"/>
<circle cx="664.6" cy="126.9" r="1.1" fill="#d8c197" opacity="0.32"/>
<circle cx="611.2" cy="214.1" r="0.6" fill="#4a4230" opacity="0.19"/>
<circle cx="668.4" cy="124.3" r="0.9" fill="#4a4230" opacity="0.14"/>
<circle cx="660.3" cy="131.2" r="1.1" fill="#4a4230" opacity="0.19"/>
<circle cx="697.8" cy="141.9" r="1.4" fill="#d8c197" opacity="0.26"/>
<circle cx="685.7" cy="189.7" r="1.0" fill="#4a4230" opacity="0.21"/>
<circle cx="689.9" cy="194.3" r="0.6" fill="#4a4230" opacity="0.18"/>
<circle cx="707.1" cy="182.2" r="0.7" fill="#4a4230" opacity="0.18"/>
<circle cx="676.2" cy="119.2" r="0.6" fill="#4a4230" opacity="0.17"/>
<circle cx="639.4" cy="203.1" r="0.7" fill="#d8c197" opacity="0.24"/>
<circle cx="643.5" cy="132.4" r="1.1" fill="#d8c197" opacity="0.19"/>
<circle cx="600.7" cy="190.7" r="1.0" fill="#d8c197" opacity="0.18"/>
<circle cx="673.6" cy="215.6" r="1.3" fill="#d8c197" opacity="0.15"/>
<circle cx="645.2" cy="112.5" r="1.0" fill="#4a4230" opacity="0.14"/>
<circle cx="646.3" cy="125.7" r="1.1" fill="#4a4230" opacity="0.21"/>
<circle cx="670.3" cy="158.6" r="0.8" fill="#d8c197" opacity="0.22"/>
<circle cx="651.1" cy="152.9" r="0.8" fill="#4a4230" opacity="0.17"/>
<circle cx="598.9" cy="198.3" r="1.0" fill="#4a4230" opacity="0.21"/>
<circle cx="628.3" cy="111.1" r="1.6" fill="#d8c197" opacity="0.21"/>
<circle cx="616.4" cy="162.0" r="0.5" fill="#4a4230" opacity="0.16"/>
<circle cx="672.8" cy="131.0" r="1.1" fill="#4a4230" opacity="0.16"/>
<circle cx="643.0" cy="195.8" r="1.6" fill="#d8c197" opacity="0.29"/>
<circle cx="637.0" cy="150.7" r="1.0" fill="#d8c197" opacity="0.15"/>
<circle cx="684.0" cy="155.7" r="0.5" fill="#4a4230" opacity="0.17"/>
<circle cx="643.5" cy="152.0" r="0.8" fill="#d8c197" opacity="0.26"/>
<circle cx="689.0" cy="159.1" r="0.5" fill="#4a4230" opacity="0.22"/>
<circle cx="662.2" cy="167.9" r="1.1" fill="#4a4230" opacity="0.18"/>
<circle cx="612.5" cy="214.5" r="0.5" fill="#4a4230" opacity="0.16"/>
<circle cx="653.3" cy="204.9" r="1.6" fill="#d8c197" opacity="0.21"/>
<circle cx="615.6" cy="202.4" r="1.5" fill="#d8c197" opacity="0.17"/>
<circle cx="676.5" cy="146.2" r="1.0" fill="#d8c197" opacity="0.19"/>
<circle cx="619.3" cy="202.2" r="1.5" fill="#d8c197" opacity="0.27"/>
<circle cx="661.0" cy="116.3" r="1.0" fill="#4a4230" opacity="0.13"/>
<circle cx="636.0" cy="223.2" r="1.2" fill="#d8c197" opacity="0.27"/>
<circle cx="629.6" cy="138.5" r="0.7" fill="#4a4230" opacity="0.19"/>
<circle cx="616.5" cy="143.5" r="1.3" fill="#d8c197" opacity="0.22"/>
<circle cx="643.5" cy="143.2" r="0.7" fill="#d8c197" opacity="0.3"/>
<circle cx="664.3" cy="116.5" r="0.9" fill="#d8c197" opacity="0.27"/>
<circle cx="670.1" cy="149.5" r="1.5" fill="#d8c197" opacity="0.15"/>
<circle cx="658.2" cy="201.4" r="0.9" fill="#4a4230" opacity="0.19"/>
<circle cx="606.4" cy="145.5" r="1.0" fill="#d8c197" opacity="0.3"/>
<circle cx="674.2" cy="136.7" r="1.1" fill="#4a4230" opacity="0.1"/>
<circle cx="686.2" cy="192.9" r="1.5" fill="#d8c197" opacity="0.34"/>
<circle cx="708.0" cy="161.4" r="0.8" fill="#d8c197" opacity="0.17"/>
<circle cx="634.9" cy="110.1" r="0.8" fill="#4a4230" opacity="0.14"/>
<circle cx="632.9" cy="142.3" r="0.4" fill="#4a4230" opacity="0.12"/>
<circle cx="689.4" cy="184.8" r="0.7" fill="#4a4230" opacity="0.13"/>
<circle cx="639.0" cy="138.5" r="1.1" fill="#d8c197" opacity="0.26"/>
<circle cx="663.2" cy="217.4" r="1.0" fill="#4a4230" opacity="0.12"/>
<circle cx="618.0" cy="120.7" r="0.9" fill="#4a4230" opacity="0.16"/>
<circle cx="630.4" cy="213.6" r="1.2" fill="#d8c197" opacity="0.21"/>
<circle cx="688.2" cy="134.6" r="1.1" fill="#4a4230" opacity="0.2"/>
<circle cx="614.4" cy="135.5" r="1.6" fill="#d8c197" opacity="0.18"/>
<circle cx="631.0" cy="152.2" r="1.5" fill="#d8c197" opacity="0.18"/>
<circle cx="627.5" cy="152.2" r="0.6" fill="#4a4230" opacity="0.17"/>
<circle cx="592.5" cy="188.9" r="1.3" fill="#d8c197" opacity="0.19"/>
<circle cx="681.6" cy="118.2" r="0.7" fill="#d8c197" opacity="0.29"/>
<circle cx="607.1" cy="205.3" r="0.8" fill="#4a4230" opacity="0.15"/>
<circle cx="604.7" cy="171.6" r="0.5" fill="#4a4230" opacity="0.22"/>
<circle cx="651.9" cy="108.4" r="0.7" fill="#4a4230" opacity="0.16"/>
<circle cx="603.5" cy="172.7" r="1.1" fill="#4a4230" opacity="0.11"/>
<circle cx="642.6" cy="212.8" r="0.7" fill="#d8c197" opacity="0.27"/>
<circle cx="630.6" cy="200.7" r="0.8" fill="#d8c197" opacity="0.24"/>
<circle cx="595.3" cy="171.2" r="1.1" fill="#4a4230" opacity="0.22"/>
<circle cx="608.4" cy="173.9" r="0.8" fill="#4a4230" opacity="0.21"/>
<circle cx="624.7" cy="123.7" r="1.1" fill="#d8c197" opacity="0.24"/>
<circle cx="609.9" cy="181.4" r="0.5" fill="#4a4230" opacity="0.12"/>
<circle cx="688.9" cy="147.7" r="0.9" fill="#4a4230" opacity="0.21"/>
<circle cx="595.3" cy="143.7" r="0.5" fill="#4a4230" opacity="0.15"/>
<circle cx="679.5" cy="214.0" r="0.8" fill="#4a4230" opacity="0.14"/>
<circle cx="629.2" cy="124.9" r="1.3" fill="#d8c197" opacity="0.32"/>
<circle cx="638.7" cy="118.3" r="0.8" fill="#d8c197" opacity="0.28"/>
<circle cx="602.7" cy="153.3" r="0.5" fill="#4a4230" opacity="0.14"/>
<circle cx="667.4" cy="180.8" r="1.3" fill="#d8c197" opacity="0.24"/>
<circle cx="638.9" cy="128.9" r="0.6" fill="#4a4230" opacity="0.1"/>
<circle cx="682.3" cy="198.1" r="0.7" fill="#4a4230" opacity="0.17"/>
<circle cx="626.2" cy="193.9" r="1.2" fill="#d8c197" opacity="0.18"/>
<circle cx="632.3" cy="160.0" r="0.5" fill="#4a4230" opacity="0.1"/>
<circle cx="616.5" cy="179.4" r="1.3" fill="#d8c197" opacity="0.28"/>
<circle cx="659.2" cy="126.9" r="0.5" fill="#4a4230" opacity="0.15"/>
<circle cx="673.4" cy="179.8" r="1.3" fill="#d8c197" opacity="0.2"/>
<circle cx="620.8" cy="116.9" r="0.6" fill="#d8c197" opacity="0.33"/>
<circle cx="696.8" cy="129.0" r="1.2" fill="#d8c197" opacity="0.3"/>
<circle cx="597.4" cy="146.4" r="0.6" fill="#4a4230" opacity="0.14"/>
<circle cx="690.8" cy="144.3" r="1.0" fill="#4a4230" opacity="0.13"/>
<circle cx="662.7" cy="187.8" r="1.1" fill="#d8c197" opacity="0.33"/>
<circle cx="619.3" cy="180.1" r="1.2" fill="#d8c197" opacity="0.23"/>
<circle cx="623.4" cy="213.2" r="1.7" fill="#d8c197" opacity="0.34"/>
<circle cx="632.8" cy="158.7" r="0.9" fill="#4a4230" opacity="0.17"/>
<circle cx="603.4" cy="191.6" r="0.4" fill="#4a4230" opacity="0.18"/>
<circle cx="616.4" cy="133.1" r="0.7" fill="#d8c197" opacity="0.33"/>
<circle cx="701.9" cy="173.6" r="1.6" fill="#d8c197" opacity="0.17"/>
<circle cx="612.8" cy="212.1" r="0.7" fill="#4a4230" opacity="0.18"/>
<circle cx="702.7" cy="198.0" r="0.8" fill="#4a4230" opacity="0.21"/>
<circle cx="640.6" cy="215.7" r="0.7" fill="#d8c197" opacity="0.18"/>
<circle cx="630.2" cy="180.9" r="1.7" fill="#d8c197" opacity="0.34"/>
<circle cx="683.1" cy="139.1" r="0.8" fill="#4a4230" opacity="0.12"/>
<circle cx="703.9" cy="159.3" r="0.6" fill="#4a4230" opacity="0.18"/>
<circle cx="681.7" cy="172.1" r="0.8" fill="#4a4230" opacity="0.16"/>
<circle cx="660.8" cy="136.4" r="1.3" fill="#d8c197" opacity="0.32"/>
<circle cx="700.5" cy="176.7" r="0.5" fill="#4a4230" opacity="0.19"/>
<circle cx="642.4" cy="219.6" r="1.1" fill="#4a4230" opacity="0.14"/>
<circle cx="631.3" cy="222.9" r="1.8" fill="#d8c197" opacity="0.23"/>
<circle cx="631.7" cy="117.8" r="0.8" fill="#4a4230" opacity="0.18"/>
<circle cx="670.3" cy="128.1" r="0.4" fill="#4a4230" opacity="0.19"/>
<circle cx="636.5" cy="224.1" r="1.3" fill="#d8c197" opacity="0.14"/>
<circle cx="629.0" cy="111.0" r="0.9" fill="#4a4230" opacity="0.18"/>
<circle cx="594.5" cy="157.2" r="0.8" fill="#4a4230" opacity="0.12"/>
<circle cx="683.8" cy="179.0" r="0.9" fill="#d8c197" opacity="0.32"/>
<circle cx="617.1" cy="200.3" r="1.0" fill="#d8c197" opacity="0.23"/>
<circle cx="640.3" cy="114.2" r="0.7" fill="#4a4230" opacity="0.2"/>
<circle cx="649.6" cy="149.1" r="1.7" fill="#d8c197" opacity="0.2"/>
<circle cx="612.3" cy="168.5" r="1.0" fill="#4a4230" opacity="0.21"/>
<circle cx="666.5" cy="120.7" r="0.7" fill="#4a4230" opacity="0.17"/>
<circle cx="637.2" cy="196.7" r="1.6" fill="#d8c197" opacity="0.24"/>
<circle cx="653.3" cy="206.3" r="0.7" fill="#d8c197" opacity="0.24"/>
<circle cx="609.3" cy="128.3" r="0.5" fill="#4a4230" opacity="0.14"/>
<circle cx="643.6" cy="115.0" r="1.4" fill="#d8c197" opacity="0.15"/>
<circle cx="617.7" cy="198.4" r="0.5" fill="#4a4230" opacity="0.21"/>
<circle cx="649.3" cy="179.4" r="1.0" fill="#4a4230" opacity="0.11"/>
<circle cx="616.1" cy="140.0" r="0.7" fill="#d8c197" opacity="0.31"/>
<circle cx="601.1" cy="140.9" r="0.5" fill="#4a4230" opacity="0.11"/>
<circle cx="638.3" cy="219.2" r="1.7" fill="#d8c197" opacity="0.33"/>
<circle cx="598.3" cy="142.9" r="0.7" fill="#4a4230" opacity="0.12"/>
<circle cx="690.2" cy="174.1" r="0.9" fill="#4a4230" opacity="0.15"/>
<circle cx="617.9" cy="206.9" r="1.1" fill="#d8c197" opacity="0.32"/>
<circle cx="645.2" cy="207.9" r="1.5" fill="#d8c197" opacity="0.21"/>
<circle cx="616.1" cy="191.2" r="1.7" fill="#d8c197" opacity="0.3"/>
<circle cx="647.8" cy="169.4" r="1.4" fill="#d8c197" opacity="0.31"/>
<circle cx="652.7" cy="187.7" r="0.8" fill="#4a4230" opacity="0.11"/>
<circle cx="628.4" cy="153.2" r="1.8" fill="#d8c197" opacity="0.31"/>
<circle cx="659.6" cy="172.9" r="1.7" fill="#d8c197" opacity="0.15"/>
<circle cx="682.6" cy="186.0" r="0.6" fill="#4a4230" opacity="0.16"/>
<circle cx="677.0" cy="179.2" r="1.1" fill="#d8c197" opacity="0.31"/>
<circle cx="620.2" cy="157.8" r="0.7" fill="#d8c197" opacity="0.33"/>
<circle cx="639.6" cy="135.2" r="1.0" fill="#d8c197" opacity="0.28"/>
<circle cx="607.2" cy="171.0" r="1.1" fill="#d8c197" opacity="0.15"/>
<circle cx="621.0" cy="195.2" r="1.5" fill="#d8c197" opacity="0.23"/>
<circle cx="665.1" cy="175.5" r="1.6" fill="#d8c197" opacity="0.26"/>
<circle cx="655.9" cy="169.2" r="0.7" fill="#4a4230" opacity="0.13"/>
<circle cx="645.0" cy="185.4" r="0.7" fill="#4a4230" opacity="0.14"/>
<circle cx="678.0" cy="137.8" r="0.5" fill="#4a4230" opacity="0.14"/>
<circle cx="622.6" cy="187.3" r="0.9" fill="#4a4230" opacity="0.11"/>
<circle cx="657.5" cy="206.5" r="0.8" fill="#d8c197" opacity="0.17"/>
<circle cx="669.3" cy="166.3" r="1.0" fill="#4a4230" opacity="0.16"/>
<circle cx="670.2" cy="210.3" r="0.8" fill="#4a4230" opacity="0.14"/>
<circle cx="682.5" cy="145.4" r="1.5" fill="#d8c197" opacity="0.26"/>
<circle cx="596.0" cy="183.8" r="1.1" fill="#d8c197" opacity="0.23"/>
<circle cx="663.6" cy="177.2" r="0.5" fill="#4a4230" opacity="0.21"/>
<circle cx="679.0" cy="148.3" r="0.6" fill="#d8c197" opacity="0.15"/>
<circle cx="598.7" cy="141.5" r="0.9" fill="#4a4230" opacity="0.12"/>
<circle cx="678.8" cy="198.7" r="0.6" fill="#4a4230" opacity="0.15"/>
<circle cx="635.9" cy="197.9" r="1.1" fill="#d8c197" opacity="0.29"/>
<circle cx="663.2" cy="199.6" r="1.3" fill="#d8c197" opacity="0.23"/>
<circle cx="620.4" cy="139.8" r="0.5" fill="#4a4230" opacity="0.12"/>
<circle cx="613.5" cy="153.1" r="1.2" fill="#d8c197" opacity="0.29"/>
<circle cx="603.3" cy="147.5" r="1.8" fill="#d8c197" opacity="0.24"/>
<circle cx="672.0" cy="203.6" r="0.5" fill="#4a4230" opacity="0.19"/>
<circle cx="673.8" cy="189.0" r="0.4" fill="#4a4230" opacity="0.13"/>
<circle cx="628.9" cy="179.7" r="0.9" fill="#4a4230" opacity="0.21"/>
<circle cx="614.4" cy="151.7" r="1.2" fill="#d8c197" opacity="0.23"/>
<circle cx="637.8" cy="205.3" r="0.6" fill="#4a4230" opacity="0.14"/>
<circle cx="594.7" cy="189.4" r="1.8" fill="#d8c197" opacity="0.23"/>
<circle cx="616.0" cy="161.8" r="0.8" fill="#d8c197" opacity="0.28"/>
<circle cx="698.6" cy="152.4" r="0.4" fill="#4a4230" opacity="0.12"/>
<circle cx="632.0" cy="205.9" r="0.6" fill="#d8c197" opacity="0.26"/>
<circle cx="672.0" cy="158.7" r="1.1" fill="#d8c197" opacity="0.17"/>
<circle cx="677.5" cy="212.0" r="1.0" fill="#d8c197" opacity="0.17"/>
<circle cx="669.9" cy="127.1" r="1.2" fill="#d8c197" opacity="0.26"/>
<circle cx="597.2" cy="161.7" r="1.5" fill="#d8c197" opacity="0.28"/>
<circle cx="683.0" cy="148.8" r="1.8" fill="#d8c197" opacity="0.28"/>
<circle cx="696.5" cy="159.3" r="0.8" fill="#d8c197" opacity="0.32"/>
<circle cx="614.8" cy="123.4" r="0.7" fill="#4a4230" opacity="0.19"/>
<circle cx="641.9" cy="140.8" r="0.5" fill="#4a4230" opacity="0.12"/>
<circle cx="675.3" cy="192.0" r="1.7" fill="#d8c197" opacity="0.28"/>
<circle cx="656.6" cy="157.3" r="1.3" fill="#d8c197" opacity="0.17"/>
<circle cx="709.7" cy="172.8" r="1.1" fill="#d8c197" opacity="0.17"/>
<circle cx="633.9" cy="207.6" r="1.0" fill="#d8c197" opacity="0.33"/>
<circle cx="691.8" cy="186.3" r="1.8" fill="#d8c197" opacity="0.21"/>
<circle cx="671.9" cy="135.4" r="1.6" fill="#d8c197" opacity="0.32"/>
<circle cx="684.7" cy="150.5" r="1.2" fill="#d8c197" opacity="0.24"/>
<circle cx="647.7" cy="145.1" r="0.6" fill="#4a4230" opacity="0.16"/>
<circle cx="637.3" cy="158.5" r="0.5" fill="#4a4230" opacity="0.16"/>
<circle cx="692.6" cy="182.0" r="1.1" fill="#4a4230" opacity="0.13"/>
<circle cx="615.9" cy="140.2" r="0.9" fill="#4a4230" opacity="0.14"/>
<circle cx="624.0" cy="193.3" r="0.7" fill="#d8c197" opacity="0.33"/>
<circle cx="638.5" cy="176.4" r="1.6" fill="#d8c197" opacity="0.15"/>
<circle cx="624.0" cy="113.8" r="0.8" fill="#4a4230" opacity="0.14"/>
<circle cx="671.7" cy="202.1" r="1.4" fill="#d8c197" opacity="0.33"/>
<circle cx="648.7" cy="213.0" r="1.4" fill="#d8c197" opacity="0.32"/>
<circle cx="636.5" cy="121.4" r="1.6" fill="#d8c197" opacity="0.25"/>
<circle cx="647.1" cy="171.0" r="1.3" fill="#d8c197" opacity="0.14"/>
<circle cx="629.9" cy="170.9" r="0.7" fill="#4a4230" opacity="0.13"/>
<circle cx="676.5" cy="203.7" r="0.4" fill="#4a4230" opacity="0.18"/>
<circle cx="663.4" cy="187.7" r="1.6" fill="#d8c197" opacity="0.3"/>
<circle cx="646.6" cy="122.2" r="1.2" fill="#d8c197" opacity="0.2"/>
<circle cx="646.6" cy="130.3" r="1.2" fill="#d8c197" opacity="0.2"/>
<circle cx="616.1" cy="183.1" r="0.9" fill="#4a4230" opacity="0.17"/>
<circle cx="682.8" cy="126.6" r="1.3" fill="#d8c197" opacity="0.29"/>
<circle cx="599.2" cy="160.1" r="0.6" fill="#4a4230" opacity="0.14"/>
<circle cx="631.3" cy="163.9" r="0.6" fill="#4a4230" opacity="0.12"/>
<circle cx="661.7" cy="111.3" r="1.4" fill="#d8c197" opacity="0.16"/>
<circle cx="620.3" cy="142.8" r="0.7" fill="#d8c197" opacity="0.33"/>
<circle cx="669.3" cy="145.3" r="0.8" fill="#d8c197" opacity="0.22"/>
<circle cx="651.6" cy="141.3" r="1.6" fill="#d8c197" opacity="0.21"/>
<circle cx="701.3" cy="180.2" r="1.8" fill="#d8c197" opacity="0.27"/>
<circle cx="654.3" cy="177.7" r="0.9" fill="#d8c197" opacity="0.28"/>
<circle cx="622.9" cy="222.4" r="0.5" fill="#4a4230" opacity="0.22"/>
<circle cx="638.1" cy="135.9" r="0.9" fill="#4a4230" opacity="0.2"/>
<circle cx="600.4" cy="167.6" r="0.9" fill="#4a4230" opacity="0.12"/>
<circle cx="689.8" cy="208.4" r="0.6" fill="#d8c197" opacity="0.16"/>
<circle cx="637.2" cy="158.0" r="1.4" fill="#d8c197" opacity="0.15"/>
<circle cx="656.3" cy="160.7" r="0.8" fill="#4a4230" opacity="0.18"/>
<circle cx="683.5" cy="161.1" r="0.6" fill="#4a4230" opacity="0.16"/>
<circle cx="646.7" cy="187.3" r="0.8" fill="#4a4230" opacity="0.13"/>
<circle cx="654.6" cy="137.3" r="0.7" fill="#4a4230" opacity="0.18"/>
<circle cx="658.3" cy="128.7" r="0.8" fill="#d8c197" opacity="0.16"/>
<circle cx="643.4" cy="124.9" r="0.6" fill="#d8c197" opacity="0.33"/>
<circle cx="614.5" cy="144.7" r="1.0" fill="#4a4230" opacity="0.17"/>
<circle cx="657.5" cy="212.1" r="0.9" fill="#4a4230" opacity="0.14"/>
<circle cx="619.0" cy="186.2" r="1.8" fill="#d8c197" opacity="0.28"/>
<circle cx="677.5" cy="175.0" r="1.2" fill="#d8c197" opacity="0.17"/>
<circle cx="602.6" cy="148.8" r="0.8" fill="#d8c197" opacity="0.31"/>
<circle cx="657.5" cy="130.1" r="1.7" fill="#d8c197" opacity="0.31"/>
<circle cx="635.4" cy="164.3" r="1.6" fill="#d8c197" opacity="0.28"/>
<circle cx="685.1" cy="138.7" r="1.1" fill="#d8c197" opacity="0.2"/>
<circle cx="674.1" cy="195.1" r="1.2" fill="#d8c197" opacity="0.29"/>
<circle cx="620.3" cy="152.8" r="0.5" fill="#4a4230" opacity="0.17"/>
<circle cx="667.9" cy="158.7" r="1.6" fill="#d8c197" opacity="0.16"/>
<circle cx="676.3" cy="135.8" r="1.0" fill="#4a4230" opacity="0.2"/>
<circle cx="696.6" cy="151.3" r="0.6" fill="#4a4230" opacity="0.1"/>
<circle cx="694.6" cy="165.9" r="1.0" fill="#4a4230" opacity="0.13"/>
<circle cx="664.5" cy="117.5" r="1.0" fill="#d8c197" opacity="0.34"/>
<circle cx="709.5" cy="166.2" r="1.1" fill="#d8c197" opacity="0.15"/>
<circle cx="646.7" cy="206.5" r="0.7" fill="#d8c197" opacity="0.29"/>
<circle cx="621.4" cy="147.6" r="0.6" fill="#d8c197" opacity="0.26"/>
<circle cx="650.1" cy="126.1" r="1.0" fill="#4a4230" opacity="0.2"/>
<circle cx="681.4" cy="170.1" r="1.0" fill="#d8c197" opacity="0.25"/>
<circle cx="610.0" cy="185.2" r="0.7" fill="#4a4230" opacity="0.11"/>
<circle cx="653.4" cy="207.9" r="1.7" fill="#d8c197" opacity="0.19"/>
<circle cx="661.6" cy="168.1" r="1.0" fill="#4a4230" opacity="0.13"/>
<circle cx="613.4" cy="125.7" r="1.1" fill="#4a4230" opacity="0.19"/>
<circle cx="662.4" cy="192.7" r="1.6" fill="#d8c197" opacity="0.14"/>
<circle cx="641.1" cy="135.6" r="1.2" fill="#d8c197" opacity="0.16"/>
<circle cx="652.1" cy="167.9" r="0.6" fill="#4a4230" opacity="0.18"/>
<circle cx="682.5" cy="217.0" r="1.1" fill="#4a4230" opacity="0.14"/>
<circle cx="596.3" cy="184.8" r="0.7" fill="#4a4230" opacity="0.16"/>
<circle cx="680.9" cy="189.1" r="0.6" fill="#4a4230" opacity="0.14"/>
<circle cx="641.8" cy="183.4" r="0.8" fill="#4a4230" opacity="0.18"/>
<circle cx="676.4" cy="128.3" r="0.9" fill="#d8c197" opacity="0.31"/>
<circle cx="648.8" cy="107.3" r="1.0" fill="#d8c197" opacity="0.19"/>
<circle cx="644.6" cy="124.1" r="1.1" fill="#d8c197" opacity="0.32"/>
<circle cx="651.8" cy="178.8" r="1.1" fill="#4a4230" opacity="0.22"/>
<circle cx="612.2" cy="143.4" r="0.6" fill="#4a4230" opacity="0.17"/>
<circle cx="633.8" cy="142.5" r="0.9" fill="#d8c197" opacity="0.18"/>
<circle cx="612.8" cy="203.1" r="0.7" fill="#4a4230" opacity="0.11"/>
<circle cx="660.6" cy="152.1" r="1.0" fill="#d8c197" opacity="0.27"/>
<circle cx="659.1" cy="161.6" r="0.6" fill="#4a4230" opacity="0.17"/>
<circle cx="644.9" cy="135.2" r="0.7" fill="#d8c197" opacity="0.24"/>
<circle cx="625.3" cy="154.8" r="1.4" fill="#d8c197" opacity="0.33"/>
<circle cx="638.8" cy="154.4" r="5.6" fill="#e6d4a8" opacity="0.18"/>
<circle cx="638.8" cy="154.4" r="3.7" fill="#ecdcb0" opacity="0.7"/>
<circle cx="667.4" cy="187.8" r="4.2" fill="#e6d4a8" opacity="0.18"/>
<circle cx="667.4" cy="187.8" r="2.8" fill="#ecdcb0" opacity="0.7"/>
<circle cx="672.3" cy="150.6" r="3.3" fill="#e6d4a8" opacity="0.18"/>
<circle cx="672.3" cy="150.6" r="2.2" fill="#ecdcb0" opacity="0.7"/>
<path d="M650.0 106.0 A62 62 0 0 1 650.0 230.0 A54.6 62 0 0 0 650.0 106.0 Z" fill="#171206" opacity="0.24"/>
</g>
<circle cx="650" cy="168" r="62" fill="none" stroke="#4f4631" stroke-width="0.8" opacity="0.72"/>
</svg>
