<svg xmlns="http://www.w3.org/2000/svg" viewBox="141 347 18 18" width="18" height="18">
<g id="ceres-small"><clipPath id="ce150_356"><circle cx="150" cy="356" r="8"/></clipPath>
<g clip-path="url(#ce150_356)">
<rect x="142" y="348" width="16" height="16" fill="#8f8d88"/>
<circle cx="150.4" cy="361.3" r="1.4" fill="#a7a5a0" opacity="0.27"/><circle cx="145.1" cy="353.3" r="0.8" fill="#a7a5a0" opacity="0.23"/><circle cx="154.9" cy="355.9" r="0.9" fill="#a7a5a0" opacity="0.32"/><circle cx="150.3" cy="358.8" r="1.2" fill="#a7a5a0" opacity="0.29"/><circle cx="155.8" cy="358.5" r="0.8" fill="#6e6c67" opacity="0.2"/><circle cx="153.3" cy="352.3" r="1.2" fill="#a7a5a0" opacity="0.33"/><circle cx="144.9" cy="360.0" r="1.5" fill="#a7a5a0" opacity="0.22"/><circle cx="149.1" cy="357.0" r="0.7" fill="#a7a5a0" opacity="0.34"/><circle cx="144.8" cy="358.2" r="0.9" fill="#a7a5a0" opacity="0.32"/><circle cx="145.3" cy="353.6" r="1.1" fill="#a7a5a0" opacity="0.33"/><circle cx="147.1" cy="349.7" r="1.5" fill="#a7a5a0" opacity="0.29"/><circle cx="153.5" cy="361.7" r="1.2" fill="#6e6c67" opacity="0.23"/><circle cx="152.7" cy="351.2" r="0.6" fill="#a7a5a0" opacity="0.27"/><circle cx="146.8" cy="352.2" r="1.3" fill="#a7a5a0" opacity="0.26"/><circle cx="152.3" cy="359.2" r="1.4" fill="#a7a5a0" opacity="0.21"/><circle cx="148.9" cy="355.0" r="1.1" fill="#a7a5a0" opacity="0.33"/><circle cx="149.4" cy="359.4" r="0.8" fill="#6e6c67" opacity="0.21"/><circle cx="149.0" cy="355.3" r="1.5" fill="#6e6c67" opacity="0.24"/><circle cx="149.5" cy="362.0" r="0.8" fill="#a7a5a0" opacity="0.33"/><circle cx="153.5" cy="353.3" r="1.4" fill="#a7a5a0" opacity="0.25"/><circle cx="154.0" cy="351.6" r="1.1" fill="#6e6c67" opacity="0.33"/><circle cx="145.3" cy="355.8" r="1.4" fill="#6e6c67" opacity="0.26"/><circle cx="149.8" cy="360.0" r="0.5" fill="#a7a5a0" opacity="0.26"/><circle cx="149.1" cy="355.5" r="0.6" fill="#6e6c67" opacity="0.29"/><circle cx="144.2" cy="357.2" r="1.1" fill="#a7a5a0" opacity="0.24"/><circle cx="144.5" cy="356.4" r="1.5" fill="#6e6c67" opacity="0.24"/>
<circle cx="152.6" cy="354.8" r="1.0" fill="#f9faf7" opacity="0.95"/>
<path d="M150.0 348.0 A8 8 0 0 1 150.0 364.0 A7.2 8 0 0 0 150.0 348.0 Z" fill="#232220" opacity="0.20"/>
</g>
<circle cx="150" cy="356" r="8" fill="none" stroke="#63615c" stroke-width="0.6" opacity="0.72"/></g>
</svg>