<svg xmlns="http://www.w3.org/2000/svg" viewBox="87 105 126 126" width="126" height="126">
<g id="ceres-large"><clipPath id="ce150_168"><circle cx="150" cy="168" r="62"/></clipPath>
<g clip-path="url(#ce150_168)">
<rect x="88" y="106" width="124" height="124" fill="#8f8d88"/>
<ellipse cx="137.6" cy="158.7" rx="59.5" ry="54.6" fill="#9b9994" opacity="0.16" transform="rotate(0 137.6 158.7)"/>
<ellipse cx="165.5" cy="180.4" rx="49.6" ry="49.6" fill="#807e79" opacity="0.16" transform="rotate(0 165.5 180.4)"/>
<circle cx="153.4" cy="212.2" r="1.4" fill="#a7a5a0" opacity="0.16"/><circle cx="109.1" cy="145.2" r="0.8" fill="#a7a5a0" opacity="0.13"/><circle cx="191.2" cy="166.9" r="1.0" fill="#5c5a56" opacity="0.16"/><circle cx="178.0" cy="206.9" r="0.9" fill="#5c5a56" opacity="0.1"/><circle cx="154.1" cy="144.3" r="0.5" fill="#5c5a56" opacity="0.18"/><circle cx="163.9" cy="140.1" r="1.2" fill="#5c5a56" opacity="0.19"/><circle cx="137.1" cy="111.7" r="1.2" fill="#a7a5a0" opacity="0.17"/><circle cx="171.5" cy="163.1" r="0.6" fill="#a7a5a0" opacity="0.12"/><circle cx="162.2" cy="225.8" r="1.3" fill="#a7a5a0" opacity="0.2"/><circle cx="101.7" cy="194.1" r="0.9" fill="#5c5a56" opacity="0.16"/><circle cx="100.6" cy="139.1" r="1.4" fill="#5c5a56" opacity="0.1"/><circle cx="141.3" cy="214.0" r="0.7" fill="#5c5a56" opacity="0.19"/><circle cx="205.8" cy="155.4" r="0.6" fill="#5c5a56" opacity="0.17"/><circle cx="109.9" cy="123.7" r="0.8" fill="#a7a5a0" opacity="0.11"/><circle cx="186.4" cy="120.5" r="0.8" fill="#6e6c67" opacity="0.11"/><circle cx="156.8" cy="162.9" r="1.3" fill="#a7a5a0" opacity="0.2"/><circle cx="195.3" cy="180.9" r="0.9" fill="#6e6c67" opacity="0.17"/><circle cx="95.2" cy="149.9" r="1.0" fill="#a7a5a0" opacity="0.22"/><circle cx="143.9" cy="183.5" r="1.0" fill="#5c5a56" opacity="0.19"/><circle cx="182.0" cy="162.2" r="0.7" fill="#a7a5a0" opacity="0.11"/><circle cx="172.7" cy="143.1" r="1.4" fill="#6e6c67" opacity="0.15"/><circle cx="108.0" cy="178.7" r="1.4" fill="#5c5a56" opacity="0.17"/><circle cx="197.4" cy="203.6" r="0.8" fill="#5c5a56" opacity="0.16"/><circle cx="137.5" cy="111.2" r="1.5" fill="#a7a5a0" opacity="0.16"/><circle cx="143.9" cy="166.1" r="1.5" fill="#a7a5a0" opacity="0.14"/><circle cx="117.0" cy="200.3" r="0.6" fill="#6e6c67" opacity="0.18"/><circle cx="101.5" cy="178.4" r="1.1" fill="#a7a5a0" opacity="0.13"/><circle cx="103.9" cy="171.0" r="0.5" fill="#5c5a56" opacity="0.14"/><circle cx="127.2" cy="144.3" r="0.8" fill="#5c5a56" opacity="0.14"/><circle cx="136.0" cy="201.7" r="0.8" fill="#5c5a56" opacity="0.18"/><circle cx="192.9" cy="201.2" r="1.2" fill="#5c5a56" opacity="0.11"/><circle cx="101.4" cy="168.0" r="0.7" fill="#a7a5a0" opacity="0.12"/><circle cx="103.9" cy="187.9" r="1.1" fill="#6e6c67" opacity="0.21"/><circle cx="137.1" cy="142.6" r="0.6" fill="#6e6c67" opacity="0.19"/><circle cx="159.0" cy="212.4" r="0.7" fill="#a7a5a0" opacity="0.11"/><circle cx="124.2" cy="163.1" r="0.7" fill="#5c5a56" opacity="0.13"/><circle cx="167.0" cy="122.9" r="0.8" fill="#5c5a56" opacity="0.11"/><circle cx="136.0" cy="219.7" r="1.0" fill="#a7a5a0" opacity="0.18"/><circle cx="138.6" cy="211.9" r="1.4" fill="#6e6c67" opacity="0.12"/><circle cx="208.4" cy="169.7" r="1.5" fill="#5c5a56" opacity="0.14"/><circle cx="205.1" cy="150.2" r="0.5" fill="#6e6c67" opacity="0.15"/><circle cx="151.1" cy="116.0" r="1.0" fill="#a7a5a0" opacity="0.21"/><circle cx="185.9" cy="125.4" r="0.6" fill="#a7a5a0" opacity="0.13"/><circle cx="202.6" cy="179.8" r="1.4" fill="#5c5a56" opacity="0.19"/><circle cx="186.9" cy="141.1" r="1.0" fill="#6e6c67" opacity="0.11"/><circle cx="120.6" cy="167.4" r="1.0" fill="#6e6c67" opacity="0.15"/><circle cx="193.6" cy="150.4" r="0.6" fill="#a7a5a0" opacity="0.22"/><circle cx="97.6" cy="154.2" r="0.9" fill="#6e6c67" opacity="0.12"/><circle cx="96.9" cy="156.3" r="0.7" fill="#6e6c67" opacity="0.13"/><circle cx="166.6" cy="154.2" r="1.0" fill="#6e6c67" opacity="0.17"/><circle cx="107.6" cy="198.7" r="0.8" fill="#6e6c67" opacity="0.16"/><circle cx="113.4" cy="187.2" r="1.4" fill="#6e6c67" opacity="0.19"/><circle cx="162.9" cy="171.8" r="1.5" fill="#a7a5a0" opacity="0.2"/><circle cx="186.5" cy="190.0" r="0.7" fill="#a7a5a0" opacity="0.11"/><circle cx="121.7" cy="192.7" r="0.9" fill="#a7a5a0" opacity="0.12"/><circle cx="140.0" cy="186.6" r="0.5" fill="#5c5a56" opacity="0.17"/><circle cx="162.7" cy="124.5" r="0.9" fill="#6e6c67" opacity="0.17"/><circle cx="157.5" cy="131.7" r="1.1" fill="#6e6c67" opacity="0.15"/><circle cx="120.5" cy="198.4" r="0.8" fill="#5c5a56" opacity="0.2"/><circle cx="143.0" cy="172.0" r="1.0" fill="#6e6c67" opacity="0.18"/><circle cx="185.3" cy="185.0" r="0.6" fill="#a7a5a0" opacity="0.1"/><circle cx="122.9" cy="220.6" r="1.3" fill="#5c5a56" opacity="0.13"/><circle cx="129.4" cy="172.7" r="1.2" fill="#5c5a56" opacity="0.19"/><circle cx="163.0" cy="120.6" r="0.8" fill="#5c5a56" opacity="0.15"/><circle cx="169.2" cy="120.9" r="0.6" fill="#a7a5a0" opacity="0.19"/><circle cx="167.5" cy="173.0" r="1.2" fill="#6e6c67" opacity="0.15"/><circle cx="164.9" cy="136.1" r="0.5" fill="#6e6c67" opacity="0.11"/><circle cx="100.1" cy="173.7" r="1.1" fill="#a7a5a0" opacity="0.2"/><circle cx="201.3" cy="179.9" r="1.0" fill="#5c5a56" opacity="0.12"/><circle cx="132.1" cy="161.6" r="0.6" fill="#5c5a56" opacity="0.13"/><circle cx="99.6" cy="146.6" r="1.5" fill="#6e6c67" opacity="0.18"/><circle cx="101.8" cy="182.3" r="0.8" fill="#a7a5a0" opacity="0.17"/><circle cx="191.6" cy="151.2" r="0.9" fill="#6e6c67" opacity="0.13"/><circle cx="199.9" cy="144.3" r="0.9" fill="#6e6c67" opacity="0.17"/><circle cx="99.3" cy="140.2" r="1.0" fill="#5c5a56" opacity="0.16"/><circle cx="168.6" cy="154.0" r="1.0" fill="#6e6c67" opacity="0.16"/><circle cx="131.4" cy="112.4" r="1.2" fill="#5c5a56" opacity="0.12"/><circle cx="147.1" cy="194.7" r="1.0" fill="#5c5a56" opacity="0.19"/><circle cx="176.3" cy="132.6" r="1.2" fill="#a7a5a0" opacity="0.2"/><circle cx="112.0" cy="142.1" r="1.4" fill="#a7a5a0" opacity="0.14"/><circle cx="143.9" cy="221.6" r="0.7" fill="#6e6c67" opacity="0.14"/><circle cx="126.9" cy="215.6" r="0.9" fill="#6e6c67" opacity="0.18"/><circle cx="141.8" cy="142.0" r="1.3" fill="#5c5a56" opacity="0.18"/><circle cx="110.9" cy="153.3" r="0.6" fill="#5c5a56" opacity="0.19"/><circle cx="161.7" cy="112.7" r="1.0" fill="#6e6c67" opacity="0.13"/><circle cx="154.9" cy="218.7" r="0.6" fill="#5c5a56" opacity="0.12"/><circle cx="148.5" cy="224.7" r="0.6" fill="#a7a5a0" opacity="0.17"/><circle cx="144.8" cy="157.7" r="0.7" fill="#a7a5a0" opacity="0.11"/><circle cx="157.4" cy="184.6" r="0.6" fill="#6e6c67" opacity="0.13"/><circle cx="159.8" cy="162.1" r="1.1" fill="#a7a5a0" opacity="0.18"/><circle cx="184.8" cy="169.5" r="0.9" fill="#a7a5a0" opacity="0.11"/><circle cx="118.1" cy="127.2" r="0.9" fill="#a7a5a0" opacity="0.17"/><circle cx="173.1" cy="189.5" r="0.9" fill="#5c5a56" opacity="0.14"/><circle cx="120.3" cy="162.8" r="1.4" fill="#5c5a56" opacity="0.14"/><circle cx="157.3" cy="116.2" r="1.2" fill="#a7a5a0" opacity="0.18"/><circle cx="201.1" cy="149.3" r="1.3" fill="#6e6c67" opacity="0.22"/><circle cx="129.5" cy="129.0" r="1.2" fill="#6e6c67" opacity="0.16"/><circle cx="180.4" cy="179.9" r="1.1" fill="#5c5a56" opacity="0.12"/><circle cx="120.9" cy="130.1" r="0.9" fill="#6e6c67" opacity="0.21"/><circle cx="131.0" cy="173.6" r="0.6" fill="#5c5a56" opacity="0.13"/><circle cx="141.4" cy="122.3" r="0.8" fill="#5c5a56" opacity="0.12"/><circle cx="97.1" cy="173.9" r="0.6" fill="#5c5a56" opacity="0.17"/><circle cx="151.2" cy="123.7" r="0.9" fill="#5c5a56" opacity="0.11"/><circle cx="148.2" cy="181.8" r="0.5" fill="#6e6c67" opacity="0.16"/><circle cx="150.9" cy="220.7" r="1.4" fill="#a7a5a0" opacity="0.21"/><circle cx="98.7" cy="185.3" r="0.9" fill="#6e6c67" opacity="0.2"/><circle cx="173.8" cy="188.3" r="1.2" fill="#6e6c67" opacity="0.17"/><circle cx="167.0" cy="157.2" r="0.7" fill="#5c5a56" opacity="0.14"/><circle cx="147.7" cy="113.7" r="0.6" fill="#5c5a56" opacity="0.16"/><circle cx="184.1" cy="126.5" r="1.0" fill="#5c5a56" opacity="0.16"/><circle cx="158.9" cy="196.7" r="0.5" fill="#a7a5a0" opacity="0.2"/><circle cx="195.4" cy="131.0" r="0.8" fill="#a7a5a0" opacity="0.21"/><circle cx="134.5" cy="207.5" r="1.2" fill="#5c5a56" opacity="0.13"/><circle cx="176.7" cy="135.8" r="0.7" fill="#5c5a56" opacity="0.16"/><circle cx="190.8" cy="200.7" r="1.0" fill="#6e6c67" opacity="0.16"/><circle cx="124.4" cy="174.5" r="0.7" fill="#5c5a56" opacity="0.18"/><circle cx="202.3" cy="141.8" r="1.1" fill="#6e6c67" opacity="0.22"/><circle cx="167.2" cy="154.1" r="1.1" fill="#6e6c67" opacity="0.11"/><circle cx="131.5" cy="190.4" r="1.0" fill="#6e6c67" opacity="0.1"/><circle cx="131.6" cy="197.1" r="1.2" fill="#a7a5a0" opacity="0.12"/><circle cx="179.3" cy="131.8" r="1.2" fill="#6e6c67" opacity="0.19"/><circle cx="120.0" cy="212.9" r="1.4" fill="#6e6c67" opacity="0.15"/><circle cx="151.8" cy="126.2" r="1.3" fill="#6e6c67" opacity="0.15"/><circle cx="178.5" cy="126.3" r="1.0" fill="#a7a5a0" opacity="0.18"/><circle cx="112.0" cy="158.9" r="1.0" fill="#5c5a56" opacity="0.1"/><circle cx="101.8" cy="181.2" r="0.7" fill="#a7a5a0" opacity="0.21"/><circle cx="143.1" cy="132.2" r="0.9" fill="#a7a5a0" opacity="0.14"/><circle cx="101.7" cy="202.3" r="0.8" fill="#6e6c67" opacity="0.14"/><circle cx="177.0" cy="133.3" r="0.7" fill="#6e6c67" opacity="0.12"/><circle cx="129.7" cy="182.0" r="0.6" fill="#6e6c67" opacity="0.17"/><circle cx="125.8" cy="177.1" r="0.9" fill="#6e6c67" opacity="0.14"/><circle cx="199.7" cy="178.4" r="0.9" fill="#6e6c67" opacity="0.15"/><circle cx="208.3" cy="177.9" r="0.7" fill="#6e6c67" opacity="0.15"/><circle cx="162.6" cy="200.3" r="0.8" fill="#6e6c67" opacity="0.11"/><circle cx="198.6" cy="184.4" r="1.5" fill="#a7a5a0" opacity="0.21"/><circle cx="164.4" cy="110.8" r="0.7" fill="#a7a5a0" opacity="0.13"/><circle cx="168.9" cy="124.2" r="0.8" fill="#a7a5a0" opacity="0.11"/><circle cx="133.5" cy="175.1" r="0.5" fill="#5c5a56" opacity="0.1"/><circle cx="170.9" cy="181.4" r="1.0" fill="#6e6c67" opacity="0.12"/><circle cx="115.5" cy="165.9" r="0.8" fill="#a7a5a0" opacity="0.16"/><circle cx="120.9" cy="207.2" r="0.8" fill="#a7a5a0" opacity="0.17"/><circle cx="166.8" cy="162.1" r="0.7" fill="#a7a5a0" opacity="0.15"/><circle cx="105.6" cy="165.9" r="1.2" fill="#5c5a56" opacity="0.19"/><circle cx="173.6" cy="214.0" r="0.9" fill="#5c5a56" opacity="0.19"/><circle cx="133.7" cy="188.0" r="0.9" fill="#a7a5a0" opacity="0.15"/><circle cx="139.7" cy="134.2" r="1.0" fill="#6e6c67" opacity="0.19"/><circle cx="193.2" cy="142.5" r="0.5" fill="#a7a5a0" opacity="0.12"/><circle cx="150.6" cy="113.5" r="1.3" fill="#6e6c67" opacity="0.18"/><circle cx="174.0" cy="184.8" r="0.6" fill="#5c5a56" opacity="0.16"/><circle cx="189.2" cy="180.2" r="1.1" fill="#5c5a56" opacity="0.2"/><circle cx="176.5" cy="168.3" r="0.8" fill="#6e6c67" opacity="0.14"/><circle cx="98.1" cy="184.7" r="0.7" fill="#6e6c67" opacity="0.11"/><circle cx="177.7" cy="207.5" r="1.5" fill="#5c5a56" opacity="0.11"/><circle cx="143.6" cy="194.7" r="1.0" fill="#5c5a56" opacity="0.15"/><circle cx="178.4" cy="149.3" r="1.3" fill="#5c5a56" opacity="0.15"/><circle cx="141.2" cy="159.5" r="1.1" fill="#6e6c67" opacity="0.2"/><circle cx="196.9" cy="202.7" r="0.6" fill="#a7a5a0" opacity="0.16"/><circle cx="159.3" cy="222.0" r="0.6" fill="#5c5a56" opacity="0.15"/><circle cx="125.4" cy="124.2" r="1.1" fill="#a7a5a0" opacity="0.15"/><circle cx="192.1" cy="203.3" r="0.9" fill="#5c5a56" opacity="0.14"/><circle cx="153.9" cy="171.5" r="1.2" fill="#a7a5a0" opacity="0.11"/><circle cx="126.2" cy="202.5" r="1.4" fill="#6e6c67" opacity="0.18"/><circle cx="114.9" cy="208.0" r="1.1" fill="#6e6c67" opacity="0.13"/><circle cx="114.6" cy="216.4" r="0.7" fill="#a7a5a0" opacity="0.15"/><circle cx="149.8" cy="202.2" r="1.4" fill="#5c5a56" opacity="0.17"/><circle cx="192.2" cy="125.7" r="1.0" fill="#5c5a56" opacity="0.17"/><circle cx="171.9" cy="138.8" r="1.4" fill="#6e6c67" opacity="0.21"/><circle cx="97.4" cy="173.2" r="1.0" fill="#a7a5a0" opacity="0.17"/><circle cx="207.4" cy="180.8" r="0.7" fill="#6e6c67" opacity="0.11"/><circle cx="144.4" cy="135.9" r="0.6" fill="#5c5a56" opacity="0.15"/><circle cx="159.3" cy="193.8" r="0.9" fill="#a7a5a0" opacity="0.14"/><circle cx="147.4" cy="116.1" r="0.6" fill="#a7a5a0" opacity="0.15"/><circle cx="183.6" cy="146.2" r="0.7" fill="#6e6c67" opacity="0.19"/><circle cx="131.8" cy="111.4" r="0.9" fill="#5c5a56" opacity="0.12"/><circle cx="134.5" cy="205.9" r="1.5" fill="#5c5a56" opacity="0.12"/><circle cx="181.1" cy="159.3" r="1.0" fill="#6e6c67" opacity="0.21"/><circle cx="161.5" cy="137.3" r="1.4" fill="#6e6c67" opacity="0.16"/><circle cx="197.5" cy="172.3" r="1.0" fill="#6e6c67" opacity="0.12"/><circle cx="175.8" cy="176.4" r="0.9" fill="#a7a5a0" opacity="0.22"/><circle cx="120.9" cy="201.9" r="0.7" fill="#a7a5a0" opacity="0.1"/><circle cx="118.1" cy="182.4" r="1.1" fill="#6e6c67" opacity="0.2"/><circle cx="120.7" cy="177.5" r="1.3" fill="#5c5a56" opacity="0.14"/><circle cx="149.2" cy="180.6" r="0.5" fill="#a7a5a0" opacity="0.22"/><circle cx="176.5" cy="213.3" r="0.7" fill="#5c5a56" opacity="0.11"/><circle cx="152.8" cy="114.6" r="1.3" fill="#5c5a56" opacity="0.13"/><circle cx="155.2" cy="173.8" r="0.5" fill="#6e6c67" opacity="0.18"/><circle cx="195.7" cy="133.5" r="1.0" fill="#a7a5a0" opacity="0.19"/><circle cx="188.0" cy="122.2" r="0.9" fill="#5c5a56" opacity="0.15"/><circle cx="162.3" cy="190.6" r="0.6" fill="#5c5a56" opacity="0.18"/><circle cx="192.5" cy="199.5" r="1.0" fill="#a7a5a0" opacity="0.2"/><circle cx="93.7" cy="185.3" r="1.1" fill="#6e6c67" opacity="0.12"/><circle cx="190.7" cy="177.8" r="1.3" fill="#6e6c67" opacity="0.21"/><circle cx="142.0" cy="161.2" r="1.1" fill="#5c5a56" opacity="0.11"/><circle cx="187.6" cy="205.7" r="0.6" fill="#a7a5a0" opacity="0.18"/><circle cx="120.2" cy="199.2" r="0.9" fill="#5c5a56" opacity="0.13"/><circle cx="122.5" cy="208.1" r="0.8" fill="#a7a5a0" opacity="0.13"/><circle cx="205.6" cy="149.9" r="1.1" fill="#a7a5a0" opacity="0.17"/><circle cx="187.9" cy="176.6" r="1.5" fill="#a7a5a0" opacity="0.11"/><circle cx="153.4" cy="194.7" r="1.2" fill="#6e6c67" opacity="0.11"/><circle cx="135.7" cy="152.4" r="1.4" fill="#6e6c67" opacity="0.22"/><circle cx="135.9" cy="131.1" r="1.0" fill="#a7a5a0" opacity="0.13"/><circle cx="126.6" cy="158.8" r="1.5" fill="#a7a5a0" opacity="0.12"/><circle cx="171.0" cy="153.8" r="1.2" fill="#a7a5a0" opacity="0.18"/><circle cx="158.8" cy="178.9" r="0.7" fill="#5c5a56" opacity="0.12"/><circle cx="174.8" cy="117.5" r="1.0" fill="#6e6c67" opacity="0.12"/><circle cx="161.8" cy="219.7" r="0.9" fill="#a7a5a0" opacity="0.22"/><circle cx="145.8" cy="189.4" r="0.8" fill="#6e6c67" opacity="0.15"/><circle cx="193.2" cy="150.2" r="0.5" fill="#6e6c67" opacity="0.14"/><circle cx="176.0" cy="200.5" r="0.9" fill="#6e6c67" opacity="0.21"/><circle cx="99.8" cy="172.7" r="1.0" fill="#a7a5a0" opacity="0.19"/><circle cx="95.5" cy="157.3" r="1.1" fill="#a7a5a0" opacity="0.16"/><circle cx="111.1" cy="158.5" r="1.0" fill="#5c5a56" opacity="0.14"/><circle cx="151.4" cy="135.3" r="1.3" fill="#5c5a56" opacity="0.12"/><circle cx="203.7" cy="155.5" r="0.8" fill="#6e6c67" opacity="0.2"/><circle cx="181.9" cy="202.1" r="0.9" fill="#6e6c67" opacity="0.2"/><circle cx="155.3" cy="172.7" r="1.3" fill="#6e6c67" opacity="0.22"/><circle cx="132.8" cy="127.9" r="0.6" fill="#a7a5a0" opacity="0.16"/><circle cx="128.5" cy="176.3" r="0.7" fill="#5c5a56" opacity="0.15"/><circle cx="105.8" cy="149.3" r="0.9" fill="#5c5a56" opacity="0.16"/><circle cx="207.8" cy="160.9" r="1.3" fill="#5c5a56" opacity="0.13"/><circle cx="180.9" cy="163.4" r="1.1" fill="#6e6c67" opacity="0.13"/><circle cx="201.3" cy="166.5" r="0.8" fill="#6e6c67" opacity="0.22"/><circle cx="110.2" cy="180.1" r="1.3" fill="#5c5a56" opacity="0.12"/><circle cx="118.4" cy="138.2" r="0.6" fill="#5c5a56" opacity="0.14"/><circle cx="105.3" cy="153.5" r="0.6" fill="#a7a5a0" opacity="0.2"/><circle cx="105.6" cy="207.7" r="1.0" fill="#a7a5a0" opacity="0.11"/><circle cx="129.4" cy="168.8" r="1.4" fill="#5c5a56" opacity="0.17"/><circle cx="128.7" cy="193.2" r="0.9" fill="#5c5a56" opacity="0.14"/><circle cx="191.7" cy="140.8" r="1.1" fill="#6e6c67" opacity="0.12"/><circle cx="156.9" cy="204.0" r="0.5" fill="#5c5a56" opacity="0.19"/><circle cx="160.1" cy="206.4" r="0.5" fill="#6e6c67" opacity="0.16"/><circle cx="188.7" cy="147.1" r="0.9" fill="#5c5a56" opacity="0.17"/><circle cx="158.7" cy="141.7" r="1.2" fill="#a7a5a0" opacity="0.11"/><circle cx="177.0" cy="142.7" r="0.6" fill="#a7a5a0" opacity="0.14"/><circle cx="130.5" cy="161.3" r="1.1" fill="#6e6c67" opacity="0.11"/><circle cx="185.1" cy="174.2" r="1.0" fill="#6e6c67" opacity="0.22"/><circle cx="127.8" cy="171.8" r="1.0" fill="#6e6c67" opacity="0.15"/><circle cx="116.3" cy="132.7" r="0.8" fill="#a7a5a0" opacity="0.18"/><circle cx="148.5" cy="111.7" r="0.9" fill="#6e6c67" opacity="0.19"/><circle cx="165.4" cy="167.2" r="0.8" fill="#6e6c67" opacity="0.21"/><circle cx="137.5" cy="154.4" r="0.8" fill="#5c5a56" opacity="0.14"/><circle cx="100.9" cy="139.9" r="1.1" fill="#6e6c67" opacity="0.21"/><circle cx="191.0" cy="181.9" r="1.0" fill="#5c5a56" opacity="0.16"/><circle cx="174.9" cy="182.8" r="1.3" fill="#a7a5a0" opacity="0.21"/><circle cx="122.0" cy="189.4" r="1.2" fill="#a7a5a0" opacity="0.16"/><circle cx="159.7" cy="199.4" r="0.6" fill="#5c5a56" opacity="0.15"/><circle cx="123.9" cy="143.5" r="1.4" fill="#5c5a56" opacity="0.17"/><circle cx="154.2" cy="182.1" r="1.4" fill="#a7a5a0" opacity="0.18"/><circle cx="94.5" cy="170.3" r="1.3" fill="#6e6c67" opacity="0.21"/><circle cx="192.0" cy="207.3" r="1.3" fill="#a7a5a0" opacity="0.14"/><circle cx="151.0" cy="133.6" r="0.9" fill="#6e6c67" opacity="0.2"/><circle cx="157.2" cy="155.6" r="0.9" fill="#a7a5a0" opacity="0.13"/><circle cx="142.3" cy="202.5" r="1.2" fill="#6e6c67" opacity="0.14"/><circle cx="171.6" cy="186.2" r="0.7" fill="#a7a5a0" opacity="0.12"/><circle cx="122.7" cy="170.9" r="0.9" fill="#5c5a56" opacity="0.12"/><circle cx="132.3" cy="127.9" r="1.0" fill="#5c5a56" opacity="0.16"/><circle cx="122.3" cy="139.2" r="0.6" fill="#6e6c67" opacity="0.16"/><circle cx="142.2" cy="170.1" r="0.8" fill="#6e6c67" opacity="0.21"/><circle cx="138.9" cy="142.0" r="1.5" fill="#5c5a56" opacity="0.13"/><circle cx="191.8" cy="166.8" r="0.6" fill="#6e6c67" opacity="0.15"/>
<circle cx="124.0" cy="174.2" r="5.6" fill="#83817c" opacity="0.65"/><circle cx="124.0" cy="174.2" r="5.6" fill="none" stroke="#5f5d59" stroke-width="0.9" opacity="0.55"/><circle cx="122.6" cy="172.8" r="2.8" fill="#a3a19c" opacity="0.4"/>
<circle cx="142.6" cy="185.4" r="3.7" fill="#83817c" opacity="0.65"/><circle cx="142.6" cy="185.4" r="3.7" fill="none" stroke="#5f5d59" stroke-width="0.6" opacity="0.55"/><circle cx="141.6" cy="184.4" r="1.9" fill="#a3a19c" opacity="0.4"/>
<circle cx="159.9" cy="166.8" r="3.1" fill="#83817c" opacity="0.65"/><circle cx="159.9" cy="166.8" r="3.1" fill="none" stroke="#5f5d59" stroke-width="0.5" opacity="0.55"/><circle cx="159.1" cy="166.0" r="1.6" fill="#a3a19c" opacity="0.4"/>
<circle cx="143.8" cy="146.3" r="3.4" fill="#83817c" opacity="0.65"/><circle cx="143.8" cy="146.3" r="3.4" fill="none" stroke="#5f5d59" stroke-width="0.5" opacity="0.55"/><circle cx="142.9" cy="145.4" r="1.7" fill="#a3a19c" opacity="0.4"/>
<circle cx="171.1" cy="189.1" r="3.1" fill="#83817c" opacity="0.65"/><circle cx="171.1" cy="189.1" r="3.1" fill="none" stroke="#5f5d59" stroke-width="0.5" opacity="0.55"/><circle cx="170.3" cy="188.3" r="1.6" fill="#a3a19c" opacity="0.4"/>
<circle cx="177.3" cy="146.9" r="2.8" fill="#83817c" opacity="0.65"/><circle cx="177.3" cy="146.9" r="2.8" fill="none" stroke="#5f5d59" stroke-width="0.5" opacity="0.55"/><circle cx="176.6" cy="146.2" r="1.4" fill="#a3a19c" opacity="0.4"/>
<circle cx="174.8" cy="156.8" r="6.8" fill="#7d7b76" opacity="0.7"/>
<circle cx="174.8" cy="156.8" r="6.8" fill="none" stroke="#5c5a56" stroke-width="0.8" opacity="0.6"/>
<circle cx="174.8" cy="156.8" r="8.1" fill="#f4f5f2" opacity="0.14"/>
<circle cx="174.8" cy="156.8" r="2.8" fill="#fbfcfa" opacity="0.95"/>
<circle cx="177.9" cy="158.7" r="1.7" fill="#f4f6f3" opacity="0.9"/>
<path d="M150.0 106.0 A62 62 0 0 1 150.0 230.0 A55.8 62 0 0 0 150.0 106.0 Z" fill="#232220" opacity="0.20"/>
</g>
<circle cx="150" cy="168" r="62" fill="none" stroke="#63615c" stroke-width="0.8" opacity="0.72"/></g>
</svg>