<svg xmlns="http://www.w3.org/2000/svg" viewBox="228 106 124 124">
<clipPath id="eu290_168"><circle cx="290" cy="168" r="62"/></clipPath>
<g clip-path="url(#eu290_168)">
<rect x="228" y="106" width="124" height="124" fill="#e7ddc9"/>
<ellipse cx="290.0" cy="130.8" rx="83.7" ry="37.2" fill="#dde3e0" opacity="0.3" transform="rotate(0 290.0 130.8)"/>
<ellipse cx="290.0" cy="206.4" rx="83.7" ry="37.2" fill="#d7ddda" opacity="0.26" transform="rotate(0 290.0 206.4)"/>
<ellipse cx="293.1" cy="166.8" rx="73.8" ry="43.4" fill="#e9d8b8" opacity="0.3" transform="rotate(0 293.1 166.8)"/>
<ellipse cx="277.6" cy="158.7" rx="39.7" ry="29.8" fill="#cdab86" opacity="0.12" transform="rotate(-10 277.6 158.7)"/><ellipse cx="277.6" cy="158.7" rx="24.8" ry="18.6" fill="#cdab86" opacity="0.22" transform="rotate(-10 277.6 158.7)"/>
<ellipse cx="308.6" cy="175.4" rx="35.7" ry="27.8" fill="#c49d79" opacity="0.12" transform="rotate(12 308.6 175.4)"/><ellipse cx="308.6" cy="175.4" rx="22.3" ry="17.4" fill="#c49d79" opacity="0.22" transform="rotate(12 308.6 175.4)"/>
<path d="M228.0 149.3 L236.7 152.1 L245.6 153.8 L254.4 156.3 L263.8 155.7 L272.6 158.2 L280.7 163.2 L290.1 162.9 L299.3 163.4 L308.1 165.7 L316.3 170.6 L325.4 171.3 L334.1 174.2 L343.2 175.0 L352.2 176.6" fill="none" stroke="#9a5a3e" stroke-width="1.116" opacity="0.5" stroke-linecap="round"/>
<path d="M228.0 149.3 L236.7 152.1 L245.6 153.8 L254.4 156.3 L263.8 155.7 L272.6 158.2 L280.7 163.2 L290.1 162.9 L299.3 163.4 L308.1 165.7 L316.3 170.6 L325.4 171.3 L334.1 174.2 L343.2 175.0 L352.2 176.6" fill="none" stroke="#7a3f2a" stroke-width="0.496" opacity="0.4" stroke-linecap="round"/>
<path d="M234.1 183.0 L242.7 182.5 L250.6 179.3 L258.4 175.5 L266.9 174.2 L275.1 172.0 L282.7 167.7 L291.1 166.5 L299.6 165.1 L307.8 163.1 L315.9 160.5 L324.2 158.6 L332.5 156.7 L340.8 155.2 L348.8 152.3" fill="none" stroke="#9a5a3e" stroke-width="1.116" opacity="0.5" stroke-linecap="round"/>
<path d="M234.1 183.0 L242.7 182.5 L250.6 179.3 L258.4 175.5 L266.9 174.2 L275.1 172.0 L282.7 167.7 L291.1 166.5 L299.6 165.1 L307.8 163.1 L315.9 160.5 L324.2 158.6 L332.5 156.7 L340.8 155.2 L348.8 152.3" fill="none" stroke="#7a3f2a" stroke-width="0.496" opacity="0.4" stroke-linecap="round"/>
<path d="M258.8 106.1 L262.7 114.9 L266.5 123.7 L269.8 132.8 L275.6 140.8 L277.3 150.5 L279.5 160.0 L286.4 167.6 L290.2 176.4 L291.9 186.1 L296.8 194.5 L301.1 203.1 L304.7 212.1 L307.5 221.3 L312.4 229.7" fill="none" stroke="#9a5a3e" stroke-width="1.116" opacity="0.5" stroke-linecap="round"/>
<path d="M258.8 106.1 L262.7 114.9 L266.5 123.7 L269.8 132.8 L275.6 140.8 L277.3 150.5 L279.5 160.0 L286.4 167.6 L290.2 176.4 L291.9 186.1 L296.8 194.5 L301.1 203.1 L304.7 212.1 L307.5 221.3 L312.4 229.7" fill="none" stroke="#7a3f2a" stroke-width="0.496" opacity="0.4" stroke-linecap="round"/>
<path d="M302.5 106.0 L300.2 114.7 L300.7 124.0 L298.1 132.6 L295.9 141.4 L293.7 150.1 L295.6 159.6 L290.8 167.9 L292.0 177.2 L290.0 186.0 L288.3 194.8 L284.2 203.2 L283.5 212.2 L281.6 221.0 L280.9 230.0" fill="none" stroke="#9a5a3e" stroke-width="1.116" opacity="0.5" stroke-linecap="round"/>
<path d="M302.5 106.0 L300.2 114.7 L300.7 124.0 L298.1 132.6 L295.9 141.4 L293.7 150.1 L295.6 159.6 L290.8 167.9 L292.0 177.2 L290.0 186.0 L288.3 194.8 L284.2 203.2 L283.5 212.2 L281.6 221.0 L280.9 230.0" fill="none" stroke="#7a3f2a" stroke-width="0.496" opacity="0.4" stroke-linecap="round"/>
<path d="M227.8 168.7 L236.9 170.2 L245.7 172.9 L254.6 175.4 L263.6 177.2 L272.7 178.8 L281.3 182.1 L289.5 186.9 L299.1 186.7 L307.5 190.7 L316.7 192.0 L325.5 194.5 L334.4 196.7 L343.2 199.4 L351.8 202.7" fill="none" stroke="#9a5a3e" stroke-width="1.116" opacity="0.5" stroke-linecap="round"/>
<path d="M227.8 168.7 L236.9 170.2 L245.7 172.9 L254.6 175.4 L263.6 177.2 L272.7 178.8 L281.3 182.1 L289.5 186.9 L299.1 186.7 L307.5 190.7 L316.7 192.0 L325.5 194.5 L334.4 196.7 L343.2 199.4 L351.8 202.7" fill="none" stroke="#7a3f2a" stroke-width="0.496" opacity="0.4" stroke-linecap="round"/>
<path d="M271.6 130.6 L276.3 137.8 L282.8 143.3 L289.5 148.6 L294.5 155.5 L301.1 160.9 L306.9 167.1 L312.1 173.8 L317.1 180.8 L322.2 187.5 L327.4 194.2 L333.3 200.4 L340.8 204.9 L345.2 212.4 L352.5 217.1" fill="none" stroke="#9a5a3e" stroke-width="1.116" opacity="0.5" stroke-linecap="round"/>
<path d="M271.6 130.6 L276.3 137.8 L282.8 143.3 L289.5 148.6 L294.5 155.5 L301.1 160.9 L306.9 167.1 L312.1 173.8 L317.1 180.8 L322.2 187.5 L327.4 194.2 L333.3 200.4 L340.8 204.9 L345.2 212.4 L352.5 217.1" fill="none" stroke="#7a3f2a" stroke-width="0.496" opacity="0.4" stroke-linecap="round"/>
<path d="M227.5 134.4 L234.9 141.0 L242.3 147.5 L248.2 155.6 L256.6 161.1 L263.9 167.7 L269.8 175.9 L277.0 182.5 L285.2 188.3 L292.5 194.9 L300.2 201.2 L305.7 209.7 L313.7 215.6 L320.4 222.8 L326.9 230.3" fill="none" stroke="#9a5a3e" stroke-width="1.116" opacity="0.5" stroke-linecap="round"/>
<path d="M227.5 134.4 L234.9 141.0 L242.3 147.5 L248.2 155.6 L256.6 161.1 L263.9 167.7 L269.8 175.9 L277.0 182.5 L285.2 188.3 L292.5 194.9 L300.2 201.2 L305.7 209.7 L313.7 215.6 L320.4 222.8 L326.9 230.3" fill="none" stroke="#7a3f2a" stroke-width="0.496" opacity="0.4" stroke-linecap="round"/>
<path d="M327.1 112.2 L328.2 118.2 L331.1 123.6 L332.7 129.4 L333.8 135.4 L335.3 141.2 L336.3 147.2 L341.0 152.1 L340.2 158.6 L342.8 164.1 L346.1 169.4 L347.7 175.2 L349.6 180.9 L350.6 186.9 L352.5 192.7" fill="none" stroke="#9a5a3e" stroke-width="1.116" opacity="0.5" stroke-linecap="round"/>
<path d="M327.1 112.2 L328.2 118.2 L331.1 123.6 L332.7 129.4 L333.8 135.4 L335.3 141.2 L336.3 147.2 L341.0 152.1 L340.2 158.6 L342.8 164.1 L346.1 169.4 L347.7 175.2 L349.6 180.9 L350.6 186.9 L352.5 192.7" fill="none" stroke="#7a3f2a" stroke-width="0.496" opacity="0.4" stroke-linecap="round"/>
<path d="M245.7 124.2 L249.9 125.4 L253.8 127.3 L258.5 126.5 L262.8 127.1 L266.7 129.3 L270.8 130.6 L275.0 131.9 L279.3 132.2 L283.1 134.8 L287.3 136.1 L292.0 135.2 L295.9 137.3 L299.8 139.4 L304.2 139.6" fill="none" stroke="#a86b4c" stroke-width="0.62" opacity="0.35" stroke-linecap="round"/>
<path d="M307.7 108.4 L309.2 112.9 L308.4 117.9 L309.8 122.4 L310.7 127.0 L312.3 131.5 L312.8 136.2 L314.3 140.7 L314.6 145.4 L317.2 149.7 L318.3 154.3 L316.7 159.4 L319.6 163.6 L319.8 168.3 L320.5 173.0" fill="none" stroke="#a86b4c" stroke-width="0.62" opacity="0.35" stroke-linecap="round"/>
<path d="M285.8 106.3 L289.1 109.7 L289.9 114.7 L293.0 118.3 L297.4 121.1 L299.5 125.3 L299.7 130.6 L302.5 134.3 L307.0 137.1 L307.9 142.0 L310.6 145.8 L314.1 149.2 L314.9 154.1 L318.8 157.2 L319.8 162.1" fill="none" stroke="#a86b4c" stroke-width="0.62" opacity="0.35" stroke-linecap="round"/>
<path d="M350.8 178.6 L347.6 180.9 L343.6 181.0 L339.9 181.9 L336.3 183.0 L333.7 186.9 L329.2 185.7 L325.7 186.9 L322.9 190.4 L319.3 191.6 L315.2 191.3 L312.2 194.2 L308.7 195.4 L304.7 195.6 L301.1 196.7" fill="none" stroke="#a86b4c" stroke-width="0.62" opacity="0.35" stroke-linecap="round"/>
<path d="M348.7 146.9 L345.9 150.0 L343.1 153.0 L340.2 155.9 L336.7 158.4 L336.1 163.3 L329.9 163.5 L328.8 168.0 L328.3 173.0 L325.6 176.1 L322.3 178.8 L318.9 181.3 L316.2 184.5 L313.3 187.4 L310.3 190.3" fill="none" stroke="#a86b4c" stroke-width="0.62" opacity="0.35" stroke-linecap="round"/>
<path d="M340.0 131.7 L338.9 134.6 L337.4 137.3 L334.9 139.4 L335.8 143.4 L333.7 145.8 L331.7 148.2 L328.9 150.3 L328.1 153.3 L328.4 157.0 L327.5 159.9 L326.0 162.6 L323.3 164.8 L322.1 167.6 L320.1 170.0" fill="none" stroke="#a86b4c" stroke-width="0.62" opacity="0.35" stroke-linecap="round"/>
<path d="M228.9 179.7 L232.3 178.5 L235.4 177.0 L235.9 172.4 L239.6 171.6 L241.3 168.5 L244.0 166.5 L247.3 165.2 L249.6 162.7 L252.1 160.5 L255.6 159.5 L256.4 155.3 L260.7 155.1 L262.5 152.1 L264.3 149.1" fill="none" stroke="#a86b4c" stroke-width="0.62" opacity="0.35" stroke-linecap="round"/>
<path d="M230.4 151.5 L234.2 150.1 L238.0 148.8 L241.9 148.1 L245.9 147.8 L249.4 145.1 L253.5 145.3 L257.0 142.7 L260.7 141.3 L264.5 139.8 L269.4 142.8 L272.9 140.4 L276.8 139.9 L280.5 138.0 L284.4 137.3" fill="none" stroke="#a86b4c" stroke-width="0.62" opacity="0.35" stroke-linecap="round"/>
<path d="M351.6 172.6 L348.8 174.4 L346.0 176.2 L342.6 176.6 L339.2 177.0 L336.7 179.5 L334.1 181.7 L330.9 182.8 L328.0 184.2 L325.1 185.8 L321.8 186.5 L318.7 187.6 L315.8 189.1 L312.6 190.0 L309.6 191.5" fill="none" stroke="#a86b4c" stroke-width="0.62" opacity="0.35" stroke-linecap="round"/>
<path d="M277.7 229.2 L277.3 224.5 L275.5 220.1 L274.4 215.6 L274.3 210.8 L269.6 207.4 L269.8 202.4 L265.9 198.8 L268.0 193.2 L267.1 188.6 L263.1 185.0 L264.0 179.9 L261.2 175.9 L260.5 171.2 L258.8 166.8" fill="none" stroke="#a86b4c" stroke-width="0.62" opacity="0.35" stroke-linecap="round"/>
<circle cx="255.9" cy="186.6" r="1.9" fill="#8f5236" opacity="0.5"/>
<circle cx="308.6" cy="199.0" r="1.6" fill="#8f5236" opacity="0.5"/>
<circle cx="324.1" cy="155.6" r="1.2" fill="#8f5236" opacity="0.5"/>
<circle cx="316.0" cy="199.0" r="31.0" fill="#f1ece0" opacity="0.10"/>
<circle cx="316.0" cy="199.0" r="1.6" fill="#3a2a1e" opacity="0.6"/>
<path d="M290.0 106.0 A62 62 0 0 1 290.0 230.0 A55.8 62 0 0 0 290.0 106.0 Z" fill="#1c2226" opacity="0.14"/>
</g>
<circle cx="290" cy="168" r="62" fill="none" stroke="#9a937f" stroke-width="0.8" opacity="0.7"/>
</svg>
