<svg xmlns="http://www.w3.org/2000/svg" viewBox="462 348 16 16">
<clipPath id="gd470_356"><circle cx="470" cy="356" r="8"/></clipPath>
<g clip-path="url(#gd470_356)">
<rect x="462" y="348" width="16" height="16" fill="#9a9286"/>
<ellipse cx="469.2" cy="354.0" rx="2.7" ry="2.1" fill="#5f574b" opacity="0.5" transform="rotate(-12 469.2 354.0)"/>
<ellipse cx="472.0" cy="357.6" rx="2.1" ry="2.4" fill="#5f574b" opacity="0.45" transform="rotate(15 472.0 357.6)"/>
<circle cx="472.8" cy="355.6" r="1.8" fill="#eceae2" opacity="0.05"/><circle cx="473.2" cy="355.6" r="0.8" fill="#eceae2" opacity="0.33"/><circle cx="473.4" cy="355.6" r="1.1" fill="#eceae2" opacity="0.33"/><circle cx="473.5" cy="355.5" r="0.8" fill="#eceae2" opacity="0.32"/><circle cx="473.7" cy="355.6" r="0.6" fill="#eceae2" opacity="0.32"/><circle cx="473.9" cy="355.6" r="0.7" fill="#eceae2" opacity="0.18"/><circle cx="474.0" cy="355.5" r="0.5" fill="#eceae2" opacity="0.17"/><circle cx="474.2" cy="355.5" r="0.6" fill="#eceae2" opacity="0.17"/><circle cx="474.3" cy="355.5" r="0.4" fill="#eceae2" opacity="0.1"/><circle cx="474.5" cy="355.4" r="0.2" fill="#eceae2" opacity="0.06"/><circle cx="473.1" cy="355.9" r="0.9" fill="#eceae2" opacity="0.32"/><circle cx="473.3" cy="356.0" r="1.0" fill="#eceae2" opacity="0.34"/><circle cx="473.4" cy="356.0" r="0.8" fill="#eceae2" opacity="0.32"/><circle cx="473.6" cy="356.1" r="0.7" fill="#eceae2" opacity="0.26"/><circle cx="473.7" cy="356.3" r="0.7" fill="#eceae2" opacity="0.21"/><circle cx="473.8" cy="356.4" r="0.6" fill="#eceae2" opacity="0.22"/><circle cx="474.0" cy="356.5" r="0.6" fill="#eceae2" opacity="0.15"/><circle cx="474.2" cy="356.5" r="0.5" fill="#eceae2" opacity="0.17"/><circle cx="474.3" cy="356.6" r="0.3" fill="#eceae2" opacity="0.09"/><circle cx="474.4" cy="356.7" r="0.2" fill="#eceae2" opacity="0.07"/><circle cx="472.9" cy="356.1" r="1.2" fill="#eceae2" opacity="0.41"/><circle cx="473.0" cy="356.5" r="0.8" fill="#eceae2" opacity="0.41"/><circle cx="473.1" cy="356.8" r="0.6" fill="#eceae2" opacity="0.27"/><circle cx="473.1" cy="357.2" r="0.7" fill="#eceae2" opacity="0.21"/><circle cx="473.3" cy="357.6" r="0.5" fill="#eceae2" opacity="0.17"/><circle cx="473.4" cy="357.9" r="0.5" fill="#eceae2" opacity="0.13"/><circle cx="473.4" cy="358.3" r="0.2" fill="#eceae2" opacity="0.08"/><circle cx="472.5" cy="356.0" r="1.2" fill="#eceae2" opacity="0.38"/><circle cx="472.4" cy="356.3" r="0.7" fill="#eceae2" opacity="0.28"/><circle cx="472.2" cy="356.6" r="0.7" fill="#eceae2" opacity="0.34"/><circle cx="472.0" cy="356.9" r="0.9" fill="#eceae2" opacity="0.21"/><circle cx="471.8" cy="357.2" r="0.5" fill="#eceae2" opacity="0.18"/><circle cx="471.7" cy="357.5" r="0.5" fill="#eceae2" opacity="0.14"/><circle cx="471.5" cy="357.8" r="0.4" fill="#eceae2" opacity="0.09"/><circle cx="471.3" cy="358.0" r="0.2" fill="#eceae2" opacity="0.08"/><circle cx="472.3" cy="355.7" r="0.8" fill="#eceae2" opacity="0.35"/><circle cx="472.1" cy="355.9" r="0.8" fill="#eceae2" opacity="0.36"/><circle cx="471.8" cy="355.9" r="0.8" fill="#eceae2" opacity="0.34"/><circle cx="471.6" cy="356.1" r="0.6" fill="#eceae2" opacity="0.24"/><circle cx="471.3" cy="356.2" r="0.7" fill="#eceae2" opacity="0.24"/><circle cx="471.0" cy="356.2" r="0.5" fill="#eceae2" opacity="0.17"/><circle cx="470.8" cy="356.3" r="0.4" fill="#eceae2" opacity="0.14"/><circle cx="470.5" cy="356.4" r="0.4" fill="#eceae2" opacity="0.13"/><circle cx="470.2" cy="356.4" r="0.2" fill="#eceae2" opacity="0.07"/><circle cx="472.4" cy="355.4" r="0.9" fill="#eceae2" opacity="0.48"/><circle cx="472.2" cy="355.4" r="1.0" fill="#eceae2" opacity="0.42"/><circle cx="472.0" cy="355.3" r="0.9" fill="#eceae2" opacity="0.33"/><circle cx="471.8" cy="355.3" r="0.9" fill="#eceae2" opacity="0.26"/><circle cx="471.7" cy="355.2" r="0.8" fill="#eceae2" opacity="0.21"/><circle cx="471.5" cy="355.1" r="0.5" fill="#eceae2" opacity="0.23"/><circle cx="471.3" cy="355.1" r="0.6" fill="#eceae2" opacity="0.15"/><circle cx="471.1" cy="355.0" r="0.4" fill="#eceae2" opacity="0.11"/><circle cx="470.9" cy="355.0" r="0.4" fill="#eceae2" opacity="0.1"/><circle cx="470.7" cy="354.9" r="0.2" fill="#eceae2" opacity="0.06"/><circle cx="472.6" cy="355.2" r="1.1" fill="#eceae2" opacity="0.45"/><circle cx="472.6" cy="355.1" r="1.1" fill="#eceae2" opacity="0.36"/><circle cx="472.5" cy="354.9" r="0.7" fill="#eceae2" opacity="0.33"/><circle cx="472.5" cy="354.8" r="0.7" fill="#eceae2" opacity="0.29"/><circle cx="472.4" cy="354.6" r="0.5" fill="#eceae2" opacity="0.17"/><circle cx="472.4" cy="354.5" r="0.6" fill="#eceae2" opacity="0.16"/><circle cx="472.3" cy="354.3" r="0.4" fill="#eceae2" opacity="0.1"/><circle cx="472.3" cy="354.2" r="0.2" fill="#eceae2" opacity="0.07"/><circle cx="473.0" cy="355.1" r="0.8" fill="#eceae2" opacity="0.38"/><circle cx="473.1" cy="354.7" r="0.9" fill="#eceae2" opacity="0.31"/><circle cx="473.2" cy="354.3" r="0.6" fill="#eceae2" opacity="0.25"/><circle cx="473.4" cy="353.8" r="0.5" fill="#eceae2" opacity="0.23"/><circle cx="473.5" cy="353.4" r="0.5" fill="#eceae2" opacity="0.13"/><circle cx="473.5" cy="353.0" r="0.4" fill="#eceae2" opacity="0.08"/><circle cx="473.2" cy="355.3" r="0.8" fill="#eceae2" opacity="0.46"/><circle cx="473.4" cy="355.1" r="0.7" fill="#eceae2" opacity="0.31"/><circle cx="473.7" cy="354.9" r="0.8" fill="#eceae2" opacity="0.3"/><circle cx="473.9" cy="354.8" r="0.5" fill="#eceae2" opacity="0.3"/><circle cx="474.1" cy="354.5" r="0.6" fill="#eceae2" opacity="0.24"/><circle cx="474.4" cy="354.4" r="0.4" fill="#eceae2" opacity="0.19"/><circle cx="474.6" cy="354.2" r="0.4" fill="#eceae2" opacity="0.17"/><circle cx="474.9" cy="354.0" r="0.4" fill="#eceae2" opacity="0.13"/><circle cx="475.1" cy="353.8" r="0.3" fill="#eceae2" opacity="0.07"/><circle cx="472.8" cy="355.6" r="0.5" fill="#eceae2" opacity="0.7"/>
<path d="M470.0 348.0 A8 8 0 0 1 470.0 364.0 A7.2 8 0 0 0 470.0 348.0 Z" fill="#1d1a15" opacity="0.20"/>
</g>
<circle cx="470" cy="356" r="8" fill="none" stroke="#6a6256" stroke-width="0.6" opacity="0.72"/>
</svg>
