<svg xmlns="http://www.w3.org/2000/svg" viewBox="408 106 124 124">
<clipPath id="gd470_168"><circle cx="470" cy="168" r="62"/></clipPath>
<g clip-path="url(#gd470_168)">
<rect x="408" y="106" width="124" height="124" fill="#9a9286"/>
<ellipse cx="462.6" cy="148.2" rx="31.6" ry="22.3" fill="#5f574b" opacity="0.22" transform="rotate(-12 462.6 148.2)"/><ellipse cx="462.6" cy="148.2" rx="21.1" ry="14.9" fill="#5f574b" opacity="0.5" transform="rotate(-12 462.6 148.2)"/>
<ellipse cx="488.6" cy="156.8" rx="20.5" ry="27.9" fill="#5f574b" opacity="0.22" transform="rotate(18 488.6 156.8)"/><ellipse cx="488.6" cy="156.8" rx="13.6" ry="18.6" fill="#5f574b" opacity="0.5" transform="rotate(18 488.6 156.8)"/>
<ellipse cx="445.2" cy="180.4" rx="18.6" ry="24.2" fill="#5f574b" opacity="0.22" transform="rotate(-8 445.2 180.4)"/><ellipse cx="445.2" cy="180.4" rx="12.4" ry="16.1" fill="#5f574b" opacity="0.5" transform="rotate(-8 445.2 180.4)"/>
<ellipse cx="481.2" cy="192.8" rx="24.2" ry="16.7" fill="#5f574b" opacity="0.22" transform="rotate(10 481.2 192.8)"/><ellipse cx="481.2" cy="192.8" rx="16.1" ry="11.2" fill="#5f574b" opacity="0.5" transform="rotate(10 481.2 192.8)"/>
<ellipse cx="451.4" cy="164.9" rx="39.7" ry="49.6" fill="#b3aa9c" opacity="0.14" transform="rotate(20 451.4 164.9)"/><ellipse cx="451.4" cy="164.9" rx="24.8" ry="31.0" fill="#b3aa9c" opacity="0.28" transform="rotate(20 451.4 164.9)"/>
<ellipse cx="491.7" cy="174.2" rx="29.8" ry="44.6" fill="#ada595" opacity="0.12" transform="rotate(-15 491.7 174.2)"/><ellipse cx="491.7" cy="174.2" rx="18.6" ry="27.9" fill="#ada595" opacity="0.26" transform="rotate(-15 491.7 174.2)"/>
<circle cx="473.4" cy="213.2" r="0.9" fill="#534b40" opacity="0.12"/>
<circle cx="476.5" cy="170.8" r="0.6" fill="#cdc6b8" opacity="0.09"/>
<circle cx="512.1" cy="166.8" r="0.9" fill="#cdc6b8" opacity="0.11"/>
<circle cx="498.6" cy="207.7" r="1.0" fill="#cdc6b8" opacity="0.11"/>
<circle cx="462.6" cy="154.3" r="0.6" fill="#cdc6b8" opacity="0.12"/>
<circle cx="526.0" cy="179.1" r="1.1" fill="#534b40" opacity="0.13"/>
<circle cx="456.8" cy="110.6" r="0.8" fill="#534b40" opacity="0.14"/>
<circle cx="522.9" cy="145.3" r="0.6" fill="#534b40" opacity="0.07"/>
<circle cx="509.6" cy="159.3" r="0.8" fill="#cdc6b8" opacity="0.09"/>
<circle cx="442.6" cy="191.9" r="1.1" fill="#cdc6b8" opacity="0.12"/>
<circle cx="445.5" cy="114.2" r="0.9" fill="#cdc6b8" opacity="0.16"/>
<circle cx="499.6" cy="216.7" r="0.9" fill="#cdc6b8" opacity="0.15"/>
<circle cx="463.6" cy="140.5" r="0.6" fill="#cdc6b8" opacity="0.12"/>
<circle cx="522.3" cy="190.0" r="1.0" fill="#cdc6b8" opacity="0.07"/>
<circle cx="449.8" cy="180.7" r="1.1" fill="#534b40" opacity="0.14"/>
<circle cx="516.3" cy="181.2" r="0.7" fill="#534b40" opacity="0.13"/>
<circle cx="514.5" cy="126.6" r="0.6" fill="#cdc6b8" opacity="0.16"/>
<circle cx="512.1" cy="190.1" r="0.7" fill="#534b40" opacity="0.08"/>
<circle cx="451.4" cy="152.5" r="0.7" fill="#534b40" opacity="0.15"/>
<circle cx="526.2" cy="153.1" r="0.8" fill="#534b40" opacity="0.11"/>
<circle cx="440.7" cy="130.8" r="1.2" fill="#cdc6b8" opacity="0.12"/>
<circle cx="429.7" cy="166.2" r="0.6" fill="#cdc6b8" opacity="0.08"/>
<circle cx="513.9" cy="161.8" r="0.7" fill="#cdc6b8" opacity="0.06"/>
<circle cx="462.4" cy="163.8" r="0.4" fill="#cdc6b8" opacity="0.12"/>
<circle cx="440.8" cy="137.9" r="1.0" fill="#cdc6b8" opacity="0.1"/>
<circle cx="469.3" cy="158.9" r="1.2" fill="#534b40" opacity="0.13"/>
<circle cx="469.7" cy="209.5" r="0.7" fill="#cdc6b8" opacity="0.09"/>
<circle cx="455.7" cy="202.4" r="0.7" fill="#cdc6b8" opacity="0.09"/>
<circle cx="471.4" cy="158.0" r="0.6" fill="#cdc6b8" opacity="0.13"/>
<circle cx="479.4" cy="222.2" r="0.7" fill="#534b40" opacity="0.08"/>
<circle cx="463.7" cy="149.4" r="1.1" fill="#534b40" opacity="0.09"/>
<circle cx="417.4" cy="189.4" r="0.9" fill="#534b40" opacity="0.09"/>
<circle cx="500.9" cy="140.7" r="0.8" fill="#534b40" opacity="0.07"/>
<circle cx="490.0" cy="219.4" r="0.6" fill="#cdc6b8" opacity="0.08"/>
<circle cx="487.3" cy="122.0" r="0.5" fill="#cdc6b8" opacity="0.09"/>
<circle cx="455.8" cy="220.8" r="0.7" fill="#534b40" opacity="0.09"/>
<circle cx="435.6" cy="187.0" r="0.4" fill="#cdc6b8" opacity="0.08"/>
<circle cx="524.0" cy="147.9" r="1.2" fill="#cdc6b8" opacity="0.1"/>
<circle cx="496.0" cy="155.3" r="0.9" fill="#cdc6b8" opacity="0.14"/>
<circle cx="437.2" cy="164.1" r="0.5" fill="#534b40" opacity="0.08"/>
<circle cx="442.1" cy="150.6" r="1.1" fill="#cdc6b8" opacity="0.06"/>
<circle cx="449.6" cy="112.7" r="0.9" fill="#cdc6b8" opacity="0.15"/>
<circle cx="522.8" cy="172.4" r="0.9" fill="#534b40" opacity="0.09"/>
<circle cx="431.0" cy="161.8" r="0.7" fill="#cdc6b8" opacity="0.12"/>
<circle cx="469.1" cy="225.0" r="0.7" fill="#534b40" opacity="0.14"/>
<circle cx="484.6" cy="210.4" r="1.0" fill="#cdc6b8" opacity="0.08"/>
<circle cx="518.6" cy="142.0" r="0.9" fill="#cdc6b8" opacity="0.06"/>
<circle cx="478.9" cy="157.6" r="0.8" fill="#534b40" opacity="0.09"/>
<circle cx="432.6" cy="187.6" r="0.4" fill="#cdc6b8" opacity="0.06"/>
<circle cx="485.1" cy="183.5" r="1.1" fill="#534b40" opacity="0.16"/>
<circle cx="507.3" cy="190.4" r="0.7" fill="#534b40" opacity="0.09"/>
<circle cx="441.6" cy="130.5" r="0.7" fill="#534b40" opacity="0.08"/>
<circle cx="502.6" cy="200.1" r="0.5" fill="#cdc6b8" opacity="0.1"/>
<circle cx="486.3" cy="201.8" r="0.7" fill="#cdc6b8" opacity="0.14"/>
<circle cx="485.3" cy="122.0" r="0.8" fill="#534b40" opacity="0.1"/>
<circle cx="458.4" cy="129.9" r="0.6" fill="#cdc6b8" opacity="0.11"/>
<circle cx="420.1" cy="156.6" r="0.7" fill="#534b40" opacity="0.1"/>
<circle cx="513.2" cy="127.2" r="1.0" fill="#534b40" opacity="0.15"/>
<circle cx="466.8" cy="209.7" r="0.9" fill="#534b40" opacity="0.14"/>
<circle cx="511.5" cy="132.5" r="0.9" fill="#cdc6b8" opacity="0.13"/>
<circle cx="507.5" cy="196.4" r="1.0" fill="#534b40" opacity="0.07"/>
<circle cx="487.9" cy="173.1" r="0.5" fill="#534b40" opacity="0.15"/>
<circle cx="525.7" cy="176.3" r="0.9" fill="#534b40" opacity="0.14"/>
<circle cx="500.9" cy="116.7" r="0.4" fill="#cdc6b8" opacity="0.14"/>
<circle cx="474.8" cy="124.4" r="1.0" fill="#cdc6b8" opacity="0.07"/>
<circle cx="483.9" cy="161.9" r="1.1" fill="#534b40" opacity="0.12"/>
<circle cx="471.3" cy="194.0" r="1.0" fill="#534b40" opacity="0.12"/>
<circle cx="440.8" cy="191.0" r="0.7" fill="#534b40" opacity="0.1"/>
<circle cx="507.6" cy="189.7" r="1.0" fill="#cdc6b8" opacity="0.1"/>
<circle cx="497.2" cy="211.2" r="0.8" fill="#cdc6b8" opacity="0.13"/>
<circle cx="421.0" cy="173.0" r="0.5" fill="#cdc6b8" opacity="0.07"/>
<circle cx="469.3" cy="109.2" r="1.0" fill="#cdc6b8" opacity="0.1"/>
<circle cx="482.4" cy="197.2" r="0.7" fill="#534b40" opacity="0.12"/>
<circle cx="475.7" cy="218.7" r="1.0" fill="#cdc6b8" opacity="0.09"/>
<circle cx="421.5" cy="197.4" r="0.6" fill="#cdc6b8" opacity="0.09"/>
<circle cx="512.1" cy="174.2" r="0.7" fill="#534b40" opacity="0.08"/>
<circle cx="446.4" cy="216.6" r="0.8" fill="#534b40" opacity="0.16"/>
<circle cx="435.9" cy="143.5" r="0.8" fill="#cdc6b8" opacity="0.14"/>
<circle cx="418.3" cy="174.1" r="1.0" fill="#cdc6b8" opacity="0.1"/>
<circle cx="510.7" cy="157.6" r="1.0" fill="#534b40" opacity="0.08"/>
<circle cx="442.8" cy="114.4" r="0.6" fill="#cdc6b8" opacity="0.08"/>
<circle cx="468.6" cy="194.5" r="1.1" fill="#cdc6b8" opacity="0.15"/>
<circle cx="468.2" cy="225.1" r="1.0" fill="#534b40" opacity="0.1"/>
<circle cx="486.0" cy="177.6" r="0.7" fill="#cdc6b8" opacity="0.09"/>
<circle cx="425.8" cy="143.6" r="0.7" fill="#534b40" opacity="0.09"/>
<circle cx="442.0" cy="170.5" r="0.7" fill="#cdc6b8" opacity="0.16"/>
<circle cx="449.6" cy="162.2" r="0.5" fill="#534b40" opacity="0.13"/>
<circle cx="514.4" cy="129.9" r="0.7" fill="#534b40" opacity="0.15"/>
<circle cx="477.5" cy="115.1" r="0.9" fill="#534b40" opacity="0.13"/>
<circle cx="480.9" cy="138.3" r="0.9" fill="#cdc6b8" opacity="0.16"/>
<circle cx="449.9" cy="163.3" r="1.0" fill="#534b40" opacity="0.1"/>
<circle cx="449.9" cy="126.4" r="0.9" fill="#534b40" opacity="0.12"/>
<circle cx="494.9" cy="220.3" r="1.1" fill="#cdc6b8" opacity="0.07"/>
<circle cx="492.3" cy="195.4" r="0.8" fill="#cdc6b8" opacity="0.12"/>
<circle cx="445.1" cy="134.8" r="0.5" fill="#534b40" opacity="0.08"/>
<circle cx="458.6" cy="115.9" r="0.7" fill="#cdc6b8" opacity="0.13"/>
<circle cx="466.2" cy="205.8" r="0.8" fill="#cdc6b8" opacity="0.06"/>
<circle cx="470.9" cy="221.8" r="0.7" fill="#534b40" opacity="0.09"/>
<circle cx="417.9" cy="154.1" r="0.5" fill="#534b40" opacity="0.14"/>
<circle cx="467.5" cy="187.2" r="1.0" fill="#534b40" opacity="0.14"/>
<circle cx="480.6" cy="192.5" r="1.1" fill="#534b40" opacity="0.13"/>
<circle cx="469.6" cy="120.8" r="0.6" fill="#534b40" opacity="0.1"/>
<circle cx="424.4" cy="160.0" r="1.0" fill="#534b40" opacity="0.09"/>
<circle cx="524.0" cy="178.3" r="0.7" fill="#cdc6b8" opacity="0.15"/>
<circle cx="425.7" cy="152.8" r="0.9" fill="#cdc6b8" opacity="0.16"/>
<circle cx="452.6" cy="222.2" r="1.0" fill="#534b40" opacity="0.12"/>
<circle cx="523.9" cy="168.8" r="0.8" fill="#cdc6b8" opacity="0.11"/>
<circle cx="443.8" cy="174.6" r="0.8" fill="#cdc6b8" opacity="0.06"/>
<circle cx="445.1" cy="135.5" r="1.1" fill="#cdc6b8" opacity="0.16"/>
<circle cx="506.0" cy="209.1" r="0.7" fill="#cdc6b8" opacity="0.07"/>
<circle cx="471.8" cy="185.0" r="0.7" fill="#cdc6b8" opacity="0.15"/>
<circle cx="505.1" cy="130.8" r="0.9" fill="#534b40" opacity="0.15"/>
<circle cx="516.6" cy="145.0" r="1.0" fill="#cdc6b8" opacity="0.09"/>
<circle cx="521.8" cy="144.3" r="0.8" fill="#534b40" opacity="0.14"/>
<circle cx="479.8" cy="176.0" r="0.5" fill="#534b40" opacity="0.08"/>
<circle cx="418.7" cy="168.9" r="0.9" fill="#cdc6b8" opacity="0.1"/>
<circle cx="455.9" cy="207.4" r="0.5" fill="#cdc6b8" opacity="0.1"/>
<circle cx="512.0" cy="137.2" r="0.8" fill="#534b40" opacity="0.1"/>
<circle cx="446.1" cy="151.5" r="1.0" fill="#534b40" opacity="0.08"/>
<circle cx="495.8" cy="200.6" r="0.5" fill="#534b40" opacity="0.08"/>
<circle cx="449.3" cy="182.3" r="0.5" fill="#534b40" opacity="0.07"/>
<circle cx="455.0" cy="168.9" r="0.7" fill="#534b40" opacity="0.1"/>
<circle cx="466.0" cy="154.7" r="0.4" fill="#534b40" opacity="0.1"/>
<circle cx="498.0" cy="161.8" r="0.5" fill="#534b40" opacity="0.11"/>
<circle cx="444.1" cy="142.9" r="1.0" fill="#534b40" opacity="0.07"/>
<circle cx="461.4" cy="221.8" r="0.6" fill="#534b40" opacity="0.15"/>
<circle cx="470.0" cy="199.6" r="0.7" fill="#cdc6b8" opacity="0.12"/>
<circle cx="512.2" cy="196.2" r="0.4" fill="#cdc6b8" opacity="0.12"/>
<circle cx="488.1" cy="171.5" r="0.4" fill="#534b40" opacity="0.06"/>
<circle cx="437.1" cy="120.0" r="0.8" fill="#534b40" opacity="0.16"/>
<circle cx="489.4" cy="112.5" r="0.6" fill="#cdc6b8" opacity="0.06"/>
<circle cx="423.3" cy="130.8" r="1.1" fill="#534b40" opacity="0.09"/>
<circle cx="498.8" cy="193.3" r="1.1" fill="#534b40" opacity="0.13"/>
<circle cx="494.1" cy="215.0" r="0.8" fill="#cdc6b8" opacity="0.14"/>
<circle cx="502.8" cy="150.9" r="1.0" fill="#534b40" opacity="0.08"/>
<circle cx="438.4" cy="171.9" r="0.9" fill="#534b40" opacity="0.13"/>
<circle cx="460.7" cy="131.0" r="1.0" fill="#534b40" opacity="0.08"/>
<circle cx="511.5" cy="174.0" r="0.5" fill="#cdc6b8" opacity="0.13"/>
<circle cx="474.5" cy="224.2" r="1.1" fill="#cdc6b8" opacity="0.15"/>
<circle cx="414.7" cy="186.0" r="0.7" fill="#cdc6b8" opacity="0.09"/>
<circle cx="504.9" cy="185.0" r="0.9" fill="#cdc6b8" opacity="0.07"/>
<circle cx="483.4" cy="179.1" r="0.4" fill="#cdc6b8" opacity="0.08"/>
<circle cx="498.3" cy="208.3" r="0.6" fill="#cdc6b8" opacity="0.06"/>
<circle cx="498.2" cy="162.1" r="1.0" fill="#cdc6b8" opacity="0.1"/>
<circle cx="426.8" cy="134.8" r="0.5" fill="#cdc6b8" opacity="0.08"/>
<circle cx="519.0" cy="194.6" r="1.2" fill="#534b40" opacity="0.06"/>
<circle cx="488.2" cy="223.1" r="0.6" fill="#534b40" opacity="0.11"/>
<circle cx="493.1" cy="125.7" r="1.1" fill="#cdc6b8" opacity="0.14"/>
<circle cx="442.9" cy="207.2" r="1.1" fill="#534b40" opacity="0.07"/>
<circle cx="424.1" cy="137.0" r="0.8" fill="#534b40" opacity="0.11"/>
<circle cx="496.0" cy="164.9" r="11.6" fill="#eceae2" opacity="0.05"/><circle cx="498.3" cy="164.7" r="0.8" fill="#eceae2" opacity="0.33"/><circle cx="499.4" cy="164.6" r="1.1" fill="#eceae2" opacity="0.33"/><circle cx="500.5" cy="164.3" r="0.8" fill="#eceae2" opacity="0.32"/><circle cx="501.6" cy="164.6" r="0.6" fill="#eceae2" opacity="0.32"/><circle cx="502.7" cy="164.7" r="0.7" fill="#eceae2" opacity="0.18"/><circle cx="503.8" cy="164.0" r="0.5" fill="#eceae2" opacity="0.17"/><circle cx="504.9" cy="164.0" r="0.6" fill="#eceae2" opacity="0.17"/><circle cx="506.0" cy="164.4" r="0.4" fill="#eceae2" opacity="0.1"/><circle cx="507.1" cy="163.8" r="0.2" fill="#eceae2" opacity="0.06"/><circle cx="498.2" cy="165.9" r="0.9" fill="#eceae2" opacity="0.32"/><circle cx="499.3" cy="166.2" r="1.0" fill="#eceae2" opacity="0.34"/><circle cx="500.5" cy="166.4" r="0.8" fill="#eceae2" opacity="0.32"/><circle cx="501.5" cy="167.0" r="0.7" fill="#eceae2" opacity="0.26"/><circle cx="502.5" cy="167.6" r="0.7" fill="#eceae2" opacity="0.21"/><circle cx="503.5" cy="168.2" r="0.6" fill="#eceae2" opacity="0.22"/><circle cx="504.7" cy="168.4" r="0.6" fill="#eceae2" opacity="0.15"/><circle cx="506.0" cy="168.3" r="0.5" fill="#eceae2" opacity="0.17"/><circle cx="507.0" cy="169.1" r="0.3" fill="#eceae2" opacity="0.09"/><circle cx="508.0" cy="169.6" r="0.2" fill="#eceae2" opacity="0.07"/><circle cx="498.1" cy="167.1" r="1.2" fill="#eceae2" opacity="0.41"/><circle cx="499.9" cy="168.9" r="0.8" fill="#eceae2" opacity="0.41"/><circle cx="501.6" cy="170.7" r="0.6" fill="#eceae2" opacity="0.27"/><circle cx="502.8" cy="173.0" r="0.7" fill="#eceae2" opacity="0.21"/><circle cx="504.9" cy="174.6" r="0.5" fill="#eceae2" opacity="0.17"/><circle cx="506.7" cy="176.3" r="0.5" fill="#eceae2" opacity="0.13"/><circle cx="507.8" cy="178.7" r="0.2" fill="#eceae2" opacity="0.08"/><circle cx="496.7" cy="167.7" r="1.2" fill="#eceae2" opacity="0.38"/><circle cx="497.1" cy="169.9" r="0.7" fill="#eceae2" opacity="0.28"/><circle cx="497.6" cy="172.2" r="0.7" fill="#eceae2" opacity="0.34"/><circle cx="498.0" cy="174.4" r="0.9" fill="#eceae2" opacity="0.21"/><circle cx="498.3" cy="176.7" r="0.5" fill="#eceae2" opacity="0.18"/><circle cx="499.1" cy="178.8" r="0.5" fill="#eceae2" opacity="0.14"/><circle cx="499.5" cy="181.1" r="0.4" fill="#eceae2" opacity="0.09"/><circle cx="499.8" cy="183.3" r="0.2" fill="#eceae2" opacity="0.08"/><circle cx="495.4" cy="167.5" r="0.8" fill="#eceae2" opacity="0.35"/><circle cx="495.0" cy="169.3" r="0.8" fill="#eceae2" opacity="0.36"/><circle cx="494.6" cy="171.2" r="0.8" fill="#eceae2" opacity="0.34"/><circle cx="494.3" cy="173.0" r="0.6" fill="#eceae2" opacity="0.24"/><circle cx="493.9" cy="174.9" r="0.7" fill="#eceae2" opacity="0.24"/><circle cx="493.3" cy="176.7" r="0.5" fill="#eceae2" opacity="0.17"/><circle cx="492.4" cy="178.4" r="0.4" fill="#eceae2" opacity="0.14"/><circle cx="492.3" cy="180.3" r="0.4" fill="#eceae2" opacity="0.13"/><circle cx="491.5" cy="182.1" r="0.2" fill="#eceae2" opacity="0.07"/><circle cx="494.5" cy="166.7" r="0.9" fill="#eceae2" opacity="0.48"/><circle cx="493.8" cy="167.9" r="1.0" fill="#eceae2" opacity="0.42"/><circle cx="492.9" cy="168.9" r="0.9" fill="#eceae2" opacity="0.33"/><circle cx="492.1" cy="170.0" r="0.9" fill="#eceae2" opacity="0.26"/><circle cx="491.2" cy="170.9" r="0.8" fill="#eceae2" opacity="0.21"/><circle cx="490.3" cy="172.0" r="0.5" fill="#eceae2" opacity="0.23"/><circle cx="489.6" cy="173.1" r="0.6" fill="#eceae2" opacity="0.15"/><circle cx="488.9" cy="174.2" r="0.4" fill="#eceae2" opacity="0.11"/><circle cx="488.1" cy="175.3" r="0.4" fill="#eceae2" opacity="0.1"/><circle cx="487.1" cy="176.2" r="0.2" fill="#eceae2" opacity="0.06"/><circle cx="493.9" cy="165.8" r="1.1" fill="#eceae2" opacity="0.45"/><circle cx="492.7" cy="165.8" r="1.1" fill="#eceae2" opacity="0.36"/><circle cx="491.8" cy="166.5" r="0.7" fill="#eceae2" opacity="0.33"/><circle cx="490.6" cy="166.4" r="0.7" fill="#eceae2" opacity="0.29"/><circle cx="489.6" cy="167.0" r="0.5" fill="#eceae2" opacity="0.17"/><circle cx="488.5" cy="167.2" r="0.6" fill="#eceae2" opacity="0.16"/><circle cx="487.4" cy="167.6" r="0.4" fill="#eceae2" opacity="0.1"/><circle cx="486.3" cy="167.7" r="0.2" fill="#eceae2" opacity="0.07"/><circle cx="492.9" cy="164.4" r="0.8" fill="#eceae2" opacity="0.38"/><circle cx="490.0" cy="164.0" r="0.9" fill="#eceae2" opacity="0.31"/><circle cx="487.1" cy="163.7" r="0.6" fill="#eceae2" opacity="0.25"/><circle cx="484.2" cy="163.3" r="0.5" fill="#eceae2" opacity="0.23"/><circle cx="481.3" cy="162.8" r="0.5" fill="#eceae2" opacity="0.13"/><circle cx="478.3" cy="163.0" r="0.4" fill="#eceae2" opacity="0.08"/><circle cx="493.6" cy="163.6" r="0.8" fill="#eceae2" opacity="0.46"/><circle cx="491.9" cy="162.5" r="0.7" fill="#eceae2" opacity="0.31"/><circle cx="490.0" cy="161.6" r="0.8" fill="#eceae2" opacity="0.3"/><circle cx="488.3" cy="160.4" r="0.5" fill="#eceae2" opacity="0.3"/><circle cx="486.2" cy="159.8" r="0.6" fill="#eceae2" opacity="0.24"/><circle cx="484.6" cy="158.5" r="0.4" fill="#eceae2" opacity="0.19"/><circle cx="482.6" cy="157.9" r="0.4" fill="#eceae2" opacity="0.17"/><circle cx="481.0" cy="156.5" r="0.4" fill="#eceae2" opacity="0.13"/><circle cx="479.1" cy="155.6" r="0.3" fill="#eceae2" opacity="0.07"/><circle cx="494.7" cy="162.9" r="1.1" fill="#eceae2" opacity="0.47"/><circle cx="494.1" cy="161.6" r="0.8" fill="#eceae2" opacity="0.36"/><circle cx="493.5" cy="160.4" r="0.9" fill="#eceae2" opacity="0.31"/><circle cx="492.5" cy="159.4" r="0.6" fill="#eceae2" opacity="0.24"/><circle cx="492.2" cy="158.0" r="0.8" fill="#eceae2" opacity="0.22"/><circle cx="491.2" cy="157.0" r="0.6" fill="#eceae2" opacity="0.22"/><circle cx="490.6" cy="155.7" r="0.5" fill="#eceae2" opacity="0.15"/><circle cx="490.2" cy="154.4" r="0.5" fill="#eceae2" opacity="0.12"/><circle cx="489.0" cy="153.5" r="0.3" fill="#eceae2" opacity="0.09"/><circle cx="488.0" cy="152.5" r="0.3" fill="#eceae2" opacity="0.08"/><circle cx="495.5" cy="161.8" r="1.0" fill="#eceae2" opacity="0.41"/><circle cx="495.3" cy="158.9" r="0.9" fill="#eceae2" opacity="0.39"/><circle cx="495.2" cy="156.0" r="0.8" fill="#eceae2" opacity="0.22"/><circle cx="494.7" cy="153.1" r="0.6" fill="#eceae2" opacity="0.22"/><circle cx="494.5" cy="150.3" r="0.5" fill="#eceae2" opacity="0.13"/><circle cx="493.7" cy="147.5" r="0.4" fill="#eceae2" opacity="0.08"/><circle cx="496.9" cy="162.4" r="1.0" fill="#eceae2" opacity="0.4"/><circle cx="497.3" cy="160.8" r="0.9" fill="#eceae2" opacity="0.39"/><circle cx="498.1" cy="159.2" r="0.7" fill="#eceae2" opacity="0.26"/><circle cx="498.3" cy="157.5" r="0.8" fill="#eceae2" opacity="0.21"/><circle cx="498.7" cy="155.8" r="0.6" fill="#eceae2" opacity="0.18"/><circle cx="499.2" cy="154.1" r="0.3" fill="#eceae2" opacity="0.12"/><circle cx="499.7" cy="152.5" r="0.4" fill="#eceae2" opacity="0.07"/><circle cx="497.8" cy="163.1" r="1.0" fill="#eceae2" opacity="0.44"/><circle cx="498.8" cy="161.9" r="0.9" fill="#eceae2" opacity="0.35"/><circle cx="499.5" cy="160.5" r="0.6" fill="#eceae2" opacity="0.36"/><circle cx="500.6" cy="159.3" r="0.7" fill="#eceae2" opacity="0.21"/><circle cx="501.8" cy="158.3" r="0.7" fill="#eceae2" opacity="0.22"/><circle cx="502.8" cy="157.1" r="0.4" fill="#eceae2" opacity="0.13"/><circle cx="504.0" cy="156.1" r="0.5" fill="#eceae2" opacity="0.1"/><circle cx="504.5" cy="154.5" r="0.3" fill="#eceae2" opacity="0.06"/><circle cx="498.7" cy="163.9" r="1.2" fill="#eceae2" opacity="0.42"/><circle cx="500.7" cy="163.1" r="0.9" fill="#eceae2" opacity="0.38"/><circle cx="502.7" cy="162.2" r="0.8" fill="#eceae2" opacity="0.32"/><circle cx="504.6" cy="161.2" r="0.8" fill="#eceae2" opacity="0.2"/><circle cx="506.6" cy="160.4" r="0.4" fill="#eceae2" opacity="0.15"/><circle cx="508.8" cy="159.9" r="0.4" fill="#eceae2" opacity="0.11"/><circle cx="510.7" cy="158.9" r="0.3" fill="#eceae2" opacity="0.08"/><circle cx="496.0" cy="164.9" r="2.5" fill="#eceae2" opacity="0.7"/>
<circle cx="445.2" cy="194.0" r="8.2" fill="#eceae2" opacity="0.05"/><circle cx="447.1" cy="193.8" r="0.9" fill="#eceae2" opacity="0.4"/><circle cx="448.3" cy="193.7" r="0.6" fill="#eceae2" opacity="0.33"/><circle cx="449.5" cy="193.8" r="0.6" fill="#eceae2" opacity="0.21"/><circle cx="450.7" cy="193.7" r="0.5" fill="#eceae2" opacity="0.23"/><circle cx="451.9" cy="193.5" r="0.5" fill="#eceae2" opacity="0.15"/><circle cx="453.1" cy="193.7" r="0.4" fill="#eceae2" opacity="0.07"/><circle cx="447.1" cy="194.9" r="1.0" fill="#eceae2" opacity="0.41"/><circle cx="448.5" cy="195.6" r="0.7" fill="#eceae2" opacity="0.38"/><circle cx="449.9" cy="196.2" r="0.6" fill="#eceae2" opacity="0.26"/><circle cx="451.3" cy="196.9" r="0.7" fill="#eceae2" opacity="0.26"/><circle cx="452.8" cy="197.5" r="0.7" fill="#eceae2" opacity="0.21"/><circle cx="454.2" cy="198.1" r="0.5" fill="#eceae2" opacity="0.19"/><circle cx="455.7" cy="198.6" r="0.4" fill="#eceae2" opacity="0.1"/><circle cx="457.2" cy="199.1" r="0.3" fill="#eceae2" opacity="0.06"/><circle cx="445.9" cy="195.7" r="1.0" fill="#eceae2" opacity="0.34"/><circle cx="446.4" cy="196.5" r="0.9" fill="#eceae2" opacity="0.31"/><circle cx="447.0" cy="197.2" r="1.0" fill="#eceae2" opacity="0.35"/><circle cx="447.3" cy="198.2" r="0.7" fill="#eceae2" opacity="0.34"/><circle cx="447.7" cy="199.0" r="0.7" fill="#eceae2" opacity="0.26"/><circle cx="448.2" cy="199.8" r="0.7" fill="#eceae2" opacity="0.25"/><circle cx="448.7" cy="200.7" r="0.4" fill="#eceae2" opacity="0.19"/><circle cx="448.9" cy="201.6" r="0.5" fill="#eceae2" opacity="0.15"/><circle cx="449.3" cy="202.5" r="0.3" fill="#eceae2" opacity="0.09"/><circle cx="449.8" cy="203.3" r="0.3" fill="#eceae2" opacity="0.05"/><circle cx="445.2" cy="195.9" r="1.1" fill="#eceae2" opacity="0.35"/><circle cx="445.1" cy="197.1" r="0.8" fill="#eceae2" opacity="0.39"/><circle cx="445.2" cy="198.3" r="0.6" fill="#eceae2" opacity="0.25"/><circle cx="445.2" cy="199.4" r="0.6" fill="#eceae2" opacity="0.2"/><circle cx="444.8" cy="200.6" r="0.5" fill="#eceae2" opacity="0.17"/><circle cx="445.0" cy="201.8" r="0.2" fill="#eceae2" opacity="0.07"/><circle cx="443.9" cy="195.9" r="0.9" fill="#eceae2" opacity="0.41"/><circle cx="443.1" cy="197.5" r="0.8" fill="#eceae2" opacity="0.32"/><circle cx="441.8" cy="198.9" r="0.8" fill="#eceae2" opacity="0.32"/><circle cx="440.8" cy="200.4" r="0.6" fill="#eceae2" opacity="0.21"/><circle cx="440.0" cy="202.1" r="0.5" fill="#eceae2" opacity="0.16"/><circle cx="438.5" cy="203.3" r="0.3" fill="#eceae2" opacity="0.09"/><circle cx="443.6" cy="194.7" r="0.9" fill="#eceae2" opacity="0.32"/><circle cx="442.9" cy="194.9" r="0.7" fill="#eceae2" opacity="0.33"/><circle cx="442.2" cy="195.2" r="0.7" fill="#eceae2" opacity="0.27"/><circle cx="441.4" cy="195.3" r="0.9" fill="#eceae2" opacity="0.22"/><circle cx="440.7" cy="195.5" r="0.6" fill="#eceae2" opacity="0.2"/><circle cx="440.0" cy="195.9" r="0.4" fill="#eceae2" opacity="0.18"/><circle cx="439.2" cy="195.8" r="0.5" fill="#eceae2" opacity="0.18"/><circle cx="438.5" cy="196.3" r="0.3" fill="#eceae2" opacity="0.09"/><circle cx="437.8" cy="196.6" r="0.3" fill="#eceae2" opacity="0.06"/><circle cx="443.6" cy="193.8" r="1.2" fill="#eceae2" opacity="0.44"/><circle cx="443.0" cy="193.6" r="1.0" fill="#eceae2" opacity="0.33"/><circle cx="442.3" cy="193.7" r="0.8" fill="#eceae2" opacity="0.38"/><circle cx="441.8" cy="193.2" r="0.7" fill="#eceae2" opacity="0.27"/><circle cx="441.1" cy="193.3" r="0.7" fill="#eceae2" opacity="0.25"/><circle cx="440.5" cy="193.1" r="0.7" fill="#eceae2" opacity="0.24"/><circle cx="439.8" cy="193.3" r="0.5" fill="#eceae2" opacity="0.16"/><circle cx="439.3" cy="192.8" r="0.4" fill="#eceae2" opacity="0.12"/><circle cx="438.7" cy="192.7" r="0.4" fill="#eceae2" opacity="0.12"/><circle cx="438.0" cy="192.8" r="0.3" fill="#eceae2" opacity="0.06"/><circle cx="443.9" cy="192.5" r="0.9" fill="#eceae2" opacity="0.38"/><circle cx="442.7" cy="191.5" r="0.8" fill="#eceae2" opacity="0.3"/><circle cx="441.7" cy="190.3" r="0.9" fill="#eceae2" opacity="0.36"/><circle cx="440.6" cy="189.3" r="0.8" fill="#eceae2" opacity="0.28"/><circle cx="439.4" cy="188.3" r="0.7" fill="#eceae2" opacity="0.23"/><circle cx="438.7" cy="186.9" r="0.5" fill="#eceae2" opacity="0.18"/><circle cx="437.3" cy="186.1" r="0.4" fill="#eceae2" opacity="0.13"/><circle cx="436.6" cy="184.7" r="0.3" fill="#eceae2" opacity="0.08"/><circle cx="444.7" cy="191.8" r="0.8" fill="#eceae2" opacity="0.33"/><circle cx="444.6" cy="190.0" r="0.7" fill="#eceae2" opacity="0.39"/><circle cx="444.3" cy="188.1" r="0.8" fill="#eceae2" opacity="0.35"/><circle cx="443.8" cy="186.3" r="0.5" fill="#eceae2" opacity="0.24"/><circle cx="443.2" cy="184.5" r="0.6" fill="#eceae2" opacity="0.22"/><circle cx="443.2" cy="182.6" r="0.4" fill="#eceae2" opacity="0.15"/><circle cx="443.1" cy="180.7" r="0.3" fill="#eceae2" opacity="0.08"/><circle cx="445.9" cy="192.3" r="1.0" fill="#eceae2" opacity="0.37"/><circle cx="446.4" cy="191.2" r="1.0" fill="#eceae2" opacity="0.28"/><circle cx="446.8" cy="190.1" r="0.9" fill="#eceae2" opacity="0.31"/><circle cx="447.1" cy="188.9" r="0.8" fill="#eceae2" opacity="0.27"/><circle cx="447.3" cy="187.7" r="0.5" fill="#eceae2" opacity="0.15"/><circle cx="448.1" cy="186.8" r="0.4" fill="#eceae2" opacity="0.14"/><circle cx="448.5" cy="185.6" r="0.2" fill="#eceae2" opacity="0.06"/><circle cx="446.8" cy="193.0" r="1.0" fill="#eceae2" opacity="0.39"/><circle cx="447.9" cy="192.6" r="0.9" fill="#eceae2" opacity="0.27"/><circle cx="448.8" cy="191.8" r="0.8" fill="#eceae2" opacity="0.24"/><circle cx="449.9" cy="191.3" r="0.6" fill="#eceae2" opacity="0.21"/><circle cx="451.0" cy="190.9" r="0.5" fill="#eceae2" opacity="0.14"/><circle cx="451.9" cy="190.1" r="0.3" fill="#eceae2" opacity="0.08"/><circle cx="445.2" cy="194.0" r="1.9" fill="#eceae2" opacity="0.7"/>
<circle cx="467.5" cy="170.5" r="6.8" fill="#e6e3da" opacity="0.05"/><circle cx="469.3" cy="170.4" r="0.9" fill="#e6e3da" opacity="0.43"/><circle cx="470.4" cy="170.4" r="0.8" fill="#e6e3da" opacity="0.36"/><circle cx="471.4" cy="170.6" r="0.8" fill="#e6e3da" opacity="0.31"/><circle cx="472.4" cy="170.3" r="0.8" fill="#e6e3da" opacity="0.28"/><circle cx="473.5" cy="170.4" r="0.4" fill="#e6e3da" opacity="0.15"/><circle cx="474.5" cy="170.2" r="0.5" fill="#e6e3da" opacity="0.15"/><circle cx="475.5" cy="170.1" r="0.3" fill="#e6e3da" opacity="0.08"/><circle cx="469.0" cy="171.9" r="0.9" fill="#e6e3da" opacity="0.44"/><circle cx="470.2" cy="172.8" r="0.7" fill="#e6e3da" opacity="0.31"/><circle cx="471.3" cy="173.9" r="0.6" fill="#e6e3da" opacity="0.33"/><circle cx="472.2" cy="175.1" r="0.5" fill="#e6e3da" opacity="0.27"/><circle cx="473.5" cy="176.0" r="0.4" fill="#e6e3da" opacity="0.18"/><circle cx="474.6" cy="177.0" r="0.3" fill="#e6e3da" opacity="0.15"/><circle cx="475.6" cy="178.1" r="0.3" fill="#e6e3da" opacity="0.06"/><circle cx="467.8" cy="172.3" r="1.2" fill="#e6e3da" opacity="0.33"/><circle cx="468.0" cy="173.3" r="0.9" fill="#e6e3da" opacity="0.34"/><circle cx="468.4" cy="174.3" r="0.6" fill="#e6e3da" opacity="0.21"/><circle cx="468.3" cy="175.3" r="0.5" fill="#e6e3da" opacity="0.22"/><circle cx="468.4" cy="176.3" r="0.3" fill="#e6e3da" opacity="0.15"/><circle cx="469.0" cy="177.3" r="0.4" fill="#e6e3da" opacity="0.08"/><circle cx="466.7" cy="172.1" r="1.1" fill="#e6e3da" opacity="0.34"/><circle cx="466.4" cy="172.9" r="1.0" fill="#e6e3da" opacity="0.32"/><circle cx="466.3" cy="173.9" r="0.9" fill="#e6e3da" opacity="0.31"/><circle cx="465.7" cy="174.7" r="0.6" fill="#e6e3da" opacity="0.33"/><circle cx="465.5" cy="175.6" r="0.7" fill="#e6e3da" opacity="0.29"/><circle cx="465.1" cy="176.5" r="0.7" fill="#e6e3da" opacity="0.21"/><circle cx="464.6" cy="177.4" r="0.6" fill="#e6e3da" opacity="0.14"/><circle cx="464.4" cy="178.3" r="0.4" fill="#e6e3da" opacity="0.14"/><circle cx="464.0" cy="179.1" r="0.3" fill="#e6e3da" opacity="0.09"/><circle cx="463.5" cy="180.0" r="0.3" fill="#e6e3da" opacity="0.05"/><circle cx="466.2" cy="171.8" r="0.9" fill="#e6e3da" opacity="0.44"/><circle cx="465.4" cy="172.5" r="0.8" fill="#e6e3da" opacity="0.35"/><circle cx="464.6" cy="173.2" r="0.8" fill="#e6e3da" opacity="0.3"/><circle cx="463.8" cy="174.0" r="0.8" fill="#e6e3da" opacity="0.26"/><circle cx="463.2" cy="174.9" r="0.6" fill="#e6e3da" opacity="0.27"/><circle cx="462.5" cy="175.7" r="0.5" fill="#e6e3da" opacity="0.23"/><circle cx="461.4" cy="176.2" r="0.5" fill="#e6e3da" opacity="0.18"/><circle cx="461.0" cy="177.3" r="0.3" fill="#e6e3da" opacity="0.09"/><circle cx="460.1" cy="177.9" r="0.4" fill="#e6e3da" opacity="0.07"/><circle cx="465.9" cy="170.6" r="1.1" fill="#e6e3da" opacity="0.49"/><circle cx="465.4" cy="170.6" r="0.9" fill="#e6e3da" opacity="0.3"/><circle cx="464.8" cy="170.7" r="1.0" fill="#e6e3da" opacity="0.34"/><circle cx="464.2" cy="170.6" r="0.8" fill="#e6e3da" opacity="0.33"/><circle cx="463.6" cy="170.8" r="0.7" fill="#e6e3da" opacity="0.26"/><circle cx="463.1" cy="170.8" r="0.5" fill="#e6e3da" opacity="0.26"/><circle cx="462.5" cy="170.9" r="0.6" fill="#e6e3da" opacity="0.2"/><circle cx="461.9" cy="170.9" r="0.5" fill="#e6e3da" opacity="0.16"/><circle cx="461.3" cy="171.0" r="0.4" fill="#e6e3da" opacity="0.1"/><circle cx="460.7" cy="170.8" r="0.3" fill="#e6e3da" opacity="0.05"/><circle cx="466.1" cy="169.3" r="1.2" fill="#e6e3da" opacity="0.31"/><circle cx="465.3" cy="168.6" r="0.8" fill="#e6e3da" opacity="0.33"/><circle cx="464.3" cy="168.0" r="0.6" fill="#e6e3da" opacity="0.31"/><circle cx="463.5" cy="167.3" r="0.5" fill="#e6e3da" opacity="0.21"/><circle cx="462.7" cy="166.6" r="0.4" fill="#e6e3da" opacity="0.15"/><circle cx="461.8" cy="165.9" r="0.3" fill="#e6e3da" opacity="0.07"/><circle cx="467.0" cy="169.0" r="1.0" fill="#e6e3da" opacity="0.36"/><circle cx="466.9" cy="168.5" r="1.0" fill="#e6e3da" opacity="0.44"/><circle cx="466.8" cy="168.0" r="0.9" fill="#e6e3da" opacity="0.29"/><circle cx="466.5" cy="167.5" r="0.7" fill="#e6e3da" opacity="0.23"/><circle cx="466.6" cy="166.9" r="0.5" fill="#e6e3da" opacity="0.21"/><circle cx="466.5" cy="166.4" r="0.5" fill="#e6e3da" opacity="0.18"/><circle cx="466.3" cy="165.9" r="0.5" fill="#e6e3da" opacity="0.18"/><circle cx="466.2" cy="165.4" r="0.3" fill="#e6e3da" opacity="0.11"/><circle cx="465.9" cy="165.0" r="0.4" fill="#e6e3da" opacity="0.1"/><circle cx="465.6" cy="164.5" r="0.3" fill="#e6e3da" opacity="0.06"/><circle cx="467.9" cy="168.5" r="1.2" fill="#e6e3da" opacity="0.33"/><circle cx="468.1" cy="167.0" r="0.7" fill="#e6e3da" opacity="0.27"/><circle cx="468.6" cy="165.6" r="0.6" fill="#e6e3da" opacity="0.23"/><circle cx="468.6" cy="164.0" r="0.5" fill="#e6e3da" opacity="0.25"/><circle cx="469.3" cy="162.7" r="0.4" fill="#e6e3da" opacity="0.15"/><circle cx="469.5" cy="161.2" r="0.3" fill="#e6e3da" opacity="0.14"/><circle cx="469.5" cy="159.7" r="0.4" fill="#e6e3da" opacity="0.08"/><circle cx="469.0" cy="169.4" r="1.2" fill="#e6e3da" opacity="0.37"/><circle cx="469.7" cy="168.9" r="0.7" fill="#e6e3da" opacity="0.38"/><circle cx="470.4" cy="168.2" r="0.7" fill="#e6e3da" opacity="0.26"/><circle cx="471.4" cy="168.0" r="0.5" fill="#e6e3da" opacity="0.25"/><circle cx="472.1" cy="167.5" r="0.7" fill="#e6e3da" opacity="0.19"/><circle cx="472.6" cy="166.5" r="0.5" fill="#e6e3da" opacity="0.16"/><circle cx="473.5" cy="166.1" r="0.5" fill="#e6e3da" opacity="0.12"/><circle cx="474.4" cy="165.8" r="0.2" fill="#e6e3da" opacity="0.07"/><circle cx="467.5" cy="170.5" r="1.9" fill="#e6e3da" opacity="0.7"/>
<path d="M470.0 106.0 A62 62 0 0 1 470.0 230.0 A55.8 62 0 0 0 470.0 106.0 Z" fill="#1d1a15" opacity="0.20"/>
</g>
<circle cx="470" cy="168" r="62" fill="none" stroke="#6a6256" stroke-width="0.8" opacity="0.72"/>
</svg>
