<svg xmlns="http://www.w3.org/2000/svg" viewBox="602 348 16 16">
<clipPath id="ia610_356"><circle cx="610" cy="356" r="8"/></clipPath>
<g clip-path="url(#ia610_356)">
<rect x="602" y="348" width="16" height="16" fill="#cfc9b8"/>
<path d="M613.8 355.8 Q613.9 356.4 614.4 357.6 Q614.8 358.8 613.6 359.2 Q612.3 359.6 611.5 360.8 Q610.7 362.0 609.4 361.1 Q608.2 360.2 606.9 360.5 Q605.6 360.9 605.8 359.2 Q605.9 357.6 604.9 356.7 Q604.0 355.8 605.1 355.1 Q606.2 354.4 606.5 353.3 Q606.9 352.2 607.8 353.1 Q608.7 354.0 609.6 353.6 Q610.4 353.1 610.7 354.0 Q611.1 354.8 612.4 355.0 Q613.8 355.1 613.8 355.8 Z" fill="#5e4f3a" opacity="0.84"/>
<circle cx="613.6" cy="355.2" r="0.8" fill="#cfc9b8" opacity="0.5"/>
<circle cx="612.8" cy="358.6" r="0.6" fill="#cfc9b8" opacity="0.5"/>
<path d="M610.0 348.0 A8 8 0 0 1 610.0 364.0 A7.2 8 0 0 0 610.0 348.0 Z" fill="#181410" opacity="0.16"/>
</g>
<circle cx="610" cy="356" r="8" fill="none" stroke="#6f6a5c" stroke-width="0.6" opacity="0.72"/>
</svg>
