<svg xmlns="http://www.w3.org/2000/svg" viewBox="548 106 124 124">
<clipPath id="ia610_168"><circle cx="610" cy="168" r="62"/></clipPath>
<g clip-path="url(#ia610_168)">
<rect x="548" y="106" width="124" height="124" fill="#cfc9b8"/>
<path d="M639.6 166.2 Q640.0 171.1 643.8 180.2 Q647.5 189.4 637.6 192.6 Q627.7 195.9 621.6 205.4 Q615.5 214.8 605.6 207.6 Q595.7 200.4 586.0 203.0 Q576.2 205.7 577.2 193.0 Q578.3 180.2 570.8 173.3 Q563.4 166.3 571.9 161.1 Q580.3 155.8 583.1 147.1 Q585.9 138.3 593.0 145.3 Q600.1 152.3 606.7 149.0 Q613.2 145.8 615.7 152.3 Q618.2 158.8 628.7 160.1 Q639.1 161.4 639.6 166.2 Z" fill="#5e4f3a" opacity="0.84"/>
<ellipse cx="584.0" cy="163.0" rx="27.9" ry="31.6" fill="#4e4130" opacity="0.14" transform="rotate(0 584.0 163.0)"/><ellipse cx="584.0" cy="163.0" rx="18.6" ry="21.1" fill="#4e4130" opacity="0.34" transform="rotate(0 584.0 163.0)"/>
<ellipse cx="602.6" cy="182.9" rx="24.2" ry="18.6" fill="#6b5a42" opacity="0.14" transform="rotate(0 602.6 182.9)"/><ellipse cx="602.6" cy="182.9" rx="16.1" ry="12.4" fill="#6b5a42" opacity="0.32" transform="rotate(0 602.6 182.9)"/>
<ellipse cx="617.4" cy="156.8" rx="20.5" ry="16.7" fill="#544631" opacity="0.12" transform="rotate(0 617.4 156.8)"/><ellipse cx="617.4" cy="156.8" rx="13.6" ry="11.2" fill="#544631" opacity="0.3" transform="rotate(0 617.4 156.8)"/>
<circle cx="570.5" cy="165.4" r="1.5" fill="#c5bda8" opacity="0.42"/>
<circle cx="620.4" cy="153.7" r="1.6" fill="#7a6a4e" opacity="0.31"/>
<circle cx="593.0" cy="193.6" r="1.2" fill="#7a6a4e" opacity="0.25"/>
<circle cx="596.9" cy="199.7" r="1.5" fill="#c5bda8" opacity="0.39"/>
<circle cx="643.6" cy="196.6" r="0.9" fill="#7a6a4e" opacity="0.34"/>
<circle cx="618.8" cy="143.2" r="1.6" fill="#c5bda8" opacity="0.35"/>
<circle cx="570.5" cy="135.4" r="0.9" fill="#7a6a4e" opacity="0.27"/>
<circle cx="569.7" cy="164.0" r="1.2" fill="#c5bda8" opacity="0.31"/>
<circle cx="585.2" cy="179.5" r="1.5" fill="#7a6a4e" opacity="0.35"/>
<circle cx="600.9" cy="124.7" r="0.9" fill="#c5bda8" opacity="0.25"/>
<circle cx="595.7" cy="198.0" r="1.5" fill="#c5bda8" opacity="0.31"/>
<circle cx="608.5" cy="128.7" r="1.6" fill="#7a6a4e" opacity="0.24"/>
<circle cx="598.6" cy="124.0" r="1.1" fill="#c5bda8" opacity="0.32"/>
<circle cx="634.5" cy="206.8" r="0.9" fill="#7a6a4e" opacity="0.29"/>
<circle cx="645.6" cy="191.4" r="0.7" fill="#7a6a4e" opacity="0.34"/>
<circle cx="586.8" cy="180.8" r="1.6" fill="#7a6a4e" opacity="0.29"/>
<circle cx="570.2" cy="164.9" r="1.4" fill="#c5bda8" opacity="0.43"/>
<circle cx="567.2" cy="143.1" r="0.7" fill="#c5bda8" opacity="0.38"/>
<circle cx="590.8" cy="188.6" r="1.4" fill="#7a6a4e" opacity="0.38"/>
<circle cx="590.5" cy="187.7" r="0.9" fill="#7a6a4e" opacity="0.43"/>
<circle cx="567.6" cy="141.5" r="1.2" fill="#7a6a4e" opacity="0.23"/>
<circle cx="597.7" cy="200.6" r="1.7" fill="#c5bda8" opacity="0.41"/>
<circle cx="568.3" cy="160.9" r="0.9" fill="#c5bda8" opacity="0.37"/>
<circle cx="618.8" cy="170.7" r="1.6" fill="#7a6a4e" opacity="0.44"/>
<circle cx="589.2" cy="184.4" r="1.7" fill="#c5bda8" opacity="0.25"/>
<circle cx="580.1" cy="175.9" r="1.5" fill="#c5bda8" opacity="0.28"/>
<circle cx="601.8" cy="125.1" r="1.5" fill="#c5bda8" opacity="0.38"/>
<circle cx="620.0" cy="148.7" r="1.2" fill="#c5bda8" opacity="0.32"/>
<circle cx="586.7" cy="180.8" r="1.1" fill="#7a6a4e" opacity="0.31"/>
<circle cx="630.6" cy="208.9" r="1.6" fill="#7a6a4e" opacity="0.29"/>
<circle cx="618.6" cy="169.2" r="1.1" fill="#c5bda8" opacity="0.27"/>
<circle cx="620.4" cy="153.0" r="0.9" fill="#c5bda8" opacity="0.37"/>
<circle cx="602.4" cy="125.3" r="0.7" fill="#c5bda8" opacity="0.27"/>
<circle cx="592.7" cy="123.3" r="1.3" fill="#c5bda8" opacity="0.28"/>
<circle cx="620.4" cy="153.2" r="1.1" fill="#c5bda8" opacity="0.41"/>
<circle cx="593.4" cy="194.4" r="1.2" fill="#c5bda8" opacity="0.43"/>
<circle cx="619.1" cy="163.7" r="1.5" fill="#7a6a4e" opacity="0.29"/>
<circle cx="620.3" cy="153.9" r="1.3" fill="#c5bda8" opacity="0.23"/>
<circle cx="593.1" cy="193.8" r="1.2" fill="#7a6a4e" opacity="0.23"/>
<circle cx="645.9" cy="189.7" r="1.6" fill="#7a6a4e" opacity="0.35"/>
<circle cx="620.2" cy="150.1" r="1.2" fill="#c5bda8" opacity="0.41"/>
<circle cx="584.0" cy="178.6" r="0.8" fill="#c5bda8" opacity="0.32"/>
<circle cx="642.1" cy="199.3" r="1.7" fill="#7a6a4e" opacity="0.44"/>
<circle cx="601.3" cy="124.9" r="1.7" fill="#7a6a4e" opacity="0.34"/>
<circle cx="578.9" cy="127.0" r="1.5" fill="#7a6a4e" opacity="0.29"/>
<circle cx="639.5" cy="202.6" r="0.8" fill="#7a6a4e" opacity="0.27"/>
<circle cx="614.8" cy="210.5" r="1.3" fill="#c5bda8" opacity="0.27"/>
<circle cx="582.1" cy="125.4" r="1.6" fill="#7a6a4e" opacity="0.27"/>
<circle cx="573.0" cy="169.0" r="1.5" fill="#7a6a4e" opacity="0.32"/>
<circle cx="623.9" cy="210.7" r="1.2" fill="#c5bda8" opacity="0.28"/>
<circle cx="590.1" cy="123.4" r="1.4" fill="#c5bda8" opacity="0.39"/>
<circle cx="589.9" cy="186.2" r="0.7" fill="#7a6a4e" opacity="0.42"/>
<circle cx="605.2" cy="206.9" r="1.5" fill="#7a6a4e" opacity="0.24"/>
<circle cx="619.3" cy="162.4" r="0.8" fill="#c5bda8" opacity="0.4"/>
<circle cx="577.5" cy="128.0" r="1.1" fill="#7a6a4e" opacity="0.38"/>
<circle cx="597.2" cy="200.0" r="1.5" fill="#7a6a4e" opacity="0.25"/>
<circle cx="601.0" cy="203.8" r="1.1" fill="#7a6a4e" opacity="0.32"/>
<circle cx="596.9" cy="199.7" r="0.7" fill="#7a6a4e" opacity="0.39"/>
<circle cx="566.3" cy="151.6" r="0.7" fill="#c5bda8" opacity="0.43"/>
<circle cx="582.8" cy="125.1" r="1.5" fill="#c5bda8" opacity="0.24"/>
<circle cx="567.1" cy="143.3" r="0.6" fill="#7a6a4e" opacity="0.39"/>
<circle cx="645.8" cy="179.4" r="0.9" fill="#c5bda8" opacity="0.41"/>
<circle cx="646.1" cy="188.6" r="1.7" fill="#7a6a4e" opacity="0.34"/>
<circle cx="568.3" cy="139.7" r="1.3" fill="#c5bda8" opacity="0.31"/>
<circle cx="598.7" cy="201.6" r="1.5" fill="#7a6a4e" opacity="0.29"/>
<circle cx="585.6" cy="124.2" r="1.6" fill="#c5bda8" opacity="0.41"/>
<circle cx="620.1" cy="157.2" r="1.2" fill="#c5bda8" opacity="0.24"/>
<circle cx="645.1" cy="192.9" r="1.1" fill="#7a6a4e" opacity="0.33"/>
<circle cx="644.3" cy="174.8" r="1.0" fill="#c5bda8" opacity="0.31"/>
<circle cx="643.4" cy="197.1" r="1.5" fill="#c5bda8" opacity="0.38"/>
<circle cx="638.8" cy="203.3" r="1.7" fill="#7a6a4e" opacity="0.36"/>
<circle cx="618.8" cy="164.8" r="1.5" fill="#7a6a4e" opacity="0.25"/>
<circle cx="644.4" cy="195.0" r="1.3" fill="#c5bda8" opacity="0.3"/>
<circle cx="569.8" cy="164.2" r="0.9" fill="#c5bda8" opacity="0.22"/>
<circle cx="580.2" cy="175.9" r="1.7" fill="#7a6a4e" opacity="0.26"/>
<circle cx="570.3" cy="165.1" r="1.1" fill="#7a6a4e" opacity="0.26"/>
<circle cx="607.2" cy="208.0" r="1.4" fill="#c5bda8" opacity="0.37"/>
<circle cx="618.8" cy="170.6" r="1.2" fill="#c5bda8" opacity="0.41"/>
<circle cx="579.7" cy="126.6" r="0.9" fill="#c5bda8" opacity="0.43"/>
<circle cx="584.1" cy="124.6" r="0.6" fill="#7a6a4e" opacity="0.3"/>
<circle cx="573.8" cy="131.1" r="1.0" fill="#7a6a4e" opacity="0.39"/>
<circle cx="601.5" cy="204.2" r="1.1" fill="#7a6a4e" opacity="0.3"/>
<circle cx="573.2" cy="131.8" r="1.5" fill="#7a6a4e" opacity="0.44"/>
<circle cx="600.6" cy="124.6" r="0.8" fill="#c5bda8" opacity="0.23"/>
<circle cx="579.3" cy="126.8" r="0.9" fill="#c5bda8" opacity="0.4"/>
<circle cx="618.6" cy="166.9" r="1.2" fill="#c5bda8" opacity="0.38"/>
<circle cx="591.5" cy="190.2" r="0.8" fill="#7a6a4e" opacity="0.39"/>
<circle cx="600.6" cy="203.5" r="1.4" fill="#c5bda8" opacity="0.27"/>
<circle cx="642.5" cy="198.6" r="1.0" fill="#c5bda8" opacity="0.36"/>
<circle cx="620.3" cy="151.2" r="0.8" fill="#7a6a4e" opacity="0.35"/>
<circle cx="585.6" cy="124.2" r="0.6" fill="#c5bda8" opacity="0.32"/>
<circle cx="569.1" cy="137.8" r="0.9" fill="#c5bda8" opacity="0.29"/>
<circle cx="589.3" cy="184.6" r="0.9" fill="#c5bda8" opacity="0.39"/>
<circle cx="568.2" cy="160.6" r="0.7" fill="#c5bda8" opacity="0.41"/>
<circle cx="579.1" cy="175.0" r="1.0" fill="#7a6a4e" opacity="0.42"/>
<circle cx="619.2" cy="163.2" r="1.7" fill="#c5bda8" opacity="0.3"/>
<circle cx="618.6" cy="169.4" r="1.4" fill="#c5bda8" opacity="0.41"/>
<circle cx="619.2" cy="211.0" r="0.8" fill="#7a6a4e" opacity="0.43"/>
<circle cx="573.9" cy="170.2" r="1.3" fill="#7a6a4e" opacity="0.4"/>
<circle cx="605.5" cy="207.1" r="0.9" fill="#7a6a4e" opacity="0.33"/>
<circle cx="594.1" cy="195.5" r="1.3" fill="#7a6a4e" opacity="0.38"/>
<circle cx="618.9" cy="171.0" r="1.7" fill="#7a6a4e" opacity="0.3"/>
<circle cx="584.9" cy="179.2" r="0.9" fill="#7a6a4e" opacity="0.33"/>
<circle cx="617.1" cy="139.2" r="1.7" fill="#c5bda8" opacity="0.31"/>
<circle cx="592.0" cy="191.5" r="1.2" fill="#7a6a4e" opacity="0.29"/>
<circle cx="645.3" cy="192.4" r="1.5" fill="#7a6a4e" opacity="0.37"/>
<circle cx="567.8" cy="141.1" r="1.5" fill="#7a6a4e" opacity="0.32"/>
<circle cx="592.1" cy="191.7" r="1.0" fill="#7a6a4e" opacity="0.31"/>
<circle cx="591.1" cy="189.3" r="1.1" fill="#7a6a4e" opacity="0.3"/>
<circle cx="613.8" cy="210.3" r="1.1" fill="#7a6a4e" opacity="0.44"/>
<circle cx="644.0" cy="174.1" r="1.1" fill="#c5bda8" opacity="0.22"/>
<circle cx="584.2" cy="178.7" r="0.6" fill="#7a6a4e" opacity="0.4"/>
<circle cx="584.9" cy="124.3" r="1.0" fill="#c5bda8" opacity="0.43"/>
<circle cx="619.1" cy="163.6" r="1.2" fill="#c5bda8" opacity="0.27"/>
<circle cx="588.9" cy="123.5" r="1.4" fill="#c5bda8" opacity="0.27"/>
<circle cx="643.5" cy="173.0" r="0.8" fill="#7a6a4e" opacity="0.35"/>
<circle cx="587.2" cy="181.2" r="1.6" fill="#c5bda8" opacity="0.28"/>
<circle cx="575.1" cy="171.5" r="0.7" fill="#c5bda8" opacity="0.41"/>
<circle cx="566.3" cy="150.8" r="1.6" fill="#7a6a4e" opacity="0.36"/>
<circle cx="585.0" cy="124.3" r="1.1" fill="#c5bda8" opacity="0.24"/>
<circle cx="602.4" cy="151.3" r="1.3" fill="#403524" opacity="0.19"/>
<circle cx="632.1" cy="130.4" r="1.0" fill="#e7e2d2" opacity="0.17"/>
<circle cx="649.1" cy="199.5" r="0.9" fill="#e7e2d2" opacity="0.16"/>
<circle cx="606.5" cy="127.7" r="1.3" fill="#e7e2d2" opacity="0.26"/>
<circle cx="624.0" cy="177.0" r="0.9" fill="#403524" opacity="0.15"/>
<circle cx="594.6" cy="114.9" r="1.1" fill="#e7e2d2" opacity="0.21"/>
<circle cx="653.1" cy="177.4" r="0.5" fill="#9c9484" opacity="0.18"/>
<circle cx="577.7" cy="119.9" r="0.5" fill="#9c9484" opacity="0.2"/>
<circle cx="595.5" cy="187.4" r="1.2" fill="#403524" opacity="0.22"/>
<circle cx="632.6" cy="150.8" r="1.0" fill="#e7e2d2" opacity="0.22"/>
<circle cx="651.5" cy="143.9" r="1.0" fill="#9c9484" opacity="0.22"/>
<circle cx="621.0" cy="214.5" r="1.1" fill="#9c9484" opacity="0.18"/>
<circle cx="658.9" cy="168.8" r="0.8" fill="#9c9484" opacity="0.21"/>
<circle cx="669.7" cy="179.2" r="1.0" fill="#9c9484" opacity="0.14"/>
<circle cx="611.4" cy="212.2" r="1.0" fill="#9c9484" opacity="0.2"/>
<circle cx="602.3" cy="194.9" r="0.9" fill="#403524" opacity="0.2"/>
<circle cx="552.3" cy="160.5" r="1.1" fill="#9c9484" opacity="0.16"/>
<circle cx="659.8" cy="185.6" r="0.7" fill="#9c9484" opacity="0.16"/>
<circle cx="622.8" cy="165.3" r="1.2" fill="#403524" opacity="0.22"/>
<circle cx="650.7" cy="137.4" r="1.4" fill="#9c9484" opacity="0.2"/>
<circle cx="664.2" cy="182.2" r="1.5" fill="#e7e2d2" opacity="0.15"/>
<circle cx="608.7" cy="171.9" r="1.0" fill="#403524" opacity="0.15"/>
<circle cx="656.0" cy="176.1" r="1.3" fill="#9c9484" opacity="0.17"/>
<circle cx="566.1" cy="127.6" r="1.4" fill="#e7e2d2" opacity="0.24"/>
<circle cx="634.9" cy="133.7" r="1.1" fill="#9c9484" opacity="0.18"/>
<circle cx="658.2" cy="158.6" r="1.2" fill="#e7e2d2" opacity="0.13"/>
<circle cx="632.4" cy="173.3" r="1.4" fill="#9c9484" opacity="0.22"/>
<circle cx="595.1" cy="158.0" r="0.7" fill="#403524" opacity="0.21"/>
<circle cx="597.4" cy="119.6" r="0.7" fill="#e7e2d2" opacity="0.14"/>
<circle cx="602.9" cy="183.2" r="1.1" fill="#403524" opacity="0.23"/>
<circle cx="643.0" cy="194.0" r="0.9" fill="#9c9484" opacity="0.25"/>
<circle cx="662.3" cy="168.8" r="1.3" fill="#9c9484" opacity="0.21"/>
<circle cx="650.0" cy="188.3" r="0.7" fill="#e7e2d2" opacity="0.15"/>
<circle cx="603.3" cy="155.0" r="1.3" fill="#403524" opacity="0.22"/>
<circle cx="662.4" cy="149.7" r="1.0" fill="#e7e2d2" opacity="0.18"/>
<circle cx="570.6" cy="122.7" r="0.9" fill="#9c9484" opacity="0.19"/>
<circle cx="610.7" cy="192.6" r="1.1" fill="#403524" opacity="0.21"/>
<circle cx="598.5" cy="139.4" r="0.7" fill="#9c9484" opacity="0.14"/>
<circle cx="642.4" cy="204.7" r="1.3" fill="#e7e2d2" opacity="0.2"/>
<circle cx="648.5" cy="188.8" r="0.7" fill="#9c9484" opacity="0.19"/>
<circle cx="608.6" cy="226.2" r="1.0" fill="#e7e2d2" opacity="0.15"/>
<circle cx="598.4" cy="220.9" r="1.1" fill="#9c9484" opacity="0.24"/>
<circle cx="582.5" cy="129.4" r="1.3" fill="#e7e2d2" opacity="0.13"/>
<circle cx="588.3" cy="149.1" r="1.5" fill="#403524" opacity="0.18"/>
<circle cx="584.3" cy="130.9" r="1.0" fill="#e7e2d2" opacity="0.13"/>
<circle cx="565.6" cy="187.9" r="1.3" fill="#9c9484" opacity="0.14"/>
<circle cx="610.3" cy="196.9" r="1.4" fill="#403524" opacity="0.17"/>
<circle cx="602.9" cy="146.3" r="0.6" fill="#9c9484" opacity="0.19"/>
<circle cx="612.9" cy="188.2" r="1.4" fill="#403524" opacity="0.22"/>
<circle cx="643.4" cy="132.0" r="1.3" fill="#9c9484" opacity="0.16"/>
<circle cx="651.5" cy="178.9" r="0.8" fill="#e7e2d2" opacity="0.16"/>
<circle cx="577.6" cy="131.0" r="0.6" fill="#9c9484" opacity="0.23"/>
<circle cx="628.2" cy="196.9" r="1.0" fill="#403524" opacity="0.14"/>
<circle cx="579.1" cy="209.6" r="1.4" fill="#e7e2d2" opacity="0.23"/>
<circle cx="609.2" cy="217.2" r="0.9" fill="#e7e2d2" opacity="0.24"/>
<circle cx="638.9" cy="145.9" r="0.6" fill="#e7e2d2" opacity="0.21"/>
<circle cx="656.3" cy="141.3" r="1.4" fill="#e7e2d2" opacity="0.25"/>
<circle cx="626.9" cy="117.7" r="1.1" fill="#e7e2d2" opacity="0.14"/>
<circle cx="653.2" cy="169.7" r="1.4" fill="#9c9484" opacity="0.22"/>
<circle cx="622.9" cy="211.7" r="1.0" fill="#9c9484" opacity="0.26"/>
<circle cx="632.5" cy="211.1" r="0.9" fill="#9c9484" opacity="0.19"/>
<circle cx="621.5" cy="185.5" r="0.6" fill="#403524" opacity="0.19"/>
<circle cx="575.2" cy="197.6" r="0.9" fill="#e7e2d2" opacity="0.14"/>
<circle cx="632.5" cy="187.4" r="1.2" fill="#403524" opacity="0.24"/>
<circle cx="664.8" cy="193.1" r="1.3" fill="#9c9484" opacity="0.2"/>
<circle cx="615.8" cy="200.0" r="1.1" fill="#403524" opacity="0.16"/>
<circle cx="633.6" cy="163.6" r="1.0" fill="#e7e2d2" opacity="0.2"/>
<circle cx="656.2" cy="190.5" r="0.8" fill="#9c9484" opacity="0.24"/>
<circle cx="631.8" cy="120.0" r="1.1" fill="#9c9484" opacity="0.16"/>
<circle cx="572.2" cy="176.6" r="0.9" fill="#e7e2d2" opacity="0.17"/>
<circle cx="608.4" cy="127.5" r="0.6" fill="#9c9484" opacity="0.18"/>
<circle cx="637.7" cy="215.4" r="1.0" fill="#9c9484" opacity="0.18"/>
<circle cx="618.7" cy="187.2" r="1.1" fill="#403524" opacity="0.12"/>
<circle cx="592.4" cy="214.6" r="1.4" fill="#9c9484" opacity="0.23"/>
<circle cx="576.8" cy="202.5" r="0.8" fill="#9c9484" opacity="0.2"/>
<circle cx="557.7" cy="185.6" r="1.2" fill="#e7e2d2" opacity="0.18"/>
<circle cx="574.3" cy="155.9" r="0.6" fill="#403524" opacity="0.13"/>
<circle cx="634.0" cy="199.2" r="0.8" fill="#9c9484" opacity="0.15"/>
<circle cx="581.3" cy="212.5" r="1.1" fill="#e7e2d2" opacity="0.23"/>
<circle cx="663.2" cy="182.8" r="0.7" fill="#e7e2d2" opacity="0.14"/>
<circle cx="583.2" cy="175.9" r="1.1" fill="#403524" opacity="0.24"/>
<circle cx="582.7" cy="155.0" r="1.0" fill="#403524" opacity="0.17"/>
<circle cx="615.3" cy="133.0" r="1.0" fill="#9c9484" opacity="0.17"/>
<circle cx="597.2" cy="195.1" r="1.4" fill="#403524" opacity="0.19"/>
<circle cx="666.5" cy="150.6" r="0.6" fill="#9c9484" opacity="0.25"/>
<circle cx="607.8" cy="195.9" r="0.8" fill="#403524" opacity="0.19"/>
<circle cx="604.3" cy="188.3" r="1.1" fill="#403524" opacity="0.2"/>
<circle cx="563.6" cy="179.8" r="0.7" fill="#e7e2d2" opacity="0.25"/>
<circle cx="639.0" cy="129.9" r="1.5" fill="#e7e2d2" opacity="0.14"/>
<circle cx="597.0" cy="181.6" r="0.8" fill="#403524" opacity="0.18"/>
<circle cx="602.8" cy="120.2" r="1.3" fill="#e7e2d2" opacity="0.24"/>
<circle cx="580.5" cy="199.9" r="1.1" fill="#9c9484" opacity="0.22"/>
<circle cx="580.1" cy="149.5" r="0.9" fill="#403524" opacity="0.18"/>
<circle cx="624.7" cy="110.4" r="0.8" fill="#e7e2d2" opacity="0.17"/>
<circle cx="668.5" cy="159.2" r="1.0" fill="#e7e2d2" opacity="0.24"/>
<circle cx="607.7" cy="125.1" r="1.5" fill="#9c9484" opacity="0.2"/>
<circle cx="574.3" cy="202.8" r="0.9" fill="#9c9484" opacity="0.21"/>
<circle cx="653.3" cy="160.6" r="0.8" fill="#e7e2d2" opacity="0.17"/>
<circle cx="620.3" cy="126.0" r="0.6" fill="#e7e2d2" opacity="0.24"/>
<circle cx="574.5" cy="213.0" r="1.1" fill="#e7e2d2" opacity="0.23"/>
<circle cx="607.8" cy="151.3" r="1.2" fill="#9c9484" opacity="0.23"/>
<circle cx="594.9" cy="205.9" r="0.7" fill="#e7e2d2" opacity="0.25"/>
<circle cx="670.3" cy="163.2" r="0.7" fill="#9c9484" opacity="0.19"/>
<circle cx="585.5" cy="179.8" r="1.1" fill="#403524" opacity="0.15"/>
<circle cx="628.9" cy="133.5" r="1.2" fill="#e7e2d2" opacity="0.13"/>
<circle cx="630.9" cy="167.7" r="0.7" fill="#9c9484" opacity="0.18"/>
<circle cx="638.9" cy="135.1" r="0.9" fill="#9c9484" opacity="0.17"/>
<circle cx="590.6" cy="148.3" r="0.9" fill="#403524" opacity="0.21"/>
<circle cx="575.5" cy="146.8" r="0.6" fill="#403524" opacity="0.23"/>
<circle cx="606.4" cy="112.6" r="0.7" fill="#e7e2d2" opacity="0.12"/>
<circle cx="575.9" cy="213.1" r="1.1" fill="#e7e2d2" opacity="0.19"/>
<circle cx="553.2" cy="163.0" r="0.7" fill="#9c9484" opacity="0.18"/>
<circle cx="604.9" cy="148.8" r="1.0" fill="#9c9484" opacity="0.13"/>
<circle cx="577.4" cy="122.7" r="0.7" fill="#e7e2d2" opacity="0.22"/>
<circle cx="602.4" cy="175.0" r="0.9" fill="#403524" opacity="0.18"/>
<circle cx="597.5" cy="166.3" r="1.3" fill="#403524" opacity="0.24"/>
<circle cx="631.3" cy="219.7" r="1.1" fill="#e7e2d2" opacity="0.22"/>
<circle cx="630.3" cy="161.5" r="1.2" fill="#e7e2d2" opacity="0.22"/>
<circle cx="669.2" cy="165.8" r="1.2" fill="#9c9484" opacity="0.15"/>
<circle cx="571.1" cy="143.6" r="0.6" fill="#e7e2d2" opacity="0.22"/>
<circle cx="620.1" cy="198.4" r="1.0" fill="#403524" opacity="0.18"/>
<circle cx="577.9" cy="183.4" r="0.7" fill="#e7e2d2" opacity="0.14"/>
<circle cx="660.6" cy="162.1" r="0.8" fill="#9c9484" opacity="0.18"/>
<circle cx="554.6" cy="177.2" r="1.2" fill="#e7e2d2" opacity="0.12"/>
<circle cx="647.3" cy="156.6" r="0.8" fill="#9c9484" opacity="0.14"/>
<circle cx="640.9" cy="151.8" r="1.4" fill="#9c9484" opacity="0.18"/>
<circle cx="610.9" cy="168.1" r="0.5" fill="#403524" opacity="0.2"/>
<circle cx="607.7" cy="207.1" r="1.2" fill="#9c9484" opacity="0.16"/>
<circle cx="598.1" cy="212.8" r="1.4" fill="#e7e2d2" opacity="0.23"/>
<circle cx="637.1" cy="195.4" r="0.8" fill="#e7e2d2" opacity="0.17"/>
<circle cx="639.4" cy="189.4" r="0.6" fill="#e7e2d2" opacity="0.18"/>
<circle cx="605.9" cy="174.0" r="0.7" fill="#403524" opacity="0.21"/>
<circle cx="560.1" cy="136.8" r="1.0" fill="#9c9484" opacity="0.25"/>
<circle cx="629.7" cy="203.0" r="0.9" fill="#9c9484" opacity="0.2"/>
<circle cx="586.9" cy="157.6" r="1.4" fill="#403524" opacity="0.16"/>
<circle cx="579.4" cy="128.5" r="0.9" fill="#9c9484" opacity="0.16"/>
<circle cx="653.3" cy="201.4" r="0.6" fill="#9c9484" opacity="0.14"/>
<circle cx="593.1" cy="194.6" r="1.1" fill="#403524" opacity="0.22"/>
<circle cx="557.7" cy="145.0" r="1.2" fill="#9c9484" opacity="0.16"/>
<circle cx="570.6" cy="156.4" r="1.3" fill="#403524" opacity="0.13"/>
<circle cx="594.6" cy="139.3" r="0.7" fill="#e7e2d2" opacity="0.16"/>
<circle cx="613.3" cy="149.7" r="1.0" fill="#9c9484" opacity="0.15"/>
<circle cx="554.8" cy="175.2" r="0.8" fill="#e7e2d2" opacity="0.25"/>
<circle cx="585.9" cy="174.7" r="0.9" fill="#403524" opacity="0.14"/>
<circle cx="600.8" cy="185.2" r="1.1" fill="#403524" opacity="0.18"/>
<circle cx="632.9" cy="150.2" r="1.0" fill="#e7e2d2" opacity="0.14"/>
<circle cx="635.9" cy="218.2" r="0.6" fill="#9c9484" opacity="0.17"/>
<circle cx="650.7" cy="128.3" r="0.6" fill="#9c9484" opacity="0.21"/>
<circle cx="653.2" cy="149.0" r="1.3" fill="#9c9484" opacity="0.15"/>
<circle cx="571.1" cy="140.6" r="1.5" fill="#9c9484" opacity="0.25"/>
<circle cx="637.2" cy="115.4" r="1.3" fill="#9c9484" opacity="0.17"/>
<circle cx="643.3" cy="131.1" r="0.9" fill="#e7e2d2" opacity="0.14"/>
<circle cx="580.9" cy="121.9" r="0.8" fill="#e7e2d2" opacity="0.24"/>
<circle cx="657.2" cy="142.0" r="0.6" fill="#e7e2d2" opacity="0.2"/>
<circle cx="621.4" cy="155.2" r="1.3" fill="#e7e2d2" opacity="0.19"/>
<circle cx="606.3" cy="110.1" r="1.4" fill="#9c9484" opacity="0.25"/>
<circle cx="586.3" cy="178.3" r="1.0" fill="#403524" opacity="0.19"/>
<circle cx="550.4" cy="162.2" r="0.6" fill="#e7e2d2" opacity="0.19"/>
<circle cx="605.5" cy="119.0" r="0.9" fill="#e7e2d2" opacity="0.22"/>
<circle cx="603.8" cy="109.0" r="0.7" fill="#e7e2d2" opacity="0.2"/>
<circle cx="615.6" cy="192.2" r="1.4" fill="#403524" opacity="0.16"/>
<circle cx="596.0" cy="159.2" r="1.1" fill="#403524" opacity="0.14"/>
<circle cx="664.3" cy="148.9" r="0.7" fill="#e7e2d2" opacity="0.2"/>
<circle cx="555.8" cy="176.5" r="1.1" fill="#9c9484" opacity="0.14"/>
<circle cx="618.0" cy="200.1" r="0.7" fill="#403524" opacity="0.14"/>
<circle cx="570.6" cy="132.7" r="1.4" fill="#e7e2d2" opacity="0.12"/>
<circle cx="603.1" cy="182.3" r="1.0" fill="#403524" opacity="0.15"/>
<circle cx="587.7" cy="154.5" r="1.0" fill="#403524" opacity="0.15"/>
<circle cx="639.4" cy="121.2" r="0.8" fill="#9c9484" opacity="0.24"/>
<circle cx="630.4" cy="137.5" r="0.9" fill="#9c9484" opacity="0.24"/>
<circle cx="637.5" cy="137.3" r="0.9" fill="#e7e2d2" opacity="0.21"/>
<circle cx="594.1" cy="218.6" r="0.6" fill="#e7e2d2" opacity="0.16"/>
<circle cx="606.3" cy="189.7" r="1.1" fill="#403524" opacity="0.18"/>
<circle cx="603.4" cy="191.7" r="1.2" fill="#403524" opacity="0.22"/>
<circle cx="577.6" cy="132.8" r="1.3" fill="#9c9484" opacity="0.16"/>
<circle cx="638.5" cy="161.8" r="3.7" fill="#bdb6a4" opacity="0.6"/>
<circle cx="638.5" cy="161.8" r="3.7" fill="none" stroke="#7c745f" stroke-width="0.7" opacity="0.5"/>
<circle cx="637.6" cy="160.9" r="1.9" fill="#efebdc" opacity="0.4"/>
<circle cx="631.1" cy="187.8" r="3.1" fill="#bdb6a4" opacity="0.6"/>
<circle cx="631.1" cy="187.8" r="3.1" fill="none" stroke="#7c745f" stroke-width="0.7" opacity="0.5"/>
<circle cx="630.3" cy="187.1" r="1.6" fill="#efebdc" opacity="0.4"/>
<circle cx="646.0" cy="176.7" r="2.2" fill="#bdb6a4" opacity="0.6"/>
<circle cx="646.0" cy="176.7" r="2.2" fill="none" stroke="#7c745f" stroke-width="0.7" opacity="0.5"/>
<circle cx="645.4" cy="176.1" r="1.1" fill="#efebdc" opacity="0.4"/>
<circle cx="622.4" cy="140.7" r="2.5" fill="#bdb6a4" opacity="0.6"/>
<circle cx="622.4" cy="140.7" r="2.5" fill="none" stroke="#7c745f" stroke-width="0.7" opacity="0.5"/>
<circle cx="621.8" cy="140.1" r="1.2" fill="#efebdc" opacity="0.4"/>
<circle cx="641.0" cy="190.3" r="1.9" fill="#bdb6a4" opacity="0.6"/>
<circle cx="641.0" cy="190.3" r="1.9" fill="none" stroke="#7c745f" stroke-width="0.7" opacity="0.5"/>
<circle cx="640.5" cy="189.9" r="0.9" fill="#efebdc" opacity="0.4"/>
<path d="M610.0 106.0 A62 62 0 0 1 610.0 230.0 A55.8 62 0 0 0 610.0 106.0 Z" fill="#181410" opacity="0.16"/>
</g>
<circle cx="610" cy="168" r="62" fill="none" stroke="#6f6a5c" stroke-width="0.8" opacity="0.72"/>
</svg>
