<svg xmlns="http://www.w3.org/2000/svg" viewBox="48 106 124 124">
<clipPath id="io110_168"><circle cx="110" cy="168" r="62"/></clipPath>
<g clip-path="url(#io110_168)">
<rect x="48" y="106" width="124" height="124" fill="#e3d27a"/>
<ellipse cx="94.5" cy="174.2" rx="55.8" ry="51.2" fill="#f0e6b0" opacity="0.2" transform="rotate(0 94.5 174.2)"/><ellipse cx="94.5" cy="174.2" rx="37.2" ry="34.1" fill="#f0e6b0" opacity="0.5" transform="rotate(0 94.5 174.2)"/>
<ellipse cx="122.4" cy="152.5" rx="49.6" ry="39.7" fill="#d9b94e" opacity="0.18" transform="rotate(0 122.4 152.5)"/><ellipse cx="122.4" cy="152.5" rx="31.0" ry="24.8" fill="#d9b94e" opacity="0.4" transform="rotate(0 122.4 152.5)"/>
<ellipse cx="128.6" cy="186.6" rx="39.7" ry="39.7" fill="#caa83f" opacity="0.16" transform="rotate(0 128.6 186.6)"/><ellipse cx="128.6" cy="186.6" rx="24.8" ry="24.8" fill="#caa83f" opacity="0.38" transform="rotate(0 128.6 186.6)"/>
<ellipse cx="88.3" cy="149.4" rx="29.8" ry="29.8" fill="#bfc24f" opacity="0.14" transform="rotate(0 88.3 149.4)"/><ellipse cx="88.3" cy="149.4" rx="18.6" ry="18.6" fill="#bfc24f" opacity="0.3" transform="rotate(0 88.3 149.4)"/>
<circle cx="92.6" cy="189.1" r="6.2" fill="#d98a3a" opacity="0.3"/>
<circle cx="92.6" cy="189.1" r="3.1" fill="#cf5a2a" opacity="0.55"/>
<circle cx="117.4" cy="181.6" r="4.3" fill="#d98a3a" opacity="0.3"/>
<circle cx="117.4" cy="181.6" r="2.2" fill="#cf5a2a" opacity="0.55"/>
<circle cx="131.1" cy="164.9" r="3.7" fill="#d98a3a" opacity="0.3"/>
<circle cx="131.1" cy="164.9" r="1.9" fill="#cf5a2a" opacity="0.55"/>
<circle cx="115.9" cy="166.7" r="2.0" fill="#2a2418" opacity="0.55"/>
<circle cx="117.2" cy="167.4" r="2.2" fill="#2a2418" opacity="0.7"/>
<circle cx="144.8" cy="124.4" r="1.3" fill="#2a2418" opacity="0.6"/>
<circle cx="102.3" cy="139.5" r="1.4" fill="#2a2418" opacity="0.57"/>
<circle cx="142.7" cy="127.3" r="2.1" fill="#2a2418" opacity="0.57"/>
<circle cx="145.5" cy="149.8" r="1.3" fill="#2a2418" opacity="0.64"/>
<circle cx="96.3" cy="175.6" r="1.8" fill="#2a2418" opacity="0.61"/>
<circle cx="61.2" cy="145.2" r="1.9" fill="#2a2418" opacity="0.62"/>
<circle cx="146.4" cy="125.9" r="1.7" fill="#2a2418" opacity="0.78"/>
<circle cx="130.8" cy="170.5" r="1.2" fill="#2a2418" opacity="0.78"/>
<circle cx="92.7" cy="124.0" r="1.4" fill="#2a2418" opacity="0.65"/>
<circle cx="123.4" cy="156.5" r="1.2" fill="#2a2418" opacity="0.51"/>
<circle cx="59.8" cy="178.0" r="1.8" fill="#2a2418" opacity="0.62"/>
<circle cx="86.4" cy="167.7" r="2.3" fill="#2a2418" opacity="0.61"/>
<circle cx="112.9" cy="199.0" r="2.2" fill="#2a2418" opacity="0.6"/>
<circle cx="136.7" cy="149.8" r="1.6" fill="#2a2418" opacity="0.52"/>
<circle cx="154.8" cy="138.5" r="0.6" fill="#caa63a" opacity="0.14"/>
<circle cx="70.7" cy="206.7" r="1.1" fill="#f3ecc0" opacity="0.11"/>
<circle cx="165.0" cy="182.6" r="0.6" fill="#f3ecc0" opacity="0.14"/>
<circle cx="51.0" cy="175.1" r="0.5" fill="#caa63a" opacity="0.18"/>
<circle cx="73.0" cy="150.7" r="1.0" fill="#f3ecc0" opacity="0.16"/>
<circle cx="109.4" cy="185.5" r="0.8" fill="#caa63a" opacity="0.16"/>
<circle cx="84.2" cy="192.3" r="1.1" fill="#f3ecc0" opacity="0.15"/>
<circle cx="89.4" cy="218.5" r="1.2" fill="#f3ecc0" opacity="0.19"/>
<circle cx="159.0" cy="172.6" r="0.8" fill="#caa63a" opacity="0.14"/>
<circle cx="128.6" cy="191.6" r="0.8" fill="#f3ecc0" opacity="0.19"/>
<circle cx="96.5" cy="137.1" r="1.0" fill="#caa63a" opacity="0.16"/>
<circle cx="102.2" cy="180.3" r="1.2" fill="#caa63a" opacity="0.17"/>
<circle cx="152.7" cy="202.6" r="0.8" fill="#f3ecc0" opacity="0.19"/>
<circle cx="123.0" cy="181.6" r="1.1" fill="#caa63a" opacity="0.15"/>
<circle cx="53.0" cy="173.7" r="1.1" fill="#caa63a" opacity="0.08"/>
<circle cx="114.9" cy="144.8" r="1.2" fill="#f3ecc0" opacity="0.16"/>
<circle cx="70.8" cy="146.8" r="0.8" fill="#f3ecc0" opacity="0.11"/>
<circle cx="69.4" cy="152.8" r="0.9" fill="#caa63a" opacity="0.14"/>
<circle cx="138.1" cy="210.1" r="0.8" fill="#f3ecc0" opacity="0.18"/>
<circle cx="158.8" cy="164.1" r="0.7" fill="#caa63a" opacity="0.1"/>
<circle cx="101.3" cy="227.5" r="1.2" fill="#caa63a" opacity="0.16"/>
<circle cx="114.0" cy="149.5" r="0.7" fill="#f3ecc0" opacity="0.16"/>
<circle cx="124.0" cy="118.9" r="1.2" fill="#f3ecc0" opacity="0.11"/>
<circle cx="140.8" cy="214.7" r="0.8" fill="#caa63a" opacity="0.13"/>
<circle cx="136.3" cy="142.4" r="0.9" fill="#f3ecc0" opacity="0.14"/>
<circle cx="69.4" cy="174.9" r="0.8" fill="#f3ecc0" opacity="0.13"/>
<circle cx="162.9" cy="141.0" r="1.3" fill="#caa63a" opacity="0.08"/>
<circle cx="81.7" cy="217.5" r="1.0" fill="#caa63a" opacity="0.2"/>
<circle cx="78.9" cy="141.6" r="0.9" fill="#caa63a" opacity="0.14"/>
<circle cx="119.1" cy="131.5" r="0.8" fill="#f3ecc0" opacity="0.16"/>
<circle cx="111.3" cy="143.5" r="0.9" fill="#f3ecc0" opacity="0.14"/>
<circle cx="154.8" cy="160.2" r="0.7" fill="#f3ecc0" opacity="0.11"/>
<circle cx="112.8" cy="125.3" r="1.1" fill="#f3ecc0" opacity="0.16"/>
<circle cx="85.1" cy="218.0" r="0.6" fill="#caa63a" opacity="0.18"/>
<circle cx="127.0" cy="155.9" r="1.1" fill="#f3ecc0" opacity="0.11"/>
<circle cx="58.6" cy="141.7" r="1.0" fill="#caa63a" opacity="0.11"/>
<circle cx="144.7" cy="215.3" r="1.0" fill="#f3ecc0" opacity="0.18"/>
<circle cx="78.9" cy="192.1" r="1.2" fill="#f3ecc0" opacity="0.16"/>
<circle cx="63.2" cy="177.0" r="1.1" fill="#caa63a" opacity="0.18"/>
<circle cx="115.1" cy="134.3" r="1.3" fill="#caa63a" opacity="0.13"/>
<circle cx="100.5" cy="151.9" r="0.7" fill="#caa63a" opacity="0.16"/>
<circle cx="116.8" cy="216.3" r="1.1" fill="#caa63a" opacity="0.16"/>
<circle cx="108.8" cy="197.4" r="0.9" fill="#caa63a" opacity="0.1"/>
<circle cx="115.3" cy="221.7" r="0.6" fill="#f3ecc0" opacity="0.14"/>
<circle cx="78.2" cy="118.8" r="0.9" fill="#f3ecc0" opacity="0.17"/>
<circle cx="122.2" cy="118.7" r="1.1" fill="#f3ecc0" opacity="0.09"/>
<circle cx="113.1" cy="139.8" r="0.8" fill="#caa63a" opacity="0.14"/>
<circle cx="71.1" cy="143.3" r="0.8" fill="#caa63a" opacity="0.16"/>
<circle cx="143.7" cy="152.5" r="1.2" fill="#caa63a" opacity="0.19"/>
<circle cx="135.9" cy="127.6" r="0.6" fill="#caa63a" opacity="0.19"/>
<circle cx="90.6" cy="176.2" r="0.5" fill="#f3ecc0" opacity="0.13"/>
<circle cx="67.1" cy="135.4" r="0.7" fill="#caa63a" opacity="0.12"/>
<circle cx="117.8" cy="151.6" r="0.8" fill="#caa63a" opacity="0.19"/>
<circle cx="153.9" cy="128.4" r="0.9" fill="#caa63a" opacity="0.1"/>
<circle cx="64.0" cy="140.6" r="1.1" fill="#caa63a" opacity="0.16"/>
<circle cx="72.5" cy="166.4" r="1.1" fill="#caa63a" opacity="0.2"/>
<circle cx="166.6" cy="156.5" r="1.0" fill="#f3ecc0" opacity="0.14"/>
<circle cx="149.0" cy="205.0" r="1.2" fill="#caa63a" opacity="0.18"/>
<circle cx="98.1" cy="224.0" r="1.1" fill="#f3ecc0" opacity="0.09"/>
<circle cx="106.8" cy="191.5" r="0.7" fill="#f3ecc0" opacity="0.13"/>
<circle cx="110.5" cy="130.1" r="1.0" fill="#f3ecc0" opacity="0.13"/>
<circle cx="154.1" cy="146.3" r="1.1" fill="#f3ecc0" opacity="0.15"/>
<circle cx="137.9" cy="218.3" r="0.6" fill="#f3ecc0" opacity="0.12"/>
<circle cx="118.4" cy="188.2" r="0.8" fill="#f3ecc0" opacity="0.1"/>
<circle cx="60.2" cy="173.7" r="1.0" fill="#caa63a" opacity="0.16"/>
<circle cx="139.7" cy="115.7" r="0.8" fill="#f3ecc0" opacity="0.09"/>
<circle cx="97.6" cy="189.4" r="0.8" fill="#f3ecc0" opacity="0.15"/>
<circle cx="104.0" cy="127.6" r="1.0" fill="#f3ecc0" opacity="0.15"/>
<circle cx="124.8" cy="193.5" r="0.9" fill="#f3ecc0" opacity="0.15"/>
<circle cx="145.9" cy="134.0" r="0.8" fill="#f3ecc0" opacity="0.09"/>
<circle cx="100.3" cy="224.4" r="0.6" fill="#caa63a" opacity="0.09"/>
<circle cx="137.5" cy="168.0" r="0.8" fill="#caa63a" opacity="0.09"/>
<circle cx="103.8" cy="118.5" r="1.1" fill="#caa63a" opacity="0.08"/>
<circle cx="123.9" cy="121.9" r="0.6" fill="#f3ecc0" opacity="0.19"/>
<circle cx="151.5" cy="164.3" r="0.9" fill="#caa63a" opacity="0.17"/>
<circle cx="66.9" cy="178.6" r="1.1" fill="#f3ecc0" opacity="0.13"/>
<circle cx="155.0" cy="139.3" r="0.9" fill="#caa63a" opacity="0.12"/>
<circle cx="97.6" cy="202.4" r="1.0" fill="#f3ecc0" opacity="0.11"/>
<circle cx="131.3" cy="177.6" r="0.9" fill="#caa63a" opacity="0.14"/>
<circle cx="70.9" cy="187.5" r="1.3" fill="#caa63a" opacity="0.11"/>
<path d="M110.0 106.0 A62 62 0 0 1 110.0 230.0 A55.8 62 0 0 0 110.0 106.0 Z" fill="#3a2e12" opacity="0.16"/>
</g>
<circle cx="110" cy="168" r="62" fill="none" stroke="#b09a3e" stroke-width="0.8" opacity="0.7"/>
</svg>
