<svg xmlns="http://www.w3.org/2000/svg" viewBox="94 114 112 112">
<clipPath id="jcl150_170"><circle cx="150" cy="170" r="56"/></clipPath>
<g clip-path="url(#jcl150_170)">
<rect x="94" y="114" width="112" height="112" fill="#e7ddb4"/>
<path d="M90.0 117.9 L92.0 118.5 L94.0 119.0 L96.0 119.5 L98.0 120.0 L100.0 120.5 L102.0 120.9 L104.0 121.2 L106.0 121.5 L108.0 121.7 L110.0 121.9 L112.0 121.9 L114.0 121.9 L116.0 121.8 L118.0 121.6 L120.0 121.4 L122.0 121.1 L124.0 120.7 L126.0 120.3 L128.0 119.8 L130.0 119.3 L132.0 118.8 L134.0 118.2 L136.0 117.6 L138.0 117.1 L140.0 116.6 L142.0 116.0 L144.0 115.6 L146.0 115.1 L148.0 114.8 L150.0 114.5 L152.0 114.2 L154.0 114.0 L156.0 113.9 L158.0 113.9 L160.0 114.0 L162.0 114.1 L164.0 114.3 L166.0 114.6 L168.0 114.9 L170.0 115.3 L172.0 115.8 L174.0 116.3 L176.0 116.8 L178.0 117.4 L180.0 117.9 L182.0 118.5 L184.0 119.0 L186.0 119.5 L188.0 120.0 L190.0 120.5 L192.0 120.9 L194.0 121.2 L196.0 121.5 L198.0 121.7 L200.0 121.9 L202.0 121.9 L204.0 121.9 L206.0 121.8 L208.0 121.6 L210.0 121.4 L210.0 133.7 L208.0 134.3 L206.0 134.8 L204.0 135.4 L202.0 135.9 L200.0 136.4 L198.0 136.9 L196.0 137.4 L194.0 137.8 L192.0 138.1 L190.0 138.4 L188.0 138.6 L186.0 138.7 L184.0 138.7 L182.0 138.7 L180.0 138.6 L178.0 138.4 L176.0 138.1 L174.0 137.8 L172.0 137.4 L170.0 137.0 L168.0 136.5 L166.0 136.0 L164.0 135.4 L162.0 134.9 L160.0 134.3 L158.0 133.8 L156.0 133.3 L154.0 132.7 L152.0 132.3 L150.0 131.9 L148.0 131.5 L146.0 131.2 L144.0 131.0 L142.0 130.8 L140.0 130.7 L138.0 130.7 L136.0 130.8 L134.0 130.9 L132.0 131.2 L130.0 131.5 L128.0 131.8 L126.0 132.2 L124.0 132.7 L122.0 133.2 L120.0 133.7 L118.0 134.3 L116.0 134.8 L114.0 135.4 L112.0 135.9 L110.0 136.4 L108.0 136.9 L106.0 137.4 L104.0 137.8 L102.0 138.1 L100.0 138.4 L98.0 138.6 L96.0 138.7 L94.0 138.7 L92.0 138.7 L90.0 138.6 Z" fill="#a7b4a2" opacity="0.3"/>
<path d="M90.0 139.5 L92.0 139.9 L94.0 140.2 L96.0 140.5 L98.0 140.8 L100.0 141.0 L102.0 141.2 L104.0 141.4 L106.0 141.5 L108.0 141.6 L110.0 141.6 L112.0 141.6 L114.0 141.6 L116.0 141.5 L118.0 141.3 L120.0 141.2 L122.0 141.0 L124.0 140.7 L126.0 140.4 L128.0 140.1 L130.0 139.8 L132.0 139.4 L134.0 139.1 L136.0 138.7 L138.0 138.4 L140.0 138.0 L142.0 137.6 L144.0 137.3 L146.0 137.0 L148.0 136.7 L150.0 136.4 L152.0 136.2 L154.0 136.0 L156.0 135.9 L158.0 135.7 L160.0 135.7 L162.0 135.6 L164.0 135.7 L166.0 135.7 L168.0 135.8 L170.0 136.0 L172.0 136.2 L174.0 136.4 L176.0 136.6 L178.0 136.9 L180.0 137.2 L182.0 137.6 L184.0 137.9 L186.0 138.3 L188.0 138.6 L190.0 139.0 L192.0 139.4 L194.0 139.7 L196.0 140.1 L198.0 140.4 L200.0 140.6 L202.0 140.9 L204.0 141.1 L206.0 141.3 L208.0 141.5 L210.0 141.6 L210.0 146.8 L208.0 147.1 L206.0 147.4 L204.0 147.6 L202.0 147.9 L200.0 148.0 L198.0 148.2 L196.0 148.3 L194.0 148.3 L192.0 148.4 L190.0 148.3 L188.0 148.3 L186.0 148.1 L184.0 148.0 L182.0 147.8 L180.0 147.5 L178.0 147.3 L176.0 147.0 L174.0 146.7 L172.0 146.3 L170.0 146.0 L168.0 145.6 L166.0 145.2 L164.0 144.9 L162.0 144.5 L160.0 144.2 L158.0 143.8 L156.0 143.5 L154.0 143.3 L152.0 143.0 L150.0 142.8 L148.0 142.6 L146.0 142.5 L144.0 142.4 L142.0 142.4 L140.0 142.4 L138.0 142.4 L136.0 142.5 L134.0 142.6 L132.0 142.8 L130.0 143.0 L128.0 143.2 L126.0 143.5 L124.0 143.8 L122.0 144.1 L120.0 144.5 L118.0 144.8 L116.0 145.2 L114.0 145.6 L112.0 145.9 L110.0 146.3 L108.0 146.6 L106.0 146.9 L104.0 147.2 L102.0 147.5 L100.0 147.8 L98.0 148.0 L96.0 148.1 L94.0 148.2 L92.0 148.3 L90.0 148.4 Z" fill="#cdab66" opacity="0.9"/>
<path d="M90.0 154.6 L92.0 154.8 L94.0 155.0 L96.0 155.2 L98.0 155.4 L100.0 155.5 L102.0 155.6 L104.0 155.6 L106.0 155.6 L108.0 155.5 L110.0 155.4 L112.0 155.3 L114.0 155.1 L116.0 154.9 L118.0 154.7 L120.0 154.4 L122.0 154.1 L124.0 153.8 L126.0 153.4 L128.0 153.1 L130.0 152.7 L132.0 152.3 L134.0 152.0 L136.0 151.6 L138.0 151.2 L140.0 150.9 L142.0 150.5 L144.0 150.2 L146.0 149.9 L148.0 149.6 L150.0 149.3 L152.0 149.1 L154.0 148.9 L156.0 148.8 L158.0 148.7 L160.0 148.6 L162.0 148.6 L164.0 148.6 L166.0 148.6 L168.0 148.7 L170.0 148.9 L172.0 149.0 L174.0 149.3 L176.0 149.5 L178.0 149.8 L180.0 150.1 L182.0 150.4 L184.0 150.7 L186.0 151.1 L188.0 151.4 L190.0 151.8 L192.0 152.2 L194.0 152.6 L196.0 152.9 L198.0 153.3 L200.0 153.7 L202.0 154.0 L204.0 154.3 L206.0 154.6 L208.0 154.8 L210.0 155.0 L210.0 164.8 L208.0 165.0 L206.0 165.2 L204.0 165.4 L202.0 165.5 L200.0 165.6 L198.0 165.6 L196.0 165.7 L194.0 165.6 L192.0 165.6 L190.0 165.5 L188.0 165.3 L186.0 165.1 L184.0 164.9 L182.0 164.7 L180.0 164.4 L178.0 164.1 L176.0 163.7 L174.0 163.4 L172.0 163.0 L170.0 162.7 L168.0 162.3 L166.0 161.9 L164.0 161.5 L162.0 161.2 L160.0 160.8 L158.0 160.5 L156.0 160.1 L154.0 159.8 L152.0 159.6 L150.0 159.3 L148.0 159.1 L146.0 159.0 L144.0 158.8 L142.0 158.7 L140.0 158.7 L138.0 158.7 L136.0 158.7 L134.0 158.8 L132.0 158.9 L130.0 159.0 L128.0 159.2 L126.0 159.4 L124.0 159.7 L122.0 159.9 L120.0 160.3 L118.0 160.6 L116.0 160.9 L114.0 161.3 L112.0 161.7 L110.0 162.0 L108.0 162.4 L106.0 162.8 L104.0 163.2 L102.0 163.5 L100.0 163.9 L98.0 164.2 L96.0 164.5 L94.0 164.8 L92.0 165.0 L90.0 165.2 Z" fill="#c6964c" opacity="0.95"/>
<path d="M90.0 166.6 L92.0 166.6 L94.0 166.6 L96.0 166.6 L98.0 166.5 L100.0 166.5 L102.0 166.4 L104.0 166.2 L106.0 166.1 L108.0 165.9 L110.0 165.7 L112.0 165.5 L114.0 165.2 L116.0 165.0 L118.0 164.7 L120.0 164.4 L122.0 164.2 L124.0 163.9 L126.0 163.6 L128.0 163.3 L130.0 163.0 L132.0 162.7 L134.0 162.4 L136.0 162.2 L138.0 161.9 L140.0 161.7 L142.0 161.5 L144.0 161.3 L146.0 161.1 L148.0 161.0 L150.0 160.8 L152.0 160.7 L154.0 160.7 L156.0 160.6 L158.0 160.6 L160.0 160.6 L162.0 160.7 L164.0 160.7 L166.0 160.8 L168.0 161.0 L170.0 161.1 L172.0 161.3 L174.0 161.5 L176.0 161.7 L178.0 161.9 L180.0 162.2 L182.0 162.4 L184.0 162.7 L186.0 163.0 L188.0 163.3 L190.0 163.6 L192.0 163.9 L194.0 164.2 L196.0 164.4 L198.0 164.7 L200.0 165.0 L202.0 165.2 L204.0 165.5 L206.0 165.7 L208.0 165.9 L210.0 166.1 L210.0 177.6 L208.0 177.8 L206.0 177.9 L204.0 178.0 L202.0 178.1 L200.0 178.2 L198.0 178.2 L196.0 178.3 L194.0 178.3 L192.0 178.2 L190.0 178.1 L188.0 178.0 L186.0 177.9 L184.0 177.8 L182.0 177.6 L180.0 177.4 L178.0 177.2 L176.0 177.0 L174.0 176.7 L172.0 176.5 L170.0 176.2 L168.0 175.9 L166.0 175.6 L164.0 175.3 L162.0 175.0 L160.0 174.7 L158.0 174.5 L156.0 174.2 L154.0 173.9 L152.0 173.7 L150.0 173.4 L148.0 173.2 L146.0 173.0 L144.0 172.8 L142.0 172.7 L140.0 172.5 L138.0 172.4 L136.0 172.3 L134.0 172.3 L132.0 172.3 L130.0 172.3 L128.0 172.3 L126.0 172.4 L124.0 172.5 L122.0 172.6 L120.0 172.7 L118.0 172.9 L116.0 173.1 L114.0 173.3 L112.0 173.5 L110.0 173.7 L108.0 174.0 L106.0 174.3 L104.0 174.5 L102.0 174.8 L100.0 175.1 L98.0 175.4 L96.0 175.7 L94.0 176.0 L92.0 176.3 L90.0 176.5 Z" fill="#e6c651" opacity="1.0"/>
<path d="M90.0 175.3 L92.0 175.2 L94.0 175.1 L96.0 175.0 L98.0 174.9 L100.0 174.7 L102.0 174.6 L104.0 174.4 L106.0 174.2 L108.0 174.1 L110.0 173.9 L112.0 173.7 L114.0 173.5 L116.0 173.4 L118.0 173.2 L120.0 173.0 L122.0 172.9 L124.0 172.7 L126.0 172.5 L128.0 172.4 L130.0 172.3 L132.0 172.1 L134.0 172.0 L136.0 171.9 L138.0 171.8 L140.0 171.7 L142.0 171.7 L144.0 171.6 L146.0 171.6 L148.0 171.6 L150.0 171.6 L152.0 171.6 L154.0 171.6 L156.0 171.7 L158.0 171.7 L160.0 171.8 L162.0 171.9 L164.0 172.0 L166.0 172.1 L168.0 172.2 L170.0 172.4 L172.0 172.5 L174.0 172.7 L176.0 172.8 L178.0 173.0 L180.0 173.2 L182.0 173.4 L184.0 173.5 L186.0 173.7 L188.0 173.9 L190.0 174.1 L192.0 174.2 L194.0 174.4 L196.0 174.6 L198.0 174.7 L200.0 174.8 L202.0 175.0 L204.0 175.1 L206.0 175.2 L208.0 175.3 L210.0 175.4 L210.0 178.9 L208.0 179.1 L206.0 179.2 L204.0 179.3 L202.0 179.4 L200.0 179.4 L198.0 179.5 L196.0 179.6 L194.0 179.6 L192.0 179.6 L190.0 179.6 L188.0 179.6 L186.0 179.6 L184.0 179.5 L182.0 179.5 L180.0 179.4 L178.0 179.3 L176.0 179.2 L174.0 179.1 L172.0 179.0 L170.0 178.8 L168.0 178.7 L166.0 178.5 L164.0 178.4 L162.0 178.2 L160.0 178.0 L158.0 177.9 L156.0 177.7 L154.0 177.5 L152.0 177.3 L150.0 177.2 L148.0 177.0 L146.0 176.8 L144.0 176.7 L142.0 176.5 L140.0 176.4 L138.0 176.2 L136.0 176.1 L134.0 176.0 L132.0 175.9 L130.0 175.8 L128.0 175.8 L126.0 175.7 L124.0 175.7 L122.0 175.6 L120.0 175.6 L118.0 175.6 L116.0 175.6 L114.0 175.7 L112.0 175.7 L110.0 175.8 L108.0 175.9 L106.0 176.0 L104.0 176.1 L102.0 176.2 L100.0 176.3 L98.0 176.5 L96.0 176.6 L94.0 176.8 L92.0 176.9 L90.0 177.1 Z" fill="#cf9a3a" opacity="0.9"/>
<path d="M90.0 181.0 L92.0 180.8 L94.0 180.5 L96.0 180.2 L98.0 179.9 L100.0 179.6 L102.0 179.4 L104.0 179.1 L106.0 178.8 L108.0 178.5 L110.0 178.3 L112.0 178.1 L114.0 177.8 L116.0 177.6 L118.0 177.4 L120.0 177.3 L122.0 177.1 L124.0 177.0 L126.0 176.8 L128.0 176.7 L130.0 176.7 L132.0 176.6 L134.0 176.6 L136.0 176.6 L138.0 176.6 L140.0 176.6 L142.0 176.7 L144.0 176.8 L146.0 176.9 L148.0 177.0 L150.0 177.2 L152.0 177.3 L154.0 177.5 L156.0 177.7 L158.0 177.9 L160.0 178.2 L162.0 178.4 L164.0 178.7 L166.0 178.9 L168.0 179.2 L170.0 179.5 L172.0 179.8 L174.0 180.0 L176.0 180.3 L178.0 180.6 L180.0 180.9 L182.0 181.2 L184.0 181.4 L186.0 181.7 L188.0 181.9 L190.0 182.2 L192.0 182.4 L194.0 182.6 L196.0 182.8 L198.0 182.9 L200.0 183.1 L202.0 183.2 L204.0 183.3 L206.0 183.4 L208.0 183.5 L210.0 183.6 L210.0 190.4 L208.0 190.6 L206.0 190.9 L204.0 191.1 L202.0 191.3 L200.0 191.6 L198.0 191.7 L196.0 191.9 L194.0 192.1 L192.0 192.2 L190.0 192.3 L188.0 192.4 L186.0 192.5 L184.0 192.5 L182.0 192.5 L180.0 192.5 L178.0 192.5 L176.0 192.5 L174.0 192.4 L172.0 192.3 L170.0 192.2 L168.0 192.1 L166.0 191.9 L164.0 191.7 L162.0 191.6 L160.0 191.3 L158.0 191.1 L156.0 190.9 L154.0 190.6 L152.0 190.4 L150.0 190.1 L148.0 189.8 L146.0 189.6 L144.0 189.3 L142.0 189.0 L140.0 188.7 L138.0 188.4 L136.0 188.2 L134.0 187.9 L132.0 187.6 L130.0 187.4 L128.0 187.1 L126.0 186.9 L124.0 186.7 L122.0 186.5 L120.0 186.3 L118.0 186.1 L116.0 186.0 L114.0 185.9 L112.0 185.7 L110.0 185.7 L108.0 185.6 L106.0 185.6 L104.0 185.5 L102.0 185.5 L100.0 185.6 L98.0 185.6 L96.0 185.7 L94.0 185.8 L92.0 185.9 L90.0 186.1 Z" fill="#c79a55" opacity="0.95"/>
<path d="M90.0 192.6 L92.0 192.5 L94.0 192.3 L96.0 192.1 L98.0 192.0 L100.0 191.8 L102.0 191.7 L104.0 191.6 L106.0 191.5 L108.0 191.4 L110.0 191.3 L112.0 191.3 L114.0 191.2 L116.0 191.2 L118.0 191.2 L120.0 191.2 L122.0 191.2 L124.0 191.3 L126.0 191.3 L128.0 191.4 L130.0 191.5 L132.0 191.6 L134.0 191.7 L136.0 191.9 L138.0 192.0 L140.0 192.2 L142.0 192.4 L144.0 192.5 L146.0 192.7 L148.0 192.9 L150.0 193.1 L152.0 193.4 L154.0 193.6 L156.0 193.8 L158.0 194.0 L160.0 194.2 L162.0 194.5 L164.0 194.7 L166.0 194.9 L168.0 195.1 L170.0 195.3 L172.0 195.5 L174.0 195.7 L176.0 195.9 L178.0 196.1 L180.0 196.3 L182.0 196.4 L184.0 196.6 L186.0 196.7 L188.0 196.8 L190.0 196.9 L192.0 197.0 L194.0 197.1 L196.0 197.1 L198.0 197.2 L200.0 197.2 L202.0 197.2 L204.0 197.2 L206.0 197.2 L208.0 197.1 L210.0 197.0 L210.0 201.7 L208.0 201.9 L206.0 202.1 L204.0 202.3 L202.0 202.6 L200.0 202.8 L198.0 203.0 L196.0 203.2 L194.0 203.4 L192.0 203.6 L190.0 203.7 L188.0 203.9 L186.0 204.1 L184.0 204.2 L182.0 204.3 L180.0 204.4 L178.0 204.5 L176.0 204.6 L174.0 204.7 L172.0 204.8 L170.0 204.8 L168.0 204.8 L166.0 204.8 L164.0 204.8 L162.0 204.8 L160.0 204.7 L158.0 204.6 L156.0 204.6 L154.0 204.5 L152.0 204.4 L150.0 204.2 L148.0 204.1 L146.0 203.9 L144.0 203.8 L142.0 203.6 L140.0 203.4 L138.0 203.2 L136.0 203.0 L134.0 202.8 L132.0 202.6 L130.0 202.4 L128.0 202.2 L126.0 201.9 L124.0 201.7 L122.0 201.5 L120.0 201.3 L118.0 201.1 L116.0 200.8 L114.0 200.6 L112.0 200.4 L110.0 200.2 L108.0 200.0 L106.0 199.9 L104.0 199.7 L102.0 199.6 L100.0 199.4 L98.0 199.3 L96.0 199.2 L94.0 199.1 L92.0 199.0 L90.0 198.9 Z" fill="#9fb1ad" opacity="0.5"/>
<path d="M90.0 200.2 L92.0 200.2 L94.0 200.2 L96.0 200.2 L98.0 200.2 L100.0 200.2 L102.0 200.3 L104.0 200.4 L106.0 200.5 L108.0 200.6 L110.0 200.7 L112.0 200.8 L114.0 201.0 L116.0 201.2 L118.0 201.4 L120.0 201.6 L122.0 201.8 L124.0 202.0 L126.0 202.3 L128.0 202.5 L130.0 202.8 L132.0 203.0 L134.0 203.3 L136.0 203.6 L138.0 203.9 L140.0 204.1 L142.0 204.4 L144.0 204.7 L146.0 205.0 L148.0 205.2 L150.0 205.5 L152.0 205.8 L154.0 206.0 L156.0 206.2 L158.0 206.5 L160.0 206.7 L162.0 206.9 L164.0 207.1 L166.0 207.3 L168.0 207.4 L170.0 207.6 L172.0 207.7 L174.0 207.8 L176.0 207.9 L178.0 208.0 L180.0 208.1 L182.0 208.1 L184.0 208.2 L186.0 208.2 L188.0 208.1 L190.0 208.1 L192.0 208.1 L194.0 208.0 L196.0 207.9 L198.0 207.8 L200.0 207.7 L202.0 207.5 L204.0 207.4 L206.0 207.2 L208.0 207.0 L210.0 206.8 L210.0 218.8 L208.0 219.0 L206.0 219.2 L204.0 219.5 L202.0 219.8 L200.0 220.0 L198.0 220.3 L196.0 220.6 L194.0 220.9 L192.0 221.1 L190.0 221.4 L188.0 221.7 L186.0 222.0 L184.0 222.2 L182.0 222.5 L180.0 222.7 L178.0 223.0 L176.0 223.2 L174.0 223.4 L172.0 223.6 L170.0 223.8 L168.0 224.0 L166.0 224.2 L164.0 224.4 L162.0 224.5 L160.0 224.6 L158.0 224.7 L156.0 224.8 L154.0 224.9 L152.0 224.9 L150.0 225.0 L148.0 225.0 L146.0 225.0 L144.0 224.9 L142.0 224.9 L140.0 224.8 L138.0 224.7 L136.0 224.6 L134.0 224.5 L132.0 224.4 L130.0 224.2 L128.0 224.0 L126.0 223.9 L124.0 223.7 L122.0 223.4 L120.0 223.2 L118.0 223.0 L116.0 222.7 L114.0 222.5 L112.0 222.2 L110.0 222.0 L108.0 221.7 L106.0 221.4 L104.0 221.1 L102.0 220.9 L100.0 220.6 L98.0 220.3 L96.0 220.0 L94.0 219.8 L92.0 219.5 L90.0 219.2 Z" fill="#a7b4a2" opacity="0.3"/>
<ellipse cx="165.7" cy="184.6" rx="9.5" ry="4.8" fill="#c06b51" opacity="0.92"/>
<ellipse cx="165.7" cy="184.6" rx="9.5" ry="4.8" fill="none" stroke="#9a4f3a" stroke-width="0.5" opacity="0.6"/>
<path d="M150.0 114.0 A56 56 0 0 1 150.0 226.0 A51.5 56 0 0 0 150.0 114.0 Z" fill="#1c2733" opacity="0.16"/>
</g>
<circle cx="150" cy="170" r="56" fill="none" stroke="#8a7a52" stroke-width="0.8" opacity="0.7"/>
</svg>