<svg xmlns="http://www.w3.org/2000/svg" viewBox="594 114 112 112">
<clipPath id="mcl650_170"><circle cx="650" cy="170" r="56"/></clipPath>
<g clip-path="url(#mcl650_170)">
<rect x="594" y="114" width="112" height="112" fill="#be6c43"/>
<ellipse cx="641.6" cy="175.6" rx="80.9" ry="66.6" fill="#c8845a" opacity="0.32" transform="rotate(0 641.6 175.6)"/><ellipse cx="641.6" cy="175.6" rx="47.6" ry="39.2" fill="#c8845a" opacity="0.5" transform="rotate(0 641.6 175.6)"/>
<ellipse cx="664.0" cy="150.4" rx="47.6" ry="38.1" fill="#d49872" opacity="0.22" transform="rotate(0 664.0 150.4)"/><ellipse cx="664.0" cy="150.4" rx="28.0" ry="22.4" fill="#d49872" opacity="0.4" transform="rotate(0 664.0 150.4)"/>
<path d="M682.4 152.7 L685.8 153.5 L687.9 155.4 L688.3 158.1 L687.0 161.4 L684.1 165.0 L680.3 168.4 L676.0 171.3 L671.7 173.8 L667.8 175.9 L664.4 177.8 L661.3 179.6 L658.3 181.7 L655.2 184.0 L651.6 186.4 L647.7 188.6 L643.5 190.4 L639.4 191.5 L635.9 191.6 L633.1 190.8 L631.4 189.2 L630.7 187.0 L630.7 184.7 L630.9 182.4 L631.1 180.4 L630.9 178.6 L630.1 177.0 L629.0 175.2 L627.9 173.1 L627.3 170.5 L627.7 167.3 L629.4 163.7 L632.5 160.1 L636.7 156.9 L641.6 154.4 L646.7 152.9 L651.3 152.5 L655.1 152.9 L658.0 153.9 L660.1 155.0 L661.9 155.8 L663.9 156.1 L666.4 155.6 L669.7 154.7 L673.7 153.6 L678.2 152.8 Z" fill="none" stroke="#4c453f" stroke-width="5" opacity="0.12" stroke-linejoin="round"/>
<path d="M682.4 152.7 L685.8 153.5 L687.9 155.4 L688.3 158.1 L687.0 161.4 L684.1 165.0 L680.3 168.4 L676.0 171.3 L671.7 173.8 L667.8 175.9 L664.4 177.8 L661.3 179.6 L658.3 181.7 L655.2 184.0 L651.6 186.4 L647.7 188.6 L643.5 190.4 L639.4 191.5 L635.9 191.6 L633.1 190.8 L631.4 189.2 L630.7 187.0 L630.7 184.7 L630.9 182.4 L631.1 180.4 L630.9 178.6 L630.1 177.0 L629.0 175.2 L627.9 173.1 L627.3 170.5 L627.7 167.3 L629.4 163.7 L632.5 160.1 L636.7 156.9 L641.6 154.4 L646.7 152.9 L651.3 152.5 L655.1 152.9 L658.0 153.9 L660.1 155.0 L661.9 155.8 L663.9 156.1 L666.4 155.6 L669.7 154.7 L673.7 153.6 L678.2 152.8 Z" fill="#4c453f" opacity="0.60"/>
<ellipse cx="670.2" cy="158.8" rx="9.5" ry="5.3" fill="#525b61" opacity="0.42" transform="rotate(14 670.2 158.8)"/>
<ellipse cx="629.8" cy="186.8" rx="20.9" ry="17.1" fill="#f4f2ec" opacity="0.4" transform="rotate(0 629.8 186.8)"/><ellipse cx="629.8" cy="186.8" rx="12.3" ry="10.1" fill="#f4f2ec" opacity="0.78" transform="rotate(0 629.8 186.8)"/>
<ellipse cx="661.8" cy="173.9" rx="10.5" ry="8.1" fill="#f6f4ee" opacity="0.4" transform="rotate(0 661.8 173.9)"/><ellipse cx="661.8" cy="173.9" rx="6.2" ry="4.8" fill="#f6f4ee" opacity="0.78" transform="rotate(0 661.8 173.9)"/>
<ellipse cx="650.0" cy="121.8" rx="28.0" ry="11.2" fill="#f1f2ee" opacity="0.95"/>
<ellipse cx="647.2" cy="221.5" rx="14.6" ry="6.2" fill="#f1f2ee" opacity="0.7"/>
<circle cx="640.5" cy="189.1" r="0.9" fill="#ecd0a6" opacity="0.06"/><circle cx="641.2" cy="179.9" r="0.8" fill="#7a4a30" opacity="0.06"/><circle cx="665.0" cy="177.0" r="0.6" fill="#7a4a30" opacity="0.14"/><circle cx="657.3" cy="212.9" r="0.8" fill="#ecd0a6" opacity="0.1"/><circle cx="661.7" cy="168.2" r="0.6" fill="#ecd0a6" opacity="0.08"/><circle cx="672.5" cy="190.6" r="0.9" fill="#ecd0a6" opacity="0.07"/><circle cx="628.5" cy="144.3" r="0.5" fill="#7a4a30" opacity="0.07"/><circle cx="662.4" cy="213.5" r="0.9" fill="#7a4a30" opacity="0.09"/><circle cx="621.2" cy="178.7" r="0.7" fill="#ecd0a6" opacity="0.11"/><circle cx="614.5" cy="152.1" r="0.7" fill="#ecd0a6" opacity="0.12"/><circle cx="668.7" cy="167.7" r="0.6" fill="#7a4a30" opacity="0.14"/><circle cx="639.2" cy="170.8" r="0.9" fill="#ecd0a6" opacity="0.12"/><circle cx="671.8" cy="148.3" r="0.9" fill="#ecd0a6" opacity="0.1"/><circle cx="601.6" cy="183.7" r="1.0" fill="#ecd0a6" opacity="0.09"/><circle cx="692.7" cy="187.1" r="1.1" fill="#ecd0a6" opacity="0.14"/><circle cx="642.6" cy="203.3" r="0.8" fill="#ecd0a6" opacity="0.05"/><circle cx="659.2" cy="186.3" r="0.6" fill="#7a4a30" opacity="0.14"/><circle cx="650.5" cy="204.3" r="0.8" fill="#ecd0a6" opacity="0.06"/><circle cx="600.9" cy="154.2" r="0.7" fill="#ecd0a6" opacity="0.13"/><circle cx="621.7" cy="186.7" r="0.6" fill="#ecd0a6" opacity="0.14"/><circle cx="661.8" cy="193.6" r="0.9" fill="#7a4a30" opacity="0.11"/><circle cx="649.7" cy="173.5" r="0.9" fill="#7a4a30" opacity="0.1"/><circle cx="693.6" cy="156.8" r="1.0" fill="#7a4a30" opacity="0.12"/><circle cx="699.1" cy="187.3" r="1.1" fill="#ecd0a6" opacity="0.13"/><circle cx="623.0" cy="191.7" r="0.5" fill="#7a4a30" opacity="0.12"/><circle cx="672.9" cy="180.3" r="0.5" fill="#7a4a30" opacity="0.09"/><circle cx="671.3" cy="170.0" r="0.5" fill="#7a4a30" opacity="0.1"/><circle cx="680.3" cy="139.5" r="0.7" fill="#7a4a30" opacity="0.09"/><circle cx="637.4" cy="184.5" r="0.8" fill="#ecd0a6" opacity="0.14"/><circle cx="634.0" cy="171.6" r="0.7" fill="#7a4a30" opacity="0.09"/><circle cx="660.5" cy="150.6" r="0.9" fill="#7a4a30" opacity="0.16"/><circle cx="674.5" cy="202.2" r="1.2" fill="#7a4a30" opacity="0.11"/><circle cx="679.9" cy="135.3" r="0.6" fill="#7a4a30" opacity="0.1"/><circle cx="655.5" cy="130.3" r="0.7" fill="#ecd0a6" opacity="0.08"/><circle cx="670.5" cy="119.6" r="1.1" fill="#ecd0a6" opacity="0.12"/><circle cx="648.3" cy="143.9" r="0.5" fill="#7a4a30" opacity="0.1"/><circle cx="678.6" cy="175.1" r="1.2" fill="#7a4a30" opacity="0.13"/><circle cx="599.8" cy="187.3" r="0.8" fill="#ecd0a6" opacity="0.14"/><circle cx="654.8" cy="195.7" r="0.9" fill="#7a4a30" opacity="0.08"/><circle cx="690.8" cy="140.5" r="1.1" fill="#7a4a30" opacity="0.13"/><circle cx="688.4" cy="192.7" r="1.0" fill="#ecd0a6" opacity="0.12"/><circle cx="627.0" cy="173.2" r="1.1" fill="#ecd0a6" opacity="0.08"/><circle cx="684.0" cy="163.9" r="1.0" fill="#7a4a30" opacity="0.15"/><circle cx="659.4" cy="187.1" r="1.1" fill="#7a4a30" opacity="0.15"/><circle cx="680.3" cy="209.6" r="0.7" fill="#ecd0a6" opacity="0.11"/><circle cx="631.1" cy="164.0" r="1.0" fill="#7a4a30" opacity="0.16"/><circle cx="597.7" cy="161.2" r="1.1" fill="#7a4a30" opacity="0.15"/><circle cx="656.7" cy="196.7" r="0.9" fill="#7a4a30" opacity="0.08"/><circle cx="647.9" cy="205.5" r="0.7" fill="#7a4a30" opacity="0.15"/><circle cx="609.5" cy="180.9" r="1.1" fill="#ecd0a6" opacity="0.09"/><circle cx="610.0" cy="169.6" r="0.8" fill="#7a4a30" opacity="0.06"/><circle cx="651.4" cy="173.1" r="0.8" fill="#ecd0a6" opacity="0.07"/><circle cx="643.6" cy="129.6" r="0.9" fill="#7a4a30" opacity="0.11"/><circle cx="653.8" cy="152.5" r="0.7" fill="#ecd0a6" opacity="0.07"/><circle cx="655.5" cy="131.3" r="1.1" fill="#ecd0a6" opacity="0.12"/><circle cx="609.8" cy="185.0" r="1.0" fill="#7a4a30" opacity="0.11"/><circle cx="611.7" cy="181.8" r="1.0" fill="#7a4a30" opacity="0.15"/><circle cx="688.0" cy="132.7" r="1.2" fill="#7a4a30" opacity="0.12"/><circle cx="660.9" cy="152.8" r="0.6" fill="#7a4a30" opacity="0.1"/><circle cx="650.9" cy="184.8" r="1.1" fill="#ecd0a6" opacity="0.12"/><circle cx="676.2" cy="208.3" r="1.1" fill="#ecd0a6" opacity="0.06"/><circle cx="675.2" cy="164.8" r="0.8" fill="#ecd0a6" opacity="0.09"/><circle cx="700.0" cy="166.8" r="0.9" fill="#7a4a30" opacity="0.1"/><circle cx="637.1" cy="190.6" r="0.5" fill="#7a4a30" opacity="0.13"/><circle cx="615.7" cy="157.9" r="0.9" fill="#7a4a30" opacity="0.09"/><circle cx="636.1" cy="168.9" r="1.2" fill="#ecd0a6" opacity="0.12"/><circle cx="672.4" cy="187.3" r="0.7" fill="#7a4a30" opacity="0.14"/><circle cx="674.5" cy="195.9" r="0.7" fill="#ecd0a6" opacity="0.12"/><circle cx="681.1" cy="212.4" r="0.6" fill="#ecd0a6" opacity="0.11"/><circle cx="692.6" cy="186.1" r="1.2" fill="#7a4a30" opacity="0.07"/><circle cx="617.4" cy="133.3" r="0.5" fill="#7a4a30" opacity="0.15"/><circle cx="674.1" cy="141.9" r="1.1" fill="#7a4a30" opacity="0.12"/><circle cx="647.8" cy="189.6" r="0.6" fill="#7a4a30" opacity="0.08"/><circle cx="656.5" cy="180.5" r="0.7" fill="#7a4a30" opacity="0.09"/><circle cx="651.8" cy="140.5" r="0.7" fill="#7a4a30" opacity="0.08"/><circle cx="677.3" cy="173.1" r="0.9" fill="#7a4a30" opacity="0.13"/><circle cx="664.0" cy="205.1" r="1.1" fill="#ecd0a6" opacity="0.06"/><circle cx="614.8" cy="186.0" r="0.9" fill="#ecd0a6" opacity="0.09"/><circle cx="629.3" cy="119.7" r="1.0" fill="#7a4a30" opacity="0.14"/><circle cx="627.1" cy="143.7" r="0.6" fill="#7a4a30" opacity="0.07"/><circle cx="692.7" cy="190.3" r="0.6" fill="#7a4a30" opacity="0.08"/><circle cx="677.8" cy="127.0" r="0.7" fill="#ecd0a6" opacity="0.08"/><circle cx="640.1" cy="205.8" r="0.7" fill="#7a4a30" opacity="0.1"/><circle cx="702.6" cy="157.1" r="1.2" fill="#7a4a30" opacity="0.08"/><circle cx="638.0" cy="200.5" r="0.8" fill="#7a4a30" opacity="0.1"/><circle cx="625.4" cy="169.6" r="0.7" fill="#7a4a30" opacity="0.06"/><circle cx="679.3" cy="188.5" r="0.7" fill="#7a4a30" opacity="0.06"/><circle cx="654.5" cy="211.8" r="1.0" fill="#7a4a30" opacity="0.14"/><circle cx="639.1" cy="119.7" r="1.2" fill="#7a4a30" opacity="0.09"/><circle cx="677.6" cy="207.7" r="1.1" fill="#ecd0a6" opacity="0.05"/><circle cx="683.8" cy="142.7" r="0.6" fill="#ecd0a6" opacity="0.12"/><circle cx="611.5" cy="164.2" r="1.1" fill="#ecd0a6" opacity="0.12"/><circle cx="605.2" cy="143.9" r="0.7" fill="#ecd0a6" opacity="0.11"/><circle cx="669.6" cy="173.9" r="1.1" fill="#7a4a30" opacity="0.07"/><circle cx="609.4" cy="154.4" r="0.8" fill="#ecd0a6" opacity="0.11"/><circle cx="699.0" cy="171.0" r="0.9" fill="#ecd0a6" opacity="0.1"/><circle cx="642.4" cy="158.1" r="0.6" fill="#ecd0a6" opacity="0.07"/><circle cx="645.4" cy="216.6" r="1.2" fill="#7a4a30" opacity="0.13"/><circle cx="616.1" cy="171.3" r="1.0" fill="#7a4a30" opacity="0.13"/><circle cx="617.4" cy="140.5" r="0.7" fill="#7a4a30" opacity="0.07"/><circle cx="648.7" cy="139.7" r="0.5" fill="#ecd0a6" opacity="0.05"/><circle cx="644.7" cy="214.7" r="0.7" fill="#ecd0a6" opacity="0.11"/><circle cx="612.8" cy="166.1" r="1.1" fill="#7a4a30" opacity="0.07"/><circle cx="667.0" cy="221.5" r="0.8" fill="#ecd0a6" opacity="0.05"/><circle cx="673.0" cy="121.1" r="0.6" fill="#7a4a30" opacity="0.09"/><circle cx="673.7" cy="161.6" r="0.9" fill="#ecd0a6" opacity="0.06"/><circle cx="669.1" cy="164.2" r="1.1" fill="#ecd0a6" opacity="0.1"/><circle cx="642.4" cy="144.7" r="0.5" fill="#ecd0a6" opacity="0.09"/><circle cx="688.5" cy="170.9" r="0.6" fill="#7a4a30" opacity="0.09"/><circle cx="632.8" cy="195.6" r="1.0" fill="#ecd0a6" opacity="0.05"/><circle cx="660.1" cy="153.9" r="1.1" fill="#ecd0a6" opacity="0.11"/><circle cx="641.7" cy="202.4" r="0.9" fill="#7a4a30" opacity="0.16"/><circle cx="627.0" cy="197.6" r="0.6" fill="#7a4a30" opacity="0.06"/><circle cx="664.9" cy="144.7" r="0.7" fill="#ecd0a6" opacity="0.07"/><circle cx="626.1" cy="168.4" r="1.1" fill="#7a4a30" opacity="0.16"/><circle cx="666.5" cy="129.7" r="0.9" fill="#ecd0a6" opacity="0.13"/><circle cx="647.7" cy="158.0" r="1.0" fill="#ecd0a6" opacity="0.09"/><circle cx="631.9" cy="146.9" r="0.6" fill="#7a4a30" opacity="0.15"/><circle cx="618.3" cy="175.6" r="1.2" fill="#7a4a30" opacity="0.13"/><circle cx="647.2" cy="214.4" r="0.8" fill="#7a4a30" opacity="0.12"/><circle cx="661.0" cy="189.2" r="0.8" fill="#7a4a30" opacity="0.15"/><circle cx="659.8" cy="221.3" r="0.6" fill="#ecd0a6" opacity="0.09"/><circle cx="655.9" cy="185.5" r="0.7" fill="#7a4a30" opacity="0.07"/><circle cx="647.8" cy="211.4" r="0.8" fill="#ecd0a6" opacity="0.12"/><circle cx="615.9" cy="190.5" r="0.5" fill="#7a4a30" opacity="0.09"/><circle cx="640.7" cy="223.2" r="0.9" fill="#7a4a30" opacity="0.11"/><circle cx="666.6" cy="150.6" r="0.8" fill="#7a4a30" opacity="0.08"/><circle cx="599.5" cy="187.9" r="0.5" fill="#ecd0a6" opacity="0.13"/><circle cx="695.3" cy="179.3" r="0.9" fill="#ecd0a6" opacity="0.09"/><circle cx="684.3" cy="170.0" r="1.1" fill="#ecd0a6" opacity="0.12"/><circle cx="676.9" cy="165.3" r="0.9" fill="#7a4a30" opacity="0.08"/><circle cx="628.0" cy="121.5" r="1.0" fill="#ecd0a6" opacity="0.11"/><circle cx="610.7" cy="180.8" r="0.7" fill="#7a4a30" opacity="0.14"/><circle cx="688.6" cy="148.7" r="0.7" fill="#7a4a30" opacity="0.07"/><circle cx="619.9" cy="135.3" r="0.9" fill="#7a4a30" opacity="0.07"/><circle cx="620.3" cy="153.0" r="0.5" fill="#7a4a30" opacity="0.12"/><circle cx="638.2" cy="205.3" r="1.1" fill="#ecd0a6" opacity="0.11"/><circle cx="623.7" cy="174.1" r="1.0" fill="#7a4a30" opacity="0.16"/><circle cx="647.1" cy="177.6" r="0.8" fill="#7a4a30" opacity="0.13"/><circle cx="648.0" cy="214.8" r="0.5" fill="#ecd0a6" opacity="0.07"/><circle cx="631.3" cy="200.3" r="1.1" fill="#ecd0a6" opacity="0.07"/><circle cx="647.3" cy="131.1" r="0.7" fill="#7a4a30" opacity="0.16"/><circle cx="661.2" cy="146.1" r="0.7" fill="#7a4a30" opacity="0.14"/><circle cx="686.9" cy="158.5" r="0.8" fill="#7a4a30" opacity="0.08"/><circle cx="622.9" cy="123.9" r="0.6" fill="#7a4a30" opacity="0.1"/><circle cx="670.4" cy="166.7" r="0.8" fill="#7a4a30" opacity="0.07"/><circle cx="691.4" cy="139.2" r="1.2" fill="#ecd0a6" opacity="0.14"/><circle cx="638.7" cy="190.8" r="0.5" fill="#ecd0a6" opacity="0.12"/><circle cx="632.7" cy="141.0" r="0.6" fill="#7a4a30" opacity="0.09"/><circle cx="679.0" cy="170.5" r="0.6" fill="#7a4a30" opacity="0.16"/><circle cx="674.4" cy="164.4" r="1.1" fill="#7a4a30" opacity="0.14"/><circle cx="638.9" cy="175.0" r="1.1" fill="#7a4a30" opacity="0.1"/><circle cx="661.6" cy="201.0" r="0.8" fill="#ecd0a6" opacity="0.05"/><circle cx="668.2" cy="125.5" r="0.5" fill="#7a4a30" opacity="0.06"/><circle cx="674.4" cy="156.6" r="0.7" fill="#ecd0a6" opacity="0.13"/><circle cx="642.5" cy="223.2" r="1.0" fill="#ecd0a6" opacity="0.07"/><circle cx="638.3" cy="196.3" r="1.1" fill="#7a4a30" opacity="0.14"/><circle cx="614.5" cy="130.2" r="0.8" fill="#7a4a30" opacity="0.08"/><circle cx="701.6" cy="155.6" r="0.8" fill="#7a4a30" opacity="0.09"/><circle cx="597.2" cy="172.2" r="1.0" fill="#7a4a30" opacity="0.14"/><circle cx="671.3" cy="126.7" r="0.7" fill="#ecd0a6" opacity="0.08"/><circle cx="618.6" cy="207.0" r="1.0" fill="#7a4a30" opacity="0.08"/><circle cx="650.2" cy="184.0" r="0.7" fill="#7a4a30" opacity="0.12"/><circle cx="701.2" cy="163.6" r="0.6" fill="#ecd0a6" opacity="0.07"/><circle cx="681.9" cy="192.1" r="0.7" fill="#ecd0a6" opacity="0.09"/><circle cx="612.5" cy="191.6" r="1.1" fill="#ecd0a6" opacity="0.12"/><circle cx="640.2" cy="153.6" r="0.9" fill="#ecd0a6" opacity="0.08"/><circle cx="617.1" cy="203.8" r="0.7" fill="#7a4a30" opacity="0.08"/><circle cx="679.5" cy="212.4" r="0.8" fill="#ecd0a6" opacity="0.08"/><circle cx="689.0" cy="168.1" r="1.0" fill="#7a4a30" opacity="0.14"/><circle cx="667.5" cy="169.0" r="1.1" fill="#7a4a30" opacity="0.14"/><circle cx="659.5" cy="164.4" r="0.6" fill="#7a4a30" opacity="0.07"/><circle cx="691.3" cy="162.9" r="1.1" fill="#ecd0a6" opacity="0.08"/><circle cx="623.4" cy="178.8" r="0.6" fill="#ecd0a6" opacity="0.14"/><circle cx="614.4" cy="145.5" r="0.6" fill="#7a4a30" opacity="0.1"/><circle cx="657.9" cy="196.6" r="0.6" fill="#ecd0a6" opacity="0.11"/><circle cx="681.3" cy="172.2" r="0.7" fill="#ecd0a6" opacity="0.07"/><circle cx="664.1" cy="216.9" r="0.6" fill="#7a4a30" opacity="0.07"/><circle cx="617.8" cy="194.9" r="0.6" fill="#ecd0a6" opacity="0.06"/><circle cx="638.2" cy="136.9" r="1.2" fill="#7a4a30" opacity="0.09"/>
<path d="M650.0 114.0 A56 56 0 0 1 650.0 226.0 A50.4 56 0 0 0 650.0 114.0 Z" fill="#1c1714" opacity="0.22"/>
<path d="M650.0 114.0 A56 56 0 0 0 650.0 226.0 A54.3 56 0 0 1 650.0 114.0 Z" fill="#f0c79a" opacity="0.10"/>
</g>
<circle cx="650" cy="170" r="56" fill="none" stroke="#8a4f33" stroke-width="0.8" opacity="0.7"/>
</svg>