<svg xmlns="http://www.w3.org/2000/svg" viewBox="472 152 16 16">
<clipPath id="hc480160"><circle cx="480" cy="160" r="8"/></clipPath>
<g clip-path="url(#hc480160)">
<rect x="472" y="152" width="16" height="16" fill="#8d887e"/>
<circle cx="475.3" cy="155.4" r="1.0" fill="#b4afa4" opacity="0.3"/>
<circle cx="481.1" cy="159.4" r="1.0" fill="#5a564e" opacity="0.28"/>
<circle cx="482.1" cy="158.5" r="0.6" fill="#5a564e" opacity="0.27"/>
<circle cx="479.2" cy="159.6" r="0.6" fill="#5a564e" opacity="0.33"/>
<circle cx="480.3" cy="157.0" r="0.6" fill="#b4afa4" opacity="0.28"/>
<circle cx="480.2" cy="160.2" r="0.6" fill="#b4afa4" opacity="0.21"/>
<circle cx="487.1" cy="159.2" r="1.0" fill="#5a564e" opacity="0.27"/>
<circle cx="478.5" cy="156.9" r="0.8" fill="#b4afa4" opacity="0.33"/>
<circle cx="483.3" cy="157.4" r="0.6" fill="#5a564e" opacity="0.2"/>
<circle cx="483.8" cy="161.7" r="0.5" fill="#b4afa4" opacity="0.29"/>
<circle cx="477.8" cy="163.6" r="0.7" fill="#b4afa4" opacity="0.23"/>
<circle cx="473.7" cy="160.8" r="1.0" fill="#5a564e" opacity="0.18"/>
<circle cx="480.0" cy="153.0" r="0.9" fill="#5a564e" opacity="0.24"/>
<circle cx="479.4" cy="159.7" r="0.6" fill="#5a564e" opacity="0.33"/>
<circle cx="482.2" cy="166.2" r="1.0" fill="#b4afa4" opacity="0.24"/>
<circle cx="476.6" cy="164.4" r="0.6" fill="#b4afa4" opacity="0.3"/>
<circle cx="482.1" cy="153.3" r="1.0" fill="#5a564e" opacity="0.19"/>
<circle cx="476.8" cy="165.0" r="0.7" fill="#b4afa4" opacity="0.33"/>
<circle cx="475.9" cy="158.8" r="0.6" fill="#5a564e" opacity="0.19"/>
<circle cx="483.7" cy="165.1" r="0.6" fill="#b4afa4" opacity="0.19"/>
<circle cx="485.5" cy="159.5" r="0.6" fill="#5a564e" opacity="0.28"/>
<circle cx="482.4" cy="155.4" r="0.5" fill="#5a564e" opacity="0.33"/>
<circle cx="485.2" cy="161.1" r="0.6" fill="#b4afa4" opacity="0.3"/>
<circle cx="485.7" cy="158.1" r="0.6" fill="#b4afa4" opacity="0.25"/>
<circle cx="484.1" cy="165.6" r="0.7" fill="#5a564e" opacity="0.34"/>
<circle cx="484.5" cy="154.0" r="0.7" fill="#5a564e" opacity="0.3"/>
<circle cx="479.6" cy="161.6" r="2.5" fill="#d2ccc0" opacity="0.04"/><circle cx="479.6" cy="161.6" r="1.4" fill="#d2ccc0" opacity="0.07"/><circle cx="480.2" cy="161.6" r="1.1" fill="#d2ccc0" opacity="0.4"/><circle cx="480.5" cy="161.5" r="1.0" fill="#d2ccc0" opacity="0.43"/><circle cx="480.8" cy="161.5" r="1.0" fill="#d2ccc0" opacity="0.27"/><circle cx="481.1" cy="161.5" r="0.7" fill="#d2ccc0" opacity="0.28"/><circle cx="481.4" cy="161.5" r="0.6" fill="#d2ccc0" opacity="0.21"/><circle cx="481.7" cy="161.5" r="0.4" fill="#d2ccc0" opacity="0.18"/><circle cx="482.0" cy="161.5" r="0.6" fill="#d2ccc0" opacity="0.13"/><circle cx="482.2" cy="161.3" r="0.4" fill="#d2ccc0" opacity="0.12"/><circle cx="482.5" cy="161.3" r="0.3" fill="#d2ccc0" opacity="0.07"/><circle cx="480.1" cy="162.0" r="1.0" fill="#d2ccc0" opacity="0.46"/><circle cx="480.3" cy="162.2" r="0.8" fill="#d2ccc0" opacity="0.43"/><circle cx="480.6" cy="162.3" r="1.1" fill="#d2ccc0" opacity="0.29"/><circle cx="480.8" cy="162.5" r="0.7" fill="#d2ccc0" opacity="0.31"/><circle cx="481.1" cy="162.7" r="0.7" fill="#d2ccc0" opacity="0.24"/><circle cx="481.3" cy="162.9" r="0.8" fill="#d2ccc0" opacity="0.22"/><circle cx="481.5" cy="163.2" r="0.6" fill="#d2ccc0" opacity="0.21"/><circle cx="481.7" cy="163.4" r="0.4" fill="#d2ccc0" opacity="0.15"/><circle cx="482.0" cy="163.6" r="0.4" fill="#d2ccc0" opacity="0.12"/><circle cx="482.3" cy="163.7" r="0.2" fill="#d2ccc0" opacity="0.07"/><circle cx="479.7" cy="162.2" r="1.1" fill="#d2ccc0" opacity="0.4"/><circle cx="479.7" cy="162.5" r="0.8" fill="#d2ccc0" opacity="0.34"/><circle cx="479.6" cy="162.8" r="0.8" fill="#d2ccc0" opacity="0.25"/><circle cx="479.7" cy="163.1" r="0.8" fill="#d2ccc0" opacity="0.23"/><circle cx="479.7" cy="163.4" r="0.7" fill="#d2ccc0" opacity="0.22"/><circle cx="479.7" cy="163.7" r="0.5" fill="#d2ccc0" opacity="0.23"/><circle cx="479.8" cy="164.0" r="0.4" fill="#d2ccc0" opacity="0.12"/><circle cx="479.9" cy="164.3" r="0.5" fill="#d2ccc0" opacity="0.11"/><circle cx="479.7" cy="164.6" r="0.3" fill="#d2ccc0" opacity="0.06"/><circle cx="479.3" cy="162.1" r="1.3" fill="#d2ccc0" opacity="0.48"/><circle cx="479.0" cy="162.5" r="1.0" fill="#d2ccc0" opacity="0.35"/><circle cx="478.8" cy="162.8" r="0.9" fill="#d2ccc0" opacity="0.33"/><circle cx="478.6" cy="163.1" r="0.8" fill="#d2ccc0" opacity="0.33"/><circle cx="478.4" cy="163.4" r="0.6" fill="#d2ccc0" opacity="0.26"/><circle cx="478.2" cy="163.8" r="0.6" fill="#d2ccc0" opacity="0.23"/><circle cx="477.9" cy="164.1" r="0.5" fill="#d2ccc0" opacity="0.12"/><circle cx="477.7" cy="164.4" r="0.4" fill="#d2ccc0" opacity="0.08"/><circle cx="477.5" cy="164.7" r="0.3" fill="#d2ccc0" opacity="0.05"/><circle cx="479.0" cy="161.8" r="1.1" fill="#d2ccc0" opacity="0.36"/><circle cx="478.7" cy="161.9" r="0.7" fill="#d2ccc0" opacity="0.43"/><circle cx="478.4" cy="162.1" r="0.8" fill="#d2ccc0" opacity="0.34"/><circle cx="478.1" cy="162.1" r="0.7" fill="#d2ccc0" opacity="0.24"/><circle cx="477.8" cy="162.2" r="0.6" fill="#d2ccc0" opacity="0.27"/><circle cx="477.5" cy="162.3" r="0.7" fill="#d2ccc0" opacity="0.16"/><circle cx="477.2" cy="162.4" r="0.4" fill="#d2ccc0" opacity="0.16"/><circle cx="476.9" cy="162.6" r="0.3" fill="#d2ccc0" opacity="0.12"/><circle cx="476.6" cy="162.8" r="0.3" fill="#d2ccc0" opacity="0.07"/><circle cx="479.0" cy="161.5" r="1.2" fill="#d2ccc0" opacity="0.35"/><circle cx="478.7" cy="161.4" r="1.1" fill="#d2ccc0" opacity="0.29"/><circle cx="478.4" cy="161.4" r="0.8" fill="#d2ccc0" opacity="0.33"/><circle cx="478.1" cy="161.2" r="1.0" fill="#d2ccc0" opacity="0.22"/><circle cx="477.8" cy="161.2" r="0.7" fill="#d2ccc0" opacity="0.27"/><circle cx="477.5" cy="161.1" r="0.7" fill="#d2ccc0" opacity="0.18"/><circle cx="477.2" cy="161.1" r="0.5" fill="#d2ccc0" opacity="0.16"/><circle cx="476.9" cy="161.0" r="0.5" fill="#d2ccc0" opacity="0.11"/><circle cx="476.6" cy="160.9" r="0.3" fill="#d2ccc0" opacity="0.07"/><circle cx="479.3" cy="161.1" r="1.3" fill="#d2ccc0" opacity="0.32"/><circle cx="479.3" cy="161.0" r="1.0" fill="#d2ccc0" opacity="0.45"/><circle cx="479.2" cy="160.8" r="0.8" fill="#d2ccc0" opacity="0.39"/><circle cx="479.1" cy="160.7" r="0.9" fill="#d2ccc0" opacity="0.33"/><circle cx="479.0" cy="160.6" r="0.7" fill="#d2ccc0" opacity="0.23"/><circle cx="478.9" cy="160.4" r="0.7" fill="#d2ccc0" opacity="0.17"/><circle cx="478.8" cy="160.3" r="0.4" fill="#d2ccc0" opacity="0.2"/><circle cx="478.9" cy="160.1" r="0.6" fill="#d2ccc0" opacity="0.15"/><circle cx="478.8" cy="160.0" r="0.4" fill="#d2ccc0" opacity="0.12"/><circle cx="478.5" cy="159.9" r="0.2" fill="#d2ccc0" opacity="0.07"/><circle cx="479.7" cy="161.0" r="1.3" fill="#d2ccc0" opacity="0.33"/><circle cx="479.7" cy="160.8" r="1.2" fill="#d2ccc0" opacity="0.31"/><circle cx="479.7" cy="160.5" r="0.7" fill="#d2ccc0" opacity="0.38"/><circle cx="479.7" cy="160.2" r="1.0" fill="#d2ccc0" opacity="0.25"/><circle cx="479.7" cy="160.0" r="0.7" fill="#d2ccc0" opacity="0.24"/><circle cx="479.9" cy="159.7" r="0.8" fill="#d2ccc0" opacity="0.2"/><circle cx="479.8" cy="159.5" r="0.6" fill="#d2ccc0" opacity="0.21"/><circle cx="479.9" cy="159.2" r="0.6" fill="#d2ccc0" opacity="0.15"/><circle cx="479.9" cy="158.9" r="0.4" fill="#d2ccc0" opacity="0.1"/><circle cx="480.0" cy="158.7" r="0.4" fill="#d2ccc0" opacity="0.11"/><circle cx="479.8" cy="158.4" r="0.3" fill="#d2ccc0" opacity="0.05"/><circle cx="480.0" cy="161.2" r="1.0" fill="#d2ccc0" opacity="0.37"/><circle cx="480.2" cy="161.0" r="1.0" fill="#d2ccc0" opacity="0.4"/><circle cx="480.3" cy="160.7" r="0.8" fill="#d2ccc0" opacity="0.29"/><circle cx="480.5" cy="160.5" r="0.9" fill="#d2ccc0" opacity="0.31"/><circle cx="480.7" cy="160.3" r="0.6" fill="#d2ccc0" opacity="0.22"/><circle cx="480.9" cy="160.1" r="0.8" fill="#d2ccc0" opacity="0.24"/><circle cx="481.0" cy="159.9" r="0.6" fill="#d2ccc0" opacity="0.23"/><circle cx="481.2" cy="159.7" r="0.5" fill="#d2ccc0" opacity="0.16"/><circle cx="481.5" cy="159.6" r="0.5" fill="#d2ccc0" opacity="0.13"/><circle cx="481.6" cy="159.3" r="0.4" fill="#d2ccc0" opacity="0.09"/><circle cx="481.8" cy="159.2" r="0.3" fill="#d2ccc0" opacity="0.05"/><circle cx="479.6" cy="161.6" r="0.6" fill="#d2ccc0" opacity="0.6"/><circle cx="479.6" cy="161.6" r="0.6" fill="none" stroke="#5a564e" stroke-width="0.5" opacity="0.5"/>
<path d="M480.0 152.0 A8 8 0 0 1 480.0 168.0 A7.0 8 0 0 0 480.0 152.0 Z" fill="#26231f" opacity="0.22"/>
<circle cx="480" cy="160" r="7.0" fill="none" stroke="#2b2824" stroke-width="0.5" opacity="0.16"/>
</g>
<circle cx="480" cy="160" r="8" fill="none" stroke="#5a564e" stroke-width="0.6" opacity="0.7"/>
</svg>