<svg xmlns="http://www.w3.org/2000/svg" viewBox="140 110 140 140">
<clipPath id="hc210180"><circle cx="210" cy="180" r="70"/></clipPath>
<g clip-path="url(#hc210180)">
<rect x="140" y="110" width="140" height="140" fill="#8d887e"/>
<ellipse cx="192.5" cy="166.0" rx="73.1" ry="59.8" fill="#6f6a61" opacity="0.16" transform="rotate(-15 192.5 166.0)"/><ellipse cx="192.5" cy="166.0" rx="38.5" ry="31.5" fill="#6f6a61" opacity="0.28" transform="rotate(-15 192.5 166.0)"/>
<ellipse cx="231.0" cy="183.5" rx="59.8" ry="53.2" fill="#9c968b" opacity="0.16" transform="rotate(20 231.0 183.5)"/><ellipse cx="231.0" cy="183.5" rx="31.5" ry="28.0" fill="#9c968b" opacity="0.3" transform="rotate(20 231.0 183.5)"/>
<ellipse cx="213.5" cy="148.5" rx="66.5" ry="39.9" fill="#a09a8f" opacity="0.14" transform="rotate(0 213.5 148.5)"/><ellipse cx="213.5" cy="148.5" rx="35.0" ry="21.0" fill="#a09a8f" opacity="0.26" transform="rotate(0 213.5 148.5)"/>
<circle cx="167.2" cy="138.4" r="1.2" fill="#b4afa4" opacity="0.21"/><circle cx="220.4" cy="174.5" r="1.1" fill="#5a564e" opacity="0.25"/><circle cx="228.9" cy="166.4" r="1.0" fill="#5a564e" opacity="0.14"/><circle cx="202.9" cy="176.4" r="1.4" fill="#5a564e" opacity="0.14"/><circle cx="212.7" cy="152.4" r="1.1" fill="#b4afa4" opacity="0.12"/><circle cx="212.0" cy="182.1" r="0.7" fill="#403c36" opacity="0.15"/><circle cx="274.3" cy="172.9" r="1.0" fill="#5a564e" opacity="0.25"/><circle cx="196.3" cy="151.8" r="1.5" fill="#403c36" opacity="0.23"/><circle cx="239.7" cy="156.5" r="0.6" fill="#5a564e" opacity="0.13"/><circle cx="244.9" cy="195.1" r="1.2" fill="#b4afa4" opacity="0.1"/><circle cx="189.8" cy="212.8" r="0.8" fill="#b4afa4" opacity="0.16"/><circle cx="152.2" cy="186.8" r="0.5" fill="#5a564e" opacity="0.26"/><circle cx="209.9" cy="116.3" r="0.9" fill="#5a564e" opacity="0.23"/><circle cx="204.2" cy="176.9" r="1.5" fill="#5a564e" opacity="0.13"/><circle cx="229.9" cy="236.9" r="0.8" fill="#403c36" opacity="0.27"/><circle cx="179.3" cy="219.7" r="1.2" fill="#b4afa4" opacity="0.11"/><circle cx="228.8" cy="118.6" r="0.6" fill="#5a564e" opacity="0.25"/><circle cx="180.8" cy="225.6" r="1.4" fill="#403c36" opacity="0.17"/><circle cx="172.8" cy="169.2" r="0.6" fill="#5a564e" opacity="0.13"/><circle cx="244.1" cy="226.3" r="0.5" fill="#403c36" opacity="0.15"/><circle cx="260.4" cy="175.8" r="1.1" fill="#5a564e" opacity="0.14"/><circle cx="231.6" cy="138.5" r="1.4" fill="#5a564e" opacity="0.11"/><circle cx="257.7" cy="189.9" r="1.2" fill="#b4afa4" opacity="0.12"/><circle cx="262.3" cy="162.9" r="0.9" fill="#b4afa4" opacity="0.11"/><circle cx="247.7" cy="231.4" r="1.5" fill="#5a564e" opacity="0.17"/><circle cx="251.0" cy="125.2" r="1.2" fill="#5a564e" opacity="0.18"/><circle cx="172.9" cy="184.9" r="0.9" fill="#5a564e" opacity="0.12"/><circle cx="277.7" cy="175.1" r="0.8" fill="#b4afa4" opacity="0.16"/><circle cx="240.6" cy="199.2" r="0.9" fill="#b4afa4" opacity="0.2"/><circle cx="223.7" cy="120.6" r="1.3" fill="#b4afa4" opacity="0.18"/><circle cx="172.0" cy="224.0" r="1.3" fill="#5a564e" opacity="0.18"/><circle cx="196.4" cy="145.0" r="1.1" fill="#403c36" opacity="0.22"/><circle cx="261.1" cy="183.7" r="1.0" fill="#5a564e" opacity="0.21"/><circle cx="232.7" cy="129.1" r="1.1" fill="#b4afa4" opacity="0.14"/><circle cx="205.2" cy="117.1" r="1.4" fill="#5a564e" opacity="0.23"/><circle cx="184.1" cy="116.6" r="1.0" fill="#403c36" opacity="0.2"/><circle cx="241.9" cy="234.8" r="1.2" fill="#403c36" opacity="0.2"/><circle cx="198.8" cy="121.8" r="1.1" fill="#5a564e" opacity="0.22"/><circle cx="187.3" cy="141.2" r="1.1" fill="#b4afa4" opacity="0.19"/><circle cx="207.9" cy="168.7" r="1.2" fill="#5a564e" opacity="0.17"/><circle cx="221.1" cy="236.3" r="1.0" fill="#b4afa4" opacity="0.11"/><circle cx="212.4" cy="195.9" r="0.7" fill="#5a564e" opacity="0.15"/><circle cx="214.6" cy="192.3" r="1.1" fill="#5a564e" opacity="0.16"/><circle cx="181.5" cy="161.9" r="0.9" fill="#403c36" opacity="0.12"/><circle cx="202.1" cy="223.7" r="0.9" fill="#5a564e" opacity="0.23"/><circle cx="262.9" cy="192.2" r="0.8" fill="#5a564e" opacity="0.19"/><circle cx="150.7" cy="147.0" r="1.3" fill="#b4afa4" opacity="0.15"/><circle cx="183.6" cy="147.2" r="1.1" fill="#5a564e" opacity="0.2"/><circle cx="275.7" cy="161.9" r="1.4" fill="#b4afa4" opacity="0.14"/><circle cx="232.8" cy="180.1" r="0.6" fill="#b4afa4" opacity="0.17"/><circle cx="165.1" cy="132.5" r="0.7" fill="#5a564e" opacity="0.17"/><circle cx="192.4" cy="246.0" r="1.4" fill="#5a564e" opacity="0.25"/><circle cx="180.9" cy="160.0" r="0.9" fill="#403c36" opacity="0.2"/><circle cx="181.1" cy="242.4" r="1.0" fill="#5a564e" opacity="0.15"/><circle cx="249.4" cy="217.9" r="1.3" fill="#5a564e" opacity="0.15"/><circle cx="213.7" cy="172.9" r="1.4" fill="#b4afa4" opacity="0.13"/><circle cx="216.8" cy="146.3" r="1.5" fill="#5a564e" opacity="0.12"/><circle cx="195.5" cy="232.1" r="1.1" fill="#5a564e" opacity="0.2"/><circle cx="209.0" cy="156.2" r="1.0" fill="#b4afa4" opacity="0.14"/><circle cx="190.6" cy="212.4" r="0.9" fill="#b4afa4" opacity="0.16"/><circle cx="208.3" cy="126.8" r="1.0" fill="#5a564e" opacity="0.14"/><circle cx="266.5" cy="147.3" r="1.3" fill="#b4afa4" opacity="0.1"/><circle cx="162.7" cy="203.1" r="1.0" fill="#b4afa4" opacity="0.18"/><circle cx="246.6" cy="157.3" r="0.7" fill="#5a564e" opacity="0.24"/><circle cx="191.8" cy="240.5" r="1.2" fill="#5a564e" opacity="0.23"/><circle cx="176.2" cy="195.2" r="0.6" fill="#b4afa4" opacity="0.21"/><circle cx="159.1" cy="186.9" r="0.7" fill="#5a564e" opacity="0.15"/><circle cx="156.4" cy="147.9" r="1.3" fill="#5a564e" opacity="0.14"/><circle cx="224.6" cy="125.5" r="1.5" fill="#5a564e" opacity="0.22"/><circle cx="268.0" cy="179.4" r="0.7" fill="#5a564e" opacity="0.23"/><circle cx="168.8" cy="126.4" r="0.8" fill="#b4afa4" opacity="0.12"/><circle cx="233.3" cy="166.8" r="0.7" fill="#b4afa4" opacity="0.15"/><circle cx="199.6" cy="169.9" r="0.6" fill="#5a564e" opacity="0.16"/><circle cx="259.2" cy="198.6" r="0.6" fill="#b4afa4" opacity="0.21"/><circle cx="174.7" cy="196.2" r="1.4" fill="#b4afa4" opacity="0.16"/><circle cx="198.5" cy="191.6" r="1.1" fill="#b4afa4" opacity="0.12"/><circle cx="143.9" cy="177.6" r="0.8" fill="#b4afa4" opacity="0.17"/><circle cx="176.9" cy="168.9" r="0.6" fill="#b4afa4" opacity="0.16"/><circle cx="214.1" cy="222.0" r="1.2" fill="#b4afa4" opacity="0.12"/><circle cx="198.6" cy="163.3" r="0.6" fill="#b4afa4" opacity="0.11"/><circle cx="181.9" cy="161.2" r="0.8" fill="#403c36" opacity="0.2"/><circle cx="213.4" cy="168.6" r="0.7" fill="#b4afa4" opacity="0.11"/><circle cx="264.6" cy="163.0" r="1.5" fill="#5a564e" opacity="0.12"/><circle cx="178.1" cy="126.0" r="0.9" fill="#5a564e" opacity="0.2"/><circle cx="213.8" cy="219.8" r="0.9" fill="#b4afa4" opacity="0.14"/><circle cx="251.4" cy="227.8" r="0.9" fill="#b4afa4" opacity="0.2"/><circle cx="239.7" cy="140.0" r="1.2" fill="#b4afa4" opacity="0.17"/><circle cx="192.9" cy="193.2" r="0.5" fill="#5a564e" opacity="0.13"/><circle cx="246.9" cy="149.2" r="1.0" fill="#b4afa4" opacity="0.1"/><circle cx="252.0" cy="145.2" r="0.6" fill="#5a564e" opacity="0.17"/><circle cx="225.6" cy="202.8" r="1.4" fill="#5a564e" opacity="0.16"/><circle cx="230.2" cy="208.5" r="0.8" fill="#5a564e" opacity="0.13"/><circle cx="214.5" cy="227.9" r="0.9" fill="#5a564e" opacity="0.25"/><circle cx="263.2" cy="158.2" r="1.4" fill="#b4afa4" opacity="0.16"/><circle cx="251.8" cy="218.2" r="1.2" fill="#5a564e" opacity="0.21"/><circle cx="226.1" cy="206.6" r="0.6" fill="#5a564e" opacity="0.14"/><circle cx="154.4" cy="219.8" r="1.0" fill="#5a564e" opacity="0.15"/><circle cx="197.7" cy="238.0" r="0.7" fill="#b4afa4" opacity="0.12"/><circle cx="178.4" cy="120.7" r="1.5" fill="#b4afa4" opacity="0.15"/><circle cx="227.1" cy="180.7" r="0.5" fill="#b4afa4" opacity="0.15"/><circle cx="144.2" cy="159.4" r="0.6" fill="#b4afa4" opacity="0.14"/><circle cx="269.2" cy="208.4" r="0.6" fill="#5a564e" opacity="0.25"/><circle cx="210.6" cy="195.6" r="0.8" fill="#5a564e" opacity="0.11"/><circle cx="178.0" cy="201.1" r="1.5" fill="#5a564e" opacity="0.11"/><circle cx="231.2" cy="224.6" r="0.6" fill="#5a564e" opacity="0.19"/><circle cx="201.1" cy="201.0" r="1.1" fill="#b4afa4" opacity="0.21"/><circle cx="229.9" cy="154.9" r="1.0" fill="#5a564e" opacity="0.19"/><circle cx="171.7" cy="161.5" r="1.4" fill="#b4afa4" opacity="0.19"/><circle cx="193.6" cy="223.4" r="0.6" fill="#b4afa4" opacity="0.13"/><circle cx="202.2" cy="199.0" r="0.8" fill="#b4afa4" opacity="0.2"/><circle cx="223.6" cy="194.4" r="0.9" fill="#5a564e" opacity="0.11"/><circle cx="179.6" cy="164.0" r="0.5" fill="#5a564e" opacity="0.21"/><circle cx="221.5" cy="215.2" r="0.9" fill="#5a564e" opacity="0.12"/><circle cx="186.5" cy="235.3" r="1.2" fill="#b4afa4" opacity="0.21"/><circle cx="213.2" cy="127.6" r="1.2" fill="#5a564e" opacity="0.23"/><circle cx="266.8" cy="163.4" r="1.3" fill="#b4afa4" opacity="0.13"/><circle cx="191.5" cy="196.8" r="0.8" fill="#5a564e" opacity="0.13"/><circle cx="193.4" cy="146.9" r="1.1" fill="#5a564e" opacity="0.22"/><circle cx="225.4" cy="182.7" r="1.4" fill="#5a564e" opacity="0.16"/><circle cx="261.5" cy="163.0" r="0.9" fill="#5a564e" opacity="0.17"/><circle cx="206.3" cy="186.8" r="1.2" fill="#b4afa4" opacity="0.2"/><circle cx="251.7" cy="208.4" r="0.9" fill="#5a564e" opacity="0.21"/><circle cx="267.2" cy="156.7" r="1.4" fill="#5a564e" opacity="0.15"/><circle cx="165.7" cy="191.1" r="1.4" fill="#5a564e" opacity="0.22"/><circle cx="143.2" cy="166.1" r="1.3" fill="#b4afa4" opacity="0.11"/><circle cx="196.1" cy="187.7" r="1.1" fill="#403c36" opacity="0.13"/><circle cx="145.3" cy="187.3" r="0.8" fill="#5a564e" opacity="0.13"/><circle cx="225.7" cy="229.5" r="0.7" fill="#5a564e" opacity="0.22"/><circle cx="189.4" cy="207.7" r="1.3" fill="#403c36" opacity="0.25"/><circle cx="177.7" cy="150.3" r="1.0" fill="#5a564e" opacity="0.23"/><circle cx="237.7" cy="186.7" r="1.4" fill="#5a564e" opacity="0.21"/><circle cx="229.4" cy="238.8" r="1.4" fill="#5a564e" opacity="0.21"/><circle cx="165.6" cy="136.7" r="1.0" fill="#5a564e" opacity="0.1"/><circle cx="184.5" cy="164.6" r="0.5" fill="#5a564e" opacity="0.15"/><circle cx="193.7" cy="219.7" r="0.9" fill="#5a564e" opacity="0.21"/><circle cx="272.2" cy="173.1" r="1.2" fill="#403c36" opacity="0.23"/><circle cx="149.7" cy="165.8" r="1.2" fill="#5a564e" opacity="0.19"/><circle cx="173.4" cy="174.9" r="0.9" fill="#5a564e" opacity="0.11"/><circle cx="157.1" cy="150.8" r="1.4" fill="#b4afa4" opacity="0.14"/><circle cx="201.0" cy="237.9" r="1.2" fill="#5a564e" opacity="0.22"/><circle cx="273.2" cy="162.4" r="1.2" fill="#b4afa4" opacity="0.2"/><circle cx="185.7" cy="159.7" r="0.7" fill="#b4afa4" opacity="0.21"/><circle cx="260.5" cy="171.9" r="0.9" fill="#5a564e" opacity="0.1"/><circle cx="234.4" cy="230.4" r="1.1" fill="#403c36" opacity="0.27"/><circle cx="192.7" cy="194.9" r="1.2" fill="#b4afa4" opacity="0.17"/><circle cx="164.1" cy="226.4" r="0.8" fill="#5a564e" opacity="0.15"/><circle cx="162.8" cy="134.4" r="1.3" fill="#5a564e" opacity="0.2"/><circle cx="212.8" cy="197.1" r="1.4" fill="#b4afa4" opacity="0.2"/><circle cx="203.8" cy="135.7" r="1.4" fill="#5a564e" opacity="0.18"/><circle cx="198.1" cy="214.8" r="0.7" fill="#b4afa4" opacity="0.22"/><circle cx="233.1" cy="184.5" r="0.7" fill="#b4afa4" opacity="0.17"/><circle cx="229.6" cy="229.7" r="1.2" fill="#b4afa4" opacity="0.18"/><circle cx="254.7" cy="198.2" r="0.8" fill="#b4afa4" opacity="0.21"/><circle cx="242.8" cy="135.0" r="1.2" fill="#403c36" opacity="0.16"/><circle cx="235.8" cy="139.7" r="0.7" fill="#5a564e" opacity="0.13"/><circle cx="232.5" cy="194.9" r="1.3" fill="#b4afa4" opacity="0.11"/><circle cx="204.6" cy="117.6" r="1.4" fill="#b4afa4" opacity="0.19"/><circle cx="262.8" cy="165.3" r="0.6" fill="#403c36" opacity="0.14"/><circle cx="238.9" cy="192.4" r="1.2" fill="#5a564e" opacity="0.17"/><circle cx="209.1" cy="160.0" r="0.9" fill="#5a564e" opacity="0.19"/><circle cx="249.6" cy="216.1" r="1.0" fill="#5a564e" opacity="0.21"/><circle cx="275.5" cy="164.4" r="1.2" fill="#5a564e" opacity="0.22"/><circle cx="203.3" cy="202.7" r="1.2" fill="#5a564e" opacity="0.16"/><circle cx="247.3" cy="159.0" r="1.2" fill="#5a564e" opacity="0.18"/><circle cx="222.8" cy="129.0" r="1.3" fill="#5a564e" opacity="0.15"/><circle cx="194.6" cy="178.1" r="1.2" fill="#5a564e" opacity="0.14"/><circle cx="242.3" cy="196.1" r="1.5" fill="#5a564e" opacity="0.18"/><circle cx="168.4" cy="168.9" r="0.9" fill="#403c36" opacity="0.13"/><circle cx="211.8" cy="175.4" r="0.5" fill="#b4afa4" opacity="0.14"/><circle cx="209.7" cy="226.9" r="0.6" fill="#5a564e" opacity="0.18"/><circle cx="223.4" cy="247.1" r="0.6" fill="#5a564e" opacity="0.18"/><circle cx="197.7" cy="246.6" r="0.6" fill="#b4afa4" opacity="0.16"/><circle cx="162.2" cy="218.2" r="1.4" fill="#5a564e" opacity="0.19"/><circle cx="176.2" cy="136.3" r="1.3" fill="#5a564e" opacity="0.1"/><circle cx="154.6" cy="213.6" r="0.9" fill="#b4afa4" opacity="0.21"/><circle cx="270.3" cy="179.6" r="1.3" fill="#403c36" opacity="0.14"/><circle cx="149.7" cy="212.1" r="0.9" fill="#403c36" opacity="0.15"/><circle cx="203.8" cy="227.1" r="0.6" fill="#5a564e" opacity="0.21"/><circle cx="232.8" cy="221.0" r="1.4" fill="#5a564e" opacity="0.16"/><circle cx="233.1" cy="159.7" r="1.5" fill="#5a564e" opacity="0.23"/><circle cx="189.2" cy="165.1" r="1.4" fill="#5a564e" opacity="0.25"/><circle cx="239.2" cy="185.8" r="1.3" fill="#5a564e" opacity="0.14"/><circle cx="167.4" cy="223.7" r="1.5" fill="#5a564e" opacity="0.18"/><circle cx="203.8" cy="160.1" r="0.9" fill="#5a564e" opacity="0.2"/><circle cx="177.5" cy="215.2" r="0.7" fill="#b4afa4" opacity="0.22"/><circle cx="177.7" cy="165.1" r="0.6" fill="#b4afa4" opacity="0.19"/><circle cx="152.2" cy="186.9" r="0.9" fill="#5a564e" opacity="0.22"/><circle cx="155.9" cy="178.6" r="1.0" fill="#b4afa4" opacity="0.11"/><circle cx="251.8" cy="190.3" r="0.8" fill="#5a564e" opacity="0.1"/><circle cx="156.7" cy="197.3" r="1.0" fill="#403c36" opacity="0.18"/><circle cx="194.6" cy="114.7" r="0.8" fill="#403c36" opacity="0.28"/><circle cx="243.5" cy="237.9" r="1.2" fill="#5a564e" opacity="0.17"/><circle cx="167.5" cy="172.2" r="1.1" fill="#403c36" opacity="0.17"/><circle cx="222.4" cy="157.4" r="1.1" fill="#5a564e" opacity="0.18"/><circle cx="222.4" cy="225.0" r="0.8" fill="#5a564e" opacity="0.11"/><circle cx="252.2" cy="233.5" r="1.3" fill="#5a564e" opacity="0.14"/><circle cx="208.0" cy="144.6" r="0.9" fill="#b4afa4" opacity="0.18"/><circle cx="186.3" cy="155.1" r="0.9" fill="#5a564e" opacity="0.24"/><circle cx="233.3" cy="162.5" r="1.2" fill="#5a564e" opacity="0.11"/><circle cx="203.7" cy="177.4" r="1.0" fill="#5a564e" opacity="0.23"/><circle cx="219.5" cy="170.0" r="1.2" fill="#b4afa4" opacity="0.11"/><circle cx="168.5" cy="145.1" r="0.6" fill="#5a564e" opacity="0.25"/><circle cx="262.7" cy="202.4" r="1.0" fill="#5a564e" opacity="0.11"/><circle cx="171.2" cy="127.3" r="1.1" fill="#b4afa4" opacity="0.11"/><circle cx="223.4" cy="160.0" r="0.8" fill="#b4afa4" opacity="0.13"/><circle cx="270.3" cy="180.6" r="1.0" fill="#b4afa4" opacity="0.21"/><circle cx="228.0" cy="206.7" r="0.7" fill="#5a564e" opacity="0.25"/><circle cx="245.0" cy="201.7" r="1.1" fill="#5a564e" opacity="0.17"/><circle cx="193.1" cy="156.5" r="1.2" fill="#5a564e" opacity="0.18"/><circle cx="160.4" cy="197.1" r="0.8" fill="#403c36" opacity="0.14"/><circle cx="159.3" cy="182.0" r="1.2" fill="#403c36" opacity="0.21"/><circle cx="156.3" cy="209.7" r="0.6" fill="#b4afa4" opacity="0.14"/><circle cx="207.6" cy="221.4" r="1.1" fill="#403c36" opacity="0.16"/><circle cx="167.0" cy="127.6" r="0.8" fill="#5a564e" opacity="0.22"/><circle cx="254.0" cy="213.2" r="0.5" fill="#b4afa4" opacity="0.17"/><circle cx="252.3" cy="172.5" r="0.8" fill="#b4afa4" opacity="0.19"/><circle cx="176.6" cy="201.7" r="1.2" fill="#5a564e" opacity="0.11"/><circle cx="155.3" cy="214.4" r="0.7" fill="#5a564e" opacity="0.15"/><circle cx="267.8" cy="158.6" r="0.6" fill="#403c36" opacity="0.2"/><circle cx="181.5" cy="196.6" r="0.8" fill="#5a564e" opacity="0.19"/><circle cx="248.6" cy="211.1" r="1.0" fill="#403c36" opacity="0.27"/><circle cx="258.5" cy="216.6" r="0.6" fill="#5a564e" opacity="0.19"/><circle cx="260.9" cy="175.9" r="1.1" fill="#5a564e" opacity="0.14"/><circle cx="254.7" cy="172.3" r="1.4" fill="#5a564e" opacity="0.18"/><circle cx="169.4" cy="217.3" r="1.3" fill="#403c36" opacity="0.17"/><circle cx="184.5" cy="175.3" r="1.0" fill="#5a564e" opacity="0.25"/><circle cx="147.8" cy="203.2" r="0.8" fill="#b4afa4" opacity="0.16"/><circle cx="208.7" cy="144.9" r="1.1" fill="#5a564e" opacity="0.22"/><circle cx="230.8" cy="203.3" r="0.6" fill="#b4afa4" opacity="0.19"/><circle cx="235.3" cy="179.6" r="0.9" fill="#5a564e" opacity="0.11"/>
<circle cx="180.6" cy="183.5" r="4.2" fill="#787268" opacity="0.6"/>
<circle cx="180.6" cy="183.5" r="4.2" fill="none" stroke="#4a463f" stroke-width="0.7" opacity="0.6"/>
<circle cx="179.5" cy="182.4" r="2.1" fill="#b0a99e" opacity="0.4"/>
<circle cx="231.0" cy="157.6" r="3.5" fill="#787268" opacity="0.6"/>
<circle cx="231.0" cy="157.6" r="3.5" fill="none" stroke="#4a463f" stroke-width="0.7" opacity="0.6"/>
<circle cx="230.1" cy="156.7" r="1.8" fill="#b0a99e" opacity="0.4"/>
<circle cx="203.0" cy="167.4" r="3.1" fill="#787268" opacity="0.6"/>
<circle cx="203.0" cy="167.4" r="3.1" fill="none" stroke="#4a463f" stroke-width="0.7" opacity="0.6"/>
<circle cx="202.2" cy="166.6" r="1.6" fill="#b0a99e" opacity="0.4"/>
<circle cx="241.5" cy="192.6" r="2.8" fill="#787268" opacity="0.6"/>
<circle cx="241.5" cy="192.6" r="2.8" fill="none" stroke="#4a463f" stroke-width="0.7" opacity="0.6"/>
<circle cx="240.8" cy="191.9" r="1.4" fill="#b0a99e" opacity="0.4"/>
<circle cx="205.8" cy="199.6" r="22.6" fill="#d2ccc0" opacity="0.04"/><circle cx="205.8" cy="199.6" r="12.4" fill="#d2ccc0" opacity="0.07"/><circle cx="209.7" cy="199.6" r="1.1" fill="#d2ccc0" opacity="0.4"/><circle cx="212.5" cy="199.1" r="1.0" fill="#d2ccc0" opacity="0.43"/><circle cx="215.3" cy="198.9" r="1.0" fill="#d2ccc0" opacity="0.27"/><circle cx="218.2" cy="198.6" r="0.7" fill="#d2ccc0" opacity="0.28"/><circle cx="221.1" cy="198.8" r="0.6" fill="#d2ccc0" opacity="0.21"/><circle cx="223.9" cy="198.8" r="0.4" fill="#d2ccc0" opacity="0.18"/><circle cx="226.7" cy="198.3" r="0.6" fill="#d2ccc0" opacity="0.13"/><circle cx="229.5" cy="196.7" r="0.4" fill="#d2ccc0" opacity="0.12"/><circle cx="232.3" cy="196.9" r="0.3" fill="#d2ccc0" opacity="0.07"/><circle cx="209.6" cy="200.7" r="1.0" fill="#d2ccc0" opacity="0.46"/><circle cx="212.3" cy="202.1" r="0.8" fill="#d2ccc0" opacity="0.43"/><circle cx="215.4" cy="202.3" r="1.1" fill="#d2ccc0" opacity="0.29"/><circle cx="218.2" cy="203.5" r="0.7" fill="#d2ccc0" opacity="0.31"/><circle cx="221.0" cy="204.5" r="0.7" fill="#d2ccc0" opacity="0.24"/><circle cx="223.8" cy="205.6" r="0.8" fill="#d2ccc0" opacity="0.22"/><circle cx="226.6" cy="206.7" r="0.6" fill="#d2ccc0" opacity="0.21"/><circle cx="229.3" cy="208.2" r="0.4" fill="#d2ccc0" opacity="0.15"/><circle cx="232.2" cy="208.9" r="0.4" fill="#d2ccc0" opacity="0.12"/><circle cx="235.3" cy="209.3" r="0.2" fill="#d2ccc0" opacity="0.07"/><circle cx="208.7" cy="202.2" r="1.1" fill="#d2ccc0" opacity="0.4"/><circle cx="210.5" cy="204.5" r="0.8" fill="#d2ccc0" opacity="0.34"/><circle cx="212.2" cy="206.9" r="0.8" fill="#d2ccc0" opacity="0.25"/><circle cx="214.6" cy="208.6" r="0.8" fill="#d2ccc0" opacity="0.23"/><circle cx="216.3" cy="211.1" r="0.7" fill="#d2ccc0" opacity="0.22"/><circle cx="218.5" cy="212.9" r="0.5" fill="#d2ccc0" opacity="0.23"/><circle cx="221.0" cy="214.7" r="0.4" fill="#d2ccc0" opacity="0.12"/><circle cx="223.2" cy="216.5" r="0.5" fill="#d2ccc0" opacity="0.11"/><circle cx="223.9" cy="219.9" r="0.3" fill="#d2ccc0" opacity="0.06"/><circle cx="207.8" cy="203.4" r="1.3" fill="#d2ccc0" opacity="0.48"/><circle cx="209.5" cy="206.8" r="1.0" fill="#d2ccc0" opacity="0.35"/><circle cx="210.9" cy="210.2" r="0.9" fill="#d2ccc0" opacity="0.33"/><circle cx="212.6" cy="213.5" r="0.8" fill="#d2ccc0" opacity="0.33"/><circle cx="214.5" cy="216.8" r="0.6" fill="#d2ccc0" opacity="0.26"/><circle cx="216.3" cy="220.0" r="0.6" fill="#d2ccc0" opacity="0.23"/><circle cx="217.6" cy="223.5" r="0.5" fill="#d2ccc0" opacity="0.12"/><circle cx="219.2" cy="226.9" r="0.4" fill="#d2ccc0" opacity="0.08"/><circle cx="220.8" cy="230.3" r="0.3" fill="#d2ccc0" opacity="0.05"/><circle cx="206.5" cy="203.6" r="1.1" fill="#d2ccc0" opacity="0.36"/><circle cx="207.0" cy="206.6" r="0.7" fill="#d2ccc0" opacity="0.43"/><circle cx="207.8" cy="209.7" r="0.8" fill="#d2ccc0" opacity="0.34"/><circle cx="208.1" cy="212.8" r="0.7" fill="#d2ccc0" opacity="0.24"/><circle cx="208.5" cy="215.9" r="0.6" fill="#d2ccc0" opacity="0.27"/><circle cx="209.0" cy="219.0" r="0.7" fill="#d2ccc0" opacity="0.16"/><circle cx="209.2" cy="222.1" r="0.4" fill="#d2ccc0" opacity="0.16"/><circle cx="210.6" cy="225.0" r="0.3" fill="#d2ccc0" opacity="0.12"/><circle cx="211.5" cy="228.0" r="0.3" fill="#d2ccc0" opacity="0.07"/><circle cx="205.5" cy="203.5" r="1.2" fill="#d2ccc0" opacity="0.35"/><circle cx="205.1" cy="206.5" r="1.1" fill="#d2ccc0" opacity="0.29"/><circle cx="205.7" cy="209.5" r="0.8" fill="#d2ccc0" opacity="0.33"/><circle cx="204.9" cy="212.4" r="1.0" fill="#d2ccc0" opacity="0.22"/><circle cx="205.3" cy="215.4" r="0.7" fill="#d2ccc0" opacity="0.27"/><circle cx="204.4" cy="218.3" r="0.7" fill="#d2ccc0" opacity="0.18"/><circle cx="205.6" cy="221.3" r="0.5" fill="#d2ccc0" opacity="0.16"/><circle cx="204.8" cy="224.3" r="0.5" fill="#d2ccc0" opacity="0.11"/><circle cx="204.6" cy="227.2" r="0.3" fill="#d2ccc0" opacity="0.07"/><circle cx="204.3" cy="202.5" r="1.3" fill="#d2ccc0" opacity="0.32"/><circle cx="203.0" cy="203.6" r="1.0" fill="#d2ccc0" opacity="0.45"/><circle cx="202.0" cy="205.0" r="0.8" fill="#d2ccc0" opacity="0.39"/><circle cx="201.3" cy="206.4" r="0.9" fill="#d2ccc0" opacity="0.33"/><circle cx="200.7" cy="208.0" r="0.7" fill="#d2ccc0" opacity="0.23"/><circle cx="200.2" cy="209.6" r="0.7" fill="#d2ccc0" opacity="0.17"/><circle cx="199.3" cy="211.0" r="0.4" fill="#d2ccc0" opacity="0.2"/><circle cx="197.5" cy="211.8" r="0.6" fill="#d2ccc0" opacity="0.15"/><circle cx="196.6" cy="213.2" r="0.4" fill="#d2ccc0" opacity="0.12"/><circle cx="197.3" cy="215.6" r="0.2" fill="#d2ccc0" opacity="0.07"/><circle cx="203.1" cy="202.1" r="1.3" fill="#d2ccc0" opacity="0.33"/><circle cx="201.5" cy="204.2" r="1.2" fill="#d2ccc0" opacity="0.31"/><circle cx="199.4" cy="205.6" r="0.7" fill="#d2ccc0" opacity="0.38"/><circle cx="197.8" cy="207.6" r="1.0" fill="#d2ccc0" opacity="0.25"/><circle cx="196.1" cy="209.5" r="0.7" fill="#d2ccc0" opacity="0.24"/><circle cx="193.6" cy="210.5" r="0.8" fill="#d2ccc0" opacity="0.2"/><circle cx="192.2" cy="212.7" r="0.6" fill="#d2ccc0" opacity="0.21"/><circle cx="190.0" cy="214.1" r="0.6" fill="#d2ccc0" opacity="0.15"/><circle cx="188.5" cy="216.1" r="0.4" fill="#d2ccc0" opacity="0.1"/><circle cx="186.2" cy="217.4" r="0.4" fill="#d2ccc0" opacity="0.11"/><circle cx="185.5" cy="220.3" r="0.3" fill="#d2ccc0" opacity="0.05"/><circle cx="202.5" cy="201.4" r="1.0" fill="#d2ccc0" opacity="0.37"/><circle cx="200.3" cy="202.8" r="1.0" fill="#d2ccc0" opacity="0.4"/><circle cx="198.0" cy="204.0" r="0.8" fill="#d2ccc0" opacity="0.29"/><circle cx="195.8" cy="205.5" r="0.9" fill="#d2ccc0" opacity="0.31"/><circle cx="193.4" cy="206.5" r="0.6" fill="#d2ccc0" opacity="0.22"/><circle cx="191.1" cy="207.8" r="0.8" fill="#d2ccc0" opacity="0.24"/><circle cx="188.8" cy="209.1" r="0.6" fill="#d2ccc0" opacity="0.23"/><circle cx="186.5" cy="210.2" r="0.5" fill="#d2ccc0" opacity="0.16"/><circle cx="184.0" cy="211.0" r="0.5" fill="#d2ccc0" opacity="0.13"/><circle cx="181.9" cy="212.7" r="0.4" fill="#d2ccc0" opacity="0.09"/><circle cx="179.4" cy="213.5" r="0.3" fill="#d2ccc0" opacity="0.05"/><circle cx="201.6" cy="199.8" r="1.2" fill="#d2ccc0" opacity="0.47"/><circle cx="198.1" cy="200.0" r="0.8" fill="#d2ccc0" opacity="0.35"/><circle cx="194.5" cy="199.5" r="1.0" fill="#d2ccc0" opacity="0.34"/><circle cx="191.0" cy="199.6" r="0.9" fill="#d2ccc0" opacity="0.3"/><circle cx="187.5" cy="199.9" r="0.7" fill="#d2ccc0" opacity="0.19"/><circle cx="184.0" cy="200.9" r="0.7" fill="#d2ccc0" opacity="0.16"/><circle cx="180.4" cy="201.0" r="0.4" fill="#d2ccc0" opacity="0.12"/><circle cx="176.9" cy="199.5" r="0.3" fill="#d2ccc0" opacity="0.09"/><circle cx="173.3" cy="199.6" r="0.3" fill="#d2ccc0" opacity="0.05"/><circle cx="202.0" cy="197.9" r="0.8" fill="#d2ccc0" opacity="0.46"/><circle cx="198.9" cy="196.4" r="1.1" fill="#d2ccc0" opacity="0.36"/><circle cx="195.5" cy="195.6" r="1.1" fill="#d2ccc0" opacity="0.35"/><circle cx="192.3" cy="194.4" r="0.8" fill="#d2ccc0" opacity="0.25"/><circle cx="189.5" cy="192.1" r="0.6" fill="#d2ccc0" opacity="0.21"/><circle cx="186.0" cy="191.6" r="0.7" fill="#d2ccc0" opacity="0.2"/><circle cx="182.9" cy="190.0" r="0.5" fill="#d2ccc0" opacity="0.14"/><circle cx="179.7" cy="188.7" r="0.3" fill="#d2ccc0" opacity="0.1"/><circle cx="176.7" cy="187.1" r="0.3" fill="#d2ccc0" opacity="0.08"/><circle cx="203.5" cy="197.3" r="1.3" fill="#d2ccc0" opacity="0.42"/><circle cx="202.5" cy="196.1" r="1.0" fill="#d2ccc0" opacity="0.32"/><circle cx="201.5" cy="194.9" r="0.9" fill="#d2ccc0" opacity="0.29"/><circle cx="200.2" cy="194.1" r="1.1" fill="#d2ccc0" opacity="0.34"/><circle cx="199.1" cy="192.9" r="0.6" fill="#d2ccc0" opacity="0.33"/><circle cx="198.2" cy="191.6" r="0.7" fill="#d2ccc0" opacity="0.21"/><circle cx="197.3" cy="190.3" r="0.7" fill="#d2ccc0" opacity="0.25"/><circle cx="196.1" cy="189.4" r="0.7" fill="#d2ccc0" opacity="0.2"/><circle cx="194.7" cy="188.5" r="0.6" fill="#d2ccc0" opacity="0.16"/><circle cx="194.0" cy="187.0" r="0.4" fill="#d2ccc0" opacity="0.11"/><circle cx="192.8" cy="186.0" r="0.4" fill="#d2ccc0" opacity="0.08"/><circle cx="190.9" cy="185.7" r="0.3" fill="#d2ccc0" opacity="0.06"/><circle cx="204.0" cy="196.5" r="1.3" fill="#d2ccc0" opacity="0.4"/><circle cx="202.9" cy="194.3" r="1.0" fill="#d2ccc0" opacity="0.39"/><circle cx="201.6" cy="192.3" r="0.9" fill="#d2ccc0" opacity="0.4"/><circle cx="200.4" cy="190.3" r="0.8" fill="#d2ccc0" opacity="0.38"/><circle cx="198.7" cy="188.6" r="0.9" fill="#d2ccc0" opacity="0.25"/><circle cx="197.9" cy="186.3" r="0.8" fill="#d2ccc0" opacity="0.3"/><circle cx="196.1" cy="184.6" r="0.6" fill="#d2ccc0" opacity="0.19"/><circle cx="194.8" cy="182.6" r="0.7" fill="#d2ccc0" opacity="0.2"/><circle cx="194.6" cy="180.0" r="0.6" fill="#d2ccc0" opacity="0.14"/><circle cx="192.5" cy="178.5" r="0.5" fill="#d2ccc0" opacity="0.12"/><circle cx="190.8" cy="176.7" r="0.4" fill="#d2ccc0" opacity="0.08"/><circle cx="189.9" cy="174.5" r="0.3" fill="#d2ccc0" opacity="0.06"/><circle cx="205.3" cy="196.3" r="0.8" fill="#d2ccc0" opacity="0.38"/><circle cx="205.3" cy="194.5" r="1.0" fill="#d2ccc0" opacity="0.4"/><circle cx="204.6" cy="192.8" r="1.0" fill="#d2ccc0" opacity="0.29"/><circle cx="204.2" cy="191.1" r="0.8" fill="#d2ccc0" opacity="0.27"/><circle cx="204.6" cy="189.3" r="0.7" fill="#d2ccc0" opacity="0.21"/><circle cx="204.7" cy="187.5" r="0.5" fill="#d2ccc0" opacity="0.21"/><circle cx="204.1" cy="185.8" r="0.5" fill="#d2ccc0" opacity="0.16"/><circle cx="204.8" cy="183.9" r="0.3" fill="#d2ccc0" opacity="0.12"/><circle cx="204.7" cy="182.2" r="0.3" fill="#d2ccc0" opacity="0.06"/><circle cx="206.4" cy="195.9" r="1.2" fill="#d2ccc0" opacity="0.45"/><circle cx="207.0" cy="193.5" r="1.1" fill="#d2ccc0" opacity="0.32"/><circle cx="207.5" cy="191.0" r="1.1" fill="#d2ccc0" opacity="0.29"/><circle cx="208.0" cy="188.5" r="1.0" fill="#d2ccc0" opacity="0.25"/><circle cx="207.9" cy="185.9" r="0.8" fill="#d2ccc0" opacity="0.25"/><circle cx="208.9" cy="183.5" r="0.7" fill="#d2ccc0" opacity="0.24"/><circle cx="209.2" cy="181.0" r="0.5" fill="#d2ccc0" opacity="0.18"/><circle cx="209.0" cy="178.4" r="0.6" fill="#d2ccc0" opacity="0.18"/><circle cx="210.2" cy="176.0" r="0.4" fill="#d2ccc0" opacity="0.14"/><circle cx="210.2" cy="173.4" r="0.4" fill="#d2ccc0" opacity="0.09"/><circle cx="210.1" cy="170.8" r="0.2" fill="#d2ccc0" opacity="0.06"/><circle cx="208.2" cy="196.8" r="1.2" fill="#d2ccc0" opacity="0.39"/><circle cx="209.0" cy="194.3" r="1.2" fill="#d2ccc0" opacity="0.36"/><circle cx="210.4" cy="192.3" r="1.0" fill="#d2ccc0" opacity="0.33"/><circle cx="212.2" cy="190.6" r="0.6" fill="#d2ccc0" opacity="0.33"/><circle cx="213.8" cy="188.7" r="0.7" fill="#d2ccc0" opacity="0.24"/><circle cx="214.8" cy="186.4" r="0.5" fill="#d2ccc0" opacity="0.23"/><circle cx="216.5" cy="184.6" r="0.6" fill="#d2ccc0" opacity="0.17"/><circle cx="217.9" cy="182.5" r="0.3" fill="#d2ccc0" opacity="0.09"/><circle cx="219.9" cy="180.9" r="0.3" fill="#d2ccc0" opacity="0.06"/><circle cx="209.0" cy="197.8" r="1.1" fill="#d2ccc0" opacity="0.38"/><circle cx="210.9" cy="196.3" r="1.2" fill="#d2ccc0" opacity="0.39"/><circle cx="212.9" cy="195.1" r="1.1" fill="#d2ccc0" opacity="0.3"/><circle cx="214.8" cy="193.6" r="0.9" fill="#d2ccc0" opacity="0.3"/><circle cx="216.4" cy="191.7" r="0.8" fill="#d2ccc0" opacity="0.28"/><circle cx="218.7" cy="190.9" r="0.6" fill="#d2ccc0" opacity="0.22"/><circle cx="220.4" cy="189.2" r="0.4" fill="#d2ccc0" opacity="0.18"/><circle cx="222.7" cy="188.3" r="0.4" fill="#d2ccc0" opacity="0.15"/><circle cx="224.8" cy="187.1" r="0.4" fill="#d2ccc0" opacity="0.12"/><circle cx="226.2" cy="185.0" r="0.3" fill="#d2ccc0" opacity="0.07"/><circle cx="209.2" cy="197.8" r="0.8" fill="#d2ccc0" opacity="0.4"/><circle cx="211.6" cy="196.3" r="0.9" fill="#d2ccc0" opacity="0.33"/><circle cx="214.2" cy="195.3" r="1.0" fill="#d2ccc0" opacity="0.25"/><circle cx="216.7" cy="194.1" r="0.6" fill="#d2ccc0" opacity="0.2"/><circle cx="219.4" cy="193.2" r="0.5" fill="#d2ccc0" opacity="0.26"/><circle cx="221.1" cy="190.5" r="0.6" fill="#d2ccc0" opacity="0.14"/><circle cx="223.7" cy="189.4" r="0.5" fill="#d2ccc0" opacity="0.11"/><circle cx="226.3" cy="188.4" r="0.3" fill="#d2ccc0" opacity="0.08"/><circle cx="205.8" cy="199.6" r="3.5" fill="#d2ccc0" opacity="0.6"/><circle cx="205.8" cy="199.6" r="3.5" fill="none" stroke="#5a564e" stroke-width="0.5" opacity="0.5"/>
<circle cx="239.4" cy="209.4" r="13.0" fill="#d2ccc0" opacity="0.04"/><circle cx="239.4" cy="209.4" r="7.1" fill="#d2ccc0" opacity="0.07"/><circle cx="241.9" cy="209.2" r="1.0" fill="#d2ccc0" opacity="0.43"/><circle cx="243.5" cy="209.3" r="0.9" fill="#d2ccc0" opacity="0.37"/><circle cx="245.1" cy="209.6" r="0.9" fill="#d2ccc0" opacity="0.33"/><circle cx="246.7" cy="209.1" r="0.9" fill="#d2ccc0" opacity="0.31"/><circle cx="248.3" cy="209.2" r="0.5" fill="#d2ccc0" opacity="0.18"/><circle cx="249.8" cy="208.9" r="0.6" fill="#d2ccc0" opacity="0.19"/><circle cx="251.4" cy="208.8" r="0.5" fill="#d2ccc0" opacity="0.13"/><circle cx="253.0" cy="209.7" r="0.3" fill="#d2ccc0" opacity="0.08"/><circle cx="242.1" cy="210.6" r="1.0" fill="#d2ccc0" opacity="0.47"/><circle cx="244.4" cy="211.4" r="1.0" fill="#d2ccc0" opacity="0.27"/><circle cx="246.8" cy="212.1" r="1.0" fill="#d2ccc0" opacity="0.28"/><circle cx="248.8" cy="213.6" r="0.6" fill="#d2ccc0" opacity="0.2"/><circle cx="251.0" cy="214.5" r="0.7" fill="#d2ccc0" opacity="0.21"/><circle cx="253.6" cy="214.7" r="0.4" fill="#d2ccc0" opacity="0.14"/><circle cx="255.5" cy="216.6" r="0.4" fill="#d2ccc0" opacity="0.07"/><circle cx="241.2" cy="211.2" r="1.3" fill="#d2ccc0" opacity="0.41"/><circle cx="242.2" cy="212.5" r="1.1" fill="#d2ccc0" opacity="0.35"/><circle cx="243.5" cy="213.7" r="0.8" fill="#d2ccc0" opacity="0.35"/><circle cx="244.4" cy="215.1" r="0.7" fill="#d2ccc0" opacity="0.36"/><circle cx="245.5" cy="216.4" r="0.6" fill="#d2ccc0" opacity="0.28"/><circle cx="246.8" cy="217.5" r="0.8" fill="#d2ccc0" opacity="0.29"/><circle cx="248.0" cy="218.6" r="0.7" fill="#d2ccc0" opacity="0.22"/><circle cx="249.0" cy="219.9" r="0.4" fill="#d2ccc0" opacity="0.17"/><circle cx="250.0" cy="221.3" r="0.5" fill="#d2ccc0" opacity="0.14"/><circle cx="250.8" cy="222.8" r="0.3" fill="#d2ccc0" opacity="0.08"/><circle cx="251.8" cy="224.2" r="0.3" fill="#d2ccc0" opacity="0.06"/><circle cx="239.7" cy="212.0" r="1.1" fill="#d2ccc0" opacity="0.38"/><circle cx="240.3" cy="213.6" r="0.9" fill="#d2ccc0" opacity="0.31"/><circle cx="240.5" cy="215.4" r="0.8" fill="#d2ccc0" opacity="0.38"/><circle cx="240.7" cy="217.1" r="0.7" fill="#d2ccc0" opacity="0.31"/><circle cx="240.9" cy="218.8" r="0.7" fill="#d2ccc0" opacity="0.28"/><circle cx="241.2" cy="220.5" r="0.7" fill="#d2ccc0" opacity="0.26"/><circle cx="241.8" cy="222.2" r="0.5" fill="#d2ccc0" opacity="0.21"/><circle cx="241.4" cy="224.0" r="0.6" fill="#d2ccc0" opacity="0.17"/><circle cx="241.8" cy="225.7" r="0.4" fill="#d2ccc0" opacity="0.11"/><circle cx="241.9" cy="227.5" r="0.3" fill="#d2ccc0" opacity="0.11"/><circle cx="241.9" cy="229.2" r="0.2" fill="#d2ccc0" opacity="0.07"/><circle cx="239.0" cy="211.7" r="0.9" fill="#d2ccc0" opacity="0.32"/><circle cx="238.6" cy="212.9" r="1.2" fill="#d2ccc0" opacity="0.37"/><circle cx="238.3" cy="214.1" r="0.9" fill="#d2ccc0" opacity="0.26"/><circle cx="238.1" cy="215.4" r="0.8" fill="#d2ccc0" opacity="0.21"/><circle cx="237.4" cy="216.5" r="0.6" fill="#d2ccc0" opacity="0.17"/><circle cx="237.0" cy="217.7" r="0.5" fill="#d2ccc0" opacity="0.18"/><circle cx="236.5" cy="218.8" r="0.4" fill="#d2ccc0" opacity="0.1"/><circle cx="236.3" cy="220.1" r="0.3" fill="#d2ccc0" opacity="0.08"/><circle cx="238.1" cy="211.1" r="1.3" fill="#d2ccc0" opacity="0.46"/><circle cx="237.6" cy="211.8" r="1.2" fill="#d2ccc0" opacity="0.42"/><circle cx="237.0" cy="212.4" r="1.0" fill="#d2ccc0" opacity="0.33"/><circle cx="236.3" cy="212.9" r="0.9" fill="#d2ccc0" opacity="0.25"/><circle cx="235.7" cy="213.5" r="0.6" fill="#d2ccc0" opacity="0.24"/><circle cx="235.1" cy="214.1" r="0.7" fill="#d2ccc0" opacity="0.24"/><circle cx="234.7" cy="214.9" r="0.6" fill="#d2ccc0" opacity="0.18"/><circle cx="234.0" cy="215.4" r="0.6" fill="#d2ccc0" opacity="0.19"/><circle cx="233.5" cy="216.1" r="0.3" fill="#d2ccc0" opacity="0.16"/><circle cx="233.2" cy="217.0" r="0.3" fill="#d2ccc0" opacity="0.08"/><circle cx="232.4" cy="217.4" r="0.3" fill="#d2ccc0" opacity="0.05"/><circle cx="236.6" cy="209.9" r="0.9" fill="#d2ccc0" opacity="0.46"/><circle cx="234.3" cy="210.1" r="1.0" fill="#d2ccc0" opacity="0.38"/><circle cx="232.1" cy="210.4" r="0.8" fill="#d2ccc0" opacity="0.23"/><circle cx="229.9" cy="210.9" r="0.6" fill="#d2ccc0" opacity="0.25"/><circle cx="227.7" cy="211.8" r="0.6" fill="#d2ccc0" opacity="0.16"/><circle cx="225.4" cy="212.1" r="0.4" fill="#d2ccc0" opacity="0.1"/><circle cx="223.1" cy="212.2" r="0.2" fill="#d2ccc0" opacity="0.07"/><circle cx="237.1" cy="208.8" r="1.1" fill="#d2ccc0" opacity="0.48"/><circle cx="235.9" cy="207.9" r="1.1" fill="#d2ccc0" opacity="0.44"/><circle cx="234.5" cy="208.0" r="0.8" fill="#d2ccc0" opacity="0.3"/><circle cx="233.3" cy="207.1" r="0.7" fill="#d2ccc0" opacity="0.24"/><circle cx="231.9" cy="207.2" r="0.8" fill="#d2ccc0" opacity="0.19"/><circle cx="230.8" cy="206.0" r="0.7" fill="#d2ccc0" opacity="0.18"/><circle cx="229.4" cy="206.0" r="0.5" fill="#d2ccc0" opacity="0.15"/><circle cx="228.1" cy="205.4" r="0.3" fill="#d2ccc0" opacity="0.1"/><circle cx="226.8" cy="205.1" r="0.3" fill="#d2ccc0" opacity="0.06"/><circle cx="237.9" cy="207.6" r="1.3" fill="#d2ccc0" opacity="0.38"/><circle cx="237.0" cy="206.6" r="1.1" fill="#d2ccc0" opacity="0.31"/><circle cx="236.3" cy="205.6" r="0.7" fill="#d2ccc0" opacity="0.31"/><circle cx="235.1" cy="204.9" r="0.6" fill="#d2ccc0" opacity="0.2"/><circle cx="234.9" cy="203.4" r="0.4" fill="#d2ccc0" opacity="0.17"/><circle cx="234.1" cy="202.4" r="0.5" fill="#d2ccc0" opacity="0.11"/><circle cx="232.4" cy="202.1" r="0.3" fill="#d2ccc0" opacity="0.07"/><circle cx="238.4" cy="207.2" r="1.0" fill="#d2ccc0" opacity="0.33"/><circle cx="237.8" cy="205.8" r="1.0" fill="#d2ccc0" opacity="0.44"/><circle cx="237.1" cy="204.5" r="0.7" fill="#d2ccc0" opacity="0.3"/><circle cx="236.3" cy="203.2" r="0.6" fill="#d2ccc0" opacity="0.27"/><circle cx="235.8" cy="201.9" r="0.9" fill="#d2ccc0" opacity="0.24"/><circle cx="235.8" cy="200.3" r="0.8" fill="#d2ccc0" opacity="0.18"/><circle cx="235.2" cy="198.9" r="0.7" fill="#d2ccc0" opacity="0.19"/><circle cx="234.4" cy="197.7" r="0.5" fill="#d2ccc0" opacity="0.13"/><circle cx="233.9" cy="196.3" r="0.4" fill="#d2ccc0" opacity="0.08"/><circle cx="232.9" cy="195.1" r="0.3" fill="#d2ccc0" opacity="0.06"/><circle cx="239.7" cy="206.9" r="1.0" fill="#d2ccc0" opacity="0.44"/><circle cx="240.2" cy="205.4" r="0.8" fill="#d2ccc0" opacity="0.3"/><circle cx="240.8" cy="203.9" r="0.8" fill="#d2ccc0" opacity="0.27"/><circle cx="240.6" cy="202.3" r="1.0" fill="#d2ccc0" opacity="0.25"/><circle cx="241.5" cy="200.9" r="0.7" fill="#d2ccc0" opacity="0.29"/><circle cx="241.8" cy="199.4" r="0.6" fill="#d2ccc0" opacity="0.23"/><circle cx="242.0" cy="197.8" r="0.5" fill="#d2ccc0" opacity="0.19"/><circle cx="242.0" cy="196.2" r="0.4" fill="#d2ccc0" opacity="0.16"/><circle cx="242.6" cy="194.8" r="0.5" fill="#d2ccc0" opacity="0.15"/><circle cx="242.2" cy="193.1" r="0.3" fill="#d2ccc0" opacity="0.1"/><circle cx="243.1" cy="191.7" r="0.3" fill="#d2ccc0" opacity="0.07"/><circle cx="241.1" cy="207.4" r="1.1" fill="#d2ccc0" opacity="0.41"/><circle cx="242.6" cy="206.2" r="0.8" fill="#d2ccc0" opacity="0.31"/><circle cx="243.7" cy="204.8" r="0.7" fill="#d2ccc0" opacity="0.35"/><circle cx="244.8" cy="203.2" r="0.8" fill="#d2ccc0" opacity="0.26"/><circle cx="246.2" cy="201.9" r="0.8" fill="#d2ccc0" opacity="0.28"/><circle cx="247.4" cy="200.5" r="0.7" fill="#d2ccc0" opacity="0.18"/><circle cx="248.4" cy="198.9" r="0.5" fill="#d2ccc0" opacity="0.14"/><circle cx="250.2" cy="198.1" r="0.3" fill="#d2ccc0" opacity="0.11"/><circle cx="251.2" cy="196.5" r="0.3" fill="#d2ccc0" opacity="0.05"/><circle cx="241.6" cy="208.3" r="1.1" fill="#d2ccc0" opacity="0.38"/><circle cx="242.7" cy="207.5" r="1.0" fill="#d2ccc0" opacity="0.43"/><circle cx="244.1" cy="207.0" r="0.7" fill="#d2ccc0" opacity="0.38"/><circle cx="245.1" cy="205.9" r="0.9" fill="#d2ccc0" opacity="0.32"/><circle cx="246.6" cy="205.7" r="0.7" fill="#d2ccc0" opacity="0.2"/><circle cx="247.8" cy="205.0" r="0.6" fill="#d2ccc0" opacity="0.2"/><circle cx="249.0" cy="204.3" r="0.4" fill="#d2ccc0" opacity="0.13"/><circle cx="250.2" cy="203.5" r="0.3" fill="#d2ccc0" opacity="0.11"/><circle cx="251.4" cy="202.8" r="0.2" fill="#d2ccc0" opacity="0.06"/><circle cx="239.4" cy="209.4" r="2.5" fill="#d2ccc0" opacity="0.6"/><circle cx="239.4" cy="209.4" r="2.5" fill="none" stroke="#5a564e" stroke-width="0.5" opacity="0.5"/>
<path d="M210.0 110.0 A70 70 0 0 1 210.0 250.0 A61.6 70 0 0 0 210.0 110.0 Z" fill="#26231f" opacity="0.22"/>
<circle cx="210" cy="180" r="69.0" fill="none" stroke="#2b2824" stroke-width="4.2" opacity="0.16"/>
</g>
<circle cx="210" cy="180" r="70" fill="none" stroke="#5a564e" stroke-width="0.8" opacity="0.7"/>
</svg>