<?xml version="1.0" encoding="UTF-8"?>
<svg xmlns="http://www.w3.org/2000/svg" width="100%" height="100%" viewBox="138 113 124 124">
<g>
<clipPath id="mc_moon_large"><circle cx="200" cy="175" r="62"/></clipPath>
<g clip-path="url(#mc_moon_large)">
<rect x="138" y="113" width="124" height="124" fill="#b2b1ac"/>
<circle cx="196.9" cy="213.4" r="14.3" fill="#dcd8cf" opacity="0.05"/>
<circle cx="188.8" cy="177.5" r="11.7" fill="#dcd8cf" opacity="0.05"/>
<circle cx="178.9" cy="176.2" r="7.3" fill="#dcd8cf" opacity="0.05"/>
<circle cx="169.0" cy="157.6" r="6.2" fill="#dcd8cf" opacity="0.05"/>
<path d="M 185.0 177.8 C 184.3 181.0 184.0 184.6 182.6 187.3 C 181.3 190.0 178.9 192.3 176.8 194.0 C 174.8 195.7 172.4 196.9 170.2 197.3 C 168.1 197.7 166.3 195.6 164.0 196.2 C 161.7 196.7 158.4 201.2 156.6 200.5 C 154.8 199.8 154.9 194.2 153.3 192.2 C 151.7 190.1 147.9 190.5 147.2 188.2 C 146.4 185.9 149.1 181.5 148.8 178.4 C 148.5 175.2 144.9 172.1 145.3 169.4 C 145.7 166.6 149.2 163.8 151.1 161.8 C 153.0 159.7 155.2 159.3 156.9 157.1 C 158.6 154.9 159.4 149.3 161.2 148.3 C 163.0 147.3 165.6 151.0 167.8 151.1 C 170.0 151.2 172.3 148.8 174.6 148.9 C 176.8 148.9 180.1 149.2 181.2 151.4 C 182.4 153.5 180.5 159.0 181.4 161.8 C 182.3 164.6 185.9 165.6 186.5 168.2 C 187.1 170.9 185.6 174.6 185.0 177.8 Z" fill="#5b6166"/>
<path d="M 185.0 177.8 C 184.3 181.0 184.0 184.6 182.6 187.3 C 181.3 190.0 178.9 192.3 176.8 194.0 C 174.8 195.7 172.4 196.9 170.2 197.3 C 168.1 197.7 166.3 195.6 164.0 196.2 C 161.7 196.7 158.4 201.2 156.6 200.5 C 154.8 199.8 154.9 194.2 153.3 192.2 C 151.7 190.1 147.9 190.5 147.2 188.2 C 146.4 185.9 149.1 181.5 148.8 178.4 C 148.5 175.2 144.9 172.1 145.3 169.4 C 145.7 166.6 149.2 163.8 151.1 161.8 C 153.0 159.7 155.2 159.3 156.9 157.1 C 158.6 154.9 159.4 149.3 161.2 148.3 C 163.0 147.3 165.6 151.0 167.8 151.1 C 170.0 151.2 172.3 148.8 174.6 148.9 C 176.8 148.9 180.1 149.2 181.2 151.4 C 182.4 153.5 180.5 159.0 181.4 161.8 C 182.3 164.6 185.9 165.6 186.5 168.2 C 187.1 170.9 185.6 174.6 185.0 177.8 Z" fill="none" stroke="#3f4348" stroke-width="0.50" opacity="0.5"/>
<path d="M 200.5 140.9 C 200.8 142.7 203.7 143.9 203.5 145.5 C 203.4 147.1 200.6 148.8 199.6 150.6 C 198.7 152.4 199.2 155.0 197.8 156.4 C 196.4 157.9 193.4 158.6 191.2 159.5 C 189.0 160.5 187.0 161.1 184.6 162.0 C 182.2 162.8 178.8 165.1 176.8 164.7 C 174.7 164.3 174.1 160.7 172.3 159.6 C 170.5 158.5 166.8 159.2 165.7 158.0 C 164.6 156.7 166.2 153.9 165.8 152.2 C 165.4 150.4 163.8 149.2 163.3 147.4 C 162.8 145.6 162.0 143.2 162.8 141.3 C 163.6 139.4 165.8 137.3 167.9 135.9 C 169.9 134.5 172.7 133.8 175.0 132.9 C 177.4 132.0 179.8 130.2 181.9 130.4 C 184.0 130.6 185.6 133.7 187.6 134.2 C 189.7 134.7 191.9 133.3 194.2 133.3 C 196.6 133.3 200.6 133.1 201.7 134.4 C 202.7 135.6 200.2 139.0 200.5 140.9 Z" fill="#5b6166"/>
<path d="M 200.5 140.9 C 200.8 142.7 203.7 143.9 203.5 145.5 C 203.4 147.1 200.6 148.8 199.6 150.6 C 198.7 152.4 199.2 155.0 197.8 156.4 C 196.4 157.9 193.4 158.6 191.2 159.5 C 189.0 160.5 187.0 161.1 184.6 162.0 C 182.2 162.8 178.8 165.1 176.8 164.7 C 174.7 164.3 174.1 160.7 172.3 159.6 C 170.5 158.5 166.8 159.2 165.7 158.0 C 164.6 156.7 166.2 153.9 165.8 152.2 C 165.4 150.4 163.8 149.2 163.3 147.4 C 162.8 145.6 162.0 143.2 162.8 141.3 C 163.6 139.4 165.8 137.3 167.9 135.9 C 169.9 134.5 172.7 133.8 175.0 132.9 C 177.4 132.0 179.8 130.2 181.9 130.4 C 184.0 130.6 185.6 133.7 187.6 134.2 C 189.7 134.7 191.9 133.3 194.2 133.3 C 196.6 133.3 200.6 133.1 201.7 134.4 C 202.7 135.6 200.2 139.0 200.5 140.9 Z" fill="none" stroke="#3f4348" stroke-width="0.50" opacity="0.5"/>
<path d="M 217.6 130.4 C 216.6 130.8 214.4 131.0 213.1 131.2 C 211.8 131.4 211.0 131.6 210.0 131.9 C 208.9 132.1 208.2 132.4 206.9 132.7 C 205.6 132.9 204.1 133.1 201.9 133.4 C 199.7 133.7 196.5 134.3 193.7 134.3 C 190.9 134.2 186.3 133.6 185.1 132.9 C 183.9 132.3 186.5 131.0 186.4 130.4 C 186.3 129.8 186.5 129.7 184.3 129.2 C 182.2 128.7 175.2 128.0 173.3 127.3 C 171.4 126.7 171.6 125.8 173.1 125.4 C 174.6 125.0 180.3 125.4 182.3 125.1 C 184.4 124.7 183.3 123.3 185.6 123.4 C 187.9 123.4 193.3 125.4 196.2 125.6 C 199.1 125.9 200.4 124.9 202.9 124.9 C 205.4 124.9 209.4 125.2 211.2 125.6 C 213.0 126.1 212.1 127.1 213.5 127.6 C 214.9 128.2 218.9 128.5 219.6 129.0 C 220.3 129.5 218.7 130.1 217.6 130.4 Z" fill="#5b6166"/>
<path d="M 217.6 130.4 C 216.6 130.8 214.4 131.0 213.1 131.2 C 211.8 131.4 211.0 131.6 210.0 131.9 C 208.9 132.1 208.2 132.4 206.9 132.7 C 205.6 132.9 204.1 133.1 201.9 133.4 C 199.7 133.7 196.5 134.3 193.7 134.3 C 190.9 134.2 186.3 133.6 185.1 132.9 C 183.9 132.3 186.5 131.0 186.4 130.4 C 186.3 129.8 186.5 129.7 184.3 129.2 C 182.2 128.7 175.2 128.0 173.3 127.3 C 171.4 126.7 171.6 125.8 173.1 125.4 C 174.6 125.0 180.3 125.4 182.3 125.1 C 184.4 124.7 183.3 123.3 185.6 123.4 C 187.9 123.4 193.3 125.4 196.2 125.6 C 199.1 125.9 200.4 124.9 202.9 124.9 C 205.4 124.9 209.4 125.2 211.2 125.6 C 213.0 126.1 212.1 127.1 213.5 127.6 C 214.9 128.2 218.9 128.5 219.6 129.0 C 220.3 129.5 218.7 130.1 217.6 130.4 Z" fill="none" stroke="#3f4348" stroke-width="0.50" opacity="0.5"/>
<path d="M 219.9 152.4 C 219.7 153.5 218.0 154.4 217.1 155.4 C 216.3 156.4 215.7 157.3 214.9 158.2 C 214.0 159.1 213.1 160.1 211.9 160.8 C 210.7 161.5 209.0 162.6 207.7 162.4 C 206.3 162.2 205.2 160.3 203.7 159.8 C 202.3 159.3 200.3 159.9 199.1 159.2 C 198.0 158.5 197.4 156.9 196.7 155.7 C 196.0 154.5 195.3 153.3 194.9 152.0 C 194.6 150.7 194.1 149.2 194.4 147.9 C 194.6 146.6 195.4 145.3 196.3 144.2 C 197.1 143.2 198.4 142.5 199.5 141.7 C 200.6 140.8 201.5 139.6 202.8 139.1 C 204.1 138.6 205.8 138.5 207.2 138.6 C 208.7 138.6 210.4 138.8 211.6 139.4 C 212.8 140.1 213.5 141.6 214.5 142.6 C 215.4 143.5 216.7 144.1 217.3 145.2 C 217.9 146.2 217.6 147.5 218.0 148.7 C 218.4 149.9 220.0 151.3 219.9 152.4 Z" fill="#5b6166"/>
<path d="M 219.9 152.4 C 219.7 153.5 218.0 154.4 217.1 155.4 C 216.3 156.4 215.7 157.3 214.9 158.2 C 214.0 159.1 213.1 160.1 211.9 160.8 C 210.7 161.5 209.0 162.6 207.7 162.4 C 206.3 162.2 205.2 160.3 203.7 159.8 C 202.3 159.3 200.3 159.9 199.1 159.2 C 198.0 158.5 197.4 156.9 196.7 155.7 C 196.0 154.5 195.3 153.3 194.9 152.0 C 194.6 150.7 194.1 149.2 194.4 147.9 C 194.6 146.6 195.4 145.3 196.3 144.2 C 197.1 143.2 198.4 142.5 199.5 141.7 C 200.6 140.8 201.5 139.6 202.8 139.1 C 204.1 138.6 205.8 138.5 207.2 138.6 C 208.7 138.6 210.4 138.8 211.6 139.4 C 212.8 140.1 213.5 141.6 214.5 142.6 C 215.4 143.5 216.7 144.1 217.3 145.2 C 217.9 146.2 217.6 147.5 218.0 148.7 C 218.4 149.9 220.0 151.3 219.9 152.4 Z" fill="none" stroke="#3f4348" stroke-width="0.50" opacity="0.5"/>
<path d="M 233.4 162.3 C 233.4 163.7 232.4 165.0 232.2 166.4 C 232.1 167.8 233.0 169.5 232.5 170.8 C 232.0 172.1 230.6 173.2 229.4 174.2 C 228.3 175.3 227.0 176.6 225.5 177.0 C 224.1 177.4 222.2 176.9 220.7 176.8 C 219.1 176.8 217.7 177.0 216.1 176.8 C 214.5 176.7 212.2 176.9 211.0 176.1 C 209.9 175.2 209.8 173.0 209.2 171.7 C 208.5 170.3 207.6 169.3 207.1 167.9 C 206.7 166.6 205.8 164.8 206.3 163.5 C 206.9 162.2 209.6 161.8 210.2 160.2 C 210.8 158.7 208.9 155.4 209.8 154.2 C 210.6 152.9 213.5 153.2 215.2 152.8 C 217.0 152.3 218.8 151.2 220.2 151.6 C 221.7 152.1 222.8 154.6 224.1 155.4 C 225.3 156.2 226.6 155.9 228.0 156.3 C 229.3 156.8 231.4 157.2 232.3 158.2 C 233.2 159.2 233.4 161.0 233.4 162.3 Z" fill="#5b6166"/>
<path d="M 233.4 162.3 C 233.4 163.7 232.4 165.0 232.2 166.4 C 232.1 167.8 233.0 169.5 232.5 170.8 C 232.0 172.1 230.6 173.2 229.4 174.2 C 228.3 175.3 227.0 176.6 225.5 177.0 C 224.1 177.4 222.2 176.9 220.7 176.8 C 219.1 176.8 217.7 177.0 216.1 176.8 C 214.5 176.7 212.2 176.9 211.0 176.1 C 209.9 175.2 209.8 173.0 209.2 171.7 C 208.5 170.3 207.6 169.3 207.1 167.9 C 206.7 166.6 205.8 164.8 206.3 163.5 C 206.9 162.2 209.6 161.8 210.2 160.2 C 210.8 158.7 208.9 155.4 209.8 154.2 C 210.6 152.9 213.5 153.2 215.2 152.8 C 217.0 152.3 218.8 151.2 220.2 151.6 C 221.7 152.1 222.8 154.6 224.1 155.4 C 225.3 156.2 226.6 155.9 228.0 156.3 C 229.3 156.8 231.4 157.2 232.3 158.2 C 233.2 159.2 233.4 161.0 233.4 162.3 Z" fill="none" stroke="#3f4348" stroke-width="0.50" opacity="0.5"/>
<path d="M 253.1 166.1 C 253.1 167.1 252.7 168.2 252.3 169.2 C 252.0 170.2 251.6 171.4 250.9 172.1 C 250.3 172.8 249.3 173.3 248.4 173.6 C 247.6 173.9 246.7 174.0 245.9 174.0 C 245.0 174.0 244.2 174.0 243.4 173.7 C 242.7 173.4 242.1 172.6 241.4 172.1 C 240.6 171.6 239.2 171.5 238.7 170.7 C 238.3 169.9 238.6 168.4 238.4 167.3 C 238.3 166.1 237.6 165.0 237.7 163.9 C 237.9 162.9 239.0 162.0 239.5 161.0 C 240.1 160.1 240.4 159.1 241.0 158.2 C 241.6 157.4 242.3 156.3 243.1 155.8 C 243.9 155.4 244.9 155.6 245.9 155.5 C 246.8 155.4 247.9 154.9 248.7 155.2 C 249.5 155.6 250.2 156.8 250.7 157.6 C 251.2 158.5 251.5 159.5 251.8 160.4 C 252.1 161.3 252.1 162.2 252.3 163.2 C 252.5 164.1 253.1 165.1 253.1 166.1 Z" fill="#5b6166"/>
<path d="M 253.1 166.1 C 253.1 167.1 252.7 168.2 252.3 169.2 C 252.0 170.2 251.6 171.4 250.9 172.1 C 250.3 172.8 249.3 173.3 248.4 173.6 C 247.6 173.9 246.7 174.0 245.9 174.0 C 245.0 174.0 244.2 174.0 243.4 173.7 C 242.7 173.4 242.1 172.6 241.4 172.1 C 240.6 171.6 239.2 171.5 238.7 170.7 C 238.3 169.9 238.6 168.4 238.4 167.3 C 238.3 166.1 237.6 165.0 237.7 163.9 C 237.9 162.9 239.0 162.0 239.5 161.0 C 240.1 160.1 240.4 159.1 241.0 158.2 C 241.6 157.4 242.3 156.3 243.1 155.8 C 243.9 155.4 244.9 155.6 245.9 155.5 C 246.8 155.4 247.9 154.9 248.7 155.2 C 249.5 155.6 250.2 156.8 250.7 157.6 C 251.2 158.5 251.5 159.5 251.8 160.4 C 252.1 161.3 252.1 162.2 252.3 163.2 C 252.5 164.1 253.1 165.1 253.1 166.1 Z" fill="none" stroke="#3f4348" stroke-width="0.50" opacity="0.5"/>
<path d="M 239.8 184.2 C 239.6 185.5 236.9 186.5 236.0 187.4 C 235.0 188.4 234.4 188.7 233.9 190.1 C 233.4 191.5 233.8 195.3 232.9 196.0 C 232.1 196.8 230.1 195.0 228.9 194.7 C 227.7 194.3 226.9 194.2 225.8 194.1 C 224.6 193.9 223.0 194.5 222.2 193.7 C 221.4 193.0 221.6 190.7 220.9 189.5 C 220.2 188.4 218.2 187.8 218.0 186.6 C 217.8 185.3 219.5 183.7 219.5 182.1 C 219.5 180.5 217.6 178.2 218.0 176.9 C 218.4 175.6 220.8 175.4 221.9 174.5 C 223.0 173.6 223.6 172.3 224.6 171.5 C 225.6 170.7 226.9 169.6 228.0 169.5 C 229.2 169.4 230.3 170.6 231.6 170.9 C 232.8 171.2 234.4 170.8 235.4 171.5 C 236.4 172.2 237.5 173.7 237.8 175.2 C 238.1 176.6 236.9 178.6 237.2 180.2 C 237.6 181.7 240.0 183.0 239.8 184.2 Z" fill="#5b6166"/>
<path d="M 239.8 184.2 C 239.6 185.5 236.9 186.5 236.0 187.4 C 235.0 188.4 234.4 188.7 233.9 190.1 C 233.4 191.5 233.8 195.3 232.9 196.0 C 232.1 196.8 230.1 195.0 228.9 194.7 C 227.7 194.3 226.9 194.2 225.8 194.1 C 224.6 193.9 223.0 194.5 222.2 193.7 C 221.4 193.0 221.6 190.7 220.9 189.5 C 220.2 188.4 218.2 187.8 218.0 186.6 C 217.8 185.3 219.5 183.7 219.5 182.1 C 219.5 180.5 217.6 178.2 218.0 176.9 C 218.4 175.6 220.8 175.4 221.9 174.5 C 223.0 173.6 223.6 172.3 224.6 171.5 C 225.6 170.7 226.9 169.6 228.0 169.5 C 229.2 169.4 230.3 170.6 231.6 170.9 C 232.8 171.2 234.4 170.8 235.4 171.5 C 236.4 172.2 237.5 173.7 237.8 175.2 C 238.1 176.6 236.9 178.6 237.2 180.2 C 237.6 181.7 240.0 183.0 239.8 184.2 Z" fill="none" stroke="#3f4348" stroke-width="0.50" opacity="0.5"/>
<path d="M 225.6 194.2 C 225.6 194.8 224.6 195.4 224.5 196.1 C 224.3 196.9 224.8 197.9 224.6 198.7 C 224.3 199.5 223.6 200.3 222.9 200.7 C 222.2 201.0 221.2 201.0 220.4 200.8 C 219.6 200.6 219.1 199.5 218.3 199.4 C 217.6 199.3 216.6 200.2 215.8 200.1 C 215.1 199.9 214.4 199.2 214.1 198.6 C 213.7 197.9 213.9 196.9 213.9 196.2 C 213.9 195.4 213.8 194.9 213.8 194.2 C 213.8 193.6 213.7 192.8 214.0 192.3 C 214.3 191.8 215.1 191.7 215.5 191.1 C 215.8 190.5 215.6 189.2 216.1 188.7 C 216.5 188.3 217.4 188.5 218.1 188.1 C 218.9 187.8 219.8 186.7 220.5 186.9 C 221.2 187.1 221.6 188.5 222.2 189.1 C 222.7 189.7 223.4 189.9 223.7 190.5 C 224.0 191.1 223.6 191.9 224.0 192.5 C 224.3 193.1 225.5 193.6 225.6 194.2 Z" fill="#5b6166"/>
<path d="M 225.6 194.2 C 225.6 194.8 224.6 195.4 224.5 196.1 C 224.3 196.9 224.8 197.9 224.6 198.7 C 224.3 199.5 223.6 200.3 222.9 200.7 C 222.2 201.0 221.2 201.0 220.4 200.8 C 219.6 200.6 219.1 199.5 218.3 199.4 C 217.6 199.3 216.6 200.2 215.8 200.1 C 215.1 199.9 214.4 199.2 214.1 198.6 C 213.7 197.9 213.9 196.9 213.9 196.2 C 213.9 195.4 213.8 194.9 213.8 194.2 C 213.8 193.6 213.7 192.8 214.0 192.3 C 214.3 191.8 215.1 191.7 215.5 191.1 C 215.8 190.5 215.6 189.2 216.1 188.7 C 216.5 188.3 217.4 188.5 218.1 188.1 C 218.9 187.8 219.8 186.7 220.5 186.9 C 221.2 187.1 221.6 188.5 222.2 189.1 C 222.7 189.7 223.4 189.9 223.7 190.5 C 224.0 191.1 223.6 191.9 224.0 192.5 C 224.3 193.1 225.5 193.6 225.6 194.2 Z" fill="none" stroke="#3f4348" stroke-width="0.50" opacity="0.5"/>
<path d="M 196.3 194.1 C 196.0 195.0 194.4 196.0 193.5 196.8 C 192.6 197.5 191.8 198.0 191.0 198.7 C 190.3 199.4 189.9 200.2 189.1 200.8 C 188.2 201.3 187.0 201.6 185.8 202.1 C 184.6 202.7 183.2 204.0 181.8 204.2 C 180.5 204.4 179.1 203.5 177.7 203.3 C 176.2 203.0 174.2 203.1 173.0 202.5 C 171.8 202.0 171.2 200.8 170.7 199.9 C 170.2 198.9 170.0 197.9 169.9 196.9 C 169.8 195.8 169.6 194.8 170.0 193.8 C 170.4 192.8 171.0 191.5 172.1 190.8 C 173.3 190.1 175.5 190.2 176.9 189.6 C 178.2 189.1 178.9 187.9 180.2 187.6 C 181.5 187.3 183.1 187.7 184.5 187.8 C 185.9 187.9 187.1 188.0 188.4 188.2 C 189.8 188.4 191.2 188.7 192.4 189.2 C 193.6 189.7 194.9 190.3 195.5 191.2 C 196.2 192.0 196.6 193.2 196.3 194.1 Z" fill="#5b6166"/>
<path d="M 196.3 194.1 C 196.0 195.0 194.4 196.0 193.5 196.8 C 192.6 197.5 191.8 198.0 191.0 198.7 C 190.3 199.4 189.9 200.2 189.1 200.8 C 188.2 201.3 187.0 201.6 185.8 202.1 C 184.6 202.7 183.2 204.0 181.8 204.2 C 180.5 204.4 179.1 203.5 177.7 203.3 C 176.2 203.0 174.2 203.1 173.0 202.5 C 171.8 202.0 171.2 200.8 170.7 199.9 C 170.2 198.9 170.0 197.9 169.9 196.9 C 169.8 195.8 169.6 194.8 170.0 193.8 C 170.4 192.8 171.0 191.5 172.1 190.8 C 173.3 190.1 175.5 190.2 176.9 189.6 C 178.2 189.1 178.9 187.9 180.2 187.6 C 181.5 187.3 183.1 187.7 184.5 187.8 C 185.9 187.9 187.1 188.0 188.4 188.2 C 189.8 188.4 191.2 188.7 192.4 189.2 C 193.6 189.7 194.9 190.3 195.5 191.2 C 196.2 192.0 196.6 193.2 196.3 194.1 Z" fill="none" stroke="#3f4348" stroke-width="0.50" opacity="0.5"/>
<path d="M 175.8 194.7 C 175.6 195.4 176.3 196.3 176.0 196.8 C 175.6 197.4 174.2 197.2 173.7 197.8 C 173.3 198.5 173.8 200.5 173.2 200.8 C 172.6 201.2 171.2 200.1 170.3 199.9 C 169.5 199.8 168.8 200.0 168.1 199.8 C 167.5 199.6 166.9 199.1 166.3 198.7 C 165.7 198.4 164.8 198.2 164.4 197.6 C 164.1 197.1 164.5 196.3 164.2 195.6 C 163.8 195.0 162.4 194.4 162.2 193.7 C 162.1 193.0 163.1 192.4 163.4 191.7 C 163.6 190.9 163.3 189.7 163.9 189.2 C 164.4 188.7 165.8 188.9 166.6 188.7 C 167.5 188.5 168.1 188.0 168.9 188.0 C 169.6 188.1 170.3 188.7 171.1 188.8 C 171.9 188.9 173.1 188.2 173.8 188.5 C 174.5 188.8 174.6 189.9 175.2 190.6 C 175.8 191.2 177.1 191.6 177.2 192.3 C 177.3 193.0 176.0 193.9 175.8 194.7 Z" fill="#5b6166"/>
<path d="M 175.8 194.7 C 175.6 195.4 176.3 196.3 176.0 196.8 C 175.6 197.4 174.2 197.2 173.7 197.8 C 173.3 198.5 173.8 200.5 173.2 200.8 C 172.6 201.2 171.2 200.1 170.3 199.9 C 169.5 199.8 168.8 200.0 168.1 199.8 C 167.5 199.6 166.9 199.1 166.3 198.7 C 165.7 198.4 164.8 198.2 164.4 197.6 C 164.1 197.1 164.5 196.3 164.2 195.6 C 163.8 195.0 162.4 194.4 162.2 193.7 C 162.1 193.0 163.1 192.4 163.4 191.7 C 163.6 190.9 163.3 189.7 163.9 189.2 C 164.4 188.7 165.8 188.9 166.6 188.7 C 167.5 188.5 168.1 188.0 168.9 188.0 C 169.6 188.1 170.3 188.7 171.1 188.8 C 171.9 188.9 173.1 188.2 173.8 188.5 C 174.5 188.8 174.6 189.9 175.2 190.6 C 175.8 191.2 177.1 191.6 177.2 192.3 C 177.3 193.0 176.0 193.9 175.8 194.7 Z" fill="none" stroke="#3f4348" stroke-width="0.50" opacity="0.5"/>
<circle cx="199.3" cy="171.3" r="1.05" fill="#494d52" opacity="0.11"/>
<circle cx="198.9" cy="170.8" r="0.73" fill="#d8d6cf" opacity="0.10"/>
<circle cx="242.6" cy="138.8" r="0.56" fill="#494d52" opacity="0.16"/>
<circle cx="242.4" cy="138.6" r="0.39" fill="#d8d6cf" opacity="0.14"/>
<circle cx="232.1" cy="207.5" r="0.51" fill="#494d52" opacity="0.10"/>
<circle cx="231.9" cy="207.3" r="0.36" fill="#d8d6cf" opacity="0.09"/>
<circle cx="215.2" cy="138.6" r="0.62" fill="#494d52" opacity="0.16"/>
<circle cx="214.9" cy="138.3" r="0.43" fill="#d8d6cf" opacity="0.15"/>
<circle cx="226.4" cy="140.9" r="1.54" fill="#494d52" opacity="0.17"/>
<circle cx="225.8" cy="140.3" r="1.08" fill="#d8d6cf" opacity="0.15"/>
<circle cx="224.7" cy="151.1" r="0.52" fill="#494d52" opacity="0.12"/>
<circle cx="224.5" cy="150.9" r="0.36" fill="#d8d6cf" opacity="0.11"/>
<circle cx="199.3" cy="172.2" r="0.29" fill="#494d52" opacity="0.12"/>
<circle cx="199.2" cy="172.0" r="0.20" fill="#d8d6cf" opacity="0.10"/>
<circle cx="197.8" cy="199.5" r="0.75" fill="#494d52" opacity="0.12"/>
<circle cx="197.5" cy="199.2" r="0.52" fill="#d8d6cf" opacity="0.11"/>
<circle cx="170.8" cy="181.1" r="0.90" fill="#494d52" opacity="0.17"/>
<circle cx="170.5" cy="180.8" r="0.63" fill="#d8d6cf" opacity="0.15"/>
<circle cx="222.3" cy="127.4" r="0.50" fill="#494d52" opacity="0.18"/>
<circle cx="222.1" cy="127.2" r="0.35" fill="#d8d6cf" opacity="0.17"/>
<circle cx="188.8" cy="228.4" r="1.46" fill="#494d52" opacity="0.17"/>
<circle cx="188.2" cy="227.8" r="1.02" fill="#d8d6cf" opacity="0.15"/>
<circle cx="229.7" cy="201.7" r="1.50" fill="#494d52" opacity="0.19"/>
<circle cx="229.1" cy="201.1" r="1.05" fill="#d8d6cf" opacity="0.17"/>
<circle cx="209.4" cy="217.0" r="1.34" fill="#494d52" opacity="0.10"/>
<circle cx="208.9" cy="216.4" r="0.94" fill="#d8d6cf" opacity="0.09"/>
<circle cx="186.3" cy="187.0" r="0.61" fill="#494d52" opacity="0.07"/>
<circle cx="186.1" cy="186.7" r="0.42" fill="#d8d6cf" opacity="0.06"/>
<circle cx="231.4" cy="155.8" r="0.84" fill="#494d52" opacity="0.09"/>
<circle cx="231.0" cy="155.5" r="0.59" fill="#d8d6cf" opacity="0.08"/>
<circle cx="170.1" cy="222.8" r="0.48" fill="#494d52" opacity="0.06"/>
<circle cx="169.9" cy="222.7" r="0.33" fill="#d8d6cf" opacity="0.06"/>
<circle cx="171.5" cy="171.8" r="1.49" fill="#494d52" opacity="0.10"/>
<circle cx="170.9" cy="171.2" r="1.04" fill="#d8d6cf" opacity="0.09"/>
<circle cx="206.3" cy="201.6" r="1.07" fill="#494d52" opacity="0.09"/>
<circle cx="205.9" cy="201.2" r="0.75" fill="#d8d6cf" opacity="0.08"/>
<circle cx="234.3" cy="167.7" r="0.34" fill="#494d52" opacity="0.08"/>
<circle cx="234.1" cy="167.6" r="0.24" fill="#d8d6cf" opacity="0.07"/>
<circle cx="174.4" cy="154.9" r="0.63" fill="#494d52" opacity="0.16"/>
<circle cx="174.2" cy="154.7" r="0.44" fill="#d8d6cf" opacity="0.14"/>
<circle cx="176.6" cy="209.3" r="0.37" fill="#494d52" opacity="0.12"/>
<circle cx="176.5" cy="209.2" r="0.26" fill="#d8d6cf" opacity="0.11"/>
<circle cx="169.6" cy="159.7" r="1.03" fill="#494d52" opacity="0.14"/>
<circle cx="169.1" cy="159.3" r="0.72" fill="#d8d6cf" opacity="0.13"/>
<circle cx="150.8" cy="193.3" r="0.38" fill="#494d52" opacity="0.20"/>
<circle cx="150.6" cy="193.1" r="0.27" fill="#d8d6cf" opacity="0.18"/>
<circle cx="180.4" cy="146.6" r="1.35" fill="#494d52" opacity="0.13"/>
<circle cx="179.8" cy="146.0" r="0.95" fill="#d8d6cf" opacity="0.11"/>
<circle cx="249.6" cy="176.9" r="0.37" fill="#494d52" opacity="0.08"/>
<circle cx="249.4" cy="176.8" r="0.26" fill="#d8d6cf" opacity="0.07"/>
<circle cx="227.7" cy="133.4" r="1.14" fill="#494d52" opacity="0.14"/>
<circle cx="227.2" cy="133.0" r="0.80" fill="#d8d6cf" opacity="0.12"/>
<circle cx="212.6" cy="204.8" r="1.49" fill="#494d52" opacity="0.15"/>
<circle cx="212.0" cy="204.2" r="1.04" fill="#d8d6cf" opacity="0.13"/>
<circle cx="233.0" cy="136.3" r="1.36" fill="#494d52" opacity="0.19"/>
<circle cx="232.5" cy="135.7" r="0.95" fill="#d8d6cf" opacity="0.17"/>
<circle cx="186.4" cy="207.0" r="1.55" fill="#494d52" opacity="0.14"/>
<circle cx="185.8" cy="206.3" r="1.08" fill="#d8d6cf" opacity="0.13"/>
<circle cx="173.4" cy="131.0" r="0.98" fill="#494d52" opacity="0.13"/>
<circle cx="173.0" cy="130.6" r="0.68" fill="#d8d6cf" opacity="0.12"/>
<circle cx="202.1" cy="188.5" r="0.57" fill="#494d52" opacity="0.13"/>
<circle cx="201.9" cy="188.3" r="0.40" fill="#d8d6cf" opacity="0.12"/>
<circle cx="199.7" cy="180.7" r="1.03" fill="#494d52" opacity="0.06"/>
<circle cx="199.2" cy="180.3" r="0.72" fill="#d8d6cf" opacity="0.06"/>
<circle cx="172.7" cy="182.9" r="1.25" fill="#494d52" opacity="0.18"/>
<circle cx="172.2" cy="182.4" r="0.87" fill="#d8d6cf" opacity="0.16"/>
<circle cx="183.1" cy="131.2" r="0.34" fill="#494d52" opacity="0.08"/>
<circle cx="183.0" cy="131.1" r="0.24" fill="#d8d6cf" opacity="0.07"/>
<circle cx="203.5" cy="189.5" r="0.38" fill="#494d52" opacity="0.08"/>
<circle cx="203.3" cy="189.3" r="0.27" fill="#d8d6cf" opacity="0.07"/>
<circle cx="178.6" cy="226.0" r="0.61" fill="#494d52" opacity="0.09"/>
<circle cx="178.3" cy="225.8" r="0.43" fill="#d8d6cf" opacity="0.08"/>
<circle cx="240.9" cy="206.4" r="0.77" fill="#494d52" opacity="0.08"/>
<circle cx="240.6" cy="206.1" r="0.54" fill="#d8d6cf" opacity="0.07"/>
<circle cx="188.6" cy="183.3" r="0.43" fill="#494d52" opacity="0.15"/>
<circle cx="188.5" cy="183.1" r="0.30" fill="#d8d6cf" opacity="0.14"/>
<circle cx="244.7" cy="175.8" r="1.10" fill="#494d52" opacity="0.19"/>
<circle cx="244.2" cy="175.3" r="0.77" fill="#d8d6cf" opacity="0.17"/>
<circle cx="217.4" cy="126.2" r="1.04" fill="#494d52" opacity="0.07"/>
<circle cx="216.9" cy="125.8" r="0.73" fill="#d8d6cf" opacity="0.07"/>
<circle cx="205.9" cy="118.6" r="0.67" fill="#494d52" opacity="0.11"/>
<circle cx="205.6" cy="118.3" r="0.47" fill="#d8d6cf" opacity="0.09"/>
<circle cx="226.0" cy="207.7" r="1.09" fill="#494d52" opacity="0.06"/>
<circle cx="225.6" cy="207.2" r="0.76" fill="#d8d6cf" opacity="0.06"/>
<circle cx="230.1" cy="214.3" r="0.67" fill="#494d52" opacity="0.13"/>
<circle cx="229.9" cy="214.1" r="0.47" fill="#d8d6cf" opacity="0.12"/>
<circle cx="172.1" cy="129.7" r="1.08" fill="#494d52" opacity="0.10"/>
<circle cx="171.6" cy="129.3" r="0.76" fill="#d8d6cf" opacity="0.09"/>
<circle cx="208.1" cy="225.4" r="0.84" fill="#494d52" opacity="0.12"/>
<circle cx="207.7" cy="225.1" r="0.59" fill="#d8d6cf" opacity="0.11"/>
<circle cx="181.8" cy="226.9" r="0.72" fill="#494d52" opacity="0.11"/>
<circle cx="181.6" cy="226.6" r="0.50" fill="#d8d6cf" opacity="0.10"/>
<circle cx="159.1" cy="143.9" r="1.27" fill="#494d52" opacity="0.11"/>
<circle cx="158.6" cy="143.3" r="0.89" fill="#d8d6cf" opacity="0.10"/>
<circle cx="191.8" cy="161.0" r="0.82" fill="#494d52" opacity="0.13"/>
<circle cx="191.5" cy="160.6" r="0.57" fill="#d8d6cf" opacity="0.12"/>
<circle cx="194.8" cy="122.5" r="1.47" fill="#494d52" opacity="0.17"/>
<circle cx="194.2" cy="121.9" r="1.03" fill="#d8d6cf" opacity="0.16"/>
<circle cx="202.3" cy="215.5" r="0.43" fill="#494d52" opacity="0.13"/>
<circle cx="202.1" cy="215.4" r="0.30" fill="#d8d6cf" opacity="0.11"/>
<circle cx="201.8" cy="165.2" r="0.33" fill="#494d52" opacity="0.20"/>
<circle cx="201.7" cy="165.1" r="0.23" fill="#d8d6cf" opacity="0.18"/>
<circle cx="207.7" cy="135.2" r="1.08" fill="#494d52" opacity="0.15"/>
<circle cx="207.2" cy="134.8" r="0.76" fill="#d8d6cf" opacity="0.14"/>
<circle cx="253.7" cy="162.1" r="1.15" fill="#494d52" opacity="0.12"/>
<circle cx="253.3" cy="161.6" r="0.80" fill="#d8d6cf" opacity="0.11"/>
<circle cx="167.4" cy="216.1" r="0.98" fill="#494d52" opacity="0.19"/>
<circle cx="167.0" cy="215.7" r="0.69" fill="#d8d6cf" opacity="0.17"/>
<circle cx="214.0" cy="144.0" r="0.40" fill="#494d52" opacity="0.15"/>
<circle cx="213.8" cy="143.8" r="0.28" fill="#d8d6cf" opacity="0.14"/>
<circle cx="219.4" cy="136.3" r="1.46" fill="#494d52" opacity="0.09"/>
<circle cx="218.8" cy="135.7" r="1.02" fill="#d8d6cf" opacity="0.08"/>
<circle cx="218.3" cy="215.0" r="1.11" fill="#494d52" opacity="0.20"/>
<circle cx="217.8" cy="214.5" r="0.78" fill="#d8d6cf" opacity="0.18"/>
<circle cx="145.2" cy="183.6" r="1.02" fill="#494d52" opacity="0.16"/>
<circle cx="144.8" cy="183.2" r="0.71" fill="#d8d6cf" opacity="0.14"/>
<circle cx="198.8" cy="213.3" r="1.04" fill="#494d52" opacity="0.18"/>
<circle cx="198.4" cy="212.8" r="0.73" fill="#d8d6cf" opacity="0.17"/>
<circle cx="195.7" cy="215.9" r="0.75" fill="#494d52" opacity="0.08"/>
<circle cx="195.4" cy="215.6" r="0.52" fill="#d8d6cf" opacity="0.07"/>
<circle cx="225.1" cy="226.6" r="0.57" fill="#494d52" opacity="0.14"/>
<circle cx="224.9" cy="226.4" r="0.40" fill="#d8d6cf" opacity="0.12"/>
<circle cx="196.4" cy="162.1" r="1.54" fill="#494d52" opacity="0.13"/>
<circle cx="195.8" cy="161.5" r="1.08" fill="#d8d6cf" opacity="0.12"/>
<circle cx="188.1" cy="182.5" r="1.34" fill="#494d52" opacity="0.17"/>
<circle cx="187.6" cy="182.0" r="0.94" fill="#d8d6cf" opacity="0.15"/>
<circle cx="171.4" cy="220.4" r="1.46" fill="#494d52" opacity="0.12"/>
<circle cx="170.8" cy="219.8" r="1.02" fill="#d8d6cf" opacity="0.11"/>
<circle cx="156.6" cy="171.7" r="0.68" fill="#494d52" opacity="0.16"/>
<circle cx="156.3" cy="171.4" r="0.48" fill="#d8d6cf" opacity="0.14"/>
<circle cx="173.4" cy="165.8" r="1.33" fill="#494d52" opacity="0.08"/>
<circle cx="172.8" cy="165.3" r="0.93" fill="#d8d6cf" opacity="0.07"/>
<circle cx="220.6" cy="122.1" r="1.38" fill="#494d52" opacity="0.10"/>
<circle cx="220.1" cy="121.6" r="0.96" fill="#d8d6cf" opacity="0.09"/>
<circle cx="218.4" cy="215.7" r="0.82" fill="#494d52" opacity="0.18"/>
<circle cx="218.0" cy="215.4" r="0.58" fill="#d8d6cf" opacity="0.16"/>
<circle cx="230.8" cy="144.1" r="0.49" fill="#494d52" opacity="0.16"/>
<circle cx="230.6" cy="143.9" r="0.35" fill="#d8d6cf" opacity="0.15"/>
<circle cx="185.2" cy="214.5" r="0.87" fill="#494d52" opacity="0.16"/>
<circle cx="184.9" cy="214.2" r="0.61" fill="#d8d6cf" opacity="0.14"/>
<circle cx="147.5" cy="196.5" r="0.76" fill="#494d52" opacity="0.06"/>
<circle cx="147.2" cy="196.2" r="0.53" fill="#d8d6cf" opacity="0.06"/>
<circle cx="223.3" cy="220.2" r="1.30" fill="#494d52" opacity="0.08"/>
<circle cx="222.7" cy="219.7" r="0.91" fill="#d8d6cf" opacity="0.07"/>
<circle cx="200.0" cy="144.7" r="1.24" fill="#494d52" opacity="0.07"/>
<circle cx="199.5" cy="144.2" r="0.87" fill="#d8d6cf" opacity="0.07"/>
<circle cx="161.9" cy="172.4" r="0.68" fill="#494d52" opacity="0.11"/>
<circle cx="161.7" cy="172.1" r="0.47" fill="#d8d6cf" opacity="0.10"/>
<circle cx="204.5" cy="169.7" r="1.53" fill="#494d52" opacity="0.11"/>
<circle cx="203.9" cy="169.1" r="1.07" fill="#d8d6cf" opacity="0.10"/>
<circle cx="236.5" cy="198.5" r="1.53" fill="#494d52" opacity="0.11"/>
<circle cx="235.9" cy="197.9" r="1.07" fill="#d8d6cf" opacity="0.10"/>
<circle cx="225.9" cy="150.2" r="0.97" fill="#494d52" opacity="0.09"/>
<circle cx="225.5" cy="149.8" r="0.68" fill="#d8d6cf" opacity="0.08"/>
<circle cx="218.0" cy="229.5" r="0.93" fill="#494d52" opacity="0.18"/>
<circle cx="217.6" cy="229.2" r="0.65" fill="#d8d6cf" opacity="0.16"/>
<circle cx="159.2" cy="203.8" r="0.93" fill="#494d52" opacity="0.10"/>
<circle cx="158.8" cy="203.5" r="0.65" fill="#d8d6cf" opacity="0.09"/>
<circle cx="196.8" cy="130.9" r="0.46" fill="#494d52" opacity="0.10"/>
<circle cx="196.6" cy="130.8" r="0.32" fill="#d8d6cf" opacity="0.09"/>
<circle cx="229.0" cy="133.6" r="0.69" fill="#494d52" opacity="0.11"/>
<circle cx="228.8" cy="133.3" r="0.48" fill="#d8d6cf" opacity="0.10"/>
<circle cx="224.7" cy="159.5" r="1.03" fill="#494d52" opacity="0.17"/>
<circle cx="224.3" cy="159.1" r="0.72" fill="#d8d6cf" opacity="0.15"/>
<circle cx="222.2" cy="176.2" r="1.25" fill="#494d52" opacity="0.07"/>
<circle cx="221.7" cy="175.7" r="0.87" fill="#d8d6cf" opacity="0.07"/>
<circle cx="253.8" cy="174.5" r="0.63" fill="#494d52" opacity="0.09"/>
<circle cx="253.5" cy="174.3" r="0.44" fill="#d8d6cf" opacity="0.08"/>
<circle cx="169.9" cy="134.4" r="0.31" fill="#494d52" opacity="0.11"/>
<circle cx="169.8" cy="134.3" r="0.21" fill="#d8d6cf" opacity="0.10"/>
<circle cx="150.4" cy="194.4" r="1.42" fill="#494d52" opacity="0.11"/>
<circle cx="149.8" cy="193.8" r="0.99" fill="#d8d6cf" opacity="0.10"/>
<circle cx="245.7" cy="148.1" r="1.09" fill="#494d52" opacity="0.17"/>
<circle cx="245.2" cy="147.7" r="0.76" fill="#d8d6cf" opacity="0.15"/>
<circle cx="248.5" cy="190.8" r="0.79" fill="#494d52" opacity="0.19"/>
<circle cx="248.2" cy="190.5" r="0.55" fill="#d8d6cf" opacity="0.17"/>
<circle cx="185.4" cy="224.5" r="1.28" fill="#494d52" opacity="0.17"/>
<circle cx="184.9" cy="224.0" r="0.89" fill="#d8d6cf" opacity="0.16"/>
<circle cx="242.2" cy="186.0" r="1.07" fill="#494d52" opacity="0.07"/>
<circle cx="241.7" cy="185.6" r="0.75" fill="#d8d6cf" opacity="0.06"/>
<path d="M 196.9 213.4 Q 225.4 211.6 252.2 212.7" fill="none" stroke="#dcd8cf" stroke-width="0.42" opacity="0.23" stroke-linecap="round"/>
<path d="M 196.9 213.4 Q 231.1 221.1 260.6 230.0" fill="none" stroke="#dcd8cf" stroke-width="0.53" opacity="0.16" stroke-linecap="round"/>
<path d="M 196.9 213.4 Q 222.2 220.3 251.0 228.9" fill="none" stroke="#dcd8cf" stroke-width="0.55" opacity="0.17" stroke-linecap="round"/>
<path d="M 196.9 213.4 Q 225.3 227.9 250.9 243.0" fill="none" stroke="#dcd8cf" stroke-width="0.41" opacity="0.14" stroke-linecap="round"/>
<path d="M 196.9 213.4 Q 223.2 236.2 247.2 255.1" fill="none" stroke="#dcd8cf" stroke-width="0.55" opacity="0.23" stroke-linecap="round"/>
<path d="M 196.9 213.4 Q 216.3 229.3 231.3 246.7" fill="none" stroke="#dcd8cf" stroke-width="0.29" opacity="0.12" stroke-linecap="round"/>
<path d="M 196.9 213.4 Q 213.4 244.6 227.4 273.7" fill="none" stroke="#dcd8cf" stroke-width="0.40" opacity="0.17" stroke-linecap="round"/>
<path d="M 196.9 213.4 Q 204.6 240.4 212.1 266.3" fill="none" stroke="#dcd8cf" stroke-width="0.52" opacity="0.27" stroke-linecap="round"/>
<path d="M 196.9 213.4 Q 199.7 249.0 206.5 283.3" fill="none" stroke="#dcd8cf" stroke-width="0.44" opacity="0.23" stroke-linecap="round"/>
<path d="M 196.9 213.4 Q 196.7 235.9 198.3 261.5" fill="none" stroke="#dcd8cf" stroke-width="0.36" opacity="0.14" stroke-linecap="round"/>
<path d="M 196.9 213.4 Q 188.4 241.3 180.4 273.9" fill="none" stroke="#dcd8cf" stroke-width="0.54" opacity="0.18" stroke-linecap="round"/>
<path d="M 196.9 213.4 Q 181.7 249.2 169.3 284.2" fill="none" stroke="#dcd8cf" stroke-width="0.53" opacity="0.18" stroke-linecap="round"/>
<path d="M 196.9 213.4 Q 182.5 237.8 163.9 261.0" fill="none" stroke="#dcd8cf" stroke-width="0.42" opacity="0.21" stroke-linecap="round"/>
<path d="M 196.9 213.4 Q 180.5 232.5 161.7 252.1" fill="none" stroke="#dcd8cf" stroke-width="0.31" opacity="0.12" stroke-linecap="round"/>
<path d="M 196.9 213.4 Q 176.1 235.0 151.7 260.6" fill="none" stroke="#dcd8cf" stroke-width="0.56" opacity="0.14" stroke-linecap="round"/>
<path d="M 196.9 213.4 Q 161.3 230.2 127.7 246.2" fill="none" stroke="#dcd8cf" stroke-width="0.38" opacity="0.12" stroke-linecap="round"/>
<path d="M 196.9 213.4 Q 171.4 226.0 142.3 240.2" fill="none" stroke="#dcd8cf" stroke-width="0.31" opacity="0.14" stroke-linecap="round"/>
<path d="M 196.9 213.4 Q 161.5 223.1 126.2 227.9" fill="none" stroke="#dcd8cf" stroke-width="0.48" opacity="0.18" stroke-linecap="round"/>
<path d="M 188.8 177.5 Q 198.1 180.2 211.0 179.3" fill="none" stroke="#dcd8cf" stroke-width="0.33" opacity="0.11" stroke-linecap="round"/>
<path d="M 188.8 177.5 Q 202.7 182.6 219.1 188.5" fill="none" stroke="#dcd8cf" stroke-width="0.43" opacity="0.21" stroke-linecap="round"/>
<path d="M 188.8 177.5 Q 196.0 186.0 207.0 190.5" fill="none" stroke="#dcd8cf" stroke-width="0.43" opacity="0.12" stroke-linecap="round"/>
<path d="M 188.8 177.5 Q 200.2 188.4 209.7 198.3" fill="none" stroke="#dcd8cf" stroke-width="0.31" opacity="0.20" stroke-linecap="round"/>
<path d="M 188.8 177.5 Q 197.6 194.5 204.4 206.8" fill="none" stroke="#dcd8cf" stroke-width="0.54" opacity="0.18" stroke-linecap="round"/>
<path d="M 188.8 177.5 Q 189.0 192.4 190.7 208.0" fill="none" stroke="#dcd8cf" stroke-width="0.31" opacity="0.22" stroke-linecap="round"/>
<path d="M 188.8 177.5 Q 187.6 189.5 185.1 202.6" fill="none" stroke="#dcd8cf" stroke-width="0.30" opacity="0.21" stroke-linecap="round"/>
<path d="M 188.8 177.5 Q 186.7 185.8 180.0 197.7" fill="none" stroke="#dcd8cf" stroke-width="0.41" opacity="0.21" stroke-linecap="round"/>
<path d="M 188.8 177.5 Q 181.2 189.8 170.0 202.9" fill="none" stroke="#dcd8cf" stroke-width="0.51" opacity="0.19" stroke-linecap="round"/>
<path d="M 188.8 177.5 Q 179.9 184.7 168.7 190.5" fill="none" stroke="#dcd8cf" stroke-width="0.37" opacity="0.12" stroke-linecap="round"/>
<path d="M 188.8 177.5 Q 178.1 181.1 168.5 186.0" fill="none" stroke="#dcd8cf" stroke-width="0.35" opacity="0.10" stroke-linecap="round"/>
<path d="M 178.9 176.2 Q 188.5 177.0 194.1 174.6" fill="none" stroke="#dcd8cf" stroke-width="0.43" opacity="0.09" stroke-linecap="round"/>
<path d="M 178.9 176.2 Q 188.0 176.7 193.7 181.6" fill="none" stroke="#dcd8cf" stroke-width="0.32" opacity="0.20" stroke-linecap="round"/>
<path d="M 178.9 176.2 Q 184.7 185.2 189.7 191.1" fill="none" stroke="#dcd8cf" stroke-width="0.44" opacity="0.12" stroke-linecap="round"/>
<path d="M 178.9 176.2 Q 182.1 184.1 182.2 189.5" fill="none" stroke="#dcd8cf" stroke-width="0.40" opacity="0.20" stroke-linecap="round"/>
<path d="M 178.9 176.2 Q 179.3 183.9 176.1 192.2" fill="none" stroke="#dcd8cf" stroke-width="0.47" opacity="0.14" stroke-linecap="round"/>
<path d="M 178.9 176.2 Q 172.8 186.5 168.0 191.9" fill="none" stroke="#dcd8cf" stroke-width="0.40" opacity="0.11" stroke-linecap="round"/>
<path d="M 178.9 176.2 Q 171.4 179.0 165.1 182.2" fill="none" stroke="#dcd8cf" stroke-width="0.50" opacity="0.17" stroke-linecap="round"/>
<path d="M 169.0 157.6 Q 176.8 158.6 179.9 157.0" fill="none" stroke="#dcd8cf" stroke-width="0.36" opacity="0.12" stroke-linecap="round"/>
<path d="M 169.0 157.6 Q 170.7 158.5 175.7 163.4" fill="none" stroke="#dcd8cf" stroke-width="0.46" opacity="0.15" stroke-linecap="round"/>
<path d="M 169.0 157.6 Q 170.5 162.4 169.1 168.3" fill="none" stroke="#dcd8cf" stroke-width="0.47" opacity="0.11" stroke-linecap="round"/>
<path d="M 169.0 157.6 Q 166.5 163.3 162.9 164.9" fill="none" stroke="#dcd8cf" stroke-width="0.44" opacity="0.13" stroke-linecap="round"/>
<path d="M 169.0 157.6 Q 166.8 158.8 162.1 157.2" fill="none" stroke="#dcd8cf" stroke-width="0.49" opacity="0.09" stroke-linecap="round"/>
<path d="M 169.0 157.6 Q 167.4 152.3 162.9 151.2" fill="none" stroke="#dcd8cf" stroke-width="0.33" opacity="0.20" stroke-linecap="round"/>
<circle cx="196.9" cy="213.4" r="5.8" fill="#dcd8cf" opacity="0.14"/>
<circle cx="196.9" cy="213.4" r="3.4" fill="#e7e4dc" opacity="0.95"/>
<circle cx="197.3" cy="213.8" r="1.0" fill="#494d52" opacity="0.18"/>
<circle cx="188.8" cy="177.5" r="4.7" fill="#dcd8cf" opacity="0.14"/>
<circle cx="188.8" cy="177.5" r="2.8" fill="#e7e4dc" opacity="0.95"/>
<circle cx="189.2" cy="177.8" r="0.8" fill="#494d52" opacity="0.18"/>
<circle cx="178.9" cy="176.2" r="3.0" fill="#dcd8cf" opacity="0.14"/>
<circle cx="178.9" cy="176.2" r="1.7" fill="#e7e4dc" opacity="0.95"/>
<circle cx="179.1" cy="176.4" r="0.5" fill="#494d52" opacity="0.18"/>
<circle cx="169.0" cy="157.6" r="2.5" fill="#dcd8cf" opacity="0.14"/>
<circle cx="169.0" cy="157.6" r="1.5" fill="#e7e4dc" opacity="0.95"/>
<circle cx="169.2" cy="157.8" r="0.4" fill="#494d52" opacity="0.18"/>
<path d="M 200.0 113.0 A 62 62 0 0 1 200.0 237.0 A 57.7 62 0 0 0 200.0 113.0 Z" fill="#161a20" opacity="0.12"/>
<path d="M 200.0 113.0 A 62 62 0 0 1 200.0 237.0 A 50.8 62 0 0 0 200.0 113.0 Z" fill="#161a20" opacity="0.10"/>
<path d="M 200.0 113.0 A 62 62 0 0 0 200.0 237.0 A 56.4 62 0 0 1 200.0 113.0 Z" fill="#eef0f2" opacity="0.07"/>
</g>
<circle cx="200" cy="175" r="62" fill="none" stroke="#74767a" stroke-width="0.87" opacity="0.7"/>
</g>
</svg>
