<svg xmlns="http://www.w3.org/2000/svg" viewBox="610 348 19 16" width="19" height="16">
<g id="pallas-small"><clipPath id="pa620_356"><path d="M628.3 354.9 Q628.5 356.0 628.5 357.1 Q628.4 358.2 627.8 359.3 Q627.3 360.3 626.2 361.0 Q625.1 361.8 623.8 362.1 Q622.6 362.5 621.3 362.7 Q620.0 363.0 618.6 362.9 Q617.3 362.8 616.1 362.2 Q615.0 361.6 614.2 360.8 Q613.3 360.0 612.6 359.1 Q611.9 358.2 611.6 357.1 Q611.3 356.0 611.4 354.9 Q611.5 353.7 612.2 352.8 Q612.9 351.8 614.0 351.1 Q615.0 350.4 616.2 349.9 Q617.4 349.5 618.7 349.2 Q620.0 349.0 621.3 349.2 Q622.6 349.4 623.8 349.9 Q624.9 350.4 626.0 351.1 Q627.0 351.8 627.5 352.8 Q628.1 353.8 628.3 354.9 Z"/></clipPath>
<g clip-path="url(#pa620_356)">
<rect x="609.8" y="345.8" width="20.4" height="20.4" fill="#a9adae"/>
<circle cx="618.7" cy="358.1" r="0.6" fill="#898d8e" opacity="0.26"/><circle cx="618.8" cy="357.1" r="0.5" fill="#898d8e" opacity="0.25"/><circle cx="622.0" cy="356.8" r="0.6" fill="#c8cbcc" opacity="0.27"/><circle cx="625.4" cy="354.5" r="1.1" fill="#898d8e" opacity="0.25"/><circle cx="621.5" cy="355.8" r="0.8" fill="#898d8e" opacity="0.22"/><circle cx="623.0" cy="358.2" r="0.6" fill="#898d8e" opacity="0.27"/><circle cx="620.9" cy="357.7" r="1.1" fill="#898d8e" opacity="0.27"/><circle cx="614.7" cy="356.1" r="1.0" fill="#c8cbcc" opacity="0.31"/><circle cx="617.7" cy="358.3" r="1.2" fill="#898d8e" opacity="0.23"/><circle cx="615.3" cy="354.1" r="1.2" fill="#c8cbcc" opacity="0.23"/><circle cx="622.5" cy="355.7" r="0.7" fill="#c8cbcc" opacity="0.24"/><circle cx="624.3" cy="354.4" r="1.3" fill="#898d8e" opacity="0.27"/><circle cx="622.9" cy="353.7" r="1.1" fill="#c8cbcc" opacity="0.27"/><circle cx="613.6" cy="357.5" r="1.0" fill="#c8cbcc" opacity="0.28"/><circle cx="625.6" cy="357.8" r="0.8" fill="#c8cbcc" opacity="0.25"/><circle cx="619.5" cy="355.2" r="0.9" fill="#c8cbcc" opacity="0.27"/><circle cx="616.6" cy="356.1" r="0.6" fill="#c8cbcc" opacity="0.23"/><circle cx="614.8" cy="359.5" r="0.7" fill="#898d8e" opacity="0.25"/><circle cx="619.5" cy="358.2" r="1.4" fill="#c8cbcc" opacity="0.23"/><circle cx="616.3" cy="357.8" r="1.5" fill="#c8cbcc" opacity="0.22"/><circle cx="621.6" cy="358.6" r="0.5" fill="#898d8e" opacity="0.3"/><circle cx="621.6" cy="358.9" r="0.9" fill="#898d8e" opacity="0.24"/>
<circle cx="618.7" cy="355.6" r="1.2" fill="#9ca0a1" opacity="0.65"/><circle cx="618.7" cy="355.6" r="1.2" fill="none" stroke="#717576" stroke-width="0.5" opacity="0.55"/><circle cx="618.4" cy="355.3" r="0.6" fill="#c4c7c8" opacity="0.4"/>
</g>
<path d="M628.3 354.9 Q628.5 356.0 628.5 357.1 Q628.4 358.2 627.8 359.3 Q627.3 360.3 626.2 361.0 Q625.1 361.8 623.8 362.1 Q622.6 362.5 621.3 362.7 Q620.0 363.0 618.6 362.9 Q617.3 362.8 616.1 362.2 Q615.0 361.6 614.2 360.8 Q613.3 360.0 612.6 359.1 Q611.9 358.2 611.6 357.1 Q611.3 356.0 611.4 354.9 Q611.5 353.7 612.2 352.8 Q612.9 351.8 614.0 351.1 Q615.0 350.4 616.2 349.9 Q617.4 349.5 618.7 349.2 Q620.0 349.0 621.3 349.2 Q622.6 349.4 623.8 349.9 Q624.9 350.4 626.0 351.1 Q627.0 351.8 627.5 352.8 Q628.1 353.8 628.3 354.9 Z" fill="none" stroke="#6f7374" stroke-width="0.6" opacity="0.72"/></g>
</svg>