<svg xmlns="http://www.w3.org/2000/svg" viewBox="554 114 131 108" width="131" height="108">
<g id="pallas-large"><clipPath id="pa620_168"><path d="M682.4 159.9 Q684.0 168.0 683.7 176.4 Q683.3 184.9 679.1 192.8 Q674.9 200.7 666.6 206.0 Q658.4 211.3 648.9 214.1 Q639.4 216.9 629.7 218.7 Q620.0 220.5 609.8 219.9 Q599.6 219.4 591.0 214.9 Q582.4 210.5 576.1 204.2 Q569.8 197.9 564.5 191.1 Q559.1 184.2 556.9 176.1 Q554.7 168.0 555.4 159.5 Q556.1 151.0 561.4 143.6 Q566.7 136.2 574.5 130.9 Q582.4 125.5 591.5 122.3 Q600.6 119.1 610.3 117.0 Q620.0 115.0 629.9 116.5 Q639.8 118.1 648.5 122.0 Q657.2 126.0 665.0 131.3 Q672.8 136.5 676.8 144.2 Q680.9 151.8 682.4 159.9 Z"/></clipPath>
<g clip-path="url(#pa620_168)">
<rect x="543.2" y="91.2" width="153.6" height="153.6" fill="#a9adae"/>
<ellipse cx="607.2" cy="158.4" rx="61.4" ry="51.2" fill="#b7babb" opacity="0.16" transform="rotate(0 607.2 158.4)"/>
<ellipse cx="634.1" cy="179.5" rx="51.2" ry="46.1" fill="#95999a" opacity="0.16" transform="rotate(0 634.1 179.5)"/>
<circle cx="609.2" cy="185.7" r="0.5" fill="#787c7d" opacity="0.17"/><circle cx="659.3" cy="189.7" r="0.7" fill="#787c7d" opacity="0.11"/><circle cx="593.5" cy="180.3" r="0.9" fill="#787c7d" opacity="0.17"/><circle cx="640.9" cy="184.9" r="1.1" fill="#787c7d" opacity="0.1"/><circle cx="608.1" cy="162.2" r="0.5" fill="#898d8e" opacity="0.19"/><circle cx="614.2" cy="186.7" r="1.1" fill="#898d8e" opacity="0.16"/><circle cx="611.7" cy="153.1" r="1.1" fill="#787c7d" opacity="0.13"/><circle cx="605.1" cy="164.2" r="1.1" fill="#898d8e" opacity="0.15"/><circle cx="566.4" cy="159.1" r="1.1" fill="#c8cbcc" opacity="0.15"/><circle cx="603.0" cy="211.2" r="1.3" fill="#787c7d" opacity="0.11"/><circle cx="606.4" cy="202.0" r="1.2" fill="#c8cbcc" opacity="0.13"/><circle cx="641.2" cy="165.8" r="0.7" fill="#c8cbcc" opacity="0.13"/><circle cx="656.8" cy="154.5" r="0.6" fill="#787c7d" opacity="0.14"/><circle cx="633.7" cy="123.3" r="1.2" fill="#c8cbcc" opacity="0.16"/><circle cx="583.2" cy="151.5" r="1.4" fill="#898d8e" opacity="0.15"/><circle cx="612.1" cy="157.2" r="0.8" fill="#787c7d" opacity="0.15"/><circle cx="602.6" cy="137.1" r="0.9" fill="#787c7d" opacity="0.15"/><circle cx="661.8" cy="172.9" r="1.1" fill="#898d8e" opacity="0.15"/><circle cx="626.6" cy="194.7" r="0.7" fill="#787c7d" opacity="0.13"/><circle cx="632.2" cy="157.6" r="0.9" fill="#c8cbcc" opacity="0.13"/><circle cx="646.6" cy="193.3" r="0.8" fill="#787c7d" opacity="0.13"/><circle cx="583.1" cy="205.1" r="0.7" fill="#898d8e" opacity="0.12"/><circle cx="623.4" cy="192.4" r="1.3" fill="#c8cbcc" opacity="0.12"/><circle cx="615.3" cy="187.0" r="0.9" fill="#787c7d" opacity="0.15"/><circle cx="669.4" cy="155.7" r="1.5" fill="#787c7d" opacity="0.15"/><circle cx="617.3" cy="133.7" r="1.3" fill="#787c7d" opacity="0.13"/><circle cx="603.9" cy="177.7" r="0.9" fill="#787c7d" opacity="0.12"/><circle cx="661.0" cy="164.7" r="0.8" fill="#898d8e" opacity="0.11"/><circle cx="644.1" cy="168.0" r="1.4" fill="#898d8e" opacity="0.16"/><circle cx="645.6" cy="177.9" r="0.6" fill="#c8cbcc" opacity="0.13"/><circle cx="598.5" cy="193.1" r="0.6" fill="#898d8e" opacity="0.15"/><circle cx="662.6" cy="163.1" r="0.6" fill="#c8cbcc" opacity="0.11"/><circle cx="602.4" cy="189.9" r="0.7" fill="#787c7d" opacity="0.1"/><circle cx="663.0" cy="156.8" r="1.2" fill="#898d8e" opacity="0.19"/><circle cx="621.7" cy="140.2" r="1.4" fill="#787c7d" opacity="0.16"/><circle cx="617.4" cy="198.8" r="0.9" fill="#898d8e" opacity="0.12"/><circle cx="577.5" cy="158.7" r="0.7" fill="#787c7d" opacity="0.16"/><circle cx="677.1" cy="163.6" r="1.3" fill="#898d8e" opacity="0.17"/><circle cx="626.5" cy="204.2" r="1.2" fill="#c8cbcc" opacity="0.2"/><circle cx="630.6" cy="134.1" r="1.2" fill="#898d8e" opacity="0.2"/><circle cx="563.2" cy="184.0" r="1.5" fill="#c8cbcc" opacity="0.14"/><circle cx="625.5" cy="191.8" r="0.8" fill="#898d8e" opacity="0.15"/><circle cx="668.3" cy="164.3" r="1.0" fill="#898d8e" opacity="0.17"/><circle cx="625.5" cy="153.9" r="0.6" fill="#787c7d" opacity="0.13"/><circle cx="613.4" cy="145.9" r="0.9" fill="#898d8e" opacity="0.16"/><circle cx="671.6" cy="193.7" r="0.9" fill="#787c7d" opacity="0.13"/><circle cx="669.9" cy="153.8" r="1.5" fill="#898d8e" opacity="0.1"/><circle cx="584.4" cy="149.2" r="0.6" fill="#787c7d" opacity="0.17"/><circle cx="669.9" cy="162.9" r="0.7" fill="#c8cbcc" opacity="0.15"/><circle cx="675.0" cy="174.1" r="1.1" fill="#787c7d" opacity="0.14"/><circle cx="657.4" cy="154.4" r="1.3" fill="#898d8e" opacity="0.12"/><circle cx="619.6" cy="195.6" r="1.3" fill="#898d8e" opacity="0.13"/><circle cx="565.5" cy="155.2" r="1.4" fill="#898d8e" opacity="0.14"/><circle cx="574.2" cy="178.1" r="0.9" fill="#787c7d" opacity="0.17"/><circle cx="574.7" cy="167.6" r="1.0" fill="#787c7d" opacity="0.17"/><circle cx="628.0" cy="128.8" r="0.7" fill="#898d8e" opacity="0.15"/><circle cx="612.8" cy="130.5" r="1.2" fill="#c8cbcc" opacity="0.15"/><circle cx="565.6" cy="172.9" r="0.6" fill="#787c7d" opacity="0.12"/><circle cx="638.7" cy="172.2" r="1.1" fill="#c8cbcc" opacity="0.18"/><circle cx="655.2" cy="150.3" r="1.5" fill="#787c7d" opacity="0.15"/><circle cx="630.2" cy="193.5" r="1.0" fill="#787c7d" opacity="0.14"/><circle cx="668.4" cy="152.7" r="1.4" fill="#c8cbcc" opacity="0.19"/><circle cx="632.2" cy="200.6" r="0.6" fill="#c8cbcc" opacity="0.14"/><circle cx="647.3" cy="179.0" r="0.7" fill="#898d8e" opacity="0.13"/><circle cx="659.3" cy="199.2" r="1.1" fill="#787c7d" opacity="0.13"/><circle cx="619.6" cy="186.9" r="0.7" fill="#c8cbcc" opacity="0.2"/><circle cx="585.2" cy="189.2" r="1.3" fill="#787c7d" opacity="0.11"/><circle cx="579.5" cy="183.2" r="0.9" fill="#c8cbcc" opacity="0.14"/><circle cx="651.4" cy="184.9" r="1.1" fill="#c8cbcc" opacity="0.14"/><circle cx="655.5" cy="171.3" r="0.8" fill="#787c7d" opacity="0.18"/><circle cx="665.2" cy="199.8" r="1.5" fill="#898d8e" opacity="0.11"/><circle cx="618.8" cy="178.1" r="0.8" fill="#898d8e" opacity="0.11"/><circle cx="567.7" cy="190.8" r="0.9" fill="#c8cbcc" opacity="0.15"/><circle cx="576.5" cy="164.7" r="0.6" fill="#c8cbcc" opacity="0.11"/><circle cx="604.7" cy="137.3" r="0.8" fill="#898d8e" opacity="0.1"/><circle cx="646.9" cy="181.7" r="1.4" fill="#787c7d" opacity="0.11"/><circle cx="647.2" cy="142.0" r="1.5" fill="#c8cbcc" opacity="0.14"/><circle cx="662.2" cy="147.7" r="1.0" fill="#898d8e" opacity="0.12"/><circle cx="639.3" cy="181.0" r="0.7" fill="#898d8e" opacity="0.19"/><circle cx="588.8" cy="141.2" r="0.8" fill="#898d8e" opacity="0.15"/><circle cx="636.0" cy="195.0" r="1.5" fill="#898d8e" opacity="0.1"/><circle cx="663.8" cy="172.2" r="1.0" fill="#898d8e" opacity="0.12"/><circle cx="572.4" cy="181.5" r="0.9" fill="#787c7d" opacity="0.14"/><circle cx="639.7" cy="140.5" r="0.8" fill="#787c7d" opacity="0.12"/><circle cx="623.5" cy="190.5" r="1.2" fill="#787c7d" opacity="0.11"/><circle cx="681.4" cy="164.7" r="0.5" fill="#898d8e" opacity="0.16"/><circle cx="649.7" cy="145.1" r="0.6" fill="#898d8e" opacity="0.18"/><circle cx="654.9" cy="137.7" r="1.1" fill="#c8cbcc" opacity="0.17"/><circle cx="645.7" cy="174.1" r="0.9" fill="#c8cbcc" opacity="0.13"/><circle cx="679.5" cy="156.1" r="0.8" fill="#787c7d" opacity="0.1"/><circle cx="641.4" cy="152.0" r="0.5" fill="#898d8e" opacity="0.14"/><circle cx="576.5" cy="173.7" r="0.7" fill="#898d8e" opacity="0.18"/><circle cx="667.2" cy="192.9" r="0.9" fill="#898d8e" opacity="0.1"/><circle cx="653.9" cy="172.0" r="0.6" fill="#898d8e" opacity="0.2"/><circle cx="634.8" cy="152.0" r="1.3" fill="#787c7d" opacity="0.15"/><circle cx="624.7" cy="125.0" r="0.6" fill="#c8cbcc" opacity="0.17"/><circle cx="611.9" cy="159.7" r="1.4" fill="#787c7d" opacity="0.15"/><circle cx="614.3" cy="122.4" r="1.4" fill="#898d8e" opacity="0.18"/><circle cx="569.1" cy="148.9" r="1.3" fill="#898d8e" opacity="0.16"/><circle cx="660.1" cy="141.8" r="1.1" fill="#787c7d" opacity="0.11"/><circle cx="667.8" cy="178.6" r="0.9" fill="#898d8e" opacity="0.15"/><circle cx="628.1" cy="170.2" r="1.2" fill="#787c7d" opacity="0.14"/><circle cx="675.4" cy="168.9" r="1.4" fill="#787c7d" opacity="0.17"/><circle cx="657.7" cy="188.2" r="1.2" fill="#787c7d" opacity="0.12"/><circle cx="648.6" cy="179.8" r="1.3" fill="#787c7d" opacity="0.12"/><circle cx="595.2" cy="140.1" r="0.6" fill="#c8cbcc" opacity="0.19"/><circle cx="616.9" cy="178.7" r="1.1" fill="#787c7d" opacity="0.11"/><circle cx="638.8" cy="188.5" r="1.2" fill="#787c7d" opacity="0.15"/><circle cx="648.8" cy="194.3" r="0.8" fill="#c8cbcc" opacity="0.17"/><circle cx="601.9" cy="128.9" r="1.2" fill="#c8cbcc" opacity="0.13"/><circle cx="566.9" cy="177.5" r="0.7" fill="#787c7d" opacity="0.18"/><circle cx="627.6" cy="165.4" r="0.6" fill="#c8cbcc" opacity="0.15"/><circle cx="681.9" cy="166.3" r="0.7" fill="#c8cbcc" opacity="0.19"/><circle cx="631.6" cy="205.6" r="1.2" fill="#898d8e" opacity="0.13"/><circle cx="589.4" cy="198.5" r="1.0" fill="#787c7d" opacity="0.17"/><circle cx="611.4" cy="144.6" r="0.9" fill="#c8cbcc" opacity="0.12"/><circle cx="668.7" cy="155.0" r="0.8" fill="#c8cbcc" opacity="0.11"/><circle cx="600.6" cy="191.8" r="0.5" fill="#c8cbcc" opacity="0.18"/><circle cx="631.4" cy="153.1" r="1.2" fill="#898d8e" opacity="0.19"/><circle cx="610.6" cy="198.1" r="0.9" fill="#c8cbcc" opacity="0.19"/><circle cx="673.0" cy="190.6" r="1.4" fill="#c8cbcc" opacity="0.13"/><circle cx="667.9" cy="181.2" r="1.4" fill="#787c7d" opacity="0.12"/><circle cx="615.6" cy="204.2" r="1.3" fill="#898d8e" opacity="0.18"/><circle cx="610.5" cy="171.8" r="0.9" fill="#787c7d" opacity="0.17"/><circle cx="593.6" cy="160.3" r="0.5" fill="#898d8e" opacity="0.17"/><circle cx="568.7" cy="181.4" r="1.4" fill="#787c7d" opacity="0.14"/><circle cx="659.2" cy="148.2" r="1.0" fill="#898d8e" opacity="0.13"/><circle cx="604.2" cy="209.8" r="0.8" fill="#787c7d" opacity="0.15"/><circle cx="605.4" cy="204.1" r="0.6" fill="#c8cbcc" opacity="0.16"/><circle cx="659.1" cy="184.4" r="1.1" fill="#c8cbcc" opacity="0.15"/><circle cx="593.1" cy="206.5" r="0.6" fill="#c8cbcc" opacity="0.12"/><circle cx="650.6" cy="184.1" r="0.8" fill="#898d8e" opacity="0.14"/><circle cx="630.2" cy="146.7" r="1.2" fill="#898d8e" opacity="0.14"/><circle cx="581.5" cy="187.0" r="0.8" fill="#c8cbcc" opacity="0.18"/><circle cx="573.0" cy="168.4" r="0.6" fill="#c8cbcc" opacity="0.15"/><circle cx="580.4" cy="133.6" r="0.6" fill="#898d8e" opacity="0.19"/><circle cx="582.7" cy="195.1" r="1.5" fill="#c8cbcc" opacity="0.18"/><circle cx="626.4" cy="162.6" r="0.9" fill="#898d8e" opacity="0.18"/><circle cx="640.4" cy="120.8" r="0.5" fill="#c8cbcc" opacity="0.14"/><circle cx="670.5" cy="147.5" r="1.5" fill="#c8cbcc" opacity="0.12"/><circle cx="638.9" cy="180.7" r="1.5" fill="#787c7d" opacity="0.11"/><circle cx="643.7" cy="130.1" r="0.6" fill="#c8cbcc" opacity="0.18"/><circle cx="642.0" cy="168.2" r="1.4" fill="#787c7d" opacity="0.15"/><circle cx="612.6" cy="185.2" r="1.0" fill="#c8cbcc" opacity="0.14"/><circle cx="621.7" cy="152.0" r="1.0" fill="#c8cbcc" opacity="0.16"/><circle cx="597.6" cy="183.6" r="0.5" fill="#787c7d" opacity="0.14"/><circle cx="652.8" cy="167.4" r="1.1" fill="#c8cbcc" opacity="0.19"/><circle cx="590.3" cy="171.8" r="0.5" fill="#898d8e" opacity="0.14"/><circle cx="611.4" cy="158.3" r="1.0" fill="#898d8e" opacity="0.17"/><circle cx="592.4" cy="180.4" r="0.9" fill="#787c7d" opacity="0.13"/><circle cx="568.3" cy="169.9" r="0.9" fill="#787c7d" opacity="0.15"/><circle cx="637.8" cy="211.1" r="1.3" fill="#787c7d" opacity="0.11"/><circle cx="592.2" cy="168.6" r="0.7" fill="#898d8e" opacity="0.12"/><circle cx="622.2" cy="140.4" r="1.0" fill="#787c7d" opacity="0.11"/><circle cx="626.7" cy="200.4" r="0.6" fill="#787c7d" opacity="0.15"/><circle cx="632.8" cy="162.4" r="1.5" fill="#898d8e" opacity="0.11"/><circle cx="634.4" cy="172.0" r="0.9" fill="#c8cbcc" opacity="0.17"/><circle cx="611.8" cy="183.8" r="1.4" fill="#898d8e" opacity="0.13"/><circle cx="643.7" cy="213.3" r="1.0" fill="#787c7d" opacity="0.12"/><circle cx="611.2" cy="121.9" r="0.9" fill="#c8cbcc" opacity="0.11"/><circle cx="635.6" cy="174.8" r="1.5" fill="#c8cbcc" opacity="0.11"/><circle cx="647.6" cy="162.8" r="1.3" fill="#c8cbcc" opacity="0.13"/><circle cx="626.1" cy="153.8" r="1.0" fill="#787c7d" opacity="0.13"/><circle cx="643.9" cy="157.2" r="1.2" fill="#c8cbcc" opacity="0.15"/><circle cx="599.1" cy="149.3" r="1.3" fill="#787c7d" opacity="0.1"/><circle cx="635.2" cy="170.8" r="0.8" fill="#898d8e" opacity="0.17"/><circle cx="649.1" cy="150.4" r="0.8" fill="#c8cbcc" opacity="0.2"/><circle cx="671.6" cy="179.9" r="0.8" fill="#787c7d" opacity="0.12"/><circle cx="673.9" cy="169.0" r="1.4" fill="#787c7d" opacity="0.11"/><circle cx="629.3" cy="153.2" r="1.5" fill="#787c7d" opacity="0.18"/><circle cx="596.5" cy="184.7" r="1.3" fill="#c8cbcc" opacity="0.11"/><circle cx="614.2" cy="168.1" r="0.8" fill="#787c7d" opacity="0.16"/><circle cx="637.5" cy="188.1" r="1.0" fill="#c8cbcc" opacity="0.18"/><circle cx="583.4" cy="147.4" r="1.3" fill="#c8cbcc" opacity="0.12"/><circle cx="630.5" cy="171.7" r="1.0" fill="#787c7d" opacity="0.11"/><circle cx="602.0" cy="175.4" r="0.8" fill="#898d8e" opacity="0.11"/><circle cx="656.0" cy="188.5" r="1.5" fill="#787c7d" opacity="0.11"/><circle cx="648.3" cy="193.6" r="0.7" fill="#787c7d" opacity="0.14"/><circle cx="628.1" cy="124.1" r="0.8" fill="#c8cbcc" opacity="0.16"/><circle cx="582.8" cy="199.3" r="0.9" fill="#898d8e" opacity="0.12"/><circle cx="623.0" cy="194.9" r="0.7" fill="#787c7d" opacity="0.11"/><circle cx="619.7" cy="193.2" r="0.7" fill="#787c7d" opacity="0.16"/><circle cx="584.7" cy="126.4" r="0.5" fill="#898d8e" opacity="0.19"/><circle cx="624.9" cy="201.8" r="0.5" fill="#c8cbcc" opacity="0.13"/><circle cx="639.8" cy="183.1" r="0.7" fill="#787c7d" opacity="0.11"/><circle cx="593.9" cy="166.3" r="0.8" fill="#787c7d" opacity="0.16"/><circle cx="639.0" cy="162.5" r="1.2" fill="#787c7d" opacity="0.13"/><circle cx="655.2" cy="174.9" r="0.7" fill="#898d8e" opacity="0.13"/><circle cx="579.4" cy="144.0" r="1.3" fill="#898d8e" opacity="0.18"/><circle cx="588.2" cy="184.8" r="0.8" fill="#787c7d" opacity="0.12"/><circle cx="632.9" cy="131.8" r="0.9" fill="#898d8e" opacity="0.18"/><circle cx="607.4" cy="150.8" r="0.6" fill="#787c7d" opacity="0.11"/><circle cx="606.6" cy="137.3" r="1.2" fill="#c8cbcc" opacity="0.14"/><circle cx="670.8" cy="181.9" r="0.9" fill="#c8cbcc" opacity="0.1"/><circle cx="625.8" cy="122.7" r="0.7" fill="#787c7d" opacity="0.16"/><circle cx="621.4" cy="171.7" r="0.9" fill="#898d8e" opacity="0.18"/><circle cx="571.5" cy="194.6" r="1.3" fill="#c8cbcc" opacity="0.11"/><circle cx="642.2" cy="174.1" r="0.6" fill="#c8cbcc" opacity="0.16"/><circle cx="589.6" cy="194.2" r="0.8" fill="#898d8e" opacity="0.12"/><circle cx="627.6" cy="179.6" r="1.0" fill="#c8cbcc" opacity="0.18"/><circle cx="647.0" cy="163.3" r="1.3" fill="#898d8e" opacity="0.1"/><circle cx="649.7" cy="153.1" r="1.4" fill="#787c7d" opacity="0.13"/><circle cx="660.3" cy="145.3" r="1.1" fill="#898d8e" opacity="0.19"/><circle cx="584.7" cy="140.5" r="1.3" fill="#898d8e" opacity="0.12"/><circle cx="627.8" cy="199.5" r="0.7" fill="#787c7d" opacity="0.13"/><circle cx="656.1" cy="208.5" r="0.5" fill="#898d8e" opacity="0.16"/><circle cx="620.6" cy="158.1" r="0.6" fill="#c8cbcc" opacity="0.16"/><circle cx="573.3" cy="155.5" r="1.1" fill="#c8cbcc" opacity="0.13"/><circle cx="620.2" cy="199.8" r="0.9" fill="#c8cbcc" opacity="0.14"/><circle cx="668.3" cy="173.9" r="1.0" fill="#c8cbcc" opacity="0.14"/><circle cx="578.7" cy="136.8" r="1.3" fill="#898d8e" opacity="0.14"/><circle cx="653.9" cy="180.5" r="0.6" fill="#c8cbcc" opacity="0.14"/><circle cx="607.5" cy="167.3" r="0.6" fill="#787c7d" opacity="0.17"/><circle cx="599.5" cy="207.8" r="0.6" fill="#898d8e" opacity="0.15"/><circle cx="576.4" cy="202.5" r="0.5" fill="#898d8e" opacity="0.11"/><circle cx="581.1" cy="140.2" r="0.7" fill="#898d8e" opacity="0.2"/><circle cx="559.4" cy="170.5" r="1.2" fill="#898d8e" opacity="0.17"/><circle cx="630.2" cy="213.7" r="1.3" fill="#787c7d" opacity="0.11"/><circle cx="645.9" cy="151.8" r="0.6" fill="#c8cbcc" opacity="0.15"/><circle cx="644.8" cy="156.8" r="1.1" fill="#c8cbcc" opacity="0.12"/>
<circle cx="598.2" cy="171.2" r="4.5" fill="#9ca0a1" opacity="0.65"/><circle cx="598.2" cy="171.2" r="4.5" fill="none" stroke="#717576" stroke-width="0.7" opacity="0.55"/><circle cx="597.1" cy="170.1" r="2.2" fill="#c4c7c8" opacity="0.4"/>
<circle cx="616.8" cy="182.1" r="3.5" fill="#9ca0a1" opacity="0.65"/><circle cx="616.8" cy="182.1" r="3.5" fill="none" stroke="#717576" stroke-width="0.6" opacity="0.55"/><circle cx="615.9" cy="181.2" r="1.8" fill="#c4c7c8" opacity="0.4"/>
<circle cx="635.4" cy="161.6" r="3.2" fill="#9ca0a1" opacity="0.65"/><circle cx="635.4" cy="161.6" r="3.2" fill="none" stroke="#717576" stroke-width="0.5" opacity="0.55"/><circle cx="634.6" cy="160.8" r="1.6" fill="#c4c7c8" opacity="0.4"/>
<circle cx="627.7" cy="185.9" r="2.9" fill="#9ca0a1" opacity="0.65"/><circle cx="627.7" cy="185.9" r="2.9" fill="none" stroke="#717576" stroke-width="0.5" opacity="0.55"/><circle cx="627.0" cy="185.2" r="1.4" fill="#c4c7c8" opacity="0.4"/>
<circle cx="607.2" cy="155.2" r="2.9" fill="#9ca0a1" opacity="0.65"/><circle cx="607.2" cy="155.2" r="2.9" fill="none" stroke="#717576" stroke-width="0.5" opacity="0.55"/><circle cx="606.5" cy="154.5" r="1.4" fill="#c4c7c8" opacity="0.4"/>
<circle cx="641.8" cy="175.7" r="2.6" fill="#9ca0a1" opacity="0.65"/><circle cx="641.8" cy="175.7" r="2.6" fill="none" stroke="#717576" stroke-width="0.5" opacity="0.55"/><circle cx="641.1" cy="175.0" r="1.3" fill="#c4c7c8" opacity="0.4"/>
</g>
<path d="M682.4 159.9 Q684.0 168.0 683.7 176.4 Q683.3 184.9 679.1 192.8 Q674.9 200.7 666.6 206.0 Q658.4 211.3 648.9 214.1 Q639.4 216.9 629.7 218.7 Q620.0 220.5 609.8 219.9 Q599.6 219.4 591.0 214.9 Q582.4 210.5 576.1 204.2 Q569.8 197.9 564.5 191.1 Q559.1 184.2 556.9 176.1 Q554.7 168.0 555.4 159.5 Q556.1 151.0 561.4 143.6 Q566.7 136.2 574.5 130.9 Q582.4 125.5 591.5 122.3 Q600.6 119.1 610.3 117.0 Q620.0 115.0 629.9 116.5 Q639.8 118.1 648.5 122.0 Q657.2 126.0 665.0 131.3 Q672.8 136.5 676.8 144.2 Q680.9 151.8 682.4 159.9 Z" fill="none" stroke="#6f7374" stroke-width="0.8" opacity="0.72"/></g>
</svg>