<svg xmlns="http://www.w3.org/2000/svg" viewBox="338 106 124 124">
<clipPath id="rh400_168"><circle cx="400" cy="168" r="62"/></clipPath>
<g clip-path="url(#rh400_168)">
<rect x="338" y="106" width="124" height="124" fill="#b9bcbe"/>
<ellipse cx="387.6" cy="155.6" rx="59.5" ry="54.6" fill="#c8cbcd" opacity="0.18" transform="rotate(0 387.6 155.6)"/>
<ellipse cx="415.5" cy="183.5" rx="49.6" ry="49.6" fill="#a3a6a8" opacity="0.18" transform="rotate(0 415.5 183.5)"/>
<circle cx="426.0" cy="211.9" r="0.7" fill="#dfe1e2" opacity="0.17"/>
<circle cx="414.6" cy="114.8" r="0.7" fill="#dfe1e2" opacity="0.17"/>
<circle cx="437.4" cy="168.7" r="1.2" fill="#dfe1e2" opacity="0.11"/>
<circle cx="403.3" cy="197.4" r="1.2" fill="#9a9da0" opacity="0.24"/>
<circle cx="434.1" cy="133.9" r="1.0" fill="#9a9da0" opacity="0.15"/>
<circle cx="444.7" cy="207.8" r="1.3" fill="#9a9da0" opacity="0.12"/>
<circle cx="441.8" cy="209.8" r="0.8" fill="#9a9da0" opacity="0.18"/>
<circle cx="373.6" cy="170.5" r="0.7" fill="#9a9da0" opacity="0.22"/>
<circle cx="405.3" cy="140.5" r="1.2" fill="#dfe1e2" opacity="0.23"/>
<circle cx="403.8" cy="121.4" r="0.9" fill="#dfe1e2" opacity="0.12"/>
<circle cx="412.8" cy="143.6" r="0.9" fill="#dfe1e2" opacity="0.22"/>
<circle cx="372.7" cy="198.9" r="0.9" fill="#9a9da0" opacity="0.24"/>
<circle cx="418.5" cy="171.1" r="0.9" fill="#dfe1e2" opacity="0.24"/>
<circle cx="354.5" cy="170.4" r="1.0" fill="#dfe1e2" opacity="0.13"/>
<circle cx="354.6" cy="151.2" r="0.8" fill="#9a9da0" opacity="0.12"/>
<circle cx="432.4" cy="152.0" r="0.6" fill="#dfe1e2" opacity="0.14"/>
<circle cx="450.7" cy="190.2" r="1.1" fill="#dfe1e2" opacity="0.15"/>
<circle cx="373.9" cy="116.0" r="1.4" fill="#dfe1e2" opacity="0.16"/>
<circle cx="445.8" cy="156.7" r="0.8" fill="#dfe1e2" opacity="0.17"/>
<circle cx="401.0" cy="225.4" r="1.3" fill="#9a9da0" opacity="0.11"/>
<circle cx="406.4" cy="125.8" r="0.7" fill="#dfe1e2" opacity="0.11"/>
<circle cx="390.1" cy="206.5" r="0.8" fill="#9a9da0" opacity="0.11"/>
<circle cx="449.1" cy="132.0" r="0.7" fill="#dfe1e2" opacity="0.17"/>
<circle cx="443.0" cy="156.6" r="0.7" fill="#dfe1e2" opacity="0.1"/>
<circle cx="428.8" cy="121.5" r="0.9" fill="#dfe1e2" opacity="0.18"/>
<circle cx="350.6" cy="140.4" r="0.8" fill="#9a9da0" opacity="0.17"/>
<circle cx="400.7" cy="161.8" r="0.5" fill="#dfe1e2" opacity="0.23"/>
<circle cx="359.0" cy="140.7" r="0.7" fill="#dfe1e2" opacity="0.18"/>
<circle cx="350.2" cy="201.6" r="0.6" fill="#dfe1e2" opacity="0.12"/>
<circle cx="408.1" cy="173.4" r="1.4" fill="#9a9da0" opacity="0.12"/>
<circle cx="387.8" cy="149.9" r="0.9" fill="#dfe1e2" opacity="0.15"/>
<circle cx="404.7" cy="192.6" r="1.2" fill="#9a9da0" opacity="0.15"/>
<circle cx="387.5" cy="163.9" r="1.2" fill="#dfe1e2" opacity="0.22"/>
<circle cx="401.4" cy="162.7" r="1.3" fill="#9a9da0" opacity="0.11"/>
<circle cx="423.4" cy="214.2" r="0.8" fill="#9a9da0" opacity="0.2"/>
<circle cx="437.0" cy="178.0" r="0.8" fill="#9a9da0" opacity="0.23"/>
<circle cx="354.5" cy="167.1" r="1.0" fill="#dfe1e2" opacity="0.11"/>
<circle cx="347.5" cy="165.3" r="1.1" fill="#dfe1e2" opacity="0.14"/>
<circle cx="354.6" cy="160.6" r="1.5" fill="#9a9da0" opacity="0.21"/>
<circle cx="378.7" cy="195.3" r="0.6" fill="#dfe1e2" opacity="0.12"/>
<circle cx="449.6" cy="192.6" r="1.1" fill="#dfe1e2" opacity="0.16"/>
<circle cx="448.9" cy="174.1" r="0.9" fill="#9a9da0" opacity="0.17"/>
<circle cx="376.3" cy="184.9" r="0.7" fill="#9a9da0" opacity="0.16"/>
<circle cx="384.2" cy="114.8" r="0.7" fill="#dfe1e2" opacity="0.16"/>
<circle cx="367.8" cy="196.2" r="0.6" fill="#dfe1e2" opacity="0.23"/>
<circle cx="357.3" cy="173.5" r="1.2" fill="#dfe1e2" opacity="0.22"/>
<circle cx="362.6" cy="129.8" r="1.1" fill="#dfe1e2" opacity="0.22"/>
<circle cx="387.6" cy="140.3" r="1.1" fill="#dfe1e2" opacity="0.15"/>
<circle cx="427.3" cy="114.3" r="0.8" fill="#dfe1e2" opacity="0.1"/>
<circle cx="385.5" cy="203.5" r="0.6" fill="#9a9da0" opacity="0.18"/>
<circle cx="380.7" cy="224.4" r="0.6" fill="#dfe1e2" opacity="0.16"/>
<circle cx="449.5" cy="153.9" r="1.1" fill="#9a9da0" opacity="0.15"/>
<circle cx="386.9" cy="139.5" r="0.7" fill="#dfe1e2" opacity="0.15"/>
<circle cx="413.6" cy="148.1" r="1.0" fill="#dfe1e2" opacity="0.13"/>
<circle cx="393.5" cy="205.2" r="0.9" fill="#dfe1e2" opacity="0.17"/>
<circle cx="375.9" cy="146.2" r="0.8" fill="#9a9da0" opacity="0.15"/>
<circle cx="422.7" cy="223.7" r="1.4" fill="#9a9da0" opacity="0.21"/>
<circle cx="397.6" cy="159.9" r="1.0" fill="#dfe1e2" opacity="0.11"/>
<circle cx="390.8" cy="139.4" r="0.6" fill="#9a9da0" opacity="0.18"/>
<circle cx="385.0" cy="206.6" r="0.6" fill="#dfe1e2" opacity="0.15"/>
<circle cx="414.4" cy="114.2" r="0.7" fill="#dfe1e2" opacity="0.11"/>
<circle cx="362.6" cy="194.1" r="1.3" fill="#9a9da0" opacity="0.21"/>
<circle cx="451.4" cy="141.9" r="0.6" fill="#9a9da0" opacity="0.18"/>
<circle cx="442.9" cy="136.7" r="0.6" fill="#dfe1e2" opacity="0.13"/>
<circle cx="419.0" cy="124.2" r="1.2" fill="#dfe1e2" opacity="0.17"/>
<circle cx="383.3" cy="195.1" r="1.1" fill="#9a9da0" opacity="0.14"/>
<circle cx="412.6" cy="157.6" r="1.2" fill="#9a9da0" opacity="0.17"/>
<circle cx="411.8" cy="197.6" r="1.0" fill="#9a9da0" opacity="0.11"/>
<circle cx="379.1" cy="123.0" r="1.4" fill="#9a9da0" opacity="0.11"/>
<circle cx="361.9" cy="158.6" r="1.0" fill="#dfe1e2" opacity="0.2"/>
<circle cx="449.2" cy="194.4" r="0.9" fill="#9a9da0" opacity="0.11"/>
<circle cx="352.4" cy="158.1" r="1.0" fill="#9a9da0" opacity="0.2"/>
<circle cx="429.7" cy="216.2" r="1.1" fill="#dfe1e2" opacity="0.23"/>
<circle cx="411.0" cy="221.0" r="1.3" fill="#dfe1e2" opacity="0.17"/>
<circle cx="437.7" cy="160.9" r="1.2" fill="#dfe1e2" opacity="0.23"/>
<circle cx="436.3" cy="170.6" r="1.2" fill="#dfe1e2" opacity="0.19"/>
<circle cx="385.1" cy="148.3" r="1.3" fill="#dfe1e2" opacity="0.18"/>
<circle cx="416.4" cy="227.1" r="1.2" fill="#dfe1e2" opacity="0.21"/>
<circle cx="427.4" cy="143.2" r="0.7" fill="#9a9da0" opacity="0.16"/>
<circle cx="346.3" cy="154.3" r="0.5" fill="#9a9da0" opacity="0.12"/>
<circle cx="358.6" cy="189.8" r="0.7" fill="#9a9da0" opacity="0.19"/>
<circle cx="446.2" cy="204.8" r="1.0" fill="#dfe1e2" opacity="0.23"/>
<circle cx="421.6" cy="189.0" r="1.3" fill="#9a9da0" opacity="0.19"/>
<circle cx="400.4" cy="118.5" r="0.9" fill="#9a9da0" opacity="0.16"/>
<circle cx="368.4" cy="170.1" r="0.5" fill="#dfe1e2" opacity="0.16"/>
<circle cx="420.8" cy="125.8" r="1.2" fill="#dfe1e2" opacity="0.2"/>
<circle cx="437.6" cy="166.5" r="1.2" fill="#9a9da0" opacity="0.1"/>
<circle cx="359.4" cy="145.2" r="0.7" fill="#dfe1e2" opacity="0.13"/>
<circle cx="394.5" cy="113.0" r="0.9" fill="#9a9da0" opacity="0.11"/>
<circle cx="420.0" cy="129.5" r="1.1" fill="#9a9da0" opacity="0.15"/>
<circle cx="358.4" cy="138.4" r="0.8" fill="#dfe1e2" opacity="0.21"/>
<circle cx="399.9" cy="222.3" r="0.7" fill="#dfe1e2" opacity="0.23"/>
<circle cx="433.4" cy="120.6" r="1.1" fill="#9a9da0" opacity="0.14"/>
<circle cx="434.0" cy="212.5" r="0.8" fill="#9a9da0" opacity="0.2"/>
<circle cx="405.5" cy="195.4" r="0.7" fill="#9a9da0" opacity="0.2"/>
<circle cx="386.2" cy="135.3" r="0.7" fill="#dfe1e2" opacity="0.15"/>
<circle cx="409.3" cy="179.4" r="0.6" fill="#dfe1e2" opacity="0.16"/>
<circle cx="436.3" cy="134.1" r="1.1" fill="#9a9da0" opacity="0.2"/>
<circle cx="359.3" cy="183.0" r="1.1" fill="#dfe1e2" opacity="0.15"/>
<circle cx="375.6" cy="140.0" r="1.1" fill="#9a9da0" opacity="0.21"/>
<circle cx="357.6" cy="179.8" r="0.5" fill="#9a9da0" opacity="0.21"/>
<circle cx="374.3" cy="135.6" r="1.1" fill="#9a9da0" opacity="0.18"/>
<circle cx="436.7" cy="190.3" r="0.8" fill="#9a9da0" opacity="0.21"/>
<circle cx="386.5" cy="193.1" r="0.7" fill="#9a9da0" opacity="0.13"/>
<circle cx="359.8" cy="128.3" r="1.0" fill="#9a9da0" opacity="0.12"/>
<circle cx="429.2" cy="194.0" r="1.1" fill="#dfe1e2" opacity="0.13"/>
<circle cx="382.6" cy="163.7" r="0.6" fill="#9a9da0" opacity="0.18"/>
<circle cx="413.4" cy="212.7" r="1.1" fill="#dfe1e2" opacity="0.17"/>
<circle cx="433.7" cy="169.9" r="0.9" fill="#9a9da0" opacity="0.23"/>
<circle cx="402.5" cy="156.9" r="1.3" fill="#9a9da0" opacity="0.22"/>
<circle cx="377.0" cy="155.4" r="1.4" fill="#dfe1e2" opacity="0.11"/>
<circle cx="408.5" cy="116.6" r="0.8" fill="#dfe1e2" opacity="0.12"/>
<circle cx="374.4" cy="125.4" r="0.6" fill="#9a9da0" opacity="0.21"/>
<circle cx="395.7" cy="186.0" r="1.3" fill="#9a9da0" opacity="0.21"/>
<circle cx="420.1" cy="195.5" r="0.9" fill="#9a9da0" opacity="0.19"/>
<circle cx="404.3" cy="205.3" r="1.1" fill="#dfe1e2" opacity="0.16"/>
<circle cx="370.6" cy="137.6" r="0.7" fill="#dfe1e2" opacity="0.15"/>
<circle cx="366.2" cy="169.2" r="1.4" fill="#9a9da0" opacity="0.13"/>
<circle cx="375.5" cy="180.4" r="1.4" fill="#9a9da0" opacity="0.13"/>
<circle cx="374.0" cy="210.8" r="1.0" fill="#9a9da0" opacity="0.19"/>
<circle cx="396.2" cy="123.5" r="1.1" fill="#9a9da0" opacity="0.14"/>
<circle cx="425.1" cy="123.6" r="1.4" fill="#9a9da0" opacity="0.15"/>
<circle cx="413.3" cy="148.7" r="1.1" fill="#dfe1e2" opacity="0.21"/>
<circle cx="456.1" cy="155.2" r="0.8" fill="#9a9da0" opacity="0.24"/>
<circle cx="355.8" cy="209.6" r="1.1" fill="#9a9da0" opacity="0.16"/>
<circle cx="395.5" cy="199.4" r="1.2" fill="#dfe1e2" opacity="0.19"/>
<circle cx="414.2" cy="112.5" r="1.4" fill="#dfe1e2" opacity="0.22"/>
<circle cx="348.6" cy="168.2" r="1.1" fill="#dfe1e2" opacity="0.24"/>
<circle cx="354.7" cy="189.1" r="0.9" fill="#9a9da0" opacity="0.12"/>
<circle cx="402.5" cy="170.9" r="1.3" fill="#9a9da0" opacity="0.16"/>
<circle cx="446.7" cy="182.7" r="0.8" fill="#9a9da0" opacity="0.17"/>
<circle cx="351.2" cy="185.3" r="1.2" fill="#9a9da0" opacity="0.15"/>
<circle cx="427.1" cy="192.1" r="1.4" fill="#dfe1e2" opacity="0.22"/>
<circle cx="397.8" cy="216.5" r="1.3" fill="#9a9da0" opacity="0.2"/>
<circle cx="423.8" cy="195.1" r="1.1" fill="#dfe1e2" opacity="0.15"/>
<circle cx="413.5" cy="138.6" r="0.8" fill="#dfe1e2" opacity="0.1"/>
<circle cx="418.0" cy="199.3" r="1.3" fill="#9a9da0" opacity="0.1"/>
<circle cx="421.5" cy="209.2" r="1.3" fill="#dfe1e2" opacity="0.22"/>
<circle cx="381.8" cy="150.5" r="1.3" fill="#dfe1e2" opacity="0.11"/>
<circle cx="388.9" cy="196.8" r="1.3" fill="#9a9da0" opacity="0.16"/>
<circle cx="432.5" cy="126.1" r="0.8" fill="#dfe1e2" opacity="0.13"/>
<circle cx="386.5" cy="206.1" r="0.6" fill="#dfe1e2" opacity="0.24"/>
<circle cx="457.4" cy="155.0" r="1.3" fill="#9a9da0" opacity="0.2"/>
<circle cx="418.6" cy="212.4" r="1.3" fill="#dfe1e2" opacity="0.22"/>
<circle cx="444.7" cy="194.3" r="0.7" fill="#9a9da0" opacity="0.23"/>
<circle cx="379.7" cy="161.6" r="0.5" fill="#dfe1e2" opacity="0.2"/>
<circle cx="391.6" cy="189.5" r="0.6" fill="#dfe1e2" opacity="0.19"/>
<circle cx="457.5" cy="149.7" r="0.9" fill="#9a9da0" opacity="0.18"/>
<circle cx="369.6" cy="144.0" r="0.7" fill="#9a9da0" opacity="0.2"/>
<circle cx="384.0" cy="219.2" r="1.4" fill="#9a9da0" opacity="0.11"/>
<circle cx="421.2" cy="201.2" r="0.9" fill="#9a9da0" opacity="0.14"/>
<circle cx="379.7" cy="163.1" r="0.6" fill="#dfe1e2" opacity="0.11"/>
<circle cx="408.9" cy="196.7" r="1.3" fill="#9a9da0" opacity="0.14"/>
<circle cx="376.9" cy="132.6" r="0.8" fill="#dfe1e2" opacity="0.2"/>
<circle cx="360.4" cy="132.7" r="1.1" fill="#dfe1e2" opacity="0.21"/>
<circle cx="428.4" cy="154.2" r="1.0" fill="#dfe1e2" opacity="0.24"/>
<circle cx="415.6" cy="157.4" r="1.2" fill="#dfe1e2" opacity="0.14"/>
<circle cx="360.2" cy="188.8" r="1.4" fill="#9a9da0" opacity="0.14"/>
<circle cx="369.8" cy="129.9" r="1.5" fill="#9a9da0" opacity="0.14"/>
<circle cx="413.0" cy="211.1" r="1.0" fill="#dfe1e2" opacity="0.17"/>
<circle cx="453.3" cy="157.9" r="0.9" fill="#9a9da0" opacity="0.16"/>
<circle cx="379.6" cy="121.9" r="0.9" fill="#9a9da0" opacity="0.2"/>
<circle cx="433.0" cy="171.2" r="1.2" fill="#9a9da0" opacity="0.13"/>
<circle cx="459.2" cy="165.2" r="0.9" fill="#dfe1e2" opacity="0.22"/>
<circle cx="350.4" cy="138.0" r="0.9" fill="#9a9da0" opacity="0.15"/>
<circle cx="378.3" cy="201.8" r="1.5" fill="#9a9da0" opacity="0.2"/>
<circle cx="402.6" cy="194.3" r="0.7" fill="#9a9da0" opacity="0.21"/>
<circle cx="403.3" cy="142.7" r="1.1" fill="#dfe1e2" opacity="0.2"/>
<circle cx="451.8" cy="198.4" r="1.3" fill="#dfe1e2" opacity="0.17"/>
<circle cx="379.7" cy="153.1" r="1.0" fill="#9a9da0" opacity="0.21"/>
<circle cx="424.1" cy="174.5" r="1.1" fill="#9a9da0" opacity="0.18"/>
<circle cx="363.1" cy="180.5" r="1.1" fill="#dfe1e2" opacity="0.15"/>
<circle cx="412.4" cy="210.2" r="0.8" fill="#9a9da0" opacity="0.12"/>
<circle cx="428.4" cy="193.1" r="1.2" fill="#dfe1e2" opacity="0.18"/>
<circle cx="382.4" cy="170.5" r="1.2" fill="#dfe1e2" opacity="0.16"/>
<circle cx="443.9" cy="161.2" r="1.0" fill="#9a9da0" opacity="0.15"/>
<circle cx="391.8" cy="185.7" r="1.3" fill="#9a9da0" opacity="0.19"/>
<circle cx="404.2" cy="110.4" r="1.1" fill="#dfe1e2" opacity="0.16"/>
<circle cx="451.6" cy="186.2" r="0.9" fill="#dfe1e2" opacity="0.14"/>
<circle cx="392.5" cy="222.2" r="1.4" fill="#9a9da0" opacity="0.21"/>
<circle cx="406.5" cy="130.7" r="1.4" fill="#9a9da0" opacity="0.23"/>
<circle cx="413.7" cy="202.3" r="0.8" fill="#dfe1e2" opacity="0.21"/>
<circle cx="343.2" cy="187.9" r="1.2" fill="#9a9da0" opacity="0.14"/>
<circle cx="449.9" cy="135.2" r="1.5" fill="#9a9da0" opacity="0.21"/>
<circle cx="386.0" cy="193.7" r="0.6" fill="#9a9da0" opacity="0.21"/>
<circle cx="343.3" cy="150.9" r="1.0" fill="#9a9da0" opacity="0.19"/>
<circle cx="443.0" cy="158.8" r="1.3" fill="#9a9da0" opacity="0.23"/>
<circle cx="433.7" cy="211.5" r="1.5" fill="#9a9da0" opacity="0.24"/>
<circle cx="360.4" cy="169.7" r="0.7" fill="#9a9da0" opacity="0.14"/>
<circle cx="425.8" cy="213.7" r="1.1" fill="#9a9da0" opacity="0.18"/>
<circle cx="395.8" cy="122.0" r="0.6" fill="#dfe1e2" opacity="0.14"/>
<circle cx="372.3" cy="152.2" r="1.1" fill="#dfe1e2" opacity="0.23"/>
<circle cx="415.2" cy="141.8" r="0.8" fill="#9a9da0" opacity="0.15"/>
<circle cx="370.2" cy="198.2" r="1.0" fill="#dfe1e2" opacity="0.1"/>
<circle cx="441.9" cy="211.5" r="0.8" fill="#dfe1e2" opacity="0.18"/>
<circle cx="385.8" cy="118.3" r="0.7" fill="#dfe1e2" opacity="0.18"/>
<circle cx="390.5" cy="158.0" r="1.1" fill="#dfe1e2" opacity="0.14"/>
<circle cx="432.1" cy="203.0" r="0.8" fill="#9a9da0" opacity="0.11"/>
<circle cx="422.2" cy="136.8" r="1.4" fill="#dfe1e2" opacity="0.21"/>
<circle cx="397.1" cy="219.1" r="0.8" fill="#dfe1e2" opacity="0.21"/>
<circle cx="346.4" cy="176.7" r="1.1" fill="#9a9da0" opacity="0.17"/>
<circle cx="418.0" cy="143.6" r="0.6" fill="#dfe1e2" opacity="0.13"/>
<circle cx="351.1" cy="175.1" r="0.6" fill="#dfe1e2" opacity="0.23"/>
<circle cx="358.2" cy="159.9" r="0.6" fill="#9a9da0" opacity="0.23"/>
<circle cx="399.2" cy="180.3" r="0.7" fill="#dfe1e2" opacity="0.19"/>
<circle cx="443.1" cy="144.9" r="1.4" fill="#9a9da0" opacity="0.23"/>
<circle cx="377.7" cy="220.6" r="0.9" fill="#9a9da0" opacity="0.15"/>
<circle cx="432.2" cy="158.6" r="1.3" fill="#9a9da0" opacity="0.13"/>
<circle cx="422.9" cy="219.7" r="1.4" fill="#9a9da0" opacity="0.18"/>
<circle cx="395.3" cy="212.4" r="0.9" fill="#dfe1e2" opacity="0.18"/>
<circle cx="379.1" cy="140.7" r="1.1" fill="#9a9da0" opacity="0.1"/>
<circle cx="351.0" cy="143.3" r="1.0" fill="#9a9da0" opacity="0.19"/>
<circle cx="344.7" cy="159.2" r="1.1" fill="#dfe1e2" opacity="0.16"/>
<circle cx="434.3" cy="213.9" r="0.9" fill="#dfe1e2" opacity="0.11"/>
<circle cx="457.2" cy="147.6" r="1.4" fill="#9a9da0" opacity="0.14"/>
<circle cx="398.2" cy="176.0" r="1.2" fill="#9a9da0" opacity="0.17"/>
<circle cx="432.4" cy="182.5" r="0.7" fill="#dfe1e2" opacity="0.15"/>
<circle cx="390.2" cy="128.6" r="1.2" fill="#dfe1e2" opacity="0.17"/>
<circle cx="339.6" cy="163.4" r="0.9" fill="#dfe1e2" opacity="0.2"/>
<circle cx="370.9" cy="144.1" r="1.3" fill="#9a9da0" opacity="0.22"/>
<circle cx="406.1" cy="111.4" r="0.9" fill="#dfe1e2" opacity="0.24"/>
<circle cx="417.3" cy="165.9" r="1.3" fill="#9a9da0" opacity="0.18"/>
<circle cx="345.9" cy="160.9" r="1.3" fill="#9a9da0" opacity="0.19"/>
<circle cx="392.8" cy="162.8" r="0.8" fill="#dfe1e2" opacity="0.1"/>
<circle cx="440.3" cy="203.4" r="0.6" fill="#9a9da0" opacity="0.2"/>
<circle cx="413.7" cy="217.3" r="1.1" fill="#dfe1e2" opacity="0.11"/>
<circle cx="361.3" cy="197.1" r="0.6" fill="#9a9da0" opacity="0.1"/>
<circle cx="433.3" cy="140.8" r="1.1" fill="#dfe1e2" opacity="0.12"/>
<circle cx="422.2" cy="152.1" r="1.4" fill="#dfe1e2" opacity="0.22"/>
<circle cx="354.9" cy="148.2" r="0.8" fill="#9a9da0" opacity="0.21"/>
<circle cx="365.3" cy="133.9" r="0.6" fill="#dfe1e2" opacity="0.21"/>
<circle cx="416.2" cy="200.9" r="0.8" fill="#9a9da0" opacity="0.2"/>
<circle cx="361.5" cy="153.1" r="0.9" fill="#9a9da0" opacity="0.19"/>
<circle cx="421.9" cy="165.2" r="0.9" fill="#dfe1e2" opacity="0.19"/>
<circle cx="443.6" cy="191.2" r="1.1" fill="#dfe1e2" opacity="0.15"/>
<circle cx="381.9" cy="164.4" r="0.9" fill="#dfe1e2" opacity="0.14"/>
<circle cx="404.1" cy="110.7" r="1.3" fill="#dfe1e2" opacity="0.15"/>
<circle cx="426.1" cy="205.3" r="1.2" fill="#9a9da0" opacity="0.22"/>
<circle cx="370.1" cy="121.5" r="0.6" fill="#9a9da0" opacity="0.16"/>
<circle cx="383.8" cy="190.1" r="1.3" fill="#dfe1e2" opacity="0.12"/>
<circle cx="366.9" cy="143.9" r="1.1" fill="#9a9da0" opacity="0.16"/>
<circle cx="437.5" cy="215.7" r="0.8" fill="#9a9da0" opacity="0.16"/>
<circle cx="377.5" cy="191.1" r="0.8" fill="#dfe1e2" opacity="0.11"/>
<circle cx="365.2" cy="143.5" r="0.6" fill="#9a9da0" opacity="0.17"/>
<circle cx="385.7" cy="205.9" r="0.9" fill="#dfe1e2" opacity="0.16"/>
<circle cx="381.7" cy="141.4" r="1.1" fill="#dfe1e2" opacity="0.13"/>
<circle cx="351.8" cy="155.9" r="1.4" fill="#dfe1e2" opacity="0.21"/>
<circle cx="406.3" cy="227.6" r="1.0" fill="#9a9da0" opacity="0.15"/>
<circle cx="452.8" cy="139.5" r="0.6" fill="#dfe1e2" opacity="0.14"/>
<circle cx="414.4" cy="216.2" r="0.5" fill="#dfe1e2" opacity="0.11"/>
<circle cx="435.7" cy="166.9" r="0.6" fill="#9a9da0" opacity="0.17"/>
<circle cx="417.7" cy="127.0" r="0.6" fill="#dfe1e2" opacity="0.23"/>
<circle cx="411.8" cy="221.1" r="0.8" fill="#dfe1e2" opacity="0.16"/>
<circle cx="356.4" cy="127.3" r="1.4" fill="#dfe1e2" opacity="0.23"/>
<circle cx="407.0" cy="175.6" r="1.0" fill="#dfe1e2" opacity="0.13"/>
<circle cx="340.6" cy="180.0" r="0.7" fill="#9a9da0" opacity="0.12"/>
<circle cx="445.6" cy="136.5" r="0.9" fill="#9a9da0" opacity="0.23"/>
<circle cx="393.5" cy="122.3" r="0.5" fill="#dfe1e2" opacity="0.17"/>
<circle cx="347.0" cy="147.9" r="0.9" fill="#9a9da0" opacity="0.22"/>
<circle cx="376.7" cy="196.5" r="1.5" fill="#9a9da0" opacity="0.17"/>
<circle cx="393.8" cy="161.8" r="4.3" fill="#cfd2d4" opacity="0.6"/>
<circle cx="393.8" cy="161.8" r="4.3" fill="none" stroke="#83878a" stroke-width="0.7" opacity="0.55"/>
<circle cx="392.7" cy="160.7" r="2.2" fill="#e8eaeb" opacity="0.4"/>
<circle cx="418.6" cy="179.2" r="3.1" fill="#cfd2d4" opacity="0.6"/>
<circle cx="418.6" cy="179.2" r="3.1" fill="none" stroke="#83878a" stroke-width="0.7" opacity="0.55"/>
<circle cx="417.8" cy="178.4" r="1.6" fill="#e8eaeb" opacity="0.4"/>
<circle cx="380.2" cy="186.6" r="2.8" fill="#cfd2d4" opacity="0.6"/>
<circle cx="380.2" cy="186.6" r="2.8" fill="none" stroke="#83878a" stroke-width="0.7" opacity="0.55"/>
<circle cx="379.5" cy="185.9" r="1.4" fill="#e8eaeb" opacity="0.4"/>
<circle cx="406.2" cy="195.9" r="2.2" fill="#cfd2d4" opacity="0.6"/>
<circle cx="406.2" cy="195.9" r="2.2" fill="none" stroke="#83878a" stroke-width="0.7" opacity="0.55"/>
<circle cx="405.7" cy="195.4" r="1.1" fill="#e8eaeb" opacity="0.4"/>
<circle cx="426.0" cy="152.5" r="2.5" fill="#cfd2d4" opacity="0.6"/>
<circle cx="426.0" cy="152.5" r="2.5" fill="none" stroke="#83878a" stroke-width="0.7" opacity="0.55"/>
<circle cx="425.4" cy="151.9" r="1.2" fill="#e8eaeb" opacity="0.4"/>
<circle cx="375.2" cy="152.5" r="2.2" fill="#cfd2d4" opacity="0.6"/>
<circle cx="375.2" cy="152.5" r="2.2" fill="none" stroke="#83878a" stroke-width="0.7" opacity="0.55"/>
<circle cx="374.7" cy="152.0" r="1.1" fill="#e8eaeb" opacity="0.4"/>
<path d="M400.0 106.0 A62 62 0 0 1 400.0 230.0 A54.6 62 0 0 0 400.0 106.0 Z" fill="#202528" opacity="0.20"/>
</g>
<circle cx="400" cy="168" r="62" fill="none" stroke="#7c8083" stroke-width="0.8" opacity="0.72"/>
</svg>
