<svg xmlns="http://www.w3.org/2000/svg" viewBox="383 327 34 16">
<path d="M384.1 335.0 L384.1 334.8 L384.1 334.7 L384.2 334.5 L384.3 334.3 L384.4 334.2 L384.5 334.0 L384.7 333.8 L384.9 333.7 L385.1 333.5 L385.3 333.4 L385.5 333.2 L385.8 333.0 L386.1 332.9 L386.4 332.8 L386.8 332.6 L387.1 332.5 L387.5 332.3 L387.9 332.2 L388.3 332.1 L388.7 332.0 L389.2 331.8 L389.7 331.7 L390.1 331.6 L390.6 331.5 L391.2 331.4 L391.7 331.3 L392.2 331.2 L392.8 331.2 L393.3 331.1 L393.9 331.0 L394.5 331.0 L395.1 330.9 L395.7 330.9 L396.3 330.8 L396.9 330.8 L397.5 330.8 L398.1 330.7 L398.8 330.7 L399.4 330.7 L400.0 330.7 L400.6 330.7 L401.2 330.7 L401.9 330.7 L402.5 330.8 L403.1 330.8 L403.7 330.8 L404.3 330.9 L404.9 330.9 L405.5 331.0 L406.1 331.0 L406.7 331.1 L407.2 331.2 L407.8 331.2 L408.3 331.3 L408.8 331.4 L409.4 331.5 L409.9 331.6 L410.3 331.7 L410.8 331.8 L411.3 332.0 L411.7 332.1 L412.1 332.2 L412.5 332.3 L412.9 332.5 L413.2 332.6 L413.6 332.8 L413.9 332.9 L414.2 333.0 L414.5 333.2 L414.7 333.4 L414.9 333.5 L415.1 333.7 L415.3 333.8 L415.5 334.0 L415.6 334.2 L415.7 334.3 L415.8 334.5 L415.9 334.7 L415.9 334.8 L415.9 335.0" fill="none" stroke="#cda24e" stroke-width="1.6" opacity="0.95" stroke-linecap="round"/>
<path d="M386.2 335.0 L386.2 334.9 L386.3 334.7 L386.3 334.6 L386.4 334.4 L386.5 334.3 L386.6 334.1 L386.7 334.0 L386.9 333.9 L387.1 333.7 L387.3 333.6 L387.5 333.4 L387.7 333.3 L388.0 333.2 L388.3 333.1 L388.5 332.9 L388.9 332.8 L389.2 332.7 L389.5 332.6 L389.9 332.5 L390.3 332.4 L390.6 332.3 L391.1 332.2 L391.5 332.1 L391.9 332.0 L392.3 331.9 L392.8 331.8 L393.3 331.8 L393.7 331.7 L394.2 331.6 L394.7 331.6 L395.2 331.5 L395.7 331.5 L396.3 331.4 L396.8 331.4 L397.3 331.4 L397.8 331.3 L398.4 331.3 L398.9 331.3 L399.5 331.3 L400.0 331.3 L400.5 331.3 L401.1 331.3 L401.6 331.3 L402.2 331.3 L402.7 331.4 L403.2 331.4 L403.7 331.4 L404.3 331.5 L404.8 331.5 L405.3 331.6 L405.8 331.6 L406.3 331.7 L406.7 331.8 L407.2 331.8 L407.7 331.9 L408.1 332.0 L408.5 332.1 L408.9 332.2 L409.4 332.3 L409.7 332.4 L410.1 332.5 L410.5 332.6 L410.8 332.7 L411.1 332.8 L411.5 332.9 L411.7 333.1 L412.0 333.2 L412.3 333.3 L412.5 333.4 L412.7 333.6 L412.9 333.7 L413.1 333.9 L413.3 334.0 L413.4 334.1 L413.5 334.3 L413.6 334.4 L413.7 334.6 L413.7 334.7 L413.8 334.9 L413.8 335.0" fill="none" stroke="#232529" stroke-width="0.6" opacity="1.0" stroke-linecap="round"/>
<path d="M388.4 335.0 L388.4 334.9 L388.5 334.8 L388.5 334.6 L388.6 334.5 L388.7 334.4 L388.7 334.3 L388.9 334.2 L389.0 334.0 L389.1 333.9 L389.3 333.8 L389.5 333.7 L389.7 333.6 L389.9 333.5 L390.1 333.4 L390.4 333.3 L390.6 333.2 L390.9 333.1 L391.2 333.0 L391.5 332.9 L391.8 332.8 L392.1 332.7 L392.5 332.6 L392.8 332.5 L393.2 332.5 L393.6 332.4 L394.0 332.3 L394.3 332.3 L394.7 332.2 L395.2 332.2 L395.6 332.1 L396.0 332.1 L396.4 332.0 L396.9 332.0 L397.3 332.0 L397.7 331.9 L398.2 331.9 L398.6 331.9 L399.1 331.9 L399.5 331.9 L400.0 331.9 L400.5 331.9 L400.9 331.9 L401.4 331.9 L401.8 331.9 L402.3 331.9 L402.7 332.0 L403.1 332.0 L403.6 332.0 L404.0 332.1 L404.4 332.1 L404.8 332.2 L405.3 332.2 L405.7 332.3 L406.0 332.3 L406.4 332.4 L406.8 332.5 L407.2 332.5 L407.5 332.6 L407.9 332.7 L408.2 332.8 L408.5 332.9 L408.8 333.0 L409.1 333.1 L409.4 333.2 L409.6 333.3 L409.9 333.4 L410.1 333.5 L410.3 333.6 L410.5 333.7 L410.7 333.8 L410.9 333.9 L411.0 334.0 L411.1 334.2 L411.3 334.3 L411.3 334.4 L411.4 334.5 L411.5 334.6 L411.5 334.8 L411.6 334.9 L411.6 335.0" fill="none" stroke="#ead07a" stroke-width="2.2" opacity="0.95" stroke-linecap="round"/>
<clipPath id="scl400_335"><circle cx="400" cy="335" r="6.5"/></clipPath>
<g clip-path="url(#scl400_335)">
<rect x="393.5" y="328.5" width="13.0" height="13.0" fill="#e6d9a6"/>
<rect x="393.5" y="328.5" width="13.0" height="4.5" fill="#e2c259" opacity="0.85"/>
<path d="M400.0 328.5 A6.5 6.5 0 0 1 400.0 341.5 A5.9 6.5 0 0 0 400.0 328.5 Z" fill="#1c2733" opacity="0.16"/>
</g>
<circle cx="400" cy="335" r="6.5" fill="none" stroke="#9a8856" stroke-width="0.7" opacity="0.7"/>
<path d="M415.9 335.0 L415.9 335.2 L415.9 335.3 L415.8 335.5 L415.7 335.7 L415.6 335.8 L415.5 336.0 L415.3 336.2 L415.1 336.3 L414.9 336.5 L414.7 336.6 L414.5 336.8 L414.2 337.0 L413.9 337.1 L413.6 337.2 L413.2 337.4 L412.9 337.5 L412.5 337.7 L412.1 337.8 L411.7 337.9 L411.3 338.0 L410.8 338.2 L410.3 338.3 L409.9 338.4 L409.4 338.5 L408.8 338.6 L408.3 338.7 L407.8 338.8 L407.2 338.8 L406.7 338.9 L406.1 339.0 L405.5 339.0 L404.9 339.1 L404.3 339.1 L403.7 339.2 L403.1 339.2 L402.5 339.2 L401.9 339.3 L401.2 339.3 L400.6 339.3 L400.0 339.3 L399.4 339.3 L398.8 339.3 L398.1 339.3 L397.5 339.2 L396.9 339.2 L396.3 339.2 L395.7 339.1 L395.1 339.1 L394.5 339.0 L393.9 339.0 L393.3 338.9 L392.8 338.8 L392.2 338.8 L391.7 338.7 L391.2 338.6 L390.6 338.5 L390.1 338.4 L389.7 338.3 L389.2 338.2 L388.7 338.0 L388.3 337.9 L387.9 337.8 L387.5 337.7 L387.1 337.5 L386.8 337.4 L386.4 337.2 L386.1 337.1 L385.8 337.0 L385.5 336.8 L385.3 336.6 L385.1 336.5 L384.9 336.3 L384.7 336.2 L384.5 336.0 L384.4 335.8 L384.3 335.7 L384.2 335.5 L384.1 335.3 L384.1 335.2 L384.1 335.0" fill="none" stroke="#cda24e" stroke-width="1.6" opacity="0.95" stroke-linecap="round"/>
<path d="M413.8 335.0 L413.8 335.1 L413.7 335.3 L413.7 335.4 L413.6 335.6 L413.5 335.7 L413.4 335.9 L413.3 336.0 L413.1 336.1 L412.9 336.3 L412.7 336.4 L412.5 336.6 L412.3 336.7 L412.0 336.8 L411.7 336.9 L411.5 337.1 L411.1 337.2 L410.8 337.3 L410.5 337.4 L410.1 337.5 L409.7 337.6 L409.4 337.7 L408.9 337.8 L408.5 337.9 L408.1 338.0 L407.7 338.1 L407.2 338.2 L406.7 338.2 L406.3 338.3 L405.8 338.4 L405.3 338.4 L404.8 338.5 L404.3 338.5 L403.7 338.6 L403.2 338.6 L402.7 338.6 L402.2 338.7 L401.6 338.7 L401.1 338.7 L400.5 338.7 L400.0 338.7 L399.5 338.7 L398.9 338.7 L398.4 338.7 L397.8 338.7 L397.3 338.6 L396.8 338.6 L396.3 338.6 L395.7 338.5 L395.2 338.5 L394.7 338.4 L394.2 338.4 L393.7 338.3 L393.3 338.2 L392.8 338.2 L392.3 338.1 L391.9 338.0 L391.5 337.9 L391.1 337.8 L390.6 337.7 L390.3 337.6 L389.9 337.5 L389.5 337.4 L389.2 337.3 L388.9 337.2 L388.5 337.1 L388.3 336.9 L388.0 336.8 L387.7 336.7 L387.5 336.6 L387.3 336.4 L387.1 336.3 L386.9 336.1 L386.7 336.0 L386.6 335.9 L386.5 335.7 L386.4 335.6 L386.3 335.4 L386.3 335.3 L386.2 335.1 L386.2 335.0" fill="none" stroke="#232529" stroke-width="0.6" opacity="1.0" stroke-linecap="round"/>
<path d="M411.6 335.0 L411.6 335.1 L411.5 335.2 L411.5 335.4 L411.4 335.5 L411.3 335.6 L411.3 335.7 L411.1 335.8 L411.0 336.0 L410.9 336.1 L410.7 336.2 L410.5 336.3 L410.3 336.4 L410.1 336.5 L409.9 336.6 L409.6 336.7 L409.4 336.8 L409.1 336.9 L408.8 337.0 L408.5 337.1 L408.2 337.2 L407.9 337.3 L407.5 337.4 L407.2 337.5 L406.8 337.5 L406.4 337.6 L406.0 337.7 L405.7 337.7 L405.3 337.8 L404.8 337.8 L404.4 337.9 L404.0 337.9 L403.6 338.0 L403.1 338.0 L402.7 338.0 L402.3 338.1 L401.8 338.1 L401.4 338.1 L400.9 338.1 L400.5 338.1 L400.0 338.1 L399.5 338.1 L399.1 338.1 L398.6 338.1 L398.2 338.1 L397.7 338.1 L397.3 338.0 L396.9 338.0 L396.4 338.0 L396.0 337.9 L395.6 337.9 L395.2 337.8 L394.7 337.8 L394.3 337.7 L394.0 337.7 L393.6 337.6 L393.2 337.5 L392.8 337.5 L392.5 337.4 L392.1 337.3 L391.8 337.2 L391.5 337.1 L391.2 337.0 L390.9 336.9 L390.6 336.8 L390.4 336.7 L390.1 336.6 L389.9 336.5 L389.7 336.4 L389.5 336.3 L389.3 336.2 L389.1 336.1 L389.0 336.0 L388.9 335.8 L388.7 335.7 L388.7 335.6 L388.6 335.5 L388.5 335.4 L388.5 335.2 L388.4 335.1 L388.4 335.0" fill="none" stroke="#ead07a" stroke-width="2.2" opacity="0.95" stroke-linecap="round"/>
</svg>