<svg xmlns="http://www.w3.org/2000/svg" viewBox="298 133 204 84">
<path d="M300.0 175.0 L300.1 173.9 L300.3 172.9 L300.7 171.8 L301.2 170.8 L301.9 169.7 L302.8 168.7 L303.8 167.7 L304.9 166.7 L306.2 165.7 L307.6 164.7 L309.2 163.7 L310.9 162.7 L312.8 161.8 L314.7 160.9 L316.9 160.0 L319.1 159.1 L321.5 158.3 L324.0 157.5 L326.6 156.7 L329.3 155.9 L332.1 155.2 L335.1 154.5 L338.1 153.8 L341.2 153.2 L344.4 152.6 L347.8 152.0 L351.1 151.4 L354.6 150.9 L358.1 150.5 L361.7 150.1 L365.4 149.7 L369.1 149.3 L372.9 149.0 L376.7 148.7 L380.5 148.5 L384.4 148.3 L388.2 148.2 L392.2 148.1 L396.1 148.0 L400.0 148.0 L403.9 148.0 L407.8 148.1 L411.8 148.2 L415.6 148.3 L419.5 148.5 L423.3 148.7 L427.1 149.0 L430.9 149.3 L434.6 149.7 L438.3 150.1 L441.9 150.5 L445.4 150.9 L448.9 151.4 L452.2 152.0 L455.6 152.6 L458.8 153.2 L461.9 153.8 L464.9 154.5 L467.9 155.2 L470.7 155.9 L473.4 156.7 L476.0 157.5 L478.5 158.3 L480.9 159.1 L483.1 160.0 L485.3 160.9 L487.2 161.8 L489.1 162.7 L490.8 163.7 L492.4 164.7 L493.8 165.7 L495.1 166.7 L496.2 167.7 L497.2 168.7 L498.1 169.7 L498.8 170.8 L499.3 171.8 L499.7 172.9 L499.9 173.9 L500.0 175.0" fill="none" stroke="#d6b455" stroke-width="6.08" opacity="0.95" stroke-linecap="round"/>
<path d="M307.2 175.0 L307.3 174.0 L307.5 173.0 L307.8 172.1 L308.3 171.1 L309.0 170.1 L309.8 169.2 L310.7 168.2 L311.7 167.3 L312.9 166.3 L314.3 165.4 L315.7 164.5 L317.3 163.6 L319.0 162.8 L320.9 161.9 L322.8 161.1 L324.9 160.3 L327.1 159.5 L329.4 158.7 L331.9 158.0 L334.4 157.3 L337.0 156.6 L339.7 155.9 L342.5 155.3 L345.5 154.7 L348.4 154.2 L351.5 153.6 L354.7 153.1 L357.9 152.7 L361.1 152.2 L364.5 151.9 L367.9 151.5 L371.3 151.2 L374.8 150.9 L378.3 150.6 L381.9 150.4 L385.5 150.3 L389.1 150.1 L392.7 150.0 L396.4 150.0 L400.0 149.9 L403.6 150.0 L407.3 150.0 L410.9 150.1 L414.5 150.3 L418.1 150.4 L421.7 150.6 L425.2 150.9 L428.7 151.2 L432.1 151.5 L435.5 151.9 L438.9 152.2 L442.1 152.7 L445.3 153.1 L448.5 153.6 L451.6 154.2 L454.5 154.7 L457.5 155.3 L460.3 155.9 L463.0 156.6 L465.6 157.3 L468.1 158.0 L470.6 158.7 L472.9 159.5 L475.1 160.3 L477.2 161.1 L479.1 161.9 L481.0 162.8 L482.7 163.6 L484.3 164.5 L485.7 165.4 L487.1 166.3 L488.3 167.3 L489.3 168.2 L490.2 169.2 L491.0 170.1 L491.7 171.1 L492.2 172.1 L492.5 173.0 L492.7 174.0 L492.8 175.0" fill="none" stroke="#232529" stroke-width="2.16" opacity="1.0" stroke-linecap="round"/>
<path d="M312.8 175.0 L312.9 174.1 L313.1 173.2 L313.4 172.2 L313.9 171.3 L314.5 170.4 L315.2 169.5 L316.1 168.6 L317.1 167.7 L318.2 166.9 L319.4 166.0 L320.8 165.1 L322.3 164.3 L323.9 163.5 L325.6 162.7 L327.5 161.9 L329.5 161.2 L331.5 160.4 L333.7 159.7 L336.0 159.0 L338.3 158.4 L340.8 157.7 L343.4 157.1 L346.0 156.5 L348.7 156.0 L351.6 155.4 L354.4 154.9 L357.4 154.5 L360.4 154.0 L363.5 153.6 L366.6 153.2 L369.8 152.9 L373.1 152.6 L376.3 152.3 L379.6 152.1 L383.0 151.9 L386.4 151.7 L389.8 151.6 L393.2 151.5 L396.6 151.5 L400.0 151.5 L403.4 151.5 L406.8 151.5 L410.2 151.6 L413.6 151.7 L417.0 151.9 L420.4 152.1 L423.7 152.3 L426.9 152.6 L430.2 152.9 L433.4 153.2 L436.5 153.6 L439.6 154.0 L442.6 154.5 L445.6 154.9 L448.4 155.4 L451.3 156.0 L454.0 156.5 L456.6 157.1 L459.2 157.7 L461.7 158.4 L464.0 159.0 L466.3 159.7 L468.5 160.4 L470.5 161.2 L472.5 161.9 L474.4 162.7 L476.1 163.5 L477.7 164.3 L479.2 165.1 L480.6 166.0 L481.8 166.9 L482.9 167.7 L483.9 168.6 L484.8 169.5 L485.5 170.4 L486.1 171.3 L486.6 172.2 L486.9 173.2 L487.1 174.1 L487.2 175.0" fill="none" stroke="#c7a24c" stroke-width="2.60" opacity="0.9" stroke-linecap="round"/>
<path d="M322.0 175.0 L322.1 174.2 L322.2 173.3 L322.5 172.5 L323.0 171.7 L323.5 170.9 L324.2 170.1 L324.9 169.3 L325.8 168.5 L326.8 167.7 L327.9 166.9 L329.2 166.2 L330.5 165.4 L331.9 164.7 L333.5 164.0 L335.1 163.3 L336.9 162.6 L338.7 162.0 L340.7 161.3 L342.7 160.7 L344.8 160.1 L347.1 159.5 L349.3 159.0 L351.7 158.5 L354.2 158.0 L356.7 157.5 L359.2 157.0 L361.9 156.6 L364.6 156.2 L367.3 155.9 L370.2 155.5 L373.0 155.2 L375.9 155.0 L378.8 154.7 L381.8 154.5 L384.8 154.3 L387.8 154.2 L390.8 154.1 L393.9 154.0 L396.9 154.0 L400.0 153.9 L403.1 154.0 L406.1 154.0 L409.2 154.1 L412.2 154.2 L415.2 154.3 L418.2 154.5 L421.2 154.7 L424.1 155.0 L427.0 155.2 L429.8 155.5 L432.7 155.9 L435.4 156.2 L438.1 156.6 L440.8 157.0 L443.3 157.5 L445.8 158.0 L448.3 158.5 L450.7 159.0 L452.9 159.5 L455.2 160.1 L457.3 160.7 L459.3 161.3 L461.3 162.0 L463.1 162.6 L464.9 163.3 L466.5 164.0 L468.1 164.7 L469.5 165.4 L470.8 166.2 L472.1 166.9 L473.2 167.7 L474.2 168.5 L475.1 169.3 L475.8 170.1 L476.5 170.9 L477.0 171.7 L477.5 172.5 L477.8 173.3 L477.9 174.2 L478.0 175.0" fill="none" stroke="#ead07a" stroke-width="9.56" opacity="0.95" stroke-linecap="round"/>
<path d="M335.2 175.0 L335.2 174.3 L335.4 173.6 L335.6 172.9 L336.0 172.3 L336.4 171.6 L337.0 170.9 L337.6 170.3 L338.4 169.6 L339.2 168.9 L340.1 168.3 L341.2 167.7 L342.3 167.1 L343.5 166.5 L344.7 165.9 L346.1 165.3 L347.6 164.7 L349.1 164.2 L350.7 163.6 L352.4 163.1 L354.2 162.6 L356.0 162.2 L357.9 161.7 L359.9 161.3 L361.9 160.8 L364.0 160.5 L366.1 160.1 L368.3 159.7 L370.6 159.4 L372.9 159.1 L375.2 158.8 L377.6 158.6 L380.0 158.4 L382.4 158.2 L384.9 158.0 L387.4 157.8 L389.9 157.7 L392.4 157.6 L394.9 157.6 L397.5 157.5 L400.0 157.5 L402.5 157.5 L405.1 157.6 L407.6 157.6 L410.1 157.7 L412.6 157.8 L415.1 158.0 L417.6 158.2 L420.0 158.4 L422.4 158.6 L424.8 158.8 L427.1 159.1 L429.4 159.4 L431.7 159.7 L433.9 160.1 L436.0 160.5 L438.1 160.8 L440.1 161.3 L442.1 161.7 L444.0 162.2 L445.8 162.6 L447.6 163.1 L449.3 163.6 L450.9 164.2 L452.4 164.7 L453.9 165.3 L455.3 165.9 L456.5 166.5 L457.7 167.1 L458.8 167.7 L459.9 168.3 L460.8 168.9 L461.6 169.6 L462.4 170.3 L463.0 170.9 L463.6 171.6 L464.0 172.3 L464.4 172.9 L464.6 173.6 L464.8 174.3 L464.8 175.0" fill="none" stroke="#caa050" stroke-width="6.08" opacity="0.95" stroke-linecap="round"/>
<path d="M345.6 175.0 L345.6 174.4 L345.8 173.8 L346.0 173.3 L346.3 172.7 L346.6 172.1 L347.1 171.6 L347.6 171.0 L348.3 170.5 L349.0 169.9 L349.7 169.4 L350.6 168.9 L351.5 168.3 L352.5 167.8 L353.6 167.3 L354.8 166.8 L356.0 166.4 L357.3 165.9 L358.6 165.5 L360.1 165.0 L361.5 164.6 L363.1 164.2 L364.7 163.8 L366.3 163.5 L368.0 163.1 L369.8 162.8 L371.6 162.5 L373.4 162.2 L375.3 161.9 L377.2 161.7 L379.2 161.4 L381.2 161.2 L383.2 161.0 L385.2 160.9 L387.3 160.7 L389.4 160.6 L391.5 160.5 L393.6 160.4 L395.7 160.4 L397.9 160.3 L400.0 160.3 L402.1 160.3 L404.3 160.4 L406.4 160.4 L408.5 160.5 L410.6 160.6 L412.7 160.7 L414.8 160.9 L416.8 161.0 L418.8 161.2 L420.8 161.4 L422.8 161.7 L424.7 161.9 L426.6 162.2 L428.4 162.5 L430.2 162.8 L432.0 163.1 L433.7 163.5 L435.3 163.8 L436.9 164.2 L438.5 164.6 L439.9 165.0 L441.4 165.5 L442.7 165.9 L444.0 166.4 L445.2 166.8 L446.4 167.3 L447.5 167.8 L448.5 168.3 L449.4 168.9 L450.3 169.4 L451.0 169.9 L451.7 170.5 L452.4 171.0 L452.9 171.6 L453.4 172.1 L453.7 172.7 L454.0 173.3 L454.2 173.8 L454.4 174.4 L454.4 175.0" fill="none" stroke="#9b8c63" stroke-width="4.36" opacity="0.6" stroke-linecap="round"/>
<clipPath id="scl400_175"><circle cx="400" cy="175" r="40"/></clipPath>
<g clip-path="url(#scl400_175)">
<rect x="360" y="135" width="80" height="80" fill="#e6d9a6"/>
<rect x="360" y="135" width="80" height="28.0" fill="#e2c259" opacity="0.85"/>
<rect x="360" y="163.0" width="80" height="20.0" fill="#edd9a0" opacity="0.7"/>
<rect x="360" y="173.0" width="80" height="1.5" fill="#cbbd92" opacity="0.7"/>
<rect x="360" y="182.2" width="80" height="1.5" fill="#cbbd92" opacity="0.7"/>
<rect x="360" y="191.0" width="80" height="1.5" fill="#cbbd92" opacity="0.7"/>
<path d="M400.0 135.0 A40 40 0 0 1 400.0 215.0 A36.0 40 0 0 0 400.0 135.0 Z" fill="#1c2733" opacity="0.16"/>
</g>
<circle cx="400" cy="175" r="40" fill="none" stroke="#9a8856" stroke-width="0.7" opacity="0.7"/>
<path d="M439.2 175.0 L439.0 176.1 L438.3 177.2 L437.3 178.3 L435.8 179.3 L433.9 180.3 L431.7 181.2 L429.1 182.1 L426.2 182.9 L423.0 183.6 L419.6 184.2 L415.9 184.7 L412.1 185.1 L408.2 185.4 L404.1 185.5 L400.0 185.6 L395.9 185.5 L391.8 185.4 L387.9 185.1 L384.1 184.7 L380.4 184.2 L377.0 183.6 L373.8 182.9 L370.9 182.1 L368.3 181.2 L366.1 180.3 L364.2 179.3 L362.7 178.3 L361.7 177.2 L361.0 176.1 L360.8 175.0" fill="none" stroke="#1c2733" stroke-width="2" opacity="0.18" clip-path="url(#scl400_175)"/>
<path d="M500.0 175.0 L499.9 176.1 L499.7 177.1 L499.3 178.2 L498.8 179.2 L498.1 180.3 L497.2 181.3 L496.2 182.3 L495.1 183.3 L493.8 184.3 L492.4 185.3 L490.8 186.3 L489.1 187.3 L487.2 188.2 L485.3 189.1 L483.1 190.0 L480.9 190.9 L478.5 191.7 L476.0 192.5 L473.4 193.3 L470.7 194.1 L467.9 194.8 L464.9 195.5 L461.9 196.2 L458.8 196.8 L455.6 197.4 L452.2 198.0 L448.9 198.6 L445.4 199.1 L441.9 199.5 L438.3 199.9 L434.6 200.3 L430.9 200.7 L427.1 201.0 L423.3 201.3 L419.5 201.5 L415.6 201.7 L411.8 201.8 L407.8 201.9 L403.9 202.0 L400.0 202.0 L396.1 202.0 L392.2 201.9 L388.2 201.8 L384.4 201.7 L380.5 201.5 L376.7 201.3 L372.9 201.0 L369.1 200.7 L365.4 200.3 L361.7 199.9 L358.1 199.5 L354.6 199.1 L351.1 198.6 L347.8 198.0 L344.4 197.4 L341.2 196.8 L338.1 196.2 L335.1 195.5 L332.1 194.8 L329.3 194.1 L326.6 193.3 L324.0 192.5 L321.5 191.7 L319.1 190.9 L316.9 190.0 L314.7 189.1 L312.8 188.2 L310.9 187.3 L309.2 186.3 L307.6 185.3 L306.2 184.3 L304.9 183.3 L303.8 182.3 L302.8 181.3 L301.9 180.3 L301.2 179.2 L300.7 178.2 L300.3 177.1 L300.1 176.1 L300.0 175.0" fill="none" stroke="#d6b455" stroke-width="6.08" opacity="0.95" stroke-linecap="round"/>
<path d="M492.8 175.0 L492.7 176.0 L492.5 177.0 L492.2 177.9 L491.7 178.9 L491.0 179.9 L490.2 180.8 L489.3 181.8 L488.3 182.7 L487.1 183.7 L485.7 184.6 L484.3 185.5 L482.7 186.4 L481.0 187.2 L479.1 188.1 L477.2 188.9 L475.1 189.7 L472.9 190.5 L470.6 191.3 L468.1 192.0 L465.6 192.7 L463.0 193.4 L460.3 194.1 L457.5 194.7 L454.5 195.3 L451.6 195.8 L448.5 196.4 L445.3 196.9 L442.1 197.3 L438.9 197.8 L435.5 198.1 L432.1 198.5 L428.7 198.8 L425.2 199.1 L421.7 199.4 L418.1 199.6 L414.5 199.7 L410.9 199.9 L407.3 200.0 L403.6 200.0 L400.0 200.1 L396.4 200.0 L392.7 200.0 L389.1 199.9 L385.5 199.7 L381.9 199.6 L378.3 199.4 L374.8 199.1 L371.3 198.8 L367.9 198.5 L364.5 198.1 L361.1 197.8 L357.9 197.3 L354.7 196.9 L351.5 196.4 L348.4 195.8 L345.5 195.3 L342.5 194.7 L339.7 194.1 L337.0 193.4 L334.4 192.7 L331.9 192.0 L329.4 191.3 L327.1 190.5 L324.9 189.7 L322.8 188.9 L320.9 188.1 L319.0 187.2 L317.3 186.4 L315.7 185.5 L314.3 184.6 L312.9 183.7 L311.7 182.7 L310.7 181.8 L309.8 180.8 L309.0 179.9 L308.3 178.9 L307.8 177.9 L307.5 177.0 L307.3 176.0 L307.2 175.0" fill="none" stroke="#232529" stroke-width="2.16" opacity="1.0" stroke-linecap="round"/>
<path d="M487.2 175.0 L487.1 175.9 L486.9 176.8 L486.6 177.8 L486.1 178.7 L485.5 179.6 L484.8 180.5 L483.9 181.4 L482.9 182.3 L481.8 183.1 L480.6 184.0 L479.2 184.9 L477.7 185.7 L476.1 186.5 L474.4 187.3 L472.5 188.1 L470.5 188.8 L468.5 189.6 L466.3 190.3 L464.0 191.0 L461.7 191.6 L459.2 192.3 L456.6 192.9 L454.0 193.5 L451.3 194.0 L448.4 194.6 L445.6 195.1 L442.6 195.5 L439.6 196.0 L436.5 196.4 L433.4 196.8 L430.2 197.1 L426.9 197.4 L423.7 197.7 L420.4 197.9 L417.0 198.1 L413.6 198.3 L410.2 198.4 L406.8 198.5 L403.4 198.5 L400.0 198.5 L396.6 198.5 L393.2 198.5 L389.8 198.4 L386.4 198.3 L383.0 198.1 L379.6 197.9 L376.3 197.7 L373.1 197.4 L369.8 197.1 L366.6 196.8 L363.5 196.4 L360.4 196.0 L357.4 195.5 L354.4 195.1 L351.6 194.6 L348.7 194.0 L346.0 193.5 L343.4 192.9 L340.8 192.3 L338.3 191.6 L336.0 191.0 L333.7 190.3 L331.5 189.6 L329.5 188.8 L327.5 188.1 L325.6 187.3 L323.9 186.5 L322.3 185.7 L320.8 184.9 L319.4 184.0 L318.2 183.1 L317.1 182.3 L316.1 181.4 L315.2 180.5 L314.5 179.6 L313.9 178.7 L313.4 177.8 L313.1 176.8 L312.9 175.9 L312.8 175.0" fill="none" stroke="#c7a24c" stroke-width="2.60" opacity="0.9" stroke-linecap="round"/>
<path d="M478.0 175.0 L477.9 175.8 L477.8 176.7 L477.5 177.5 L477.0 178.3 L476.5 179.1 L475.8 179.9 L475.1 180.7 L474.2 181.5 L473.2 182.3 L472.1 183.1 L470.8 183.8 L469.5 184.6 L468.1 185.3 L466.5 186.0 L464.9 186.7 L463.1 187.4 L461.3 188.0 L459.3 188.7 L457.3 189.3 L455.2 189.9 L452.9 190.5 L450.7 191.0 L448.3 191.5 L445.8 192.0 L443.3 192.5 L440.8 193.0 L438.1 193.4 L435.4 193.8 L432.7 194.1 L429.8 194.5 L427.0 194.8 L424.1 195.0 L421.2 195.3 L418.2 195.5 L415.2 195.7 L412.2 195.8 L409.2 195.9 L406.1 196.0 L403.1 196.0 L400.0 196.1 L396.9 196.0 L393.9 196.0 L390.8 195.9 L387.8 195.8 L384.8 195.7 L381.8 195.5 L378.8 195.3 L375.9 195.0 L373.0 194.8 L370.2 194.5 L367.3 194.1 L364.6 193.8 L361.9 193.4 L359.2 193.0 L356.7 192.5 L354.2 192.0 L351.7 191.5 L349.3 191.0 L347.1 190.5 L344.8 189.9 L342.7 189.3 L340.7 188.7 L338.7 188.0 L336.9 187.4 L335.1 186.7 L333.5 186.0 L331.9 185.3 L330.5 184.6 L329.2 183.8 L327.9 183.1 L326.8 182.3 L325.8 181.5 L324.9 180.7 L324.2 179.9 L323.5 179.1 L323.0 178.3 L322.5 177.5 L322.2 176.7 L322.1 175.8 L322.0 175.0" fill="none" stroke="#ead07a" stroke-width="9.56" opacity="0.95" stroke-linecap="round"/>
<path d="M464.8 175.0 L464.8 175.7 L464.6 176.4 L464.4 177.1 L464.0 177.7 L463.6 178.4 L463.0 179.1 L462.4 179.7 L461.6 180.4 L460.8 181.1 L459.9 181.7 L458.8 182.3 L457.7 182.9 L456.5 183.5 L455.3 184.1 L453.9 184.7 L452.4 185.3 L450.9 185.8 L449.3 186.4 L447.6 186.9 L445.8 187.4 L444.0 187.8 L442.1 188.3 L440.1 188.7 L438.1 189.2 L436.0 189.5 L433.9 189.9 L431.7 190.3 L429.4 190.6 L427.1 190.9 L424.8 191.2 L422.4 191.4 L420.0 191.6 L417.6 191.8 L415.1 192.0 L412.6 192.2 L410.1 192.3 L407.6 192.4 L405.1 192.4 L402.5 192.5 L400.0 192.5 L397.5 192.5 L394.9 192.4 L392.4 192.4 L389.9 192.3 L387.4 192.2 L384.9 192.0 L382.4 191.8 L380.0 191.6 L377.6 191.4 L375.2 191.2 L372.9 190.9 L370.6 190.6 L368.3 190.3 L366.1 189.9 L364.0 189.5 L361.9 189.2 L359.9 188.7 L357.9 188.3 L356.0 187.8 L354.2 187.4 L352.4 186.9 L350.7 186.4 L349.1 185.8 L347.6 185.3 L346.1 184.7 L344.7 184.1 L343.5 183.5 L342.3 182.9 L341.2 182.3 L340.1 181.7 L339.2 181.1 L338.4 180.4 L337.6 179.7 L337.0 179.1 L336.4 178.4 L336.0 177.7 L335.6 177.1 L335.4 176.4 L335.2 175.7 L335.2 175.0" fill="none" stroke="#caa050" stroke-width="6.08" opacity="0.95" stroke-linecap="round"/>
<path d="M454.4 175.0 L454.4 175.6 L454.2 176.2 L454.0 176.7 L453.7 177.3 L453.4 177.9 L452.9 178.4 L452.4 179.0 L451.7 179.5 L451.0 180.1 L450.3 180.6 L449.4 181.1 L448.5 181.7 L447.5 182.2 L446.4 182.7 L445.2 183.2 L444.0 183.6 L442.7 184.1 L441.4 184.5 L439.9 185.0 L438.5 185.4 L436.9 185.8 L435.3 186.2 L433.7 186.5 L432.0 186.9 L430.2 187.2 L428.4 187.5 L426.6 187.8 L424.7 188.1 L422.8 188.3 L420.8 188.6 L418.8 188.8 L416.8 189.0 L414.8 189.1 L412.7 189.3 L410.6 189.4 L408.5 189.5 L406.4 189.6 L404.3 189.6 L402.1 189.7 L400.0 189.7 L397.9 189.7 L395.7 189.6 L393.6 189.6 L391.5 189.5 L389.4 189.4 L387.3 189.3 L385.2 189.1 L383.2 189.0 L381.2 188.8 L379.2 188.6 L377.2 188.3 L375.3 188.1 L373.4 187.8 L371.6 187.5 L369.8 187.2 L368.0 186.9 L366.3 186.5 L364.7 186.2 L363.1 185.8 L361.5 185.4 L360.1 185.0 L358.6 184.5 L357.3 184.1 L356.0 183.6 L354.8 183.2 L353.6 182.7 L352.5 182.2 L351.5 181.7 L350.6 181.1 L349.7 180.6 L349.0 180.1 L348.3 179.5 L347.6 179.0 L347.1 178.4 L346.6 177.9 L346.3 177.3 L346.0 176.7 L345.8 176.2 L345.6 175.6 L345.6 175.0" fill="none" stroke="#9b8c63" stroke-width="4.36" opacity="0.6" stroke-linecap="round"/>
</svg>