<svg xmlns="http://www.w3.org/2000/svg" width="100%" height="100%" viewBox="138 113 124 124">
<clipPath id="sc_sun_large"><circle cx="200" cy="175" r="62"/></clipPath>
<g clip-path="url(#sc_sun_large)">
<circle cx="200" cy="175" r="62.00" fill="#d4831e"/>
<circle cx="200" cy="175" r="59.21" fill="#efb531"/>
<circle cx="200" cy="175" r="56.42" fill="#f6c63e"/>
<circle cx="200.5" cy="144.5" r="0.64" fill="#fcdc6b" opacity="0.07"/>
<circle cx="222.6" cy="158.0" r="0.47" fill="#fcdc6b" opacity="0.06"/>
<circle cx="225.4" cy="193.2" r="0.49" fill="#fcdc6b" opacity="0.09"/>
<circle cx="147.1" cy="181.9" r="0.48" fill="#e7a82b" opacity="0.11"/>
<circle cx="208.3" cy="208.0" r="0.34" fill="#fcdc6b" opacity="0.10"/>
<circle cx="193.9" cy="161.9" r="0.65" fill="#e7a82b" opacity="0.10"/>
<circle cx="234.8" cy="189.5" r="0.32" fill="#e7a82b" opacity="0.11"/>
<circle cx="194.7" cy="129.6" r="0.46" fill="#fcdc6b" opacity="0.10"/>
<circle cx="234.4" cy="132.2" r="0.48" fill="#e7a82b" opacity="0.10"/>
<circle cx="228.8" cy="161.4" r="0.61" fill="#e7a82b" opacity="0.06"/>
<circle cx="221.7" cy="220.3" r="0.68" fill="#fcdc6b" opacity="0.09"/>
<circle cx="183.8" cy="208.1" r="0.67" fill="#e7a82b" opacity="0.06"/>
<circle cx="170.3" cy="133.0" r="0.43" fill="#fcdc6b" opacity="0.05"/>
<circle cx="198.9" cy="223.0" r="0.51" fill="#fcdc6b" opacity="0.10"/>
<circle cx="199.3" cy="149.2" r="0.62" fill="#fcdc6b" opacity="0.05"/>
<circle cx="212.0" cy="187.5" r="0.44" fill="#fcdc6b" opacity="0.08"/>
<circle cx="198.9" cy="209.6" r="0.53" fill="#e7a82b" opacity="0.07"/>
<circle cx="205.0" cy="190.2" r="0.29" fill="#fcdc6b" opacity="0.09"/>
<circle cx="247.9" cy="193.6" r="0.71" fill="#e7a82b" opacity="0.09"/>
<circle cx="164.9" cy="156.0" r="0.63" fill="#fcdc6b" opacity="0.07"/>
<circle cx="198.0" cy="121.0" r="0.56" fill="#e7a82b" opacity="0.07"/>
<circle cx="180.8" cy="144.4" r="0.49" fill="#e7a82b" opacity="0.07"/>
<circle cx="185.1" cy="146.1" r="0.45" fill="#e7a82b" opacity="0.09"/>
<circle cx="162.7" cy="134.5" r="0.62" fill="#e7a82b" opacity="0.05"/>
<circle cx="172.2" cy="191.3" r="0.75" fill="#fcdc6b" opacity="0.07"/>
<circle cx="226.4" cy="149.1" r="0.70" fill="#e7a82b" opacity="0.10"/>
<circle cx="221.1" cy="158.1" r="0.28" fill="#fcdc6b" opacity="0.09"/>
<circle cx="194.7" cy="200.4" r="0.59" fill="#fcdc6b" opacity="0.10"/>
<circle cx="167.9" cy="191.4" r="0.53" fill="#fcdc6b" opacity="0.08"/>
<circle cx="209.0" cy="125.1" r="0.67" fill="#e7a82b" opacity="0.08"/>
<circle cx="241.8" cy="148.5" r="0.54" fill="#e7a82b" opacity="0.11"/>
<circle cx="227.4" cy="141.3" r="0.64" fill="#e7a82b" opacity="0.11"/>
<circle cx="172.8" cy="210.3" r="0.63" fill="#fcdc6b" opacity="0.06"/>
<circle cx="234.3" cy="166.2" r="0.27" fill="#fcdc6b" opacity="0.08"/>
<circle cx="182.4" cy="166.0" r="0.59" fill="#e7a82b" opacity="0.08"/>
<circle cx="145.0" cy="177.7" r="0.31" fill="#e7a82b" opacity="0.07"/>
<circle cx="244.0" cy="162.7" r="0.69" fill="#fcdc6b" opacity="0.10"/>
<circle cx="200.8" cy="155.0" r="0.67" fill="#e7a82b" opacity="0.08"/>
<circle cx="194.6" cy="127.8" r="0.74" fill="#e7a82b" opacity="0.07"/>
<circle cx="171.0" cy="221.3" r="0.49" fill="#fcdc6b" opacity="0.10"/>
<circle cx="236.7" cy="197.6" r="0.56" fill="#e7a82b" opacity="0.07"/>
<circle cx="224.2" cy="177.1" r="0.65" fill="#e7a82b" opacity="0.09"/>
<circle cx="217.1" cy="221.2" r="0.76" fill="#fcdc6b" opacity="0.06"/>
<circle cx="189.3" cy="201.4" r="0.29" fill="#fcdc6b" opacity="0.06"/>
<circle cx="212.6" cy="204.2" r="0.44" fill="#fcdc6b" opacity="0.07"/>
<circle cx="177.4" cy="138.1" r="0.72" fill="#e7a82b" opacity="0.10"/>
<circle cx="243.8" cy="202.7" r="0.68" fill="#e7a82b" opacity="0.08"/>
<circle cx="224.7" cy="134.3" r="0.66" fill="#e7a82b" opacity="0.11"/>
<circle cx="229.8" cy="178.9" r="0.75" fill="#fcdc6b" opacity="0.11"/>
<circle cx="246.0" cy="203.3" r="0.31" fill="#fcdc6b" opacity="0.06"/>
<circle cx="195.0" cy="217.3" r="0.38" fill="#e7a82b" opacity="0.06"/>
<circle cx="225.9" cy="146.5" r="0.51" fill="#fcdc6b" opacity="0.09"/>
<circle cx="240.1" cy="169.7" r="0.55" fill="#e7a82b" opacity="0.10"/>
<circle cx="198.4" cy="146.3" r="0.41" fill="#e7a82b" opacity="0.11"/>
<circle cx="181.6" cy="209.3" r="0.42" fill="#e7a82b" opacity="0.08"/>
<circle cx="153.6" cy="167.8" r="0.44" fill="#e7a82b" opacity="0.09"/>
<circle cx="180.9" cy="148.7" r="0.61" fill="#fcdc6b" opacity="0.07"/>
<circle cx="193.4" cy="139.2" r="0.35" fill="#e7a82b" opacity="0.09"/>
<circle cx="179.7" cy="214.4" r="0.48" fill="#fcdc6b" opacity="0.10"/>
<circle cx="180.9" cy="191.2" r="0.47" fill="#e7a82b" opacity="0.06"/>
<circle cx="179.8" cy="135.2" r="0.76" fill="#fcdc6b" opacity="0.08"/>
<circle cx="227.0" cy="162.8" r="0.37" fill="#e7a82b" opacity="0.06"/>
<circle cx="168.2" cy="170.0" r="0.60" fill="#fcdc6b" opacity="0.05"/>
<circle cx="164.4" cy="155.4" r="0.80" fill="#e7a82b" opacity="0.10"/>
<circle cx="174.9" cy="135.9" r="0.79" fill="#e7a82b" opacity="0.05"/>
<circle cx="244.7" cy="160.5" r="0.27" fill="#e7a82b" opacity="0.09"/>
<circle cx="196.8" cy="169.2" r="0.77" fill="#e7a82b" opacity="0.08"/>
<circle cx="208.2" cy="227.0" r="0.54" fill="#e7a82b" opacity="0.10"/>
<circle cx="179.7" cy="162.7" r="0.70" fill="#e7a82b" opacity="0.05"/>
<circle cx="224.7" cy="201.0" r="0.52" fill="#fcdc6b" opacity="0.11"/>
<circle cx="165.4" cy="206.4" r="0.75" fill="#e7a82b" opacity="0.05"/>
<circle cx="227.7" cy="186.6" r="0.47" fill="#fcdc6b" opacity="0.06"/>
<circle cx="215.5" cy="192.5" r="0.51" fill="#fcdc6b" opacity="0.10"/>
<circle cx="153.7" cy="170.2" r="0.26" fill="#e7a82b" opacity="0.06"/>
<circle cx="252.9" cy="160.3" r="0.29" fill="#e7a82b" opacity="0.06"/>
<circle cx="180.1" cy="131.6" r="0.69" fill="#fcdc6b" opacity="0.08"/>
<circle cx="241.9" cy="175.7" r="0.68" fill="#e7a82b" opacity="0.09"/>
<circle cx="198.3" cy="150.8" r="0.56" fill="#fcdc6b" opacity="0.09"/>
<circle cx="167.8" cy="169.2" r="0.37" fill="#fcdc6b" opacity="0.10"/>
<circle cx="209.7" cy="207.2" r="0.56" fill="#fcdc6b" opacity="0.11"/>
<circle cx="165.6" cy="213.3" r="0.73" fill="#e7a82b" opacity="0.10"/>
<circle cx="234.5" cy="136.5" r="0.59" fill="#fcdc6b" opacity="0.09"/>
<circle cx="242.1" cy="199.6" r="0.66" fill="#fcdc6b" opacity="0.07"/>
<circle cx="202.9" cy="155.4" r="0.57" fill="#fcdc6b" opacity="0.11"/>
<circle cx="203.4" cy="207.6" r="0.44" fill="#fcdc6b" opacity="0.09"/>
<circle cx="196.5" cy="199.3" r="0.32" fill="#fcdc6b" opacity="0.09"/>
<circle cx="169.7" cy="157.7" r="0.39" fill="#fcdc6b" opacity="0.08"/>
<circle cx="186.1" cy="175.7" r="0.37" fill="#fcdc6b" opacity="0.08"/>
<circle cx="168.6" cy="214.9" r="0.40" fill="#e7a82b" opacity="0.07"/>
<circle cx="197.6" cy="170.1" r="0.35" fill="#fcdc6b" opacity="0.09"/>
<circle cx="191.6" cy="177.0" r="0.74" fill="#fcdc6b" opacity="0.10"/>
<circle cx="227.5" cy="198.2" r="0.71" fill="#e7a82b" opacity="0.05"/>
<circle cx="241.5" cy="179.9" r="0.54" fill="#fcdc6b" opacity="0.10"/>
<circle cx="216.0" cy="181.4" r="0.79" fill="#fcdc6b" opacity="0.07"/>
<circle cx="200.6" cy="208.5" r="0.26" fill="#e7a82b" opacity="0.09"/>
<circle cx="199.7" cy="122.4" r="0.40" fill="#fcdc6b" opacity="0.10"/>
<circle cx="185.7" cy="167.8" r="0.34" fill="#e7a82b" opacity="0.09"/>
<circle cx="208.5" cy="227.8" r="0.45" fill="#fcdc6b" opacity="0.07"/>
<circle cx="244.7" cy="205.7" r="0.54" fill="#e7a82b" opacity="0.09"/>
<circle cx="198.7" cy="196.0" r="0.66" fill="#e7a82b" opacity="0.08"/>
<circle cx="178.3" cy="198.3" r="0.52" fill="#fcdc6b" opacity="0.06"/>
<circle cx="193.3" cy="151.5" r="0.55" fill="#e7a82b" opacity="0.06"/>
<circle cx="192.5" cy="128.2" r="0.50" fill="#e7a82b" opacity="0.10"/>
<circle cx="239.8" cy="182.1" r="0.26" fill="#fcdc6b" opacity="0.08"/>
<circle cx="225.0" cy="154.1" r="0.57" fill="#fcdc6b" opacity="0.11"/>
<circle cx="187.8" cy="125.4" r="0.75" fill="#e7a82b" opacity="0.10"/>
<circle cx="161.3" cy="197.6" r="0.27" fill="#e7a82b" opacity="0.06"/>
<circle cx="192.2" cy="182.1" r="0.64" fill="#e7a82b" opacity="0.06"/>
<circle cx="175.8" cy="222.2" r="0.26" fill="#e7a82b" opacity="0.10"/>
<circle cx="194.0" cy="154.6" r="0.54" fill="#fcdc6b" opacity="0.07"/>
<circle cx="174.1" cy="189.6" r="0.32" fill="#e7a82b" opacity="0.10"/>
<circle cx="207.4" cy="133.3" r="0.33" fill="#fcdc6b" opacity="0.05"/>
<circle cx="230.5" cy="217.2" r="0.29" fill="#e7a82b" opacity="0.10"/>
<circle cx="178.2" cy="159.9" r="0.25" fill="#fcdc6b" opacity="0.06"/>
<circle cx="207.0" cy="142.2" r="0.63" fill="#fcdc6b" opacity="0.07"/>
<circle cx="159.3" cy="166.9" r="0.57" fill="#e7a82b" opacity="0.10"/>
<circle cx="171.7" cy="155.2" r="0.56" fill="#fcdc6b" opacity="0.07"/>
<circle cx="221.9" cy="135.0" r="0.35" fill="#e7a82b" opacity="0.11"/>
<circle cx="163.2" cy="143.5" r="0.38" fill="#fcdc6b" opacity="0.09"/>
<circle cx="166.9" cy="131.6" r="0.75" fill="#e7a82b" opacity="0.10"/>
<circle cx="187.1" cy="215.2" r="0.75" fill="#fcdc6b" opacity="0.07"/>
<circle cx="146.5" cy="174.5" r="0.74" fill="#e7a82b" opacity="0.08"/>
<circle cx="252.6" cy="189.6" r="0.49" fill="#fcdc6b" opacity="0.08"/>
<circle cx="235.9" cy="180.9" r="0.64" fill="#fcdc6b" opacity="0.10"/>
<circle cx="177.0" cy="180.0" r="0.61" fill="#fcdc6b" opacity="0.06"/>
<circle cx="244.3" cy="148.8" r="0.79" fill="#e7a82b" opacity="0.05"/>
<circle cx="216.9" cy="131.8" r="0.74" fill="#e7a82b" opacity="0.05"/>
<circle cx="198.6" cy="210.3" r="0.36" fill="#e7a82b" opacity="0.09"/>
<circle cx="203.0" cy="195.3" r="0.52" fill="#fcdc6b" opacity="0.09"/>
<circle cx="255.1" cy="180.3" r="0.60" fill="#e7a82b" opacity="0.06"/>
<ellipse cx="221.1" cy="160.1" rx="3.53" ry="2.83" fill="#9a6a24" opacity="0.45" transform="rotate(10 221.1 160.1)"/>
<ellipse cx="221.1" cy="160.1" rx="2.36" ry="1.88" fill="#4a3212" opacity="0.9" transform="rotate(10 221.1 160.1)"/>
<ellipse cx="182.6" cy="189.9" rx="1.86" ry="1.49" fill="#9a6a24" opacity="0.45" transform="rotate(-8 182.6 189.9)"/>
<ellipse cx="182.6" cy="189.9" rx="1.24" ry="0.99" fill="#4a3212" opacity="0.9" transform="rotate(-8 182.6 189.9)"/>
<circle cx="200" cy="175" r="61.07" fill="none" stroke="#d4831e" stroke-width="1.24" opacity="0.3"/>
</g>
<circle cx="200" cy="175" r="62" fill="none" stroke="#9c6a26" stroke-width="0.87" opacity="0.75"/>
</svg>
