<svg xmlns="http://www.w3.org/2000/svg" viewBox="108 106 124 124">
<clipPath id="ti170_168"><circle cx="170" cy="168" r="62"/></clipPath>
<g clip-path="url(#ti170_168)">
<rect x="108" y="106" width="124" height="124" fill="#cf9846"/>
<ellipse cx="170.0" cy="133.9" rx="82.5" ry="39.1" fill="#e6b466" opacity="0.4" transform="rotate(0 170.0 133.9)"/>
<ellipse cx="170.0" cy="206.4" rx="85.6" ry="37.2" fill="#dda757" opacity="0.34" transform="rotate(0 170.0 206.4)"/>
<ellipse cx="166.9" cy="174.2" rx="65.3" ry="31.6" fill="#9a6e2e" opacity="0.26" transform="rotate(-4 166.9 174.2)"/>
<ellipse cx="158.8" cy="175.4" rx="40.1" ry="23.6" fill="#8a5e26" opacity="0.22" transform="rotate(-6 158.8 175.4)"/>
<ellipse cx="182.4" cy="171.7" rx="35.3" ry="20.0" fill="#946627" opacity="0.2" transform="rotate(6 182.4 171.7)"/>
<ellipse cx="168.8" cy="177.9" rx="29.8" ry="16.1" fill="#7e561f" opacity="0.18" transform="rotate(0 168.8 177.9)"/>
<circle cx="170" cy="168" r="61.0" fill="none" stroke="#f3d493" stroke-width="3.1" opacity="0.32"/>
<path d="M170.0 106.0 A62 62 0 0 1 170.0 230.0 A53.3 62 0 0 0 170.0 106.0 Z" fill="#3a2a10" opacity="0.16"/>
</g>
<circle cx="170" cy="168" r="62" fill="none" stroke="#9a6e2e" stroke-width="0.8" opacity="0.7"/>
</svg>
