<svg xmlns="http://www.w3.org/2000/svg" viewBox="331 108 126 121" width="126" height="121">
<g id="vesta-large"><clipPath id="ve390_168"><path d="M454.3 158.7 Q455.3 168.0 452.5 176.7 Q449.7 185.4 447.0 194.5 Q444.4 203.5 436.0 209.1 Q427.6 214.6 418.3 217.6 Q409.0 220.6 399.5 224.2 Q390.0 227.9 380.1 225.3 Q370.2 222.8 363.2 216.4 Q356.1 209.9 351.8 202.9 Q347.5 195.8 342.6 189.5 Q337.7 183.3 335.0 175.7 Q332.4 168.0 332.3 159.5 Q332.2 151.1 335.2 142.6 Q338.2 134.1 344.7 127.1 Q351.3 120.0 360.8 116.9 Q370.4 113.8 380.2 111.5 Q390.0 109.2 399.9 111.2 Q409.8 113.2 418.1 118.0 Q426.5 122.8 434.1 128.5 Q441.8 134.1 447.5 141.8 Q453.3 149.5 454.3 158.7 Z"/></clipPath>
<g clip-path="url(#ve390_168)">
<rect x="313.2" y="91.2" width="153.6" height="153.6" fill="#9c9992"/>
<ellipse cx="377.2" cy="161.6" rx="61.4" ry="51.2" fill="#adaaa2" opacity="0.18" transform="rotate(0 377.2 161.6)"/>
<ellipse cx="402.8" cy="177.6" rx="56.3" ry="51.2" fill="#86837c" opacity="0.18" transform="rotate(0 402.8 177.6)"/>
<ellipse cx="409.2" cy="139.2" rx="43.5" ry="15.2" fill="#6b6860" opacity="0.16" transform="rotate(-18 409.2 139.2)"/><ellipse cx="409.2" cy="139.2" rx="25.6" ry="9.0" fill="#6b6860" opacity="0.34" transform="rotate(-18 409.2 139.2)"/>
<ellipse cx="396.4" cy="132.8" rx="37.0" ry="10.9" fill="#726f67" opacity="0.14" transform="rotate(-14 396.4 132.8)"/><ellipse cx="396.4" cy="132.8" rx="21.8" ry="6.4" fill="#726f67" opacity="0.3" transform="rotate(-14 396.4 132.8)"/>
<circle cx="351.7" cy="134.4" r="1.4" fill="#68655e" opacity="0.17"/><circle cx="399.3" cy="163.5" r="1.3" fill="#c2bfb6" opacity="0.13"/><circle cx="413.3" cy="175.1" r="1.0" fill="#c2bfb6" opacity="0.13"/><circle cx="344.7" cy="156.5" r="1.2" fill="#7d7a73" opacity="0.15"/><circle cx="413.9" cy="215.4" r="0.7" fill="#c2bfb6" opacity="0.2"/><circle cx="421.4" cy="201.6" r="0.6" fill="#7d7a73" opacity="0.22"/><circle cx="444.6" cy="169.6" r="1.4" fill="#7d7a73" opacity="0.13"/><circle cx="434.3" cy="158.2" r="1.1" fill="#68655e" opacity="0.12"/><circle cx="417.0" cy="163.1" r="0.8" fill="#c2bfb6" opacity="0.14"/><circle cx="401.9" cy="186.4" r="0.8" fill="#7d7a73" opacity="0.2"/><circle cx="348.9" cy="145.8" r="0.8" fill="#68655e" opacity="0.13"/><circle cx="408.0" cy="132.8" r="0.7" fill="#c2bfb6" opacity="0.16"/><circle cx="404.1" cy="193.3" r="1.4" fill="#7d7a73" opacity="0.14"/><circle cx="352.1" cy="191.4" r="0.9" fill="#c2bfb6" opacity="0.17"/><circle cx="403.4" cy="168.7" r="1.1" fill="#7d7a73" opacity="0.21"/><circle cx="412.6" cy="186.8" r="0.8" fill="#c2bfb6" opacity="0.14"/><circle cx="336.0" cy="160.4" r="1.1" fill="#7d7a73" opacity="0.19"/><circle cx="367.3" cy="190.5" r="1.4" fill="#c2bfb6" opacity="0.11"/><circle cx="363.8" cy="204.8" r="0.8" fill="#7d7a73" opacity="0.21"/><circle cx="356.7" cy="159.3" r="0.8" fill="#c2bfb6" opacity="0.2"/><circle cx="353.1" cy="134.1" r="1.5" fill="#c2bfb6" opacity="0.12"/><circle cx="448.8" cy="184.7" r="1.4" fill="#68655e" opacity="0.1"/><circle cx="387.8" cy="135.3" r="1.0" fill="#c2bfb6" opacity="0.15"/><circle cx="445.8" cy="186.3" r="1.3" fill="#7d7a73" opacity="0.14"/><circle cx="406.4" cy="221.3" r="1.4" fill="#68655e" opacity="0.16"/><circle cx="394.8" cy="150.3" r="0.9" fill="#c2bfb6" opacity="0.11"/><circle cx="369.5" cy="178.0" r="1.4" fill="#68655e" opacity="0.2"/><circle cx="348.5" cy="179.2" r="0.8" fill="#68655e" opacity="0.13"/><circle cx="332.1" cy="177.9" r="0.9" fill="#7d7a73" opacity="0.22"/><circle cx="437.6" cy="156.9" r="1.4" fill="#c2bfb6" opacity="0.12"/><circle cx="345.5" cy="170.0" r="1.4" fill="#68655e" opacity="0.14"/><circle cx="402.3" cy="120.1" r="1.1" fill="#68655e" opacity="0.1"/><circle cx="374.1" cy="207.3" r="0.8" fill="#68655e" opacity="0.15"/><circle cx="396.4" cy="121.9" r="1.5" fill="#c2bfb6" opacity="0.14"/><circle cx="414.8" cy="214.5" r="1.0" fill="#c2bfb6" opacity="0.13"/><circle cx="370.0" cy="134.5" r="1.1" fill="#68655e" opacity="0.18"/><circle cx="361.3" cy="204.6" r="1.4" fill="#68655e" opacity="0.14"/><circle cx="412.8" cy="157.1" r="0.9" fill="#68655e" opacity="0.14"/><circle cx="378.2" cy="186.2" r="0.7" fill="#7d7a73" opacity="0.14"/><circle cx="410.0" cy="144.4" r="1.2" fill="#7d7a73" opacity="0.19"/><circle cx="415.9" cy="211.5" r="1.0" fill="#68655e" opacity="0.19"/><circle cx="375.0" cy="207.3" r="0.8" fill="#68655e" opacity="0.2"/><circle cx="405.9" cy="208.3" r="1.2" fill="#68655e" opacity="0.12"/><circle cx="370.7" cy="127.2" r="1.5" fill="#7d7a73" opacity="0.22"/><circle cx="419.6" cy="213.5" r="0.8" fill="#7d7a73" opacity="0.12"/><circle cx="394.1" cy="177.9" r="0.9" fill="#c2bfb6" opacity="0.18"/><circle cx="415.2" cy="179.0" r="1.4" fill="#68655e" opacity="0.1"/><circle cx="362.9" cy="184.5" r="1.4" fill="#c2bfb6" opacity="0.18"/><circle cx="331.7" cy="152.0" r="1.1" fill="#68655e" opacity="0.11"/><circle cx="355.3" cy="158.9" r="0.8" fill="#68655e" opacity="0.14"/><circle cx="417.3" cy="193.9" r="1.1" fill="#68655e" opacity="0.14"/><circle cx="420.1" cy="201.6" r="1.0" fill="#68655e" opacity="0.12"/><circle cx="402.5" cy="180.5" r="0.5" fill="#68655e" opacity="0.11"/><circle cx="345.4" cy="150.4" r="0.8" fill="#7d7a73" opacity="0.21"/><circle cx="352.6" cy="153.6" r="1.0" fill="#7d7a73" opacity="0.16"/><circle cx="380.0" cy="134.6" r="1.1" fill="#7d7a73" opacity="0.13"/><circle cx="433.4" cy="163.3" r="0.5" fill="#c2bfb6" opacity="0.21"/><circle cx="368.8" cy="218.4" r="1.0" fill="#7d7a73" opacity="0.11"/><circle cx="360.2" cy="142.2" r="0.5" fill="#c2bfb6" opacity="0.12"/><circle cx="356.4" cy="192.2" r="0.8" fill="#68655e" opacity="0.19"/><circle cx="396.1" cy="140.9" r="1.3" fill="#c2bfb6" opacity="0.19"/><circle cx="380.3" cy="206.2" r="1.0" fill="#c2bfb6" opacity="0.2"/><circle cx="433.0" cy="132.0" r="1.3" fill="#7d7a73" opacity="0.14"/><circle cx="354.8" cy="161.2" r="1.2" fill="#c2bfb6" opacity="0.1"/><circle cx="359.9" cy="205.4" r="0.6" fill="#68655e" opacity="0.1"/><circle cx="341.4" cy="152.8" r="1.4" fill="#7d7a73" opacity="0.17"/><circle cx="444.5" cy="172.5" r="1.1" fill="#c2bfb6" opacity="0.18"/><circle cx="437.9" cy="155.0" r="1.0" fill="#c2bfb6" opacity="0.18"/><circle cx="378.8" cy="116.0" r="1.3" fill="#c2bfb6" opacity="0.11"/><circle cx="416.7" cy="128.1" r="1.1" fill="#c2bfb6" opacity="0.18"/><circle cx="355.9" cy="173.4" r="1.0" fill="#7d7a73" opacity="0.17"/><circle cx="354.3" cy="168.5" r="0.9" fill="#7d7a73" opacity="0.16"/><circle cx="440.7" cy="182.4" r="1.3" fill="#c2bfb6" opacity="0.2"/><circle cx="384.9" cy="160.4" r="0.9" fill="#68655e" opacity="0.11"/><circle cx="354.1" cy="189.9" r="1.3" fill="#7d7a73" opacity="0.13"/><circle cx="353.1" cy="124.8" r="1.4" fill="#68655e" opacity="0.2"/><circle cx="378.7" cy="132.4" r="1.1" fill="#7d7a73" opacity="0.15"/><circle cx="415.9" cy="205.4" r="1.1" fill="#7d7a73" opacity="0.18"/><circle cx="389.1" cy="138.5" r="1.1" fill="#68655e" opacity="0.17"/><circle cx="406.4" cy="153.8" r="0.6" fill="#c2bfb6" opacity="0.18"/><circle cx="353.2" cy="170.2" r="0.9" fill="#68655e" opacity="0.11"/><circle cx="382.2" cy="147.5" r="1.2" fill="#68655e" opacity="0.13"/><circle cx="433.0" cy="153.2" r="0.8" fill="#7d7a73" opacity="0.17"/><circle cx="388.6" cy="216.4" r="1.5" fill="#68655e" opacity="0.18"/><circle cx="417.3" cy="139.5" r="0.7" fill="#c2bfb6" opacity="0.19"/><circle cx="379.8" cy="154.5" r="0.5" fill="#68655e" opacity="0.19"/><circle cx="348.2" cy="166.5" r="1.4" fill="#c2bfb6" opacity="0.16"/><circle cx="365.4" cy="212.7" r="1.0" fill="#7d7a73" opacity="0.15"/><circle cx="424.9" cy="123.7" r="1.2" fill="#c2bfb6" opacity="0.13"/><circle cx="435.7" cy="204.7" r="1.0" fill="#68655e" opacity="0.12"/><circle cx="378.6" cy="135.3" r="0.8" fill="#7d7a73" opacity="0.21"/><circle cx="374.7" cy="120.1" r="0.6" fill="#c2bfb6" opacity="0.2"/><circle cx="356.7" cy="127.9" r="1.5" fill="#c2bfb6" opacity="0.14"/><circle cx="450.3" cy="180.6" r="1.2" fill="#7d7a73" opacity="0.15"/><circle cx="399.3" cy="173.8" r="0.7" fill="#7d7a73" opacity="0.16"/><circle cx="436.6" cy="150.5" r="0.5" fill="#c2bfb6" opacity="0.16"/><circle cx="427.6" cy="139.9" r="0.8" fill="#c2bfb6" opacity="0.16"/><circle cx="408.0" cy="210.2" r="0.9" fill="#7d7a73" opacity="0.15"/><circle cx="407.7" cy="153.1" r="0.6" fill="#c2bfb6" opacity="0.2"/><circle cx="390.1" cy="122.2" r="1.0" fill="#7d7a73" opacity="0.1"/><circle cx="423.5" cy="152.5" r="1.2" fill="#7d7a73" opacity="0.18"/><circle cx="330.6" cy="177.6" r="1.3" fill="#7d7a73" opacity="0.14"/><circle cx="360.9" cy="175.8" r="0.5" fill="#7d7a73" opacity="0.19"/><circle cx="345.1" cy="147.5" r="0.9" fill="#68655e" opacity="0.2"/><circle cx="367.2" cy="191.5" r="0.9" fill="#c2bfb6" opacity="0.11"/><circle cx="432.4" cy="166.5" r="0.7" fill="#7d7a73" opacity="0.13"/><circle cx="436.6" cy="179.9" r="1.5" fill="#68655e" opacity="0.1"/><circle cx="440.8" cy="186.4" r="0.7" fill="#c2bfb6" opacity="0.1"/><circle cx="419.1" cy="124.1" r="0.9" fill="#68655e" opacity="0.11"/><circle cx="443.1" cy="190.9" r="0.6" fill="#c2bfb6" opacity="0.16"/><circle cx="369.6" cy="127.1" r="0.9" fill="#c2bfb6" opacity="0.11"/><circle cx="388.6" cy="203.6" r="1.1" fill="#c2bfb6" opacity="0.21"/><circle cx="416.0" cy="160.4" r="1.0" fill="#68655e" opacity="0.14"/><circle cx="372.3" cy="164.8" r="1.3" fill="#c2bfb6" opacity="0.11"/><circle cx="414.9" cy="165.9" r="1.4" fill="#7d7a73" opacity="0.13"/><circle cx="435.3" cy="172.5" r="0.9" fill="#c2bfb6" opacity="0.19"/><circle cx="367.6" cy="165.2" r="1.4" fill="#7d7a73" opacity="0.14"/><circle cx="336.4" cy="184.0" r="1.1" fill="#7d7a73" opacity="0.12"/><circle cx="335.5" cy="173.2" r="1.3" fill="#c2bfb6" opacity="0.14"/><circle cx="402.2" cy="179.6" r="1.2" fill="#7d7a73" opacity="0.2"/><circle cx="439.6" cy="158.8" r="0.6" fill="#c2bfb6" opacity="0.18"/><circle cx="416.5" cy="175.4" r="1.4" fill="#c2bfb6" opacity="0.21"/><circle cx="439.0" cy="189.4" r="1.3" fill="#c2bfb6" opacity="0.17"/><circle cx="429.9" cy="140.5" r="1.1" fill="#7d7a73" opacity="0.15"/><circle cx="410.5" cy="126.7" r="1.2" fill="#7d7a73" opacity="0.18"/><circle cx="383.8" cy="218.0" r="1.1" fill="#c2bfb6" opacity="0.14"/><circle cx="382.0" cy="187.4" r="1.2" fill="#c2bfb6" opacity="0.13"/><circle cx="440.0" cy="187.0" r="0.5" fill="#68655e" opacity="0.11"/><circle cx="445.4" cy="158.3" r="1.4" fill="#c2bfb6" opacity="0.21"/><circle cx="367.2" cy="150.6" r="0.6" fill="#c2bfb6" opacity="0.12"/><circle cx="374.2" cy="185.6" r="1.3" fill="#68655e" opacity="0.17"/><circle cx="427.3" cy="190.9" r="1.1" fill="#7d7a73" opacity="0.12"/><circle cx="393.8" cy="131.3" r="0.6" fill="#c2bfb6" opacity="0.14"/><circle cx="426.3" cy="148.7" r="0.7" fill="#c2bfb6" opacity="0.11"/><circle cx="377.7" cy="148.5" r="1.5" fill="#c2bfb6" opacity="0.17"/><circle cx="434.6" cy="198.5" r="1.2" fill="#c2bfb6" opacity="0.12"/><circle cx="449.2" cy="168.4" r="1.0" fill="#7d7a73" opacity="0.21"/><circle cx="367.5" cy="184.2" r="1.3" fill="#c2bfb6" opacity="0.14"/><circle cx="336.0" cy="163.2" r="0.9" fill="#7d7a73" opacity="0.2"/><circle cx="409.9" cy="126.2" r="1.1" fill="#7d7a73" opacity="0.15"/><circle cx="425.2" cy="207.9" r="0.9" fill="#c2bfb6" opacity="0.11"/><circle cx="347.0" cy="197.2" r="1.4" fill="#c2bfb6" opacity="0.12"/><circle cx="400.3" cy="137.6" r="1.0" fill="#68655e" opacity="0.15"/><circle cx="413.3" cy="181.5" r="0.5" fill="#68655e" opacity="0.15"/><circle cx="367.2" cy="155.6" r="0.5" fill="#c2bfb6" opacity="0.18"/><circle cx="355.8" cy="142.4" r="1.0" fill="#68655e" opacity="0.17"/><circle cx="340.4" cy="200.8" r="1.4" fill="#68655e" opacity="0.17"/><circle cx="368.1" cy="132.1" r="0.9" fill="#c2bfb6" opacity="0.17"/><circle cx="370.8" cy="131.5" r="0.8" fill="#c2bfb6" opacity="0.1"/><circle cx="397.2" cy="124.8" r="0.9" fill="#68655e" opacity="0.2"/><circle cx="449.6" cy="172.9" r="0.6" fill="#7d7a73" opacity="0.19"/><circle cx="360.7" cy="120.1" r="1.2" fill="#c2bfb6" opacity="0.2"/><circle cx="386.5" cy="124.4" r="1.0" fill="#7d7a73" opacity="0.11"/><circle cx="416.3" cy="190.5" r="0.9" fill="#68655e" opacity="0.2"/><circle cx="371.9" cy="137.8" r="1.0" fill="#68655e" opacity="0.12"/><circle cx="374.5" cy="139.6" r="0.6" fill="#c2bfb6" opacity="0.18"/><circle cx="340.4" cy="152.4" r="0.7" fill="#c2bfb6" opacity="0.11"/><circle cx="374.9" cy="216.0" r="0.6" fill="#68655e" opacity="0.2"/><circle cx="425.4" cy="184.6" r="0.7" fill="#7d7a73" opacity="0.11"/><circle cx="338.2" cy="147.5" r="1.2" fill="#68655e" opacity="0.14"/><circle cx="349.7" cy="186.4" r="0.8" fill="#7d7a73" opacity="0.13"/><circle cx="341.9" cy="134.2" r="0.9" fill="#7d7a73" opacity="0.12"/><circle cx="376.9" cy="207.9" r="0.7" fill="#68655e" opacity="0.12"/><circle cx="348.6" cy="142.9" r="0.8" fill="#68655e" opacity="0.11"/><circle cx="412.0" cy="161.9" r="1.5" fill="#68655e" opacity="0.13"/><circle cx="419.4" cy="131.7" r="1.4" fill="#7d7a73" opacity="0.17"/><circle cx="406.8" cy="119.1" r="0.7" fill="#7d7a73" opacity="0.12"/><circle cx="410.2" cy="180.0" r="1.3" fill="#68655e" opacity="0.16"/><circle cx="357.1" cy="179.5" r="1.2" fill="#7d7a73" opacity="0.21"/><circle cx="437.3" cy="156.2" r="0.9" fill="#7d7a73" opacity="0.2"/><circle cx="401.9" cy="198.0" r="1.0" fill="#7d7a73" opacity="0.18"/><circle cx="389.2" cy="151.8" r="1.4" fill="#c2bfb6" opacity="0.16"/><circle cx="451.4" cy="170.0" r="0.6" fill="#c2bfb6" opacity="0.1"/><circle cx="363.3" cy="190.2" r="0.6" fill="#68655e" opacity="0.18"/><circle cx="383.9" cy="138.1" r="1.3" fill="#7d7a73" opacity="0.22"/><circle cx="390.2" cy="143.3" r="0.9" fill="#c2bfb6" opacity="0.13"/><circle cx="338.2" cy="168.4" r="1.1" fill="#7d7a73" opacity="0.14"/><circle cx="360.3" cy="212.0" r="0.9" fill="#68655e" opacity="0.12"/><circle cx="422.2" cy="165.4" r="0.6" fill="#68655e" opacity="0.13"/><circle cx="425.3" cy="189.9" r="1.0" fill="#7d7a73" opacity="0.15"/><circle cx="407.2" cy="161.2" r="0.6" fill="#c2bfb6" opacity="0.11"/><circle cx="399.7" cy="148.9" r="0.5" fill="#7d7a73" opacity="0.17"/><circle cx="445.7" cy="154.0" r="0.6" fill="#7d7a73" opacity="0.13"/><circle cx="430.8" cy="162.0" r="1.0" fill="#c2bfb6" opacity="0.21"/><circle cx="343.6" cy="138.3" r="1.0" fill="#c2bfb6" opacity="0.11"/><circle cx="347.2" cy="198.8" r="1.4" fill="#c2bfb6" opacity="0.21"/><circle cx="364.1" cy="130.8" r="0.5" fill="#68655e" opacity="0.1"/><circle cx="394.9" cy="132.4" r="1.4" fill="#c2bfb6" opacity="0.15"/><circle cx="444.0" cy="167.7" r="0.6" fill="#c2bfb6" opacity="0.19"/><circle cx="336.0" cy="193.9" r="0.7" fill="#c2bfb6" opacity="0.15"/><circle cx="384.4" cy="206.0" r="0.5" fill="#c2bfb6" opacity="0.18"/><circle cx="396.5" cy="119.7" r="0.6" fill="#7d7a73" opacity="0.15"/><circle cx="436.7" cy="136.4" r="1.1" fill="#7d7a73" opacity="0.19"/><circle cx="355.0" cy="169.2" r="0.6" fill="#c2bfb6" opacity="0.13"/><circle cx="442.7" cy="142.0" r="0.5" fill="#7d7a73" opacity="0.2"/><circle cx="409.3" cy="178.4" r="0.9" fill="#68655e" opacity="0.18"/><circle cx="415.8" cy="200.8" r="1.1" fill="#68655e" opacity="0.13"/><circle cx="420.9" cy="189.8" r="0.9" fill="#c2bfb6" opacity="0.16"/><circle cx="336.9" cy="141.0" r="1.5" fill="#7d7a73" opacity="0.12"/><circle cx="396.9" cy="168.7" r="0.6" fill="#c2bfb6" opacity="0.16"/><circle cx="388.5" cy="163.2" r="0.9" fill="#7d7a73" opacity="0.16"/><circle cx="347.5" cy="136.2" r="1.3" fill="#7d7a73" opacity="0.13"/><circle cx="369.3" cy="118.9" r="1.1" fill="#7d7a73" opacity="0.15"/><circle cx="407.4" cy="179.8" r="1.1" fill="#c2bfb6" opacity="0.13"/><circle cx="348.5" cy="146.5" r="1.5" fill="#c2bfb6" opacity="0.14"/><circle cx="420.0" cy="214.7" r="1.1" fill="#7d7a73" opacity="0.11"/><circle cx="401.5" cy="210.7" r="1.4" fill="#7d7a73" opacity="0.14"/><circle cx="336.4" cy="151.7" r="1.0" fill="#7d7a73" opacity="0.11"/><circle cx="436.6" cy="169.0" r="1.0" fill="#68655e" opacity="0.11"/><circle cx="420.9" cy="185.1" r="0.9" fill="#7d7a73" opacity="0.14"/><circle cx="407.2" cy="132.3" r="1.2" fill="#7d7a73" opacity="0.13"/><circle cx="413.4" cy="129.2" r="0.7" fill="#c2bfb6" opacity="0.19"/><circle cx="375.8" cy="126.9" r="1.4" fill="#c2bfb6" opacity="0.2"/><circle cx="351.2" cy="144.6" r="0.9" fill="#68655e" opacity="0.11"/><circle cx="340.3" cy="180.7" r="1.0" fill="#68655e" opacity="0.19"/><circle cx="436.2" cy="178.6" r="0.9" fill="#7d7a73" opacity="0.16"/><circle cx="345.9" cy="182.9" r="1.4" fill="#68655e" opacity="0.11"/><circle cx="437.2" cy="186.1" r="0.5" fill="#7d7a73" opacity="0.19"/><circle cx="375.1" cy="206.2" r="1.2" fill="#68655e" opacity="0.11"/><circle cx="354.5" cy="127.8" r="0.9" fill="#7d7a73" opacity="0.14"/><circle cx="357.5" cy="176.8" r="1.0" fill="#c2bfb6" opacity="0.21"/><circle cx="366.1" cy="172.7" r="1.4" fill="#7d7a73" opacity="0.14"/><circle cx="357.9" cy="143.6" r="0.9" fill="#7d7a73" opacity="0.11"/><circle cx="346.4" cy="187.9" r="0.9" fill="#68655e" opacity="0.12"/><circle cx="412.0" cy="156.3" r="0.9" fill="#68655e" opacity="0.16"/><circle cx="410.1" cy="156.8" r="1.1" fill="#c2bfb6" opacity="0.16"/><circle cx="417.5" cy="160.1" r="1.2" fill="#7d7a73" opacity="0.15"/><circle cx="402.1" cy="118.1" r="1.1" fill="#c2bfb6" opacity="0.12"/><circle cx="339.1" cy="191.2" r="0.8" fill="#68655e" opacity="0.16"/><circle cx="351.5" cy="125.8" r="1.2" fill="#7d7a73" opacity="0.11"/><circle cx="437.7" cy="197.6" r="1.3" fill="#c2bfb6" opacity="0.17"/><circle cx="448.2" cy="185.0" r="0.7" fill="#c2bfb6" opacity="0.14"/><circle cx="391.9" cy="150.4" r="1.4" fill="#c2bfb6" opacity="0.14"/><circle cx="380.5" cy="199.3" r="0.6" fill="#c2bfb6" opacity="0.14"/><circle cx="415.6" cy="217.1" r="1.4" fill="#68655e" opacity="0.15"/><circle cx="421.8" cy="189.9" r="0.9" fill="#7d7a73" opacity="0.21"/><circle cx="341.6" cy="156.5" r="1.0" fill="#68655e" opacity="0.19"/><circle cx="430.0" cy="155.3" r="0.7" fill="#7d7a73" opacity="0.13"/><circle cx="375.6" cy="156.6" r="1.5" fill="#68655e" opacity="0.15"/><circle cx="360.1" cy="179.2" r="1.0" fill="#68655e" opacity="0.18"/>
<circle cx="367.6" cy="180.8" r="4.5" fill="#8f8c85" opacity="0.65"/><circle cx="367.6" cy="180.8" r="4.5" fill="none" stroke="#66635c" stroke-width="0.7" opacity="0.55"/><circle cx="366.5" cy="179.7" r="2.2" fill="#b4b1a8" opacity="0.4"/>
<circle cx="393.2" cy="187.2" r="3.5" fill="#8f8c85" opacity="0.65"/><circle cx="393.2" cy="187.2" r="3.5" fill="none" stroke="#66635c" stroke-width="0.6" opacity="0.55"/><circle cx="392.3" cy="186.3" r="1.8" fill="#b4b1a8" opacity="0.4"/>
<circle cx="409.2" cy="185.9" r="3.2" fill="#8f8c85" opacity="0.65"/><circle cx="409.2" cy="185.9" r="3.2" fill="none" stroke="#66635c" stroke-width="0.5" opacity="0.55"/><circle cx="408.4" cy="185.1" r="1.6" fill="#b4b1a8" opacity="0.4"/>
<circle cx="380.4" cy="158.4" r="3.2" fill="#8f8c85" opacity="0.65"/><circle cx="380.4" cy="158.4" r="3.2" fill="none" stroke="#66635c" stroke-width="0.5" opacity="0.55"/><circle cx="379.6" cy="157.6" r="1.6" fill="#b4b1a8" opacity="0.4"/>
<circle cx="412.4" cy="168.0" r="2.9" fill="#8f8c85" opacity="0.65"/><circle cx="412.4" cy="168.0" r="2.9" fill="none" stroke="#66635c" stroke-width="0.5" opacity="0.55"/><circle cx="411.7" cy="167.3" r="1.4" fill="#b4b1a8" opacity="0.4"/>
<circle cx="372.1" cy="148.8" r="8.3" fill="#eeece4" opacity="0.5"/>
<circle cx="370.8" cy="150.1" r="4.5" fill="#f6f5ee" opacity="0.85"/>
</g>
<path d="M454.3 158.7 Q455.3 168.0 452.5 176.7 Q449.7 185.4 447.0 194.5 Q444.4 203.5 436.0 209.1 Q427.6 214.6 418.3 217.6 Q409.0 220.6 399.5 224.2 Q390.0 227.9 380.1 225.3 Q370.2 222.8 363.2 216.4 Q356.1 209.9 351.8 202.9 Q347.5 195.8 342.6 189.5 Q337.7 183.3 335.0 175.7 Q332.4 168.0 332.3 159.5 Q332.2 151.1 335.2 142.6 Q338.2 134.1 344.7 127.1 Q351.3 120.0 360.8 116.9 Q370.4 113.8 380.2 111.5 Q390.0 109.2 399.9 111.2 Q409.8 113.2 418.1 118.0 Q426.5 122.8 434.1 128.5 Q441.8 134.1 447.5 141.8 Q453.3 149.5 454.3 158.7 Z" fill="none" stroke="#65625b" stroke-width="0.8" opacity="0.72"/></g>
</svg>