<svg xmlns="http://www.w3.org/2000/svg" viewBox="381 347 18 18" width="18" height="18">
<g id="vesta-small"><clipPath id="ve390_356"><path d="M398.5 354.8 Q398.7 356.0 398.3 357.2 Q397.9 358.3 397.6 359.5 Q397.2 360.7 396.1 361.5 Q395.0 362.2 393.8 362.6 Q392.5 363.0 391.3 363.5 Q390.0 364.0 388.7 363.6 Q387.4 363.3 386.4 362.4 Q385.5 361.6 384.9 360.6 Q384.4 359.7 383.7 358.9 Q383.0 358.0 382.7 357.0 Q382.4 356.0 382.3 354.9 Q382.3 353.8 382.7 352.6 Q383.1 351.5 384.0 350.6 Q384.9 349.6 386.1 349.2 Q387.4 348.8 388.7 348.5 Q390.0 348.2 391.3 348.5 Q392.6 348.7 393.7 349.4 Q394.8 350.0 395.9 350.8 Q396.9 351.5 397.6 352.5 Q398.4 353.5 398.5 354.8 Z"/></clipPath>
<g clip-path="url(#ve390_356)">
<rect x="379.8" y="345.8" width="20.4" height="20.4" fill="#9c9992"/>
<circle cx="385.5" cy="352.1" r="1.3" fill="#7d7a73" opacity="0.31"/><circle cx="390.0" cy="357.5" r="0.6" fill="#7d7a73" opacity="0.27"/><circle cx="390.1" cy="360.8" r="0.5" fill="#7d7a73" opacity="0.23"/><circle cx="388.7" cy="362.1" r="0.7" fill="#c2bfb6" opacity="0.31"/><circle cx="393.7" cy="359.9" r="0.6" fill="#7d7a73" opacity="0.34"/><circle cx="396.4" cy="356.2" r="1.4" fill="#7d7a73" opacity="0.24"/><circle cx="395.2" cy="354.9" r="0.7" fill="#7d7a73" opacity="0.34"/><circle cx="392.3" cy="362.0" r="0.8" fill="#c2bfb6" opacity="0.25"/><circle cx="391.4" cy="358.1" r="0.8" fill="#7d7a73" opacity="0.31"/><circle cx="385.2" cy="353.4" r="0.6" fill="#c2bfb6" opacity="0.25"/><circle cx="387.9" cy="361.1" r="1.0" fill="#7d7a73" opacity="0.3"/><circle cx="396.7" cy="358.3" r="1.4" fill="#7d7a73" opacity="0.25"/><circle cx="385.6" cy="358.7" r="0.9" fill="#c2bfb6" opacity="0.28"/><circle cx="391.6" cy="356.1" r="1.1" fill="#7d7a73" opacity="0.33"/><circle cx="392.6" cy="358.2" r="0.8" fill="#c2bfb6" opacity="0.25"/><circle cx="383.7" cy="355.1" r="1.1" fill="#7d7a73" opacity="0.31"/><circle cx="387.4" cy="358.6" r="1.4" fill="#c2bfb6" opacity="0.21"/><circle cx="387.0" cy="360.3" r="0.8" fill="#7d7a73" opacity="0.33"/><circle cx="386.1" cy="355.0" r="0.8" fill="#c2bfb6" opacity="0.31"/><circle cx="385.7" cy="352.1" r="1.5" fill="#c2bfb6" opacity="0.22"/><circle cx="396.8" cy="357.9" r="0.5" fill="#c2bfb6" opacity="0.3"/><circle cx="388.0" cy="358.7" r="0.6" fill="#c2bfb6" opacity="0.34"/><circle cx="385.8" cy="351.6" r="1.3" fill="#c2bfb6" opacity="0.22"/><circle cx="389.2" cy="349.7" r="0.6" fill="#c2bfb6" opacity="0.26"/>
<circle cx="387.9" cy="353.9" r="1.0" fill="#f4f2ea" opacity="0.8"/>
</g>
<path d="M398.5 354.8 Q398.7 356.0 398.3 357.2 Q397.9 358.3 397.6 359.5 Q397.2 360.7 396.1 361.5 Q395.0 362.2 393.8 362.6 Q392.5 363.0 391.3 363.5 Q390.0 364.0 388.7 363.6 Q387.4 363.3 386.4 362.4 Q385.5 361.6 384.9 360.6 Q384.4 359.7 383.7 358.9 Q383.0 358.0 382.7 357.0 Q382.4 356.0 382.3 354.9 Q382.3 353.8 382.7 352.6 Q383.1 351.5 384.0 350.6 Q384.9 349.6 386.1 349.2 Q387.4 348.8 388.7 348.5 Q390.0 348.2 391.3 348.5 Q392.6 348.7 393.7 349.4 Q394.8 350.0 395.9 350.8 Q396.9 351.5 397.6 352.5 Q398.4 353.5 398.5 354.8 Z" fill="none" stroke="#65625b" stroke-width="0.6" opacity="0.72"/></g>
</svg>